<svg width="22" height="21" viewBox="0 0 22 21" fill="none" xmlns="http://www.w3.org/2000/svg">
    <path
        d="M2 20.5C1.45 20.5 0.979167 20.3042 0.5875 19.9125C0.195833 19.5208 0 19.05 0 18.5V6.5C0 5.95 0.195833 5.47917 0.5875 5.0875C0.979167 4.69583 1.45 4.5 2 4.5H5.15L6.4 3.15C6.58333 2.95 6.80417 2.79167 7.0625 2.675C7.32083 2.55833 7.59167 2.5 7.875 2.5H12C12.2833 2.5 12.5208 2.59583 12.7125 2.7875C12.9042 2.97917 13 3.21667 13 3.5C13 3.78333 12.9042 4.02083 12.7125 4.2125C12.5208 4.40417 12.2833 4.5 12 4.5H7.875L6.05 6.5H2V18.5H18V10.5C18 10.2167 18.0958 9.97917 18.2875 9.7875C18.4792 9.59583 18.7167 9.5 19 9.5C19.2833 9.5 19.5208 9.59583 19.7125 9.7875C19.9042 9.97917 20 10.2167 20 10.5V18.5C20 19.05 19.8042 19.5208 19.4125 19.9125C19.0208 20.3042 18.55 20.5 18 20.5H2ZM18 4.5H17C16.7167 4.5 16.4792 4.40417 16.2875 4.2125C16.0958 4.02083 16 3.78333 16 3.5C16 3.21667 16.0958 2.97917 16.2875 2.7875C16.4792 2.59583 16.7167 2.5 17 2.5H18V1.5C18 1.21667 18.0958 0.979167 18.2875 0.7875C18.4792 0.595833 18.7167 0.5 19 0.5C19.2833 0.5 19.5208 0.595833 19.7125 0.7875C19.9042 0.979167 20 1.21667 20 1.5V2.5H21C21.2833 2.5 21.5208 2.59583 21.7125 2.7875C21.9042 2.97917 22 3.21667 22 3.5C22 3.78333 21.9042 4.02083 21.7125 4.2125C21.5208 4.40417 21.2833 4.5 21 4.5H20V5.5C20 5.78333 19.9042 6.02083 19.7125 6.2125C19.5208 6.40417 19.2833 6.5 19 6.5C18.7167 6.5 18.4792 6.40417 18.2875 6.2125C18.0958 6.02083 18 5.78333 18 5.5V4.5ZM10 17C11.25 17 12.3125 16.5625 13.1875 15.6875C14.0625 14.8125 14.5 13.75 14.5 12.5C14.5 11.25 14.0625 10.1875 13.1875 9.3125C12.3125 8.4375 11.25 8 10 8C8.75 8 7.6875 8.4375 6.8125 9.3125C5.9375 10.1875 5.5 11.25 5.5 12.5C5.5 13.75 5.9375 14.8125 6.8125 15.6875C7.6875 16.5625 8.75 17 10 17ZM10 15C9.3 15 8.70833 14.7583 8.225 14.275C7.74167 13.7917 7.5 13.2 7.5 12.5C7.5 11.8 7.74167 11.2083 8.225 10.725C8.70833 10.2417 9.3 10 10 10C10.7 10 11.2917 10.2417 11.775 10.725C12.2583 11.2083 12.5 11.8 12.5 12.5C12.5 13.2 12.2583 13.7917 11.775 14.275C11.2917 14.7583 10.7 15 10 15Z"
        fill="#212121" />
</svg>