<svg width="60" height="61" viewBox="0 0 60 61" fill="none" xmlns="http://www.w3.org/2000/svg">
<g id=".Misc">
<mask id="mask0_22620_20652" style="mask-type:alpha" maskUnits="userSpaceOnUse" x="0" y="0" width="60" height="61">
<rect id="Bounding box" y="0.5" width="60" height="60" fill="#D9D9D9"/>
</mask>
<g mask="url(#mask0_22620_20652)">
<path id="add_a_photo" d="M7.5 53C6.125 53 4.94792 52.5104 3.96875 51.5312C2.98958 50.5521 2.5 49.375 2.5 48V18C2.5 16.625 2.98958 15.4479 3.96875 14.4687C4.94792 13.4896 6.125 13 7.5 13H15.375L18.5 9.625C18.9583 9.125 19.5104 8.72917 20.1562 8.4375C20.8021 8.14583 21.4792 8 22.1875 8H32.5C33.2083 8 33.8021 8.23958 34.2812 8.71875C34.7604 9.19792 35 9.79167 35 10.5C35 11.2083 34.7604 11.8021 34.2812 12.2812C33.8021 12.7604 33.2083 13 32.5 13H22.1875L17.625 18H7.5V48H47.5V28C47.5 27.2917 47.7396 26.6979 48.2187 26.2187C48.6979 25.7396 49.2917 25.5 50 25.5C50.7083 25.5 51.3021 25.7396 51.7812 26.2187C52.2604 26.6979 52.5 27.2917 52.5 28V48C52.5 49.375 52.0104 50.5521 51.0312 51.5312C50.0521 52.5104 48.875 53 47.5 53H7.5ZM47.5 13H45C44.2917 13 43.6979 12.7604 43.2187 12.2812C42.7396 11.8021 42.5 11.2083 42.5 10.5C42.5 9.79167 42.7396 9.19792 43.2187 8.71875C43.6979 8.23958 44.2917 8 45 8H47.5V5.5C47.5 4.79167 47.7396 4.19792 48.2187 3.71875C48.6979 3.23958 49.2917 3 50 3C50.7083 3 51.3021 3.23958 51.7812 3.71875C52.2604 4.19792 52.5 4.79167 52.5 5.5V8H55C55.7083 8 56.3021 8.23958 56.7812 8.71875C57.2604 9.19792 57.5 9.79167 57.5 10.5C57.5 11.2083 57.2604 11.8021 56.7812 12.2812C56.3021 12.7604 55.7083 13 55 13H52.5V15.5C52.5 16.2083 52.2604 16.8021 51.7812 17.2812C51.3021 17.7604 50.7083 18 50 18C49.2917 18 48.6979 17.7604 48.2187 17.2812C47.7396 16.8021 47.5 16.2083 47.5 15.5V13ZM27.5 44.25C30.625 44.25 33.2812 43.1562 35.4687 40.9687C37.6562 38.7812 38.75 36.125 38.75 33C38.75 29.875 37.6562 27.2187 35.4687 25.0312C33.2812 22.8437 30.625 21.75 27.5 21.75C24.375 21.75 21.7187 22.8437 19.5312 25.0312C17.3437 27.2187 16.25 29.875 16.25 33C16.25 36.125 17.3437 38.7812 19.5312 40.9687C21.7187 43.1562 24.375 44.25 27.5 44.25ZM27.5 39.25C25.75 39.25 24.2708 38.6458 23.0625 37.4375C21.8542 36.2292 21.25 34.75 21.25 33C21.25 31.25 21.8542 29.7708 23.0625 28.5625C24.2708 27.3542 25.75 26.75 27.5 26.75C29.25 26.75 30.7292 27.3542 31.9375 28.5625C33.1458 29.7708 33.75 31.25 33.75 33C33.75 34.75 33.1458 36.2292 31.9375 37.4375C30.7292 38.6458 29.25 39.25 27.5 39.25Z" fill="#069550"/>
</g>
</g>
</svg>
