<svg width="24" height="24" viewBox="0 0 24 24" fill="none" xmlns="http://www.w3.org/2000/svg">
<g clip-path="url(#clip0_4100_85753)">
<path fill-rule="evenodd" clip-rule="evenodd" d="M5.81284 5.32004C6.301 4.83189 7.1716 4.91103 7.75739 5.49682L18.364 16.1034C18.9498 16.6892 19.0289 17.5598 18.5408 18.048C18.0526 18.5361 17.182 18.457 16.5962 17.8712L5.98962 7.26459C5.40383 6.6788 5.32469 5.8082 5.81284 5.32004Z" fill="#212121"/>
<path fill-rule="evenodd" clip-rule="evenodd" d="M18.5407 5.32004C19.0289 5.8082 18.9497 6.6788 18.3639 7.26459L7.75733 17.8712C7.17154 18.457 6.30094 18.5361 5.81278 18.048C5.32463 17.5598 5.40377 16.6892 5.98956 16.1034L16.5962 5.49682C17.1819 4.91103 18.0525 4.83189 18.5407 5.32004Z" fill="#212121"/>
</g>
<defs>
<clipPath id="clip0_4100_85753">
<rect width="24" height="24" fill="white"/>
</clipPath>
</defs>
</svg>
