<svg width="10" height="14" viewBox="0 0 10 14" fill="none" xmlns="http://www.w3.org/2000/svg">
    <path
        d="M5.00004 13.6667C3.82226 13.6667 2.86115 13.4806 2.11671 13.1083C1.37226 12.7361 1.00004 12.2556 1.00004 11.6667C1.00004 11.4556 1.04726 11.2611 1.14171 11.0833C1.23615 10.9056 1.37782 10.7389 1.56671 10.5833C1.72226 10.4722 1.89171 10.4278 2.07504 10.45C2.25837 10.4722 2.4056 10.5611 2.51671 10.7167C2.62782 10.8722 2.66949 11.0417 2.64171 11.225C2.61393 11.4083 2.52226 11.5556 2.36671 11.6667C2.51115 11.8445 2.84449 12 3.36671 12.1333C3.88893 12.2667 4.43337 12.3333 5.00004 12.3333C5.56671 12.3333 6.11115 12.2667 6.63337 12.1333C7.1556 12 7.48893 11.8445 7.63337 11.6667C7.47782 11.5556 7.38615 11.4083 7.35837 11.225C7.3306 11.0417 7.37226 10.8722 7.48337 10.7167C7.59449 10.5611 7.74171 10.4722 7.92504 10.45C8.10837 10.4278 8.27782 10.4722 8.43337 10.5833C8.62226 10.7389 8.76393 10.9056 8.85837 11.0833C8.95282 11.2611 9.00004 11.4556 9.00004 11.6667C9.00004 12.2556 8.62782 12.7361 7.88337 13.1083C7.13893 13.4806 6.17782 13.6667 5.00004 13.6667ZM5.01671 10C6.11671 9.1889 6.94449 8.37501 7.50004 7.55834C8.0556 6.74168 8.33337 5.92223 8.33337 5.10001C8.33337 3.96668 7.97226 3.11112 7.25004 2.53334C6.52782 1.95557 5.77782 1.66668 5.00004 1.66668C4.22226 1.66668 3.47226 1.95557 2.75004 2.53334C2.02782 3.11112 1.66671 3.96668 1.66671 5.10001C1.66671 5.84445 1.93893 6.61945 2.48337 7.42501C3.02782 8.23057 3.87226 9.0889 5.01671 10ZM5.00004 11.35C4.86671 11.35 4.73337 11.3278 4.60004 11.2833C4.46671 11.2389 4.34449 11.1722 4.23337 11.0833C2.92226 10.0389 1.94449 9.01945 1.30004 8.02501C0.655596 7.03057 0.333374 6.05557 0.333374 5.10001C0.333374 4.31112 0.475041 3.61945 0.758374 3.02501C1.04171 2.43057 1.4056 1.93334 1.85004 1.53334C2.29449 1.13334 2.79449 0.833344 3.35004 0.633344C3.9056 0.433344 4.4556 0.333344 5.00004 0.333344C5.54449 0.333344 6.09449 0.433344 6.65004 0.633344C7.2056 0.833344 7.7056 1.13334 8.15004 1.53334C8.59449 1.93334 8.95837 2.43057 9.24171 3.02501C9.52504 3.61945 9.66671 4.31112 9.66671 5.10001C9.66671 6.05557 9.34449 7.03057 8.70004 8.02501C8.0556 9.01945 7.07782 10.0389 5.76671 11.0833C5.6556 11.1722 5.53337 11.2389 5.40004 11.2833C5.26671 11.3278 5.13337 11.35 5.00004 11.35ZM5.00004 6.33334C5.36671 6.33334 5.6806 6.20279 5.94171 5.94168C6.20282 5.68057 6.33337 5.36668 6.33337 5.00001C6.33337 4.63334 6.20282 4.31945 5.94171 4.05834C5.6806 3.79723 5.36671 3.66668 5.00004 3.66668C4.63337 3.66668 4.31949 3.79723 4.05837 4.05834C3.79726 4.31945 3.66671 4.63334 3.66671 5.00001C3.66671 5.36668 3.79726 5.68057 4.05837 5.94168C4.31949 6.20279 4.63337 6.33334 5.00004 6.33334Z"
        fill="#069550" />
</svg>