<svg width="24" height="24" viewBox="0 0 24 24" fill="none" xmlns="http://www.w3.org/2000/svg">
<g clip-path="url(#clip0_6630_66291)">
<rect width="24" height="24" rx="12" fill="#E53935"/>
<path fill-rule="evenodd" clip-rule="evenodd" d="M6.84404 6.43337C7.25083 6.02657 7.97633 6.09253 8.46449 6.58068L17.3033 15.4195C17.7915 15.9077 17.8574 16.6332 17.4506 17.04C17.0438 17.4468 16.3183 17.3808 15.8302 16.8927L6.99135 8.05382C6.50319 7.56567 6.43724 6.84017 6.84404 6.43337Z" fill="white"/>
<path fill-rule="evenodd" clip-rule="evenodd" d="M17.4506 6.43337C17.8574 6.84016 17.7914 7.56567 17.3033 8.05382L8.46443 16.8927C7.97627 17.3808 7.25077 17.4468 6.84397 17.04C6.43718 16.6332 6.50313 15.9077 6.99129 15.4195L15.8301 6.58068C16.3183 6.09253 17.0438 6.02657 17.4506 6.43337Z" fill="white"/>
</g>
<defs>
<clipPath id="clip0_6630_66291">
<rect width="24" height="24" rx="12" fill="white"/>
</clipPath>
</defs>
</svg>
