<svg width="40" height="40" viewBox="0 0 40 40" fill="none" xmlns="http://www.w3.org/2000/svg">
<mask id="mask0_22891_17774" style="mask-type:alpha" maskUnits="userSpaceOnUse" x="0" y="0" width="40" height="40">
<rect width="40" height="40" fill="#D9D9D9"/>
</mask>
<g mask="url(#mask0_22891_17774)">
<path d="M8.33333 35C7.41667 35 6.63194 34.6736 5.97917 34.0208C5.32639 33.3681 5 32.5833 5 31.6667V8.33333C5 7.41667 5.32639 6.63194 5.97917 5.97917C6.63194 5.32639 7.41667 5 8.33333 5H31.6667C32.5833 5 33.3681 5.32639 34.0208 5.97917C34.6736 6.63194 35 7.41667 35 8.33333V31.6667C35 32.5833 34.6736 33.3681 34.0208 34.0208C33.3681 34.6736 32.5833 35 31.6667 35H8.33333ZM8.33333 31.6667H31.6667V8.33333H8.33333V31.6667ZM11.6667 28.3333H28.3333C28.6667 28.3333 28.9167 28.1806 29.0833 27.875C29.25 27.5694 29.2222 27.2778 29 27L24.4167 20.875C24.25 20.6528 24.0278 20.5417 23.75 20.5417C23.4722 20.5417 23.25 20.6528 23.0833 20.875L18.75 26.6667L15.6667 22.5417C15.5 22.3194 15.2778 22.2083 15 22.2083C14.7222 22.2083 14.5 22.3194 14.3333 22.5417L11 27C10.7778 27.2778 10.75 27.5694 10.9167 27.875C11.0833 28.1806 11.3333 28.3333 11.6667 28.3333ZM14.1667 16.6667C14.8611 16.6667 15.4514 16.4236 15.9375 15.9375C16.4236 15.4514 16.6667 14.8611 16.6667 14.1667C16.6667 13.4722 16.4236 12.8819 15.9375 12.3958C15.4514 11.9097 14.8611 11.6667 14.1667 11.6667C13.4722 11.6667 12.8819 11.9097 12.3958 12.3958C11.9097 12.8819 11.6667 13.4722 11.6667 14.1667C11.6667 14.8611 11.9097 15.4514 12.3958 15.9375C12.8819 16.4236 13.4722 16.6667 14.1667 16.6667Z" fill="#212121"/>
</g>
</svg>
