<svg width="24" height="25" viewBox="0 0 24 25" fill="none" xmlns="http://www.w3.org/2000/svg">
    <mask id="mask0_23837_721019" style="mask-type:alpha" maskUnits="userSpaceOnUse" x="0" y="0" width="24" height="25">
        <rect y="0.119278" width="24" height="24" fill="#D9D9D9" />
    </mask>
    <g mask="url(#mask0_23837_721019)">
        <path
            d="M9.57499 12.1193L5.69999 8.21928C5.51665 8.03595 5.42082 7.80678 5.41249 7.53178C5.40415 7.25678 5.49999 7.01928 5.69999 6.81928C5.88332 6.63595 6.11665 6.54428 6.39999 6.54428C6.68332 6.54428 6.91665 6.63595 7.09999 6.81928L11.7 11.4193C11.8 11.5193 11.8708 11.6276 11.9125 11.7443C11.9542 11.8609 11.975 11.9859 11.975 12.1193C11.975 12.2526 11.9542 12.3776 11.9125 12.4943C11.8708 12.6109 11.8 12.7193 11.7 12.8193L7.09999 17.4193C6.91665 17.6026 6.68749 17.6984 6.41249 17.7068C6.13749 17.7151 5.89999 17.6193 5.69999 17.4193C5.51665 17.2359 5.42499 17.0026 5.42499 16.7193C5.42499 16.4359 5.51665 16.2026 5.69999 16.0193L9.57499 12.1193ZM16.175 12.1193L12.3 8.21928C12.1167 8.03595 12.0208 7.80678 12.0125 7.53178C12.0042 7.25678 12.1 7.01928 12.3 6.81928C12.4833 6.63595 12.7167 6.54428 13 6.54428C13.2833 6.54428 13.5167 6.63595 13.7 6.81928L18.3 11.4193C18.4 11.5193 18.4708 11.6276 18.5125 11.7443C18.5542 11.8609 18.575 11.9859 18.575 12.1193C18.575 12.2526 18.5542 12.3776 18.5125 12.4943C18.4708 12.6109 18.4 12.7193 18.3 12.8193L13.7 17.4193C13.5167 17.6026 13.2875 17.6984 13.0125 17.7068C12.7375 17.7151 12.5 17.6193 12.3 17.4193C12.1167 17.2359 12.025 17.0026 12.025 16.7193C12.025 16.4359 12.1167 16.2026 12.3 16.0193L16.175 12.1193Z"
            fill="#1C1B1F" />
    </g>
</svg>