<svg width="24" height="24" viewBox="0 0 24 24" fill="none" xmlns="http://www.w3.org/2000/svg">
<mask id="mask0_17604_503855" style="mask-type:alpha" maskUnits="userSpaceOnUse" x="0" y="0" width="24" height="24">
<rect width="24" height="24" fill="#D9D9D9"/>
</mask>
<g mask="url(#mask0_17604_503855)">
<path d="M1.99991 18V6C1.99991 5.45 2.19574 4.97917 2.58741 4.5875C2.97908 4.19583 3.44991 4 3.99991 4H19.9999C20.5499 4 21.0207 4.19583 21.4124 4.5875C21.8041 4.97917 21.9999 5.45 21.9999 6V18C21.9999 18.55 21.8041 19.0208 21.4124 19.4125C21.0207 19.8042 20.5499 20 19.9999 20H3.99991C3.44991 20 2.97908 19.8042 2.58741 19.4125C2.19574 19.0208 1.99991 18.55 1.99991 18ZM19.9999 11V6H3.99991V11H19.9999ZM9.99991 18H19.9999V13H9.99991V18ZM3.99991 18H7.99991V13H3.99991V18Z" fill="#212121"/>
</g>
</svg>
