<svg width="24" height="25" viewBox="0 0 24 25" fill="none" xmlns="http://www.w3.org/2000/svg">
<mask id="mask0_17677_568988" style="mask-type:alpha" maskUnits="userSpaceOnUse" x="0" y="0" width="24" height="25">
<rect y="0.119278" width="24" height="24" fill="#D9D9D9"/>
</mask>
<g mask="url(#mask0_17677_568988)">
<path d="M4 18.1193C3.71667 18.1193 3.47917 18.0234 3.2875 17.8318C3.09583 17.6401 3 17.4026 3 17.1193C3 16.8359 3.09583 16.5984 3.2875 16.4068C3.47917 16.2151 3.71667 16.1193 4 16.1193H15C15.2833 16.1193 15.5208 16.2151 15.7125 16.4068C15.9042 16.5984 16 16.8359 16 17.1193C16 17.4026 15.9042 17.6401 15.7125 17.8318C15.5208 18.0234 15.2833 18.1193 15 18.1193H4ZM18.9 16.4193L15.3 12.8193C15.1 12.6193 15 12.3859 15 12.1193C15 11.8526 15.1 11.6193 15.3 11.4193L18.9 7.81928C19.0833 7.63594 19.3167 7.54428 19.6 7.54428C19.8833 7.54428 20.1167 7.63594 20.3 7.81928C20.4833 8.00261 20.575 8.23594 20.575 8.51928C20.575 8.80261 20.4833 9.03594 20.3 9.21928L17.4 12.1193L20.3 15.0193C20.4833 15.2026 20.575 15.4359 20.575 15.7193C20.575 16.0026 20.4833 16.2359 20.3 16.4193C20.1167 16.6026 19.8833 16.6943 19.6 16.6943C19.3167 16.6943 19.0833 16.6026 18.9 16.4193ZM4 13.1193C3.71667 13.1193 3.47917 13.0234 3.2875 12.8318C3.09583 12.6401 3 12.4026 3 12.1193C3 11.8359 3.09583 11.5984 3.2875 11.4068C3.47917 11.2151 3.71667 11.1193 4 11.1193H12C12.2833 11.1193 12.5208 11.2151 12.7125 11.4068C12.9042 11.5984 13 11.8359 13 12.1193C13 12.4026 12.9042 12.6401 12.7125 12.8318C12.5208 13.0234 12.2833 13.1193 12 13.1193H4ZM4 8.11928C3.71667 8.11928 3.47917 8.02344 3.2875 7.83178C3.09583 7.64011 3 7.40261 3 7.11928C3 6.83594 3.09583 6.59844 3.2875 6.40678C3.47917 6.21511 3.71667 6.11928 4 6.11928H15C15.2833 6.11928 15.5208 6.21511 15.7125 6.40678C15.9042 6.59844 16 6.83594 16 7.11928C16 7.40261 15.9042 7.64011 15.7125 7.83178C15.5208 8.02344 15.2833 8.11928 15 8.11928H4Z" fill="#1C1B1F"/>
</g>
</svg>
