<svg width="24" height="24" viewBox="0 0 24 24" fill="none" xmlns="http://www.w3.org/2000/svg">
<path d="M12.0001 20C11.4501 20 10.9795 19.8043 10.5881 19.413C10.1961 19.021 10.0001 18.55 10.0001 18C10.0001 17.45 10.1961 16.979 10.5881 16.587C10.9795 16.1957 11.4501 16 12.0001 16C12.5501 16 13.0211 16.1957 13.4131 16.587C13.8045 16.979 14.0001 17.45 14.0001 18C14.0001 18.55 13.8045 19.021 13.4131 19.413C13.0211 19.8043 12.5501 20 12.0001 20ZM12.0001 14C11.4501 14 10.9795 13.804 10.5881 13.412C10.1961 13.0207 10.0001 12.55 10.0001 12C10.0001 11.45 10.1961 10.979 10.5881 10.587C10.9795 10.1957 11.4501 10 12.0001 10C12.5501 10 13.0211 10.1957 13.4131 10.587C13.8045 10.979 14.0001 11.45 14.0001 12C14.0001 12.55 13.8045 13.0207 13.4131 13.412C13.0211 13.804 12.5501 14 12.0001 14ZM12.0001 8C11.4501 8 10.9795 7.804 10.5881 7.412C10.1961 7.02067 10.0001 6.55 10.0001 6C10.0001 5.45 10.1961 4.97933 10.5881 4.588C10.9795 4.196 11.4501 4 12.0001 4C12.5501 4 13.0211 4.196 13.4131 4.588C13.8045 4.97933 14.0001 5.45 14.0001 6C14.0001 6.55 13.8045 7.02067 13.4131 7.412C13.0211 7.804 12.5501 8 12.0001 8Z" fill="#212121"/>
</svg>
