<svg width="24" height="24" viewBox="0 0 24 24" fill="none" xmlns="http://www.w3.org/2000/svg">
<mask id="mask0_10932_323217" style="mask-type:alpha" maskUnits="userSpaceOnUse" x="0" y="0" width="24" height="24">
<rect width="24" height="24" fill="#D9D9D9"/>
</mask>
<g mask="url(#mask0_10932_323217)">
<path d="M9.825 20.7C8.10833 20.2167 6.70833 19.2708 5.625 17.8625C4.54167 16.4542 4 14.8333 4 13C4 12.05 4.15833 11.1458 4.475 10.2875C4.79167 9.42917 5.24167 8.64167 5.825 7.925C6.00833 7.725 6.23333 7.62084 6.5 7.6125C6.76667 7.60417 7.00833 7.70834 7.225 7.925C7.40833 8.10834 7.50417 8.33334 7.5125 8.6C7.52083 8.86667 7.43333 9.11667 7.25 9.35C6.85 9.86667 6.54167 10.4333 6.325 11.05C6.10833 11.6667 6 12.3167 6 13C6 14.35 6.39583 15.5542 7.1875 16.6125C7.97917 17.6708 9 18.3917 10.25 18.775C10.4667 18.8417 10.6458 18.9667 10.7875 19.15C10.9292 19.3333 11 19.5333 11 19.75C11 20.0833 10.8833 20.3458 10.65 20.5375C10.4167 20.7292 10.1417 20.7833 9.825 20.7ZM14.175 20.7C13.8583 20.7833 13.5833 20.725 13.35 20.525C13.1167 20.325 13 20.0583 13 19.725C13 19.525 13.0708 19.3333 13.2125 19.15C13.3542 18.9667 13.5333 18.8417 13.75 18.775C15 18.375 16.0208 17.65 16.8125 16.6C17.6042 15.55 18 14.35 18 13C18 11.3333 17.4167 9.91667 16.25 8.75C15.0833 7.58334 13.6667 7 12 7H11.925L12.325 7.4C12.5083 7.58334 12.6 7.81667 12.6 8.1C12.6 8.38334 12.5083 8.61667 12.325 8.8C12.1417 8.98334 11.9083 9.075 11.625 9.075C11.3417 9.075 11.1083 8.98334 10.925 8.8L8.825 6.7C8.725 6.6 8.65417 6.49167 8.6125 6.375C8.57083 6.25834 8.55 6.13334 8.55 6C8.55 5.86667 8.57083 5.74167 8.6125 5.625C8.65417 5.50834 8.725 5.4 8.825 5.3L10.925 3.2C11.1083 3.01667 11.3417 2.925 11.625 2.925C11.9083 2.925 12.1417 3.01667 12.325 3.2C12.5083 3.38334 12.6 3.61667 12.6 3.9C12.6 4.18334 12.5083 4.41667 12.325 4.6L11.925 5H12C14.2333 5 16.125 5.775 17.675 7.325C19.225 8.875 20 10.7667 20 13C20 14.8167 19.4583 16.4333 18.375 17.85C17.2917 19.2667 15.8917 20.2167 14.175 20.7Z" fill="#212121"/>
</g>
</svg>
