<svg width="24" height="24" viewBox="0 0 24 24" fill="none" xmlns="http://www.w3.org/2000/svg">
<mask id="mask0_17604_503854" style="mask-type:alpha" maskUnits="userSpaceOnUse" x="0" y="0" width="24" height="24">
<rect width="24" height="24" fill="#D9D9D9"/>
</mask>
<g mask="url(#mask0_17604_503854)">
<path d="M3.69982 10C3.69982 10.9667 3.86232 11.8917 4.18732 12.775C4.51232 13.6583 4.97482 14.475 5.57482 15.225C5.72482 15.4083 5.79982 15.6167 5.79982 15.85C5.79982 16.0833 5.71648 16.2833 5.54982 16.45C5.38315 16.6167 5.17898 16.6958 4.93732 16.6875C4.69565 16.6792 4.49982 16.5833 4.34982 16.4C3.59982 15.5 3.02065 14.5042 2.61232 13.4125C2.20398 12.3208 1.99982 11.1833 1.99982 10C1.99982 8.81667 2.20398 7.67917 2.61232 6.5875C3.02065 5.49583 3.59982 4.5 4.34982 3.6C4.49982 3.41667 4.69565 3.32083 4.93732 3.3125C5.17898 3.30417 5.38315 3.38333 5.54982 3.55C5.71648 3.71667 5.79982 3.91667 5.79982 4.15C5.79982 4.38333 5.72482 4.59167 5.57482 4.775C4.97482 5.525 4.51232 6.34167 4.18732 7.225C3.86232 8.10833 3.69982 9.03333 3.69982 10ZM6.99982 10C6.99982 10.5333 7.07482 11.0417 7.22482 11.525C7.37482 12.0083 7.59982 12.4667 7.89982 12.9C8.03315 13.0833 8.09982 13.2958 8.09982 13.5375C8.09982 13.7792 8.01648 13.9833 7.84982 14.15C7.68315 14.3167 7.48315 14.4 7.24982 14.4C7.01648 14.4 6.83315 14.3083 6.69982 14.125C6.24982 13.5417 5.90398 12.8958 5.66232 12.1875C5.42065 11.4792 5.29982 10.75 5.29982 10C5.29982 9.25 5.42065 8.52083 5.66232 7.8125C5.90398 7.10417 6.24982 6.45833 6.69982 5.875C6.83315 5.69167 7.01648 5.6 7.24982 5.6C7.48315 5.6 7.68315 5.68333 7.84982 5.85C8.01648 6.01667 8.09982 6.22083 8.09982 6.4625C8.09982 6.70417 8.03315 6.91667 7.89982 7.1C7.59982 7.53333 7.37482 7.99167 7.22482 8.475C7.07482 8.95833 6.99982 9.46667 6.99982 10ZM10.9998 20V12.3C10.5498 12.1 10.1873 11.7917 9.91232 11.375C9.63732 10.9583 9.49982 10.5 9.49982 10C9.49982 9.3 9.74148 8.70833 10.2248 8.225C10.7081 7.74167 11.2998 7.5 11.9998 7.5C12.6998 7.5 13.2915 7.74167 13.7748 8.225C14.2581 8.70833 14.4998 9.3 14.4998 10C14.4998 10.5 14.3623 10.9583 14.0873 11.375C13.8123 11.7917 13.4498 12.1 12.9998 12.3V20C12.9998 20.2833 12.904 20.5208 12.7123 20.7125C12.5206 20.9042 12.2831 21 11.9998 21C11.7165 21 11.479 20.9042 11.2873 20.7125C11.0956 20.5208 10.9998 20.2833 10.9998 20ZM16.9998 10C16.9998 9.46667 16.9248 8.95833 16.7748 8.475C16.6248 7.99167 16.3998 7.53333 16.0998 7.1C15.9665 6.91667 15.8998 6.70417 15.8998 6.4625C15.8998 6.22083 15.9831 6.01667 16.1498 5.85C16.3165 5.68333 16.5165 5.6 16.7498 5.6C16.9831 5.6 17.1665 5.69167 17.2998 5.875C17.7498 6.45833 18.0956 7.10417 18.3373 7.8125C18.579 8.52083 18.6998 9.25 18.6998 10C18.6998 10.75 18.579 11.4792 18.3373 12.1875C18.0956 12.8958 17.7498 13.5417 17.2998 14.125C17.1665 14.3083 16.9831 14.4 16.7498 14.4C16.5165 14.4 16.3165 14.3167 16.1498 14.15C15.9831 13.9833 15.8998 13.7792 15.8998 13.5375C15.8998 13.2958 15.9665 13.0833 16.0998 12.9C16.3998 12.4667 16.6248 12.0083 16.7748 11.525C16.9248 11.0417 16.9998 10.5333 16.9998 10ZM20.2998 10C20.2998 9.03333 20.1373 8.10833 19.8123 7.225C19.4873 6.34167 19.0248 5.525 18.4248 4.775C18.2748 4.59167 18.1998 4.38333 18.1998 4.15C18.1998 3.91667 18.2831 3.71667 18.4498 3.55C18.6165 3.38333 18.8206 3.30417 19.0623 3.3125C19.304 3.32083 19.4998 3.41667 19.6498 3.6C20.3998 4.5 20.979 5.49583 21.3873 6.5875C21.7956 7.67917 21.9998 8.81667 21.9998 10C21.9998 11.1833 21.7956 12.3208 21.3873 13.4125C20.979 14.5042 20.3998 15.5 19.6498 16.4C19.4998 16.5833 19.304 16.6792 19.0623 16.6875C18.8206 16.6958 18.6165 16.6167 18.4498 16.45C18.2831 16.2833 18.1998 16.0833 18.1998 15.85C18.1998 15.6167 18.2748 15.4083 18.4248 15.225C19.0248 14.475 19.4873 13.6583 19.8123 12.775C20.1373 11.8917 20.2998 10.9667 20.2998 10Z" fill="#212121"/>
</g>
</svg>
