<svg width="24" height="24" viewBox="0 0 24 24" fill="none" xmlns="http://www.w3.org/2000/svg">
<mask id="mask0_13045_236362" style="mask-type:alpha" maskUnits="userSpaceOnUse" x="0" y="0" width="24" height="24">
<rect width="24" height="24" fill="#D9D9D9"/>
</mask>
<g mask="url(#mask0_13045_236362)">
<path d="M3.7 10C3.7 10.9667 3.8625 11.8917 4.1875 12.775C4.5125 13.6583 4.975 14.475 5.575 15.225C5.725 15.4083 5.8 15.6167 5.8 15.85C5.8 16.0833 5.71667 16.2833 5.55 16.45C5.38333 16.6167 5.17917 16.6958 4.9375 16.6875C4.69583 16.6792 4.5 16.5833 4.35 16.4C3.6 15.5 3.02083 14.5042 2.6125 13.4125C2.20417 12.3208 2 11.1833 2 10C2 8.81667 2.20417 7.67917 2.6125 6.5875C3.02083 5.49583 3.6 4.5 4.35 3.6C4.5 3.41667 4.69583 3.32083 4.9375 3.3125C5.17917 3.30417 5.38333 3.38333 5.55 3.55C5.71667 3.71667 5.8 3.91667 5.8 4.15C5.8 4.38333 5.725 4.59167 5.575 4.775C4.975 5.525 4.5125 6.34167 4.1875 7.225C3.8625 8.10833 3.7 9.03333 3.7 10ZM7 10C7 10.5333 7.075 11.0417 7.225 11.525C7.375 12.0083 7.6 12.4667 7.9 12.9C8.03333 13.0833 8.1 13.2958 8.1 13.5375C8.1 13.7792 8.01667 13.9833 7.85 14.15C7.68333 14.3167 7.48333 14.4 7.25 14.4C7.01667 14.4 6.83333 14.3083 6.7 14.125C6.25 13.5417 5.90417 12.8958 5.6625 12.1875C5.42083 11.4792 5.3 10.75 5.3 10C5.3 9.25 5.42083 8.52083 5.6625 7.8125C5.90417 7.10417 6.25 6.45833 6.7 5.875C6.83333 5.69167 7.01667 5.6 7.25 5.6C7.48333 5.6 7.68333 5.68333 7.85 5.85C8.01667 6.01667 8.1 6.22083 8.1 6.4625C8.1 6.70417 8.03333 6.91667 7.9 7.1C7.6 7.53333 7.375 7.99167 7.225 8.475C7.075 8.95833 7 9.46667 7 10ZM11 20V12.3C10.55 12.1 10.1875 11.7917 9.9125 11.375C9.6375 10.9583 9.5 10.5 9.5 10C9.5 9.3 9.74167 8.70833 10.225 8.225C10.7083 7.74167 11.3 7.5 12 7.5C12.7 7.5 13.2917 7.74167 13.775 8.225C14.2583 8.70833 14.5 9.3 14.5 10C14.5 10.5 14.3625 10.9583 14.0875 11.375C13.8125 11.7917 13.45 12.1 13 12.3V20C13 20.2833 12.9042 20.5208 12.7125 20.7125C12.5208 20.9042 12.2833 21 12 21C11.7167 21 11.4792 20.9042 11.2875 20.7125C11.0958 20.5208 11 20.2833 11 20ZM17 10C17 9.46667 16.925 8.95833 16.775 8.475C16.625 7.99167 16.4 7.53333 16.1 7.1C15.9667 6.91667 15.9 6.70417 15.9 6.4625C15.9 6.22083 15.9833 6.01667 16.15 5.85C16.3167 5.68333 16.5167 5.6 16.75 5.6C16.9833 5.6 17.1667 5.69167 17.3 5.875C17.75 6.45833 18.0958 7.10417 18.3375 7.8125C18.5792 8.52083 18.7 9.25 18.7 10C18.7 10.75 18.5792 11.4792 18.3375 12.1875C18.0958 12.8958 17.75 13.5417 17.3 14.125C17.1667 14.3083 16.9833 14.4 16.75 14.4C16.5167 14.4 16.3167 14.3167 16.15 14.15C15.9833 13.9833 15.9 13.7792 15.9 13.5375C15.9 13.2958 15.9667 13.0833 16.1 12.9C16.4 12.4667 16.625 12.0083 16.775 11.525C16.925 11.0417 17 10.5333 17 10ZM20.3 10C20.3 9.03333 20.1375 8.10833 19.8125 7.225C19.4875 6.34167 19.025 5.525 18.425 4.775C18.275 4.59167 18.2 4.38333 18.2 4.15C18.2 3.91667 18.2833 3.71667 18.45 3.55C18.6167 3.38333 18.8208 3.30417 19.0625 3.3125C19.3042 3.32083 19.5 3.41667 19.65 3.6C20.4 4.5 20.9792 5.49583 21.3875 6.5875C21.7958 7.67917 22 8.81667 22 10C22 11.1833 21.7958 12.3208 21.3875 13.4125C20.9792 14.5042 20.4 15.5 19.65 16.4C19.5 16.5833 19.3042 16.6792 19.0625 16.6875C18.8208 16.6958 18.6167 16.6167 18.45 16.45C18.2833 16.2833 18.2 16.0833 18.2 15.85C18.2 15.6167 18.275 15.4083 18.425 15.225C19.025 14.475 19.4875 13.6583 19.8125 12.775C20.1375 11.8917 20.3 10.9667 20.3 10Z" fill="#212121"/>
</g>
</svg>
