<svg width="24" height="24" viewBox="0 0 24 24" fill="none" xmlns="http://www.w3.org/2000/svg">
<mask id="mask0_13045_236363" style="mask-type:alpha" maskUnits="userSpaceOnUse" x="0" y="0" width="24" height="24">
<rect width="24" height="24" fill="#D9D9D9"/>
</mask>
<g mask="url(#mask0_13045_236363)">
<path d="M18.7 10C18.7 10.6333 18.6083 11.2583 18.425 11.875C18.2416 12.4917 17.9666 13.0667 17.6 13.6C17.4666 13.7833 17.2875 13.8792 17.0625 13.8875C16.8375 13.8958 16.6333 13.8083 16.45 13.625C16.2833 13.4583 16.2 13.2583 16.2 13.025C16.2 12.7917 16.2666 12.575 16.4 12.375C16.6 12.0083 16.75 11.625 16.85 11.225C16.95 10.825 17 10.4167 17 10C17 9.48333 16.9166 8.98333 16.75 8.5C16.5833 8.01667 16.35 7.56667 16.05 7.15C15.9166 6.95 15.85 6.73333 15.85 6.5C15.85 6.26667 15.9333 6.06667 16.1 5.9C16.2666 5.73333 16.4666 5.65 16.7 5.65C16.9333 5.65 17.1166 5.74167 17.25 5.925C17.7166 6.50833 18.075 7.14583 18.325 7.8375C18.575 8.52917 18.7 9.25 18.7 10ZM12 7.5C12.7 7.5 13.2916 7.74166 13.775 8.225C14.2583 8.70833 14.5 9.3 14.5 10V10.25C14.5 10.3333 14.4833 10.4167 14.45 10.5C14.4 10.7 14.2708 10.8208 14.0625 10.8625C13.8541 10.9042 13.675 10.85 13.525 10.7L11.3 8.475C11.15 8.325 11.1 8.15 11.15 7.95C11.2 7.75 11.3166 7.61667 11.5 7.55C11.5833 7.51667 11.6666 7.5 11.75 7.5H12ZM22 10C22 11.1 21.8333 12.1583 21.5 13.175C21.1666 14.1917 20.675 15.1417 20.025 16.025C19.8916 16.2083 19.7083 16.3 19.475 16.3C19.2416 16.3 19.0416 16.2167 18.875 16.05C18.7083 15.8833 18.625 15.6833 18.625 15.45C18.625 15.2167 18.6916 15 18.825 14.8C19.3083 14.1 19.675 13.3417 19.925 12.525C20.175 11.7083 20.3 10.8667 20.3 10C20.3 9.03333 20.1458 8.1 19.8375 7.2C19.5291 6.3 19.075 5.475 18.475 4.725C18.325 4.54167 18.25 4.33333 18.25 4.1C18.25 3.86667 18.3333 3.66667 18.5 3.5C18.6666 3.33333 18.8666 3.25417 19.1 3.2625C19.3333 3.27083 19.525 3.36667 19.675 3.55C20.425 4.46667 21 5.475 21.4 6.575C21.8 7.675 22 8.81667 22 10ZM19.075 21.9L13 15.825V20C13 20.2833 12.9041 20.5208 12.7125 20.7125C12.5208 20.9042 12.2833 21 12 21C11.7166 21 11.4791 20.9042 11.2875 20.7125C11.0958 20.5208 11 20.2833 11 20V13.825L6.99995 9.85V10C6.99995 10.5167 7.08329 11.0167 7.24995 11.5C7.41662 11.9833 7.64995 12.4333 7.94995 12.85C8.08328 13.05 8.14995 13.2667 8.14995 13.5C8.14995 13.7333 8.06662 13.9333 7.89995 14.1C7.73329 14.2667 7.53329 14.35 7.29995 14.35C7.06662 14.35 6.88329 14.2583 6.74995 14.075C6.29995 13.4917 5.94579 12.8542 5.68745 12.1625C5.42912 11.4708 5.29995 10.75 5.29995 10C5.29995 9.71667 5.31662 9.44167 5.34995 9.175C5.38328 8.90833 5.44162 8.63333 5.52495 8.35L4.24995 7.075C4.06662 7.55833 3.92912 8.04167 3.83745 8.525C3.74578 9.00833 3.69995 9.5 3.69995 10C3.69995 10.9667 3.85412 11.9 4.16245 12.8C4.47078 13.7 4.92495 14.525 5.52495 15.275C5.67495 15.4583 5.74995 15.6667 5.74995 15.9C5.74995 16.1333 5.66662 16.3333 5.49995 16.5C5.33328 16.6667 5.13328 16.7458 4.89995 16.7375C4.66662 16.7292 4.47495 16.6333 4.32495 16.45C3.57495 15.5333 2.99995 14.525 2.59995 13.425C2.19995 12.325 1.99995 11.1833 1.99995 10C1.99995 9.26667 2.07912 8.54583 2.23745 7.8375C2.39578 7.12917 2.63328 6.44167 2.94995 5.775L2.09995 4.925C1.91662 4.74167 1.82495 4.5125 1.82495 4.2375C1.82495 3.9625 1.91662 3.725 2.09995 3.525C2.29995 3.325 2.53745 3.225 2.81245 3.225C3.08745 3.225 3.32495 3.325 3.52495 3.525L20.5 20.5C20.7 20.7 20.7958 20.9333 20.7875 21.2C20.7791 21.4667 20.675 21.7 20.475 21.9C20.275 22.0833 20.0416 22.1792 19.775 22.1875C19.5083 22.1958 19.275 22.1 19.075 21.9Z" fill="#212121"/>
</g>
</svg>
