<svg width="24" height="24" viewBox="0 0 24 24" fill="none" xmlns="http://www.w3.org/2000/svg">
<mask id="mask0_17604_503853" style="mask-type:alpha" maskUnits="userSpaceOnUse" x="0" y="0" width="24" height="24">
<rect width="24" height="24" fill="#D9D9D9"/>
</mask>
<g mask="url(#mask0_17604_503853)">
<path d="M5.00006 21C4.45006 21 3.97923 20.8042 3.58756 20.4125C3.19589 20.0208 3.00006 19.55 3.00006 19V15C3.00006 14.45 3.19589 13.9792 3.58756 13.5875C3.97923 13.1958 4.45006 13 5.00006 13H15.0001V10C15.0001 9.71667 15.0959 9.47917 15.2876 9.2875C15.4792 9.09583 15.7167 9 16.0001 9C16.2834 9 16.5209 9.09583 16.7126 9.2875C16.9042 9.47917 17.0001 9.71667 17.0001 10V13H19.0001C19.5501 13 20.0209 13.1958 20.4126 13.5875C20.8042 13.9792 21.0001 14.45 21.0001 15V19C21.0001 19.55 20.8042 20.0208 20.4126 20.4125C20.0209 20.8042 19.5501 21 19.0001 21H5.00006ZM5.00006 19H19.0001V15H5.00006V19ZM7.00006 18C7.28339 18 7.52089 17.9042 7.71256 17.7125C7.90423 17.5208 8.00006 17.2833 8.00006 17C8.00006 16.7167 7.90423 16.4792 7.71256 16.2875C7.52089 16.0958 7.28339 16 7.00006 16C6.71673 16 6.47923 16.0958 6.28756 16.2875C6.09589 16.4792 6.00006 16.7167 6.00006 17C6.00006 17.2833 6.09589 17.5208 6.28756 17.7125C6.47923 17.9042 6.71673 18 7.00006 18ZM10.5001 18C10.7834 18 11.0209 17.9042 11.2126 17.7125C11.4042 17.5208 11.5001 17.2833 11.5001 17C11.5001 16.7167 11.4042 16.4792 11.2126 16.2875C11.0209 16.0958 10.7834 16 10.5001 16C10.2167 16 9.97923 16.0958 9.78756 16.2875C9.59589 16.4792 9.50006 16.7167 9.50006 17C9.50006 17.2833 9.59589 17.5208 9.78756 17.7125C9.97923 17.9042 10.2167 18 10.5001 18ZM14.0001 18C14.2834 18 14.5209 17.9042 14.7126 17.7125C14.9042 17.5208 15.0001 17.2833 15.0001 17C15.0001 16.7167 14.9042 16.4792 14.7126 16.2875C14.5209 16.0958 14.2834 16 14.0001 16C13.7167 16 13.4792 16.0958 13.2876 16.2875C13.0959 16.4792 13.0001 16.7167 13.0001 17C13.0001 17.2833 13.0959 17.5208 13.2876 17.7125C13.4792 17.9042 13.7167 18 14.0001 18ZM16.0001 7.5C15.8167 7.5 15.6501 7.51667 15.5001 7.55C15.3501 7.58333 15.2001 7.63333 15.0501 7.7C14.7834 7.81667 14.5126 7.86667 14.2376 7.85C13.9626 7.83333 13.7251 7.725 13.5251 7.525C13.3251 7.325 13.2292 7.08333 13.2376 6.8C13.2459 6.51667 13.3667 6.30833 13.6001 6.175C13.9501 5.95833 14.3292 5.79167 14.7376 5.675C15.1459 5.55833 15.5667 5.5 16.0001 5.5C16.4501 5.5 16.8751 5.55833 17.2751 5.675C17.6751 5.79167 18.0501 5.95833 18.4001 6.175C18.6334 6.30833 18.7542 6.51667 18.7626 6.8C18.7709 7.08333 18.6751 7.325 18.4751 7.525C18.2751 7.725 18.0334 7.83333 17.7501 7.85C17.4667 7.86667 17.1917 7.81667 16.9251 7.7C16.7917 7.63333 16.6459 7.58333 16.4876 7.55C16.3292 7.51667 16.1667 7.5 16.0001 7.5ZM16.0001 4C15.3501 4 14.7292 4.09583 14.1376 4.2875C13.5459 4.47917 13.0001 4.75833 12.5001 5.125C12.2667 5.29167 12.0126 5.36667 11.7376 5.35C11.4626 5.33333 11.2334 5.23333 11.0501 5.05C10.8501 4.85 10.7501 4.61667 10.7501 4.35C10.7501 4.08333 10.8584 3.86667 11.0751 3.7C11.7584 3.16667 12.5167 2.75 13.3501 2.45C14.1834 2.15 15.0667 2 16.0001 2C16.9334 2 17.8167 2.15 18.6501 2.45C19.4834 2.75 20.2417 3.16667 20.9251 3.7C21.1417 3.86667 21.2501 4.08333 21.2501 4.35C21.2501 4.61667 21.1501 4.85 20.9501 5.05C20.7667 5.23333 20.5376 5.33333 20.2626 5.35C19.9876 5.36667 19.7334 5.29167 19.5001 5.125C19.0001 4.75833 18.4542 4.47917 17.8626 4.2875C17.2709 4.09583 16.6501 4 16.0001 4Z" fill="#212121"/>
</g>
</svg>
