<svg width="60" height="61" viewBox="0 0 60 61" fill="none" xmlns="http://www.w3.org/2000/svg">
<g id=".Misc">
<mask id="mask0_22697_20522" style="mask-type:alpha" maskUnits="userSpaceOnUse" x="0" y="0" width="60" height="61">
<rect id="Bounding box" y="0.5" width="60" height="60" fill="#D9D9D9"/>
</mask>
<g mask="url(#mask0_22697_20522)">
<path id="upload_file" d="M27.5 37.5625V45.5C27.5 46.2083 27.7396 46.8021 28.2188 47.2812C28.6979 47.7604 29.2917 48 30 48C30.7083 48 31.3021 47.7604 31.7813 47.2812C32.2604 46.8021 32.5 46.2083 32.5 45.5V37.5625L34.75 39.8125C35 40.0625 35.2812 40.25 35.5938 40.375C35.9062 40.5 36.2188 40.5521 36.5312 40.5312C36.8438 40.5104 37.1458 40.4375 37.4375 40.3125C37.7292 40.1875 38 40 38.25 39.75C38.7083 39.25 38.9479 38.6667 38.9688 38C38.9896 37.3333 38.75 36.75 38.25 36.25L31.75 29.75C31.5 29.5 31.2292 29.3229 30.9375 29.2188C30.6458 29.1146 30.3333 29.0625 30 29.0625C29.6667 29.0625 29.3542 29.1146 29.0625 29.2188C28.7708 29.3229 28.5 29.5 28.25 29.75L21.75 36.25C21.25 36.75 21.0104 37.3333 21.0312 38C21.0521 38.6667 21.3125 39.25 21.8125 39.75C22.3125 40.2083 22.8958 40.4479 23.5625 40.4688C24.2292 40.4896 24.8125 40.25 25.3125 39.75L27.5 37.5625ZM15 55.5C13.625 55.5 12.4479 55.0104 11.4688 54.0312C10.4896 53.0521 10 51.875 10 50.5V10.5C10 9.125 10.4896 7.94792 11.4688 6.96875C12.4479 5.98958 13.625 5.5 15 5.5H32.9375C33.6042 5.5 34.2396 5.625 34.8438 5.875C35.4479 6.125 35.9792 6.47917 36.4375 6.9375L48.5625 19.0625C49.0208 19.5208 49.375 20.0521 49.625 20.6562C49.875 21.2604 50 21.8958 50 22.5625V50.5C50 51.875 49.5104 53.0521 48.5312 54.0312C47.5521 55.0104 46.375 55.5 45 55.5H15ZM32.5 20.5V10.5H15V50.5H45V23H35C34.2917 23 33.6979 22.7604 33.2188 22.2812C32.7396 21.8021 32.5 21.2083 32.5 20.5Z" fill="#069550"/>
</g>
</g>
</svg>
