<svg width="40" height="40" viewBox="0 0 40 40" fill="none" xmlns="http://www.w3.org/2000/svg">
<mask id="mask0_22891_3159" style="mask-type:alpha" maskUnits="userSpaceOnUse" x="0" y="0" width="40" height="40">
<rect width="40" height="40" fill="#D9D9D9"/>
</mask>
<g mask="url(#mask0_22891_3159)">
<path d="M10.0003 33.3328C9.08366 33.3328 8.29894 33.0065 7.64616 32.3537C6.99338 31.7009 6.66699 30.9162 6.66699 29.9995V26.6662C6.66699 26.194 6.82671 25.7981 7.14616 25.4787C7.4656 25.1592 7.86144 24.9995 8.33366 24.9995C8.80588 24.9995 9.20171 25.1592 9.52116 25.4787C9.8406 25.7981 10.0003 26.194 10.0003 26.6662V29.9995H30.0003V26.6662C30.0003 26.194 30.16 25.7981 30.4795 25.4787C30.7989 25.1592 31.1948 24.9995 31.667 24.9995C32.1392 24.9995 32.535 25.1592 32.8545 25.4787C33.1739 25.7981 33.3337 26.194 33.3337 26.6662V29.9995C33.3337 30.9162 33.0073 31.7009 32.3545 32.3537C31.7017 33.0065 30.917 33.3328 30.0003 33.3328H10.0003ZM18.3337 13.0828L15.2087 16.2078C14.8753 16.5412 14.4795 16.7009 14.0212 16.687C13.5628 16.6731 13.167 16.4995 12.8337 16.1662C12.5281 15.8328 12.3684 15.444 12.3545 14.9995C12.3406 14.5551 12.5003 14.1662 12.8337 13.8328L18.8337 7.83285C19.0003 7.66618 19.1809 7.54812 19.3753 7.47868C19.5698 7.40923 19.7781 7.37451 20.0003 7.37451C20.2225 7.37451 20.4309 7.40923 20.6253 7.47868C20.8198 7.54812 21.0003 7.66618 21.167 7.83285L27.167 13.8328C27.5003 14.1662 27.66 14.5551 27.6462 14.9995C27.6323 15.444 27.4725 15.8328 27.167 16.1662C26.8337 16.4995 26.4378 16.6731 25.9795 16.687C25.5212 16.7009 25.1253 16.5412 24.792 16.2078L21.667 13.0828V24.9995C21.667 25.4717 21.5073 25.8676 21.1878 26.187C20.8684 26.5065 20.4725 26.6662 20.0003 26.6662C19.5281 26.6662 19.1323 26.5065 18.8128 26.187C18.4934 25.8676 18.3337 25.4717 18.3337 24.9995V13.0828Z" fill="#212121"/>
</g>
</svg>
