<svg width="24" height="24" viewBox="0 0 24 24" fill="none" xmlns="http://www.w3.org/2000/svg">
<path d="M16.0688 14.7562C16.1755 14.8589 16.261 14.9816 16.3202 15.1174C16.3794 15.2531 16.4112 15.3992 16.4138 15.5473C16.4164 15.6954 16.3898 15.8425 16.3354 15.9802C16.281 16.118 16.2 16.2436 16.0969 16.35C15.992 16.4581 15.8667 16.5443 15.7284 16.6039C15.59 16.6634 15.4413 16.695 15.2907 16.6969C14.9975 16.6929 14.7165 16.5791 14.5032 16.3781C13.8284 15.7351 12.9321 15.3763 12 15.3763C11.0679 15.3763 10.1716 15.7351 9.4969 16.3781C9.39041 16.4809 9.26471 16.5617 9.12698 16.616C8.98926 16.6702 8.8422 16.6967 8.6942 16.6941C8.54621 16.6915 8.40018 16.6598 8.26445 16.6007C8.12872 16.5417 8.00596 16.4565 7.90315 16.35C7.80035 16.2435 7.71954 16.1178 7.66531 15.9801C7.61109 15.8424 7.58453 15.6953 7.58714 15.5473C7.58975 15.3993 7.62149 15.2533 7.68053 15.1175C7.73958 14.9818 7.82479 14.859 7.93128 14.7562C9.02685 13.7087 10.4842 13.1241 12 13.1241C13.5158 13.1241 14.9732 13.7087 16.0688 14.7562ZM12 8.625C9.28486 8.61497 6.6761 9.68005 4.74378 11.5875C4.63795 11.69 4.55346 11.8124 4.49519 11.9477C4.43692 12.083 4.40602 12.2285 4.40428 12.3758C4.40253 12.5231 4.42998 12.6693 4.48503 12.8059C4.54009 12.9425 4.62165 13.0669 4.72503 13.1719C4.82831 13.278 4.95152 13.3627 5.0876 13.4211C5.22367 13.4795 5.36994 13.5104 5.51801 13.5122C5.66608 13.5139 5.81304 13.4864 5.95045 13.4312C6.08787 13.376 6.21303 13.2943 6.31878 13.1906C7.8374 11.7064 9.87656 10.8754 12 10.8754C14.1235 10.8754 16.1627 11.7064 17.6813 13.1906C17.8915 13.3966 18.1745 13.5111 18.4688 13.5094C18.6188 13.5092 18.7673 13.4793 18.9057 13.4214C19.0441 13.3635 19.1696 13.2787 19.275 13.1719C19.3784 13.0669 19.46 12.9425 19.515 12.8059C19.5701 12.6693 19.5975 12.5231 19.5958 12.3758C19.594 12.2285 19.5631 12.083 19.5049 11.9477C19.4466 11.8124 19.3621 11.69 19.2563 11.5875C17.324 9.68005 14.7152 8.61497 12 8.625ZM22.4438 8.4C19.6577 5.6609 15.9071 4.12598 12 4.12598C8.093 4.12598 4.34235 5.6609 1.55628 8.4C1.34369 8.6101 1.22327 8.89605 1.22152 9.19493C1.21976 9.49382 1.3368 9.78116 1.5469 9.99375C1.75701 10.2063 2.04295 10.3268 2.34184 10.3285C2.64072 10.3303 2.92807 10.2132 3.14065 10.0031C5.50296 7.67746 8.68503 6.37394 12 6.37394C15.315 6.37394 18.4971 7.67746 20.8594 10.0031C21.0686 10.2116 21.3515 10.3295 21.6469 10.3312C21.8718 10.3337 22.0922 10.2687 22.2798 10.1447C22.4673 10.0207 22.6134 9.84329 22.6992 9.63542C22.785 9.42755 22.8065 9.19875 22.761 8.97854C22.7154 8.75833 22.6049 8.55681 22.4438 8.4ZM12 17.25C11.7034 17.25 11.4133 17.338 11.1667 17.5028C10.92 17.6676 10.7277 17.9019 10.6142 18.176C10.5007 18.4501 10.471 18.7517 10.5289 19.0426C10.5867 19.3336 10.7296 19.6009 10.9394 19.8107C11.1491 20.0204 11.4164 20.1633 11.7074 20.2212C11.9984 20.2791 12.3 20.2494 12.5741 20.1358C12.8481 20.0223 13.0824 19.83 13.2472 19.5834C13.4121 19.3367 13.5 19.0467 13.5 18.75C13.5 18.3522 13.342 17.9706 13.0607 17.6893C12.7794 17.408 12.3979 17.25 12 17.25Z" fill="#212121"/>
<g clip-path="url(#clip0_4431_74081)">
<rect x="10.5" y="3" width="3" height="13" rx="1.5" fill="#E53935"/>
<rect x="10" y="17" width="4" height="4" rx="2" fill="#E53935"/>
</g>
<defs>
<clipPath id="clip0_4431_74081">
<rect width="4" height="18" fill="white" transform="translate(10 3)"/>
</clipPath>
</defs>
</svg>
