<svg width="100" height="100" viewBox="0 0 100 100" fill="none" xmlns="http://www.w3.org/2000/svg">
<g clip-path="url(#clip0_391_9230)">
<path d="M0 6C0 2.68629 2.68629 0 6 0H94C97.3137 0 100 2.68629 100 6V94C100 97.3137 97.3137 100 94 100H6C2.68629 100 0 97.3137 0 94V6Z" fill="#E3F2FD"/>
<g clip-path="url(#clip1_391_9230)">
<path fill-rule="evenodd" clip-rule="evenodd" d="M63.0618 18V55.8319H-34.2332V71.4665H-58V80.4226H122.332V57.5948H105.331V51.4181H95.8493V36.6007L63.0618 18Z" fill="#BBDEFB"/>
<path d="M25.23 80.4226V45.7434L14.511 33.7633H3.79199V80.4226H25.23Z" fill="#BBDEFB"/>
<path d="M25.2298 46.3735L14.5107 34.0781V80.4222H25.2298V46.3735Z" fill="#90CAF9" stroke="#90CAF9"/>
<path d="M76.2832 8.99991H53.5841V104H76.2832V8.99991Z" fill="#90CAF9"/>
<path d="M53.584 9H25V104H53.584V9Z" fill="#BBDEFB"/>
<rect x="27.5221" y="14.8849" width="23.5398" height="2.52212" fill="#E3F2FD"/>
<rect x="27.522" y="24.1328" width="23.5398" height="2.52212" fill="#E3F2FD"/>
<rect x="27.522" y="33.3809" width="23.5398" height="2.52212" fill="#E3F2FD"/>
<rect x="27.5221" y="41.7872" width="23.5398" height="2.52212" fill="#E3F2FD"/>
<rect x="27.522" y="50.1943" width="23.5398" height="2.52212" fill="#E3F2FD"/>
<rect x="27.5221" y="58.6016" width="23.5398" height="2.52212" fill="#E3F2FD"/>
<rect x="27.522" y="67.0088" width="23.5398" height="2.52212" fill="#E3F2FD"/>
<rect x="27.5221" y="75.4159" width="23.5398" height="2.52212" fill="#E3F2FD"/>
<rect x="27.522" y="83.8223" width="23.5398" height="2.52212" fill="#E3F2FD"/>
</g>
<ellipse cx="50.5" cy="90" rx="60.5" ry="15" fill="#757575"/>
<path d="M80.5 89C56.3335 84.1356 42.2729 84.1904 16.5 89" stroke="white" stroke-width="2" stroke-dasharray="13 13"/>
<path d="M77.7264 51.3109L77.6521 51.1432C77.164 50.0421 76.0728 49.3322 74.8683 49.3322H72.0192C71.1253 49.3322 70.2659 49.6774 69.6204 50.2959C68.9378 50.9499 68.5518 51.8542 68.5518 52.7996V55.0739H75.2782C76.2483 55.0739 77.1425 54.5493 77.6158 53.7024C78.0268 52.967 78.0678 52.0811 77.7264 51.3109Z" fill="#FF9500"/>
<path d="M-22.6612 75.1971H92.5339C94.3484 75.1971 95.8193 73.7262 95.8193 71.9117V65.6405C95.8193 58.8362 90.3033 53.3202 83.499 53.3202H71.8775L56.8156 37.8502C54.8828 35.8651 52.2299 34.7454 49.4594 34.7454H-11.0809C-14.2216 34.7454 -17.2392 35.967 -19.4954 38.1519C-20.9728 39.5827 -22.1629 41.2828 -23.0016 43.1606L-26.572 51.1548C-27.5134 53.2627 -28 55.5453 -28 57.8538V69.8583C-28 72.8069 -25.6097 75.1971 -22.6612 75.1971Z" fill="#FFB900"/>
<path d="M40.578 33H-4.10613C-5.44051 33 -6.69659 33.6552 -7.46611 34.7454H43.9713L43.6574 34.3896C42.8778 33.5061 41.7562 33 40.578 33Z" fill="#FF9500"/>
<path fill-rule="evenodd" clip-rule="evenodd" d="M63.5531 75.1971C63.5945 75.3057 63.6374 75.4137 63.6819 75.5212C64.2908 76.9911 65.1832 78.3266 66.3081 79.4516C67.4331 80.5766 68.7687 81.469 70.2385 82.0778C71.7084 82.6866 73.2838 83 74.8747 83C76.4657 83 78.0411 82.6866 79.5109 82.0778C80.9808 81.469 82.3163 80.5766 83.4413 79.4516C84.5663 78.3266 85.4587 76.9911 86.0675 75.5212C86.112 75.4137 86.155 75.3057 86.1963 75.1971H63.5531Z" fill="#424242"/>
<path d="M82.8829 72.8357C82.8829 75.5315 81.8121 78.1168 79.9059 80.0229C77.9997 81.9291 75.4144 83 72.7187 83C70.0229 83 67.4376 81.9291 65.5314 80.023C63.6253 78.1168 62.5544 75.5315 62.5544 72.8357L72.7187 72.8357H82.8829Z" fill="#212121"/>
<path fill-rule="evenodd" clip-rule="evenodd" d="M7.90631 75.1971C7.94766 75.3057 7.9906 75.4137 8.03512 75.5212C8.64396 76.9911 9.53634 78.3266 10.6613 79.4516C11.7863 80.5766 13.1218 81.469 14.5917 82.0778C16.0616 82.6866 17.6369 83 19.2279 83C20.8189 83 22.3943 82.6866 23.8641 82.0778C25.334 81.469 26.6695 80.5766 27.7945 79.4516C28.9195 78.3266 29.8119 76.9911 30.4207 75.5212C30.4652 75.4137 30.5082 75.3057 30.5495 75.1971H7.90631Z" fill="#424242"/>
<path d="M27.2361 72.8357C27.2361 75.5315 26.1653 78.1168 24.2591 80.0229C22.3529 81.9291 19.7676 83 17.0719 83C14.3761 83 11.7908 81.9291 9.88464 80.023C7.97847 78.1168 6.90759 75.5315 6.90759 72.8357L17.0719 72.8357H27.2361Z" fill="#212121"/>
<path d="M-28 69.8583V69.4476L34.6283 71.9117H95.8193C95.8193 73.7262 94.3484 75.1971 92.5339 75.1971H-22.6612C-25.6097 75.1971 -28 72.8069 -28 69.8583Z" fill="#FF9500"/>
<path d="M95.8193 71.9117H64.6078V70.7749C64.6078 69.5137 65.4044 68.39 66.5945 67.9724C66.9104 67.8616 67.2429 67.8049 67.5778 67.8049H94.2025C94.5836 67.8049 94.9524 67.9395 95.2439 68.185C95.6087 68.4922 95.8193 68.9448 95.8193 69.4217V71.9117Z" fill="white"/>
<path d="M69.9466 71.9117V67.8049H92.1232V71.9117H69.9466Z" fill="#FF7500"/>
<path d="M62.8055 61.613L62.8416 61.563C63.1771 61.0985 63.7151 60.8234 64.288 60.8234H94.7926C94.7926 60.8234 95.17 61.3925 95.4086 62.4661C95.6472 63.5397 95.7166 64.3142 95.7166 64.3142H64.1867C63.6736 64.3142 63.1879 64.083 62.8644 63.6848C62.3786 63.0869 62.3545 62.2375 62.8055 61.613Z" fill="white"/>
<path d="M69.8439 64.3142L71.692 60.8234H75.5934L73.7454 64.3142H69.8439Z" fill="#FFE483"/>
<path d="M92.1232 64.3142H88.3244L86.4764 60.8234H90.3778L92.1232 64.3142Z" fill="#FFE483"/>
<path d="M73.7454 64.3142L75.5934 60.8234H86.4764L88.3244 64.3142H73.7454Z" fill="#FF7500"/>
<path d="M59.0636 73.0411C59.0636 71.4366 58.7476 69.8479 58.1336 68.3656C57.5196 66.8832 56.6197 65.5364 55.4852 64.4019C54.3507 63.2673 53.0038 62.3674 51.5215 61.7534C50.0392 61.1394 48.4504 60.8234 46.846 60.8234C45.2415 60.8234 43.6528 61.1394 42.1705 61.7534C40.6882 62.3674 39.3413 63.2673 38.2068 64.4019C37.0723 65.5364 36.1723 66.8832 35.5583 68.3656C34.9443 69.8479 34.6283 71.4366 34.6283 73.0411L46.846 73.0411H59.0636Z" fill="#FF9500"/>
<path d="M3.62218 73.1437C3.62218 71.5258 3.3035 69.9237 2.68435 68.4289C2.06519 66.9342 1.15768 65.576 0.0136337 64.4319C-1.13041 63.2879 -2.4886 62.3804 -3.98337 61.7612C-5.47814 61.1421 -7.08022 60.8234 -8.69815 60.8234C-10.3161 60.8234 -11.9182 61.1421 -13.4129 61.7612C-14.9077 62.3804 -16.2659 63.2879 -17.4099 64.4319C-18.554 65.576 -19.4615 66.9342 -20.0806 68.4289C-20.6998 69.9237 -21.0185 71.5258 -21.0185 73.1437L-8.69815 73.1437H3.62218Z" fill="#FF9500"/>
<path fill-rule="evenodd" clip-rule="evenodd" d="M37.4751 75.1971C37.5164 75.3057 37.5594 75.4137 37.6039 75.5212C38.2127 76.9911 39.1051 78.3266 40.2301 79.4516C41.3551 80.5766 42.6906 81.469 44.1605 82.0778C45.6303 82.6866 47.2057 83 48.7967 83C50.3877 83 51.963 82.6866 53.4329 82.0778C54.9028 81.469 56.2383 80.5766 57.3633 79.4516C58.4883 78.3266 59.3807 76.9911 59.9895 75.5212C60.034 75.4137 60.0769 75.3057 60.1183 75.1971H37.4751Z" fill="#424242"/>
<path d="M57.2156 72.7331C57.2156 78.4033 52.6189 83 46.9486 83C41.2784 83 36.6817 78.4033 36.6817 72.7331C36.6817 67.0628 41.2784 62.4661 46.9486 62.4661C52.6189 62.4661 57.2156 67.0628 57.2156 72.7331Z" fill="#212121"/>
<path d="M53.7248 72.7331C53.7248 76.4754 50.691 79.5092 46.9487 79.5092C43.2063 79.5092 40.1725 76.4754 40.1725 72.7331C40.1725 68.9907 43.2063 65.9569 46.9487 65.9569C50.691 65.9569 53.7248 68.9907 53.7248 72.7331Z" fill="#9E9E9E"/>
<path d="M51.6714 72.733C51.6714 75.3414 49.557 77.4558 46.9487 77.4558C44.3403 77.4558 42.2259 75.3414 42.2259 72.733C42.2259 70.1247 44.3403 68.0103 46.9487 68.0103C49.557 68.0103 51.6714 70.1247 51.6714 72.733Z" fill="white"/>
<path fill-rule="evenodd" clip-rule="evenodd" d="M-17.761 75.1971C-17.7197 75.3057 -17.6767 75.4137 -17.6322 75.5212C-17.0234 76.9911 -16.131 78.3266 -15.006 79.4516C-13.881 80.5766 -12.5455 81.469 -11.0756 82.0778C-9.60577 82.6866 -8.03038 83 -6.43942 83C-4.84846 83 -3.27307 82.6866 -1.80321 82.0778C-0.333355 81.469 1.00219 80.5766 2.12717 79.4516C3.25215 78.3266 4.14454 76.9911 4.75337 75.5212C4.79789 75.4137 4.84083 75.3057 4.88218 75.1971H-17.761Z" fill="#424242"/>
<path d="M1.97947 72.7331C1.97947 78.4033 -2.6172 83 -8.28747 83C-13.9577 83 -18.5544 78.4033 -18.5544 72.7331C-18.5544 67.0628 -13.9577 62.4661 -8.28747 62.4661C-2.6172 62.4661 1.97947 67.0628 1.97947 72.7331Z" fill="#212121"/>
<path d="M3.63539 49.9265L5.26492 38.3388H-9.24125C-10.6887 38.3388 -12.0978 38.8044 -13.2603 39.6669C-14.1739 40.3448 -14.9012 41.2426 -15.3746 42.2771L-16.869 45.5427C-17.2231 46.3164 -17.2339 47.2037 -16.8987 47.9858C-16.4637 49.0008 -15.5088 49.6969 -14.4094 49.8005L1.85456 51.3333C2.72872 51.4156 3.51312 50.796 3.63539 49.9265Z" fill="#FFF9E1"/>
<path d="M7.45175 49.7301L8.96097 38.5442H21.8081C23.2574 38.5442 24.6593 39.0603 25.7626 40.0002C26.4621 40.596 27.0179 41.3423 27.3885 42.1832L32.1643 53.0205L8.97851 51.5893C8.02623 51.5305 7.32418 50.6756 7.45175 49.7301Z" fill="#FFF9E1"/>
<path d="M32.8688 38.4415H54.8497C55.1809 38.4415 55.4982 38.5748 55.7299 38.8115L69.263 52.6305C69.5176 52.8904 69.3334 53.3285 68.9696 53.3285H39.5764C38.8623 53.3285 38.1995 52.9575 37.8261 52.3489L31.1636 41.4881C31.0112 41.2396 30.9149 40.9608 30.8815 40.6713C30.7445 39.4835 31.6731 38.4415 32.8688 38.4415Z" fill="#FFF9E1"/>
<path d="M24.6072 51.1884L24.6826 51.0203C25.1731 49.926 26.2606 49.2218 27.4598 49.2218H30.3929C31.2853 49.2218 32.1437 49.5638 32.7915 50.1776C33.4868 50.8362 33.8806 51.7518 33.8806 52.7095V54.9635H27.052C26.0861 54.9635 25.1949 54.4435 24.7196 53.6026C24.3007 52.8614 24.259 51.9653 24.6072 51.1884Z" fill="#FF9500"/>
<path d="M7.11295 56.0337C7.11295 55.2201 7.77247 54.5606 8.58603 54.5606H12.416C13.2296 54.5606 13.8891 55.2201 13.8891 56.0337C13.8891 56.8472 13.2296 57.5067 12.416 57.5067H8.58603C7.77247 57.5067 7.11295 56.8472 7.11295 56.0337Z" fill="#FF9500"/>
<path d="M45.3646 74.9282C45.3646 75.9294 45.1953 76.9209 44.8664 77.8459C44.5376 78.7709 44.0555 79.6114 43.4478 80.3194C42.8401 81.0274 42.1187 81.589 41.3247 81.9721C40.5308 82.3553 39.6798 82.5525 38.8204 82.5525C37.961 82.5525 36.6864 82.5525 35.7617 82.5525C34.837 82.5525 34.6947 81.07 34.1929 80.3194C33.5853 79.6114 33.1032 78.7709 32.7743 77.8459C32.4455 76.9209 32.2762 75.9294 32.2762 74.9282L38.8204 74.9282H45.3646Z" fill="#111313"/>
<path d="M41.8066 74.9282C41.8066 75.9294 41.639 76.9209 41.3133 77.8459C40.9876 78.7709 40.5102 79.6114 39.9085 80.3194C39.3067 81.0274 38.5923 81.589 37.806 81.9721C37.0197 82.3553 36.177 82.5525 35.3259 82.5525C34.4749 82.5525 33.6322 82.3553 32.8459 81.9721C32.0596 81.589 31.3452 81.0274 30.7434 80.3194C30.1416 79.6114 29.6643 78.7709 29.3386 77.8459C29.0129 76.9209 28.8453 75.9294 28.8453 74.9282L35.3259 74.9282H41.8066Z" fill="#111313"/>
<path d="M39.2652 74.9282C39.2652 75.4956 39.1682 76.0574 38.9798 76.5816C38.7914 77.1057 38.5153 77.582 38.1672 77.9832C37.8191 78.3844 37.4059 78.7026 36.9511 78.9198C36.4963 79.1369 36.0088 79.2486 35.5165 79.2486C35.0243 79.2486 34.5368 79.1369 34.082 78.9198C33.6272 78.7026 33.214 78.3844 32.8659 77.9832C32.5178 77.582 32.2416 77.1057 32.0533 76.5816C31.8649 76.0574 31.7679 75.4956 31.7679 74.9282L35.5165 74.9282H39.2652Z" fill="#757575"/>
<path d="M4.70161 65.5679V74.9282H25.4143V59.5525H10.1206L7.29915 61.1341C5.69497 62.0333 4.70161 63.7289 4.70161 65.5679Z" fill="#D71D0E"/>
<path d="M20.8397 64.1463C20.8397 62.7321 21.9862 61.5856 23.4004 61.5856H25.5414V74.9282H20.8397V64.1463Z" fill="#E53935"/>
<path d="M11.1823 74.9282V62.6022H13.2154C13.2154 62.6022 15.4755 62.6022 16.837 64.1906C18.0466 65.6018 18.1099 67.1636 18.1089 67.4944C18.1088 67.5375 18.1077 67.5796 18.1077 67.6228V74.9282H11.1823Z" fill="#E53935"/>
<path d="M14.1049 74.9282H0.00253785V72.5773C0.00253785 72.5773 -0.128193 69.9354 1.47021 67.2403C2.80625 64.9877 5.29891 62.6022 7.14945 62.6022H11.042C14.1049 62.6022 14.1049 65.6519 14.1049 65.6519V74.9282Z" fill="#E53935"/>
<path d="M4.06625 68.1298C4.06625 67.8842 4.26538 67.6851 4.51101 67.6851H8.83145C9.07708 67.6851 9.2762 67.8842 9.2762 68.1298C9.2762 68.3755 9.07708 68.5746 8.83145 68.5746H4.51101C4.26538 68.5746 4.06625 68.3755 4.06625 68.1298Z" fill="#E53935"/>
<path d="M4.06625 70.0359C4.06625 69.7903 4.26538 69.5912 4.51101 69.5912H8.83145C9.07708 69.5912 9.2762 69.7903 9.2762 70.0359C9.2762 70.2815 9.07708 70.4807 8.83145 70.4807H4.51101C4.26538 70.4807 4.06625 70.2815 4.06625 70.0359Z" fill="#E53935"/>
<path d="M-4.57764e-05 72.6409H14.1049V74.9282H-4.57764e-05V72.6409Z" fill="#A5130B"/>
<path d="M7.37012 58.5359C7.37012 57.8341 7.93904 57.2652 8.64084 57.2652H23.3812C24.083 57.2652 24.6519 57.8341 24.6519 58.5359V60.3149H7.37012V58.5359Z" fill="#212121"/>
<path d="M20.3791 74.9282C20.3791 75.9294 20.2112 76.9209 19.8849 77.8459C19.5586 78.7709 19.0804 79.6114 18.4775 80.3194C17.8746 81.0274 17.1588 81.589 16.3711 81.9721C15.5834 82.3553 14.7391 82.5525 13.8865 82.5525C13.0339 82.5525 11.7694 82.5525 10.852 82.5525C9.93453 82.5525 9.79338 81.07 9.29558 80.3194C8.69269 79.6114 8.21445 78.7709 7.88817 77.8459C7.56189 76.9209 7.39395 75.9294 7.39395 74.9282L13.8865 74.9282H20.3791Z" fill="#111313"/>
<path d="M16.9243 74.9282C16.9243 75.9294 16.7564 76.9209 16.4301 77.8459C16.1038 78.7709 15.6256 79.6114 15.0227 80.3194C14.4198 81.0274 13.7041 81.589 12.9164 81.9721C12.1286 82.3553 11.2844 82.5525 10.4318 82.5525C9.57914 82.5525 8.73487 82.3553 7.94715 81.9721C7.15944 81.589 6.4437 81.0274 5.84081 80.3194C5.23792 79.6114 4.75968 78.7709 4.4334 77.8459C4.10711 76.9209 3.93918 75.9294 3.93918 74.9282L10.4318 74.9282H16.9243Z" fill="#111313"/>
<path d="M14.1844 74.9282C14.1844 75.4914 14.0888 76.0491 13.9032 76.5694C13.7177 77.0897 13.4456 77.5625 13.1027 77.9607C12.7598 78.359 12.3527 78.6749 11.9046 78.8904C11.4565 79.1059 10.9763 79.2169 10.4913 79.2169C10.0064 79.2169 9.52613 79.1059 9.07808 78.8904C8.63002 78.6749 8.2229 78.359 7.87997 77.9607C7.53704 77.5625 7.26502 77.0897 7.07942 76.5694C6.89383 76.0491 6.79831 75.4914 6.79831 74.9282L10.4913 74.9282H14.1844Z" fill="#757575"/>
<path d="M16.5828 75.3094V74.9282H23.8259L24.4833 73.7322C24.9508 72.8818 25.165 71.9153 25.1007 70.9469L23.9584 53.7505C23.8612 52.2874 24.4207 50.8571 25.4849 49.8484C26.4001 48.9808 27.6132 48.4973 28.8742 48.4973H33.6565C35.1643 48.4973 36.5943 49.1667 37.56 50.3247L38.0032 50.8561C38.7012 51.693 39.1117 52.732 39.1742 53.82L40.4088 75.3094H16.5828Z" fill="#D71D0E"/>
<path fill-rule="evenodd" clip-rule="evenodd" d="M25.4428 49.7498C26.3891 48.8635 27.6384 48.3702 28.9364 48.3702H33.7758C35.3313 48.3702 36.8075 49.0553 37.8095 50.2424L38.2475 50.7613C38.9807 51.6299 39.4125 52.7118 39.4784 53.8454L40.7265 75.3094H15.6819V74.9291H23.4525L24.2929 73.5317C24.8064 72.6778 25.0459 71.6876 24.9791 70.694L23.8435 53.8033C23.7412 52.2814 24.3281 50.7938 25.4428 49.7498ZM23.897 74.9291H40.3225L39.0978 53.8675C39.0367 52.8158 38.6361 51.8121 37.9559 51.0063L37.5179 50.4874C36.5884 49.3861 35.2189 48.7505 33.7758 48.7505H28.9364C27.7353 48.7505 26.5794 49.207 25.7037 50.0271C24.6723 50.9931 24.1292 52.3696 24.2239 53.7778L25.3594 70.6685C25.4315 71.7396 25.1733 72.8069 24.6198 73.7274L23.897 74.9291Z" fill="#FE4D3E"/>
<rect x="25.5414" y="52.11" width="2.16022" height="0.760637" rx="0.380319" fill="#E53935"/>
<rect x="34.4364" y="52.11" width="2.16022" height="0.760637" rx="0.380319" fill="#E53935"/>
<path d="M29.3052 48.3702H28.2099L30.0784 68.8288H32.7845V62.8692C32.7845 62.2219 32.5375 61.599 32.0939 61.1276L30.9926 59.9571C30.6087 59.5491 30.3703 59.0257 30.3146 58.4683L29.3052 48.3702Z" fill="#B41A11"/>
<path d="M33.1657 48.3702H29.307L30.3481 58.4371C30.4037 58.9747 30.6292 59.4805 30.9919 59.8812L32.1272 61.1353C32.5502 61.6026 32.7845 62.2105 32.7845 62.8409V68.8287H36.7237L36.5026 62.6577C36.4813 62.0615 36.2508 61.4918 35.8517 61.0483L34.8038 59.8843C34.4413 59.4817 34.217 58.9738 34.1635 58.4347L33.1657 48.3702Z" fill="#E53935"/>
<rect x="30.6243" y="51.8011" width="2.16022" height="0.762432" rx="0.381216" fill="#FF7733"/>
<rect x="30.7513" y="53.453" width="2.16022" height="0.762432" rx="0.381216" fill="#FF7733"/>
<path d="M36.7237 68.8287L30.1795 69.2735L30.0842 68.2887L30.0524 67.7486L32.001 66.4798C32.5158 66.1446 33.1035 65.9377 33.7147 65.8766L36.5966 65.5884L36.6265 66.3508L36.7237 68.8287Z" fill="#212121"/>
<path d="M33.8646 64.4117V63.3011H36.5331L36.5966 65.3343H34.7872C34.5612 65.3343 34.3431 65.2513 34.1742 65.1012C33.9773 64.9261 33.8646 64.6752 33.8646 64.4117Z" fill="#B51B12"/>
<rect x="33.8011" y="62.221" width="3.93923" height="2.03315" rx="1.01657" fill="#D88B19"/>
<rect x="35.1989" y="62.6022" width="1.90608" height="0.762432" rx="0.381216" fill="#FEB536"/>
<path d="M41.9337 75.373H28.2734C28.2734 75.373 28.2734 66.605 35.0082 66.7321C41.7431 66.8592 41.9337 75.373 41.9337 75.373Z" fill="#E53935"/>
<path d="M46 75.3729H41.9337C41.9337 75.3729 41.743 72.6409 40.9171 70.989C39.4525 67.3527 36.5829 66.8076 35.4672 66.7369C35.0655 66.7321 35.0082 66.7321 35.0082 66.7321C35.0082 66.7321 35.1793 66.7187 35.4672 66.7369C36.0114 66.7435 37.1877 66.759 39.7099 66.7956C45.8729 67.558 46 75.3729 46 75.3729Z" fill="#E53935"/>
<path d="M33.1022 41L33.1657 46.9724H28.2099C28.1741 46.5063 27.7854 46.1464 27.318 46.1464H25.598C25.0141 46.1464 24.476 45.8298 24.1924 45.3194L24.1378 45.221C23.8697 44.7385 23.9033 44.1447 24.2242 43.6955C24.4926 43.3197 24.926 43.0967 25.3878 43.0967H27.7652L28.3007 42.5445C29.258 41.5572 30.5745 41 31.9497 41H33.1022Z" fill="#B41A11"/>
<rect x="28.2099" y="46.9724" width="4.9558" height="1.39779" fill="#840501"/>
<path d="M37.2614 43.8396L37.2032 43.7524C36.983 43.4221 36.6124 43.2238 36.2154 43.2238C36.3798 44.0867 36.2411 44.9799 35.8227 45.7523L35.6436 46.0829H36.0048C36.5287 46.0829 37.0131 45.8046 37.2771 45.3522L37.3053 45.3038C37.5715 44.8474 37.5545 44.2792 37.2614 43.8396Z" fill="#E53935"/>
<path d="M36.8177 44.2321L36.7813 44.1811C36.6654 44.0189 36.4783 43.9226 36.279 43.9226C36.279 44.4276 36.1976 44.9293 36.0379 45.4084L36.0248 45.4475H36.162C36.4324 45.4475 36.6837 45.3082 36.827 45.0789L36.843 45.0533C37.0016 44.7997 36.9916 44.4755 36.8177 44.2321Z" fill="#E53935"/>
<path d="M38.5691 44.1133H37.4226L37.4319 44.1551C37.5088 44.501 37.4835 44.8617 37.3591 45.1934H38.6012C38.7778 45.1934 38.9428 45.1051 39.0408 44.9581C39.1732 44.7595 39.156 44.4968 38.9988 44.3171L38.9859 44.3024C38.8807 44.1822 38.7288 44.1133 38.5691 44.1133Z" fill="#E53935"/>
<path d="M32.7598 41H33.8637C33.4899 41 33.1194 41.0963 32.8344 41.3382C32.278 41.8105 31.4133 42.7711 31.4133 44.1795C31.4133 45.2885 32.0662 46.1315 32.575 46.6201C32.9342 46.9652 33.43 47.0994 33.9281 47.0994H32.5933C31.1059 47.0994 29.8486 45.9977 29.6533 44.5233C29.623 44.2949 29.6197 44.0616 29.6429 43.8324C29.805 42.2336 31.1529 41 32.7598 41Z" fill="#AE9F8F"/>
<ellipse cx="33.8646" cy="44.0497" rx="2.4779" ry="3.04972" fill="#E9E0CE"/>
<ellipse cx="33.9917" cy="44.0497" rx="1.96961" ry="2.41437" fill="#FEB434"/>
<ellipse cx="24.779" cy="44.558" rx="1.52486" ry="1.52486" fill="#E53935"/>
<circle cx="24.6519" cy="44.558" r="1.01657" fill="#E53935"/>
<rect x="20.7127" y="44.0497" width="4.32044" height="1.14365" rx="0.571823" fill="#212121"/>
<path d="M2.28725 74.9282H12.5801V75.1823C12.5801 76.5859 11.4422 77.7238 10.0386 77.7238H4.82869C3.42509 77.7238 2.28725 76.5859 2.28725 75.1823V74.9282Z" fill="#E53935"/>
<rect x="4.06625" y="76.326" width="5.20995" height="0.752656" rx="0.376328" fill="#E53935"/>
<path fill-rule="evenodd" clip-rule="evenodd" d="M19.6448 103.653C16.4963 106.559 12.2888 108.334 7.66677 108.334C-2.09032 108.334 -10 100.424 -10 90.6668C-10 80.9097 -2.09032 73 7.66677 73C14.7871 73 20.9235 77.2123 23.7202 83.2808C25.5289 82.3548 27.5785 81.8324 29.7501 81.8324C37.0679 81.8324 43.0002 87.7647 43.0002 95.0825C43.0002 102.4 37.0679 108.333 29.7501 108.333C25.7005 108.333 22.0753 106.516 19.6448 103.653Z" fill="#069550"/>
<path fill-rule="evenodd" clip-rule="evenodd" d="M105 87.1968C105 93.318 100.748 98.3861 95.2043 99.2603C93.5221 106.306 87.5034 111.519 80.3364 111.519C71.8664 111.519 65.0001 104.238 65.0001 95.2563C65.0001 86.2748 71.8664 78.9939 80.3364 78.9939C81.779 78.9939 83.1751 79.2051 84.4987 79.5999C86.6061 76.7966 89.8541 75 93.4978 75C99.8503 75 105 80.4607 105 87.1968Z" fill="#069550"/>
</g>
<defs>
<clipPath id="clip0_391_9230">
<path d="M0 6C0 2.68629 2.68629 0 6 0H94C97.3137 0 100 2.68629 100 6V94C100 97.3137 97.3137 100 94 100H6C2.68629 100 0 97.3137 0 94V6Z" fill="white"/>
</clipPath>
<clipPath id="clip1_391_9230">
<rect width="100" height="100" fill="white"/>
</clipPath>
</defs>
</svg>
