<svg width="100" height="100" viewBox="0 0 100 100" fill="none" xmlns="http://www.w3.org/2000/svg">
<g clip-path="url(#clip0_488_83663)">
<path d="M0 8C0 3.58172 3.58172 0 8 0H92C96.4183 0 100 3.58172 100 8V92C100 96.4183 96.4183 100 92 100H8C3.58172 100 0 96.4183 0 92V8Z" fill="#E3F2FD"/>
<g clip-path="url(#clip1_488_83663)">
<path fill-rule="evenodd" clip-rule="evenodd" d="M63.0618 18V55.8319H-34.2332V71.4665H-58V80.4226H122.332V57.5948H105.331V51.4181H95.8493V36.6007L63.0618 18Z" fill="#BBDEFB"/>
<path d="M25.23 80.4226V45.7434L14.511 33.7633H3.79199V80.4226H25.23Z" fill="#BBDEFB"/>
<g opacity="0.37">
<path d="M76.2831 8.99991H53.584V104H76.2831V8.99991Z" fill="#90CAF9"/>
<path d="M53.584 9H25V104H53.584V9Z" fill="#BBDEFB"/>
<rect x="27.522" y="14.8849" width="23.5398" height="2.52212" fill="#E3F2FD"/>
<rect x="27.522" y="24.1328" width="23.5398" height="2.52212" fill="#E3F2FD"/>
<rect x="27.522" y="33.3809" width="23.5398" height="2.52212" fill="#E3F2FD"/>
<rect x="27.522" y="41.7872" width="23.5398" height="2.52212" fill="#E3F2FD"/>
<rect x="27.522" y="50.1943" width="23.5398" height="2.52212" fill="#E3F2FD"/>
<rect x="27.522" y="58.6016" width="23.5398" height="2.52212" fill="#E3F2FD"/>
<rect x="27.522" y="67.0088" width="23.5398" height="2.52212" fill="#E3F2FD"/>
<rect x="27.522" y="75.4159" width="23.5398" height="2.52212" fill="#E3F2FD"/>
<rect x="27.522" y="83.8223" width="23.5398" height="2.52212" fill="#E3F2FD"/>
</g>
</g>
<path fill-rule="evenodd" clip-rule="evenodd" d="M7.64492 107.653C4.49642 110.559 0.288879 112.334 -4.33323 112.334C-14.0903 112.334 -22 104.424 -22 94.6668C-22 84.9097 -14.0903 77 -4.33323 77C2.787 77 8.92343 81.2122 11.7201 87.2806C13.5289 86.3546 15.5785 85.8322 17.7501 85.8322C25.0679 85.8322 31.0002 91.7645 31.0002 99.0823C31.0002 106.4 25.0679 112.332 17.7501 112.332C13.7006 112.332 10.0754 110.516 7.64492 107.653Z" fill="#16A75C"/>
<path fill-rule="evenodd" clip-rule="evenodd" d="M112.062 95.0289C110.513 98.8308 107.193 101.631 103.204 102.26C101.522 109.306 95.5032 114.519 88.3363 114.519C79.8663 114.519 73 107.238 73 98.2563C73 89.2748 79.8663 81.9939 88.3363 81.9939C89.7789 81.9939 91.175 82.2051 92.4986 82.6C94.6061 79.7966 97.8541 78 101.498 78C107.85 78 113 83.4607 113 90.1968C113 91.283 112.866 92.336 112.615 93.3383H112.062V95.0289Z" fill="#16A75C"/>
<path d="M16.0466 33.6316V74.7747C16.0466 77.026 17.8718 78.8512 20.1231 78.8512H79.8929C82.1444 78.8512 83.9693 77.026 83.9693 74.7747V33.6316C83.9693 31.3801 82.1441 29.5552 79.8929 29.5552H20.1231C17.8718 29.5552 16.0466 31.3801 16.0466 33.6316Z" fill="#FFB900"/>
<path d="M16.0467 33.6317C16.0467 33.6317 16.0513 33.5819 16.0572 33.484C16.0663 33.3863 16.0619 33.2386 16.0995 33.0479C16.153 32.6673 16.2921 32.0912 16.6976 31.4508C16.9037 31.1357 17.1718 30.8034 17.5313 30.5056C17.8913 30.2109 18.3367 29.947 18.8615 29.7759C18.9916 29.7308 19.1302 29.7039 19.2679 29.6661C19.4079 29.6371 19.5531 29.6209 19.6994 29.5971C19.8476 29.5901 19.9983 29.5828 20.1516 29.5756C20.3059 29.5758 20.4627 29.5761 20.6221 29.5763C21.26 29.5772 21.939 29.5782 22.6584 29.5791C28.4141 29.5838 36.7405 29.5903 47.0292 29.5985C52.174 29.6008 57.8089 29.6032 63.8585 29.606C66.8832 29.6069 70.0116 29.6079 73.234 29.609C74.8451 29.6095 76.48 29.61 78.1369 29.6104C78.5511 29.6104 78.9669 29.6107 79.3839 29.6107C79.802 29.6153 80.218 29.5959 80.6247 29.6808C81.0307 29.7598 81.4276 29.8942 81.7962 30.09C82.161 30.2917 82.4966 30.5472 82.789 30.8475C83.0852 31.1453 83.3203 31.5013 83.5063 31.8783C83.6915 32.2565 83.8214 32.6657 83.8719 33.0871C83.9285 33.5057 83.91 33.9391 83.9128 34.3722C83.9128 34.805 83.9126 35.2393 83.9126 35.6745C83.9123 37.416 83.9119 39.1776 83.9116 40.9577C83.9112 44.5183 83.9107 48.1537 83.9102 51.8545C83.9098 59.2565 83.9093 66.9202 83.9091 74.7694C83.9077 75.738 83.5482 76.6951 82.9122 77.4171C82.283 78.1438 81.3857 78.6304 80.4373 78.7496C79.9663 78.8106 79.4785 78.7851 78.9961 78.7907C78.513 78.7907 78.0308 78.7907 77.5496 78.7907C76.5868 78.7907 75.6274 78.7907 74.6717 78.791C70.8484 78.7912 67.0809 78.7917 63.3791 78.7919C55.9756 78.7931 48.834 78.7942 42.0311 78.7954C35.2282 78.7975 28.7638 78.7994 22.7138 78.801C21.9574 78.8012 21.2076 78.8015 20.4646 78.8019C20.0913 78.805 19.7274 78.797 19.3686 78.7292C19.0138 78.6538 18.6626 78.5516 18.3428 78.3836C18.1764 78.3127 18.0299 78.2062 17.8744 78.1169C17.7335 78.0063 17.5799 77.9112 17.453 77.7848C17.1793 77.5538 16.9563 77.2724 16.7558 76.9824C16.3723 76.3887 16.1371 75.7039 16.1063 75.0092C16.0813 72.2071 16.0972 69.5078 16.0904 66.9367C16.0822 56.6483 16.0757 48.3224 16.071 42.5674C16.0661 39.6911 16.0621 37.4576 16.0595 35.9419C16.057 35.1853 16.0549 34.6082 16.0535 34.2188C16.0509 33.8306 16.0467 33.6317 16.0467 33.6317C16.0467 33.6317 16.0425 33.8306 16.0404 34.2188C16.039 34.6082 16.0368 35.1853 16.0343 35.9419C16.0317 37.4576 16.0277 39.6911 16.0228 42.5674C16.0182 48.3224 16.0116 56.6483 16.0034 66.9367C16.0074 69.5101 15.9887 72.2017 16.0116 75.0146C16.0427 75.7252 16.2825 76.4268 16.6749 77.035C16.8799 77.3323 17.1083 77.6204 17.388 77.857C17.518 77.9865 17.6748 78.0842 17.8193 78.1973C17.9782 78.2891 18.1283 78.3981 18.2986 78.471C18.6261 78.6432 18.9858 78.7484 19.3492 78.8258C19.7153 78.8957 20.0944 78.9041 20.4637 78.901C21.2067 78.9013 21.9565 78.9015 22.7128 78.902C28.7629 78.9038 35.2273 78.9057 42.0302 78.9076C48.8333 78.9087 55.9746 78.9099 63.3782 78.9111C67.08 78.9113 70.8474 78.9118 74.6707 78.912C75.6267 78.912 76.5859 78.912 77.5486 78.9123C78.0299 78.9123 78.5123 78.9123 78.9952 78.9123C79.4773 78.9064 79.9616 78.9331 80.4527 78.87C81.4299 78.747 82.3548 78.2457 83.0027 77.4973C83.6578 76.754 84.0287 75.7668 84.0297 74.7694C84.0292 66.9202 84.0287 59.2565 84.0285 51.8545C84.028 48.1537 84.0276 44.518 84.0271 40.9577C84.0269 39.1774 84.0264 37.416 84.0262 35.6745C84.0262 35.2391 84.0259 34.805 84.0259 34.3722C84.0226 33.9407 84.0418 33.5069 83.9834 33.0717C83.9313 32.6384 83.7976 32.2174 83.6071 31.8287C83.4159 31.441 83.1738 31.0754 82.8692 30.7695C82.5686 30.461 82.2236 30.1985 81.8485 29.9916C81.4699 29.7904 81.0618 29.6523 80.6443 29.5714L80.329 29.5235L80.0114 29.5059C79.7994 29.494 79.5926 29.5027 79.3834 29.5001C78.9664 29.5001 78.5506 29.5003 78.1365 29.5003C76.4793 29.5008 74.8446 29.5013 73.2335 29.5017C70.0111 29.5029 66.8827 29.5038 63.858 29.5048C57.8084 29.5073 52.1735 29.5099 47.0287 29.5123C36.7402 29.5204 28.4137 29.527 22.6579 29.5317C21.9385 29.5326 21.2595 29.5335 20.6217 29.5345C20.4623 29.5347 20.3054 29.5349 20.1512 29.5352C19.9964 29.5431 19.8443 29.5508 19.6949 29.5583C19.5472 29.5828 19.4009 29.5997 19.2597 29.6294C19.1207 29.6679 18.9809 29.6955 18.8498 29.7415C18.3208 29.9161 17.8728 30.184 17.5114 30.4822C17.1506 30.7837 16.8823 31.1196 16.6766 31.4377C16.272 32.0842 16.1367 32.6641 16.0869 33.0462C16.0514 33.2379 16.0577 33.3861 16.0506 33.4838C16.0471 33.5819 16.0467 33.6317 16.0467 33.6317Z" fill="#263238"/>
<path d="M18.4264 32.5945C18.4264 32.5608 18.1125 32.5337 17.7252 32.5337C17.3379 32.5337 17.024 32.561 17.024 32.5945C17.024 32.6279 17.3379 32.6552 17.7252 32.6552C18.1125 32.6555 18.4264 32.6281 18.4264 32.5945Z" fill="#263238"/>
<path d="M24.1469 32.5945C24.1469 32.5608 23.5064 32.5337 22.7169 32.5337C21.9269 32.5337 21.2867 32.561 21.2867 32.5945C21.2867 32.6279 21.9269 32.6552 22.7169 32.6552C23.5064 32.6555 24.1469 32.6281 24.1469 32.5945Z" fill="#263238"/>
<path d="M29.8673 32.5945C29.8673 32.5608 29.2269 32.5337 28.4374 32.5337C27.6474 32.5337 27.0072 32.561 27.0072 32.5945C27.0072 32.6279 27.6474 32.6552 28.4374 32.6552C29.2271 32.6555 29.8673 32.6281 29.8673 32.5945Z" fill="#263238"/>
<path d="M35.588 32.5945C35.588 32.5608 34.9476 32.5337 34.1578 32.5337C33.3678 32.5337 32.7277 32.561 32.7277 32.5945C32.7277 32.6279 33.3678 32.6552 34.1578 32.6552C34.9476 32.6555 35.588 32.6281 35.588 32.5945Z" fill="#263238"/>
<path d="M41.3086 32.5945C41.3086 32.5608 40.6682 32.5337 39.8787 32.5337C39.0887 32.5337 38.4485 32.561 38.4485 32.5945C38.4485 32.6279 39.0887 32.6552 39.8787 32.6552C40.6682 32.6555 41.3086 32.6281 41.3086 32.5945Z" fill="#263238"/>
<path d="M47.0291 32.5945C47.0291 32.5608 46.3886 32.5337 45.5991 32.5337C44.8091 32.5337 44.1689 32.561 44.1689 32.5945C44.1689 32.6279 44.8091 32.6552 45.5991 32.6552C46.3889 32.6555 47.0291 32.6281 47.0291 32.5945Z" fill="#263238"/>
<path d="M52.7498 32.5945C52.7498 32.5608 52.1093 32.5337 51.3198 32.5337C50.5298 32.5337 49.8896 32.561 49.8896 32.5945C49.8896 32.6279 50.5298 32.6552 51.3198 32.6552C52.1093 32.6555 52.7498 32.6281 52.7498 32.5945Z" fill="#263238"/>
<path d="M58.4702 32.5945C58.4702 32.5608 57.8298 32.5337 57.04 32.5337C56.25 32.5337 55.6099 32.561 55.6099 32.5945C55.6099 32.6279 56.25 32.6552 57.04 32.6552C57.8298 32.6555 58.4702 32.6281 58.4702 32.5945Z" fill="#263238"/>
<path d="M64.1907 32.5945C64.1907 32.5608 63.5503 32.5337 62.7605 32.5337C61.9705 32.5337 61.3303 32.561 61.3303 32.5945C61.3303 32.6279 61.9705 32.6552 62.7605 32.6552C63.5505 32.6555 64.1907 32.6281 64.1907 32.5945Z" fill="#263238"/>
<path d="M69.9115 32.5945C69.9115 32.5608 69.2711 32.5337 68.4816 32.5337C67.6916 32.5337 67.0514 32.561 67.0514 32.5945C67.0514 32.6279 67.6916 32.6552 68.4816 32.6552C69.2711 32.6555 69.9115 32.6281 69.9115 32.5945Z" fill="#263238"/>
<path d="M75.632 32.5945C75.632 32.5608 74.9915 32.5337 74.202 32.5337C73.412 32.5337 72.7718 32.561 72.7718 32.5945C72.7718 32.6279 73.412 32.6552 74.202 32.6552C74.9915 32.6555 75.632 32.6281 75.632 32.5945Z" fill="#263238"/>
<path d="M79.8947 33.997C79.9284 33.997 79.9555 33.369 79.9555 32.5946C79.8337 32.4729 79.9214 32.561 79.894 32.5336H79.8936H79.8924H79.8901H79.8856H79.8765H79.8585H79.8225L79.7512 32.5339C79.7042 32.5341 79.658 32.5346 79.6119 32.5348C79.5224 32.536 79.435 32.5371 79.3487 32.5383C79.1954 32.5427 79.0472 32.5472 78.903 32.5514C78.6492 32.5624 78.4924 32.5776 78.4924 32.5944C78.4924 32.6112 78.6492 32.6264 78.903 32.6374C79.0472 32.6416 79.1954 32.646 79.3487 32.6505C79.435 32.6517 79.5224 32.6528 79.6119 32.654C79.658 32.6542 79.7042 32.6547 79.7512 32.6549L79.8225 32.6552H79.8585H79.8765H79.8856H79.8901H79.8924H79.8936H79.894C79.8672 32.6281 79.9553 32.7159 79.8337 32.5944C79.8337 33.369 79.8611 33.997 79.8947 33.997Z" fill="#263238"/>
<path d="M79.8947 39.239C79.9284 39.239 79.9555 38.6521 79.9555 37.9285C79.9555 37.2047 79.9282 36.618 79.8947 36.618C79.8611 36.618 79.834 37.2047 79.834 37.9285C79.8337 38.6521 79.8611 39.239 79.8947 39.239Z" fill="#263238"/>
<path d="M79.8947 44.4811C79.9284 44.4811 79.9555 43.8942 79.9555 43.1706C79.9555 42.4467 79.9282 41.86 79.8947 41.86C79.8611 41.86 79.834 42.4467 79.834 43.1706C79.8337 43.8944 79.8611 44.4811 79.8947 44.4811Z" fill="#263238"/>
<path d="M79.8947 49.7233C79.9284 49.7233 79.9555 49.1365 79.9555 48.4128C79.9555 47.689 79.9282 47.1023 79.8947 47.1023C79.8611 47.1023 79.834 47.689 79.834 48.4128C79.8337 49.1365 79.8611 49.7233 79.8947 49.7233Z" fill="#263238"/>
<path d="M79.8947 54.9654C79.9284 54.9654 79.9555 54.3786 79.9555 53.6549C79.9555 52.9311 79.9282 52.3444 79.8947 52.3444C79.8611 52.3444 79.834 52.9311 79.834 53.6549C79.8337 54.3788 79.8611 54.9654 79.8947 54.9654Z" fill="#263238"/>
<path d="M79.8947 60.2077C79.9284 60.2077 79.9555 59.621 79.9555 58.8972C79.9555 58.1733 79.9282 57.5867 79.8947 57.5867C79.8611 57.5867 79.834 58.1733 79.834 58.8972C79.8337 59.6208 79.8611 60.2077 79.8947 60.2077Z" fill="#263238"/>
<path d="M79.8947 65.4497C79.9284 65.4497 79.9555 64.8628 79.9555 64.1392C79.9555 63.4154 79.9282 62.8287 79.8947 62.8287C79.8611 62.8287 79.834 63.4154 79.834 64.1392C79.8337 64.8631 79.8611 65.4497 79.8947 65.4497Z" fill="#263238"/>
<path d="M79.8947 70.6921C79.9284 70.6921 79.9555 70.1052 79.9555 69.3816C79.9555 68.6577 79.9282 68.071 79.8947 68.071C79.8611 68.071 79.834 68.6577 79.834 69.3816C79.8337 70.1052 79.8611 70.6921 79.8947 70.6921Z" fill="#263238"/>
<path d="M78.4923 74.7154C78.4923 74.7491 79.1201 74.7762 79.8946 74.7762C80.0164 74.6544 79.9283 74.7421 79.9556 74.7147V74.714V74.7129V74.7105V74.7061V74.697V74.679V74.643L79.9554 74.5717C79.9552 74.5247 79.9547 74.4784 79.9545 74.4324C79.9533 74.3429 79.9521 74.2555 79.951 74.1692C79.9465 74.0159 79.9421 73.8677 79.9379 73.7235C79.9269 73.4697 79.9117 73.3128 79.8949 73.3128C79.878 73.3128 79.8628 73.4697 79.8519 73.7235C79.8477 73.8677 79.8432 74.0159 79.8388 74.1692C79.8376 74.2555 79.8364 74.3429 79.8353 74.4324C79.835 74.4784 79.8346 74.5247 79.8343 74.5717L79.8341 74.643V74.679V74.697V74.7061V74.7105V74.7129V74.714V74.7147C79.8612 74.6876 79.7733 74.776 79.8949 74.6544C79.1201 74.6544 78.4923 74.6818 78.4923 74.7154Z" fill="#263238"/>
<path d="M72.8545 74.7154C72.8545 74.7491 73.4856 74.7762 74.2639 74.7762C75.0424 74.7762 75.6733 74.7488 75.6733 74.7154C75.6733 74.682 75.0424 74.6546 74.2639 74.6546C73.4856 74.6544 72.8545 74.6817 72.8545 74.7154Z" fill="#263238"/>
<path d="M67.2168 74.7154C67.2168 74.7491 67.8478 74.7762 68.6262 74.7762C69.4047 74.7762 70.0358 74.7488 70.0358 74.7154C70.0358 74.682 69.4047 74.6546 68.6262 74.6546C67.8478 74.6544 67.2168 74.6817 67.2168 74.7154Z" fill="#263238"/>
<path d="M61.5791 74.7154C61.5791 74.7491 62.2101 74.7762 62.9884 74.7762C63.767 74.7762 64.3978 74.7488 64.3978 74.7154C64.3978 74.682 63.767 74.6546 62.9884 74.6546C62.2101 74.6544 61.5791 74.6817 61.5791 74.7154Z" fill="#263238"/>
<path d="M55.9414 74.7154C55.9414 74.7491 56.5724 74.7762 57.3508 74.7762C58.1293 74.7762 58.7601 74.7488 58.7601 74.7154C58.7601 74.682 58.1293 74.6546 57.3508 74.6546C56.5724 74.6544 55.9414 74.6817 55.9414 74.7154Z" fill="#263238"/>
<path d="M50.3036 74.7154C50.3036 74.7491 50.9346 74.7762 51.7129 74.7762C52.4915 74.7762 53.1226 74.7488 53.1226 74.7154C53.1226 74.682 52.4917 74.6546 51.7129 74.6546C50.9346 74.6544 50.3036 74.6817 50.3036 74.7154Z" fill="#263238"/>
<path d="M44.6658 74.7154C44.6658 74.7491 45.2969 74.7762 46.0752 74.7762C46.8537 74.7762 47.4848 74.7488 47.4848 74.7154C47.4848 74.682 46.854 74.6546 46.0752 74.6546C45.2969 74.6544 44.6658 74.6817 44.6658 74.7154Z" fill="#263238"/>
<path d="M39.0281 74.7154C39.0281 74.7491 39.6592 74.7762 40.4375 74.7762C41.216 74.7762 41.8469 74.7488 41.8469 74.7154C41.8469 74.682 41.216 74.6546 40.4375 74.6546C39.6592 74.6544 39.0281 74.6817 39.0281 74.7154Z" fill="#263238"/>
<path d="M33.3903 74.7154C33.3903 74.7491 34.0214 74.7762 34.7997 74.7762C35.5782 74.7762 36.2093 74.7488 36.2093 74.7154C36.2093 74.682 35.5782 74.6546 34.7997 74.6546C34.0214 74.6544 33.3903 74.6817 33.3903 74.7154Z" fill="#263238"/>
<path d="M27.7525 74.7154C27.7525 74.7491 28.3836 74.7762 29.1619 74.7762C29.9405 74.7762 30.5715 74.7488 30.5715 74.7154C30.5715 74.682 29.9407 74.6546 29.1619 74.6546C28.3836 74.6544 27.7525 74.6817 27.7525 74.7154Z" fill="#263238"/>
<path d="M22.1151 74.7154C22.1151 74.7491 22.7462 74.7762 23.5245 74.7762C24.303 74.7762 24.9341 74.7488 24.9341 74.7154C24.9341 74.682 24.3032 74.6546 23.5245 74.6546C22.7462 74.6544 22.1151 74.6817 22.1151 74.7154Z" fill="#263238"/>
<path d="M17.8937 74.7154C17.8937 74.7491 18.2076 74.7762 18.5948 74.7762C18.9821 74.7762 19.296 74.7488 19.296 74.7154C19.296 74.682 18.9821 74.6546 18.5948 74.6546C18.2076 74.6544 17.8937 74.6817 17.8937 74.7154Z" fill="#263238"/>
<g opacity="0.3">
<path d="M60.5321 56.896C60.5321 56.896 60.5174 59.2335 61.2242 60.6471C61.931 62.0604 62.1685 62.6041 63.6533 63.1477C65.1382 63.6914 83.9697 65.7573 83.9697 65.7573V59.3969L60.5321 56.896Z" fill="black"/>
</g>
<g opacity="0.3">
<path d="M60.8696 48.0847C60.8696 48.0847 60.6546 45.7002 66.6408 44.8142C73.4877 43.8007 83.9694 42.5571 83.9694 42.5571V47.0701L60.8696 48.0847Z" fill="black"/>
</g>
<path d="M83.3477 61.3266H63.8777C62.0298 61.3266 60.5319 59.8286 60.5319 57.981V49.266C60.5319 47.4181 62.0298 45.9202 63.8777 45.9202H83.3477C85.1955 45.9202 86.6932 47.4181 86.6932 49.266V57.981C86.6935 59.8288 85.1955 61.3266 83.3477 61.3266Z" fill="#FFB900"/>
<path d="M83.3477 61.3265C83.3477 61.3265 83.4152 61.3272 83.5475 61.3226C83.6798 61.3216 83.8768 61.2997 84.129 61.2436C84.3826 61.1917 84.6862 61.0792 85.0181 60.8976C85.3477 60.7128 85.6997 60.4381 86.0035 60.049C86.3027 59.661 86.5696 59.161 86.6682 58.5662C86.729 58.271 86.722 57.9538 86.7248 57.6327C86.7255 57.3095 86.7264 56.9738 86.7271 56.6263C86.7297 55.2351 86.7327 53.6516 86.7363 51.9015C86.7351 51.0257 86.7447 50.1106 86.7346 49.1524C86.7094 48.1871 86.237 47.1834 85.3921 46.5584C84.9763 46.2445 84.4808 46.0127 83.9469 45.9239C83.6824 45.8746 83.4049 45.865 83.1371 45.8671C82.8669 45.8668 82.5948 45.8666 82.3209 45.8664C81.2245 45.8654 80.096 45.8647 78.9389 45.8638C74.3096 45.8624 69.2209 45.8608 63.8793 45.8591C63.5395 45.8659 63.2015 45.9127 62.8769 46.0092C62.555 46.113 62.2491 46.2595 61.9684 46.4444C61.6923 46.6363 61.4453 46.8653 61.2319 47.1215C61.0215 47.3809 60.8556 47.6719 60.7254 47.976C60.5987 48.2826 60.527 48.6073 60.4879 48.9333C60.4641 49.2638 60.473 49.5826 60.4713 49.9033C60.4716 50.544 60.4718 51.1792 60.4718 51.8091C60.4723 53.0687 60.4727 54.306 60.4732 55.5177C60.4734 56.1235 60.4739 56.723 60.4741 57.3158C60.4793 57.6135 60.4634 57.9034 60.4858 58.203C60.4865 58.3523 60.5218 58.498 60.5407 58.6445C60.5767 58.7878 60.6055 58.9334 60.6569 59.0713C61.0283 60.1951 62.0062 61.0404 63.0928 61.2856C63.2265 61.3265 63.3665 61.3331 63.5023 61.3581C63.6395 61.3695 63.7781 61.3751 63.9141 61.3794C64.1843 61.3791 64.4522 61.3789 64.7182 61.3787C65.2501 61.3782 65.7734 61.3775 66.2881 61.377C68.3463 61.3744 70.2638 61.3719 72.0147 61.3695C75.5136 61.3614 78.3454 61.3548 80.3066 61.3501C81.2832 61.3452 82.0423 61.3413 82.5609 61.3387C82.8162 61.3361 83.0118 61.334 83.1471 61.3326C83.2801 61.3307 83.3477 61.3265 83.3477 61.3265C83.3477 61.3265 83.2801 61.3223 83.1478 61.3202C83.0125 61.3188 82.8169 61.3167 82.5616 61.3141C82.0428 61.3116 81.2839 61.3076 80.3073 61.3027C78.3464 61.298 75.5143 61.2915 72.0154 61.2833C70.2645 61.2809 68.3473 61.2786 66.2888 61.2758C65.7741 61.2753 65.2508 61.2746 64.7189 61.2742C64.1871 61.2611 63.6416 61.3181 63.1183 61.1812C62.0668 60.9423 61.1213 60.1219 60.764 59.0351C60.5613 58.4959 60.5894 57.9087 60.5891 57.3155C60.5894 56.7228 60.5898 56.1233 60.5901 55.5175C60.5905 54.3058 60.591 53.0685 60.5915 51.8089C60.5917 51.1792 60.5917 50.5437 60.5919 49.9031C60.5936 49.5833 60.5854 49.2587 60.6083 48.9448C60.6464 48.6304 60.7153 48.3175 60.8376 48.0218C60.9633 47.7287 61.1234 47.448 61.3263 47.1977C61.5322 46.9506 61.7706 46.7298 62.0366 46.5447C62.3075 46.3665 62.6022 46.2254 62.9124 46.1251C63.2253 46.0323 63.5509 45.9874 63.8791 45.9804C69.2205 45.9788 74.3094 45.9772 78.9386 45.9758C80.0958 45.9748 81.2243 45.9741 82.3207 45.9732C82.5948 45.973 82.8669 45.9727 83.1368 45.9725C83.4087 45.9699 83.6695 45.9788 83.9285 46.026C84.446 46.1109 84.9267 46.335 85.3308 46.6386C86.1522 47.2435 86.6131 48.2165 86.6404 49.1552C86.6528 50.1071 86.646 51.0266 86.65 51.9012C86.6533 53.6514 86.6563 55.2349 86.6591 56.626C86.6601 56.9736 86.6608 57.3092 86.6615 57.6325C86.6603 57.9562 86.6689 58.2654 86.6107 58.5559C86.5175 59.1412 86.258 59.6348 85.9659 60.0198C85.6691 60.4056 85.3241 60.68 84.9999 60.8661C84.6734 61.0489 84.3737 61.1641 84.1229 61.2195C83.8736 61.2791 83.6779 61.3048 83.5463 61.3099C83.4154 61.319 83.3477 61.3265 83.3477 61.3265Z" fill="#263238"/>
<path d="M68.413 59.8042C65.3196 59.8042 62.8119 57.2966 62.8119 54.2032C62.8119 51.1098 65.3196 48.6021 68.413 48.6021C71.5064 48.6021 74.014 51.1098 74.014 54.2032C74.014 57.2966 71.5064 59.8042 68.413 59.8042Z" fill="#263238"/>
<path d="M66.9769 58.7785C66.991 58.7481 66.4003 58.6291 65.6414 58.0789C65.2639 57.8069 64.8586 57.4182 64.5102 56.9112C64.1614 56.4066 63.8821 55.776 63.766 55.0774C63.6599 54.3771 63.73 53.6907 63.905 53.1029C64.0792 52.5129 64.344 52.0177 64.6186 51.6418C65.1695 50.8834 65.694 50.5873 65.6713 50.5627C65.669 50.5592 65.6374 50.5772 65.579 50.6151C65.5224 50.655 65.4318 50.7053 65.3308 50.7906C65.1202 50.95 64.8371 51.2134 64.5494 51.5909C64.261 51.9669 63.9819 52.4685 63.7978 53.0706C63.6126 53.6706 63.5367 54.3755 63.6461 55.0966C63.7657 55.8157 64.0563 56.462 64.4183 56.975C64.7801 57.4904 65.2008 57.8807 65.5916 58.1488C65.9822 58.4183 66.333 58.5812 66.5826 58.6675C66.7051 58.717 66.807 58.7369 66.8732 58.7572C66.9402 58.7752 66.9758 58.7825 66.9769 58.7785Z" fill="#FAFAFA"/>
<circle cx="71.9915" cy="33.9915" r="16.9915" fill="#E43B3D"/>
<circle cx="71.9916" cy="33.9916" r="12.6039" fill="white"/>
<rect x="61.1832" y="25.6826" width="4.44123" height="27.4069" transform="rotate(-45 61.1832 25.6826)" fill="#EB3B3B"/>
</g>
<defs>
<clipPath id="clip0_488_83663">
<path d="M0 8C0 3.58172 3.58172 0 8 0H92C96.4183 0 100 3.58172 100 8V92C100 96.4183 96.4183 100 92 100H8C3.58172 100 0 96.4183 0 92V8Z" fill="white"/>
</clipPath>
<clipPath id="clip1_488_83663">
<rect width="100" height="100" fill="white"/>
</clipPath>
</defs>
</svg>
