<svg width="100" height="100" viewBox="0 0 100 100" fill="none" xmlns="http://www.w3.org/2000/svg">
<g clip-path="url(#clip0_636_149228)">
<path d="M0 8C0 3.58172 3.58172 0 8 0H92C96.4183 0 100 3.58172 100 8V92C100 96.4183 96.4183 100 92 100H8C3.58172 100 0 96.4183 0 92V8Z" fill="#E3F2FD"/>
<g clip-path="url(#clip1_636_149228)">
<path fill-rule="evenodd" clip-rule="evenodd" d="M63.0618 18V55.8319H-34.2332V71.4665H-58V80.4226H122.332V57.5948H105.331V51.4181H95.8493V36.6007L63.0618 18Z" fill="#BBDEFB"/>
<path d="M25.23 80.4226V45.7434L14.511 33.7633H3.79199V80.4226H25.23Z" fill="#BBDEFB"/>
<path d="M25.2298 46.3735L14.5107 34.0781V80.4222H25.2298V46.3735Z" fill="#90CAF9" stroke="#90CAF9"/>
<g opacity="0.37">
<path d="M76.2832 8.99991H53.5841V104H76.2832V8.99991Z" fill="#90CAF9"/>
<path d="M53.584 9H25V104H53.584V9Z" fill="#BBDEFB"/>
<rect x="27.5221" y="14.8849" width="23.5398" height="2.52212" fill="#E3F2FD"/>
<rect x="27.522" y="24.1328" width="23.5398" height="2.52212" fill="#E3F2FD"/>
<rect x="27.522" y="33.3809" width="23.5398" height="2.52212" fill="#E3F2FD"/>
<rect x="27.5221" y="41.7872" width="23.5398" height="2.52212" fill="#E3F2FD"/>
<rect x="27.522" y="50.1943" width="23.5398" height="2.52212" fill="#E3F2FD"/>
<rect x="27.5221" y="58.6016" width="23.5398" height="2.52212" fill="#E3F2FD"/>
<rect x="27.522" y="67.0088" width="23.5398" height="2.52212" fill="#E3F2FD"/>
<rect x="27.5221" y="75.4159" width="23.5398" height="2.52212" fill="#E3F2FD"/>
<rect x="27.522" y="83.8223" width="23.5398" height="2.52212" fill="#E3F2FD"/>
</g>
</g>
<path d="M99.7987 23.1952H7.88269V46.2268H99.7987V23.1952Z" fill="#3BA5F0"/>
<path d="M116.02 23.1952H85.8309V46.2268H116.02V23.1952Z" fill="#3195D3"/>
<path d="M13.4947 24.0869H12.8575V46.2215H13.4947V24.0869Z" fill="#AEE7ED"/>
<path d="M23.7897 24.0869H23.1501V46.2215H23.7897V24.0869Z" fill="#AEE7ED"/>
<path d="M35.8036 24.0869H35.1646V46.2215H35.8036V24.0869Z" fill="#AEE7ED"/>
<path d="M49.5365 24.0869H48.9008V46.2215H49.5365V24.0869Z" fill="#AEE7ED"/>
<path d="M59.8315 24.0869H59.1943V46.2215H59.8315V24.0869Z" fill="#AEE7ED"/>
<path d="M71.8468 24.0869H71.2073V46.2215H71.8468V24.0869Z" fill="#AEE7ED"/>
<path d="M83.8593 24.0869H83.2231V46.2215H83.8593V24.0869Z" fill="#AEE7ED"/>
<path d="M98.6252 24.0869H97.9862V46.2215H98.6252V24.0869Z" fill="#AEE7ED"/>
<path d="M115.896 26.528H7.73706V26.9221H115.896V26.528Z" fill="#80D1F9"/>
<path d="M115.896 34.0916H7.73706V34.4846H115.896V34.0916Z" fill="#80D1F9"/>
<path d="M115.896 30.0466H7.73706V30.4392H115.896V30.0466Z" fill="#80D1F9"/>
<path d="M115.896 38.6404H7.73706V39.0334H115.896V38.6404Z" fill="#80D1F9"/>
<path d="M115.896 43.2283H7.73706V43.6223H115.896V43.2283Z" fill="#80D1F9"/>
<path d="M114.09 46.2965H-0.979492V99.9326H114.09V46.2965Z" fill="#FFD900"/>
<path d="M128.678 46.2965H94.5975V99.9326H128.678V46.2965Z" fill="#FEB101"/>
<path d="M29.2255 49.8222H5.48657V96.7799H29.2255V49.8222Z" fill="#66B8E8"/>
<path d="M7.82831 49.8222H5.48657V96.7799H7.82831V49.8222Z" fill="#4984AE"/>
<path d="M6.1112 49.8222H5.37854V97.2895H6.1112V49.8222Z" fill="white"/>
<path d="M29.2698 49.8222H28.5386V97.2895H29.2698V49.8222Z" fill="white"/>
<g opacity="0.1">
<path d="M22.2967 49.9502H21.5664V97.2895H22.2967V49.9502Z" fill="black"/>
</g>
<g opacity="0.1">
<path d="M13.3342 49.9502H12.6016V97.2895H13.3342V49.9502Z" fill="black"/>
</g>
<path d="M21.6744 49.9502H20.9441V97.2895H21.6744V49.9502Z" fill="white"/>
<path d="M12.71 49.9502H11.9778V97.2895H12.71V49.9502Z" fill="white"/>
<path d="M29.2255 49.8222H5.48657V50.5004H29.2255V49.8222Z" fill="white"/>
<path d="M29.2255 66.0965H5.48657V66.7747H29.2255V66.0965Z" fill="white"/>
<path d="M29.2255 81.3539H5.48657V82.0326H29.2255V81.3539Z" fill="white"/>
<path d="M29.2255 96.6108H5.48657V97.2895H29.2255V96.6108Z" fill="white"/>
<g opacity="0.2">
<path d="M17.0204 96.7803H7.20972L17.3466 49.8647H27.1578L17.0204 96.7803Z" fill="#F9F9F9"/>
</g>
<path d="M87.5183 49.3671H63.7794V96.3261H87.5183V49.3671Z" fill="#66B8E8"/>
<path d="M66.1207 49.3671H63.7794V96.3261H66.1207V49.3671Z" fill="#4984AE"/>
<path d="M64.4027 49.3671H63.6715V96.8358H64.4027V49.3671Z" fill="white"/>
<path d="M87.5633 49.3671H86.8315V96.8358H87.5633V49.3671Z" fill="white"/>
<g opacity="0.1">
<path d="M80.5896 49.4951H79.8602V96.8358H80.5896V49.4951Z" fill="black"/>
</g>
<g opacity="0.1">
<path d="M71.6247 49.4951H70.8954V96.8358H71.6247V49.4951Z" fill="black"/>
</g>
<path d="M79.9667 49.4951H79.2365V96.8358H79.9667V49.4951Z" fill="white"/>
<path d="M71.0028 49.4951H70.2711V96.8358H71.0028V49.4951Z" fill="white"/>
<path d="M87.5183 49.3671H63.7794V50.0472H87.5183V49.3671Z" fill="white"/>
<path d="M87.5183 65.6423H63.7794V66.321H87.5183V65.6423Z" fill="white"/>
<path d="M87.5183 80.8997H63.7794V81.5774H87.5183V80.8997Z" fill="white"/>
<path d="M87.5183 96.1557H63.7794V96.8358H87.5183V96.1557Z" fill="white"/>
<g opacity="0.2">
<path d="M75.3133 96.3267H65.5035L75.6385 49.4096H85.4492L75.3133 96.3267Z" fill="#F9F9F9"/>
</g>
<path d="M74.6151 75.303H21.2927V78.0292H74.6151V75.303Z" fill="#7C5775"/>
<path d="M66.9331 75.303H21.2927V78.0292H66.9331V75.303Z" fill="#936F8B"/>
<path d="M61.5093 79.3928H32.5897V100H61.5093V79.3928Z" fill="#FEB101"/>
<path d="M35.7525 79.3928H32.5897V100H35.7525V79.3928Z" fill="#E29700"/>
<path d="M54.2797 22.5753H40.2717V73.9394H54.2797V22.5753Z" fill="#283C59"/>
<path d="M51.5688 22.5753H40.2717V73.9394H51.5688V22.5753Z" fill="#304668"/>
<path d="M115.585 20H7.43469V24.2426H115.585V20Z" fill="#A7DE00"/>
<path d="M116.151 20H86.063V24.2426H116.151V20Z" fill="#90B704"/>
<path d="M57.7667 81.212H37.1013V99.0968H57.7667V81.212Z" fill="#3BA5F0"/>
<path d="M57.7667 81.212H56.5583V99.0968H57.7667V81.212Z" fill="#F9F8F4"/>
<g opacity="0.1">
<path d="M39.1923 81.212H37.1013V99.0968H39.1923V81.212Z" fill="black"/>
</g>
<path d="M38.0957 81.212H37.1013V99.0968H38.0957V81.212Z" fill="#F9F8F4"/>
<path d="M47.3284 81.212H46.3359V99.0968H47.3284V81.212Z" fill="#F9F8F4"/>
<path d="M57.7667 81.212H37.1013V81.9796H57.7667V81.212Z" fill="#F9F8F4"/>
<g opacity="0.2">
<path d="M47.6642 97.6363H38.2566L47.9765 81.4514H57.3798L47.6642 97.6363Z" fill="#F9F9F9"/>
</g>
<path d="M40.3743 45.4172H-1V46.5062H40.3743V45.4172Z" fill="#33496E"/>
<path d="M40.3743 36.6004H-1V37.6899H40.3743V36.6004Z" fill="#33496E"/>
<path d="M40.3743 39.8587H-1V40.5025H40.3743V39.8587Z" fill="#33496E"/>
<path d="M11.4104 36.6004H10.7441V46.3499H11.4104V36.6004Z" fill="#33496E"/>
<path d="M26.2833 36.6004H25.6171V46.3499H26.2833V36.6004Z" fill="#33496E"/>
<path d="M40.3749 36.6004H39.7086V46.3499H40.3749V36.6004Z" fill="#33496E"/>
<path d="M128.496 44.962H54.1316V46.0514H128.496V44.962Z" fill="#33496E"/>
<path d="M128.496 36.1467H54.1316V37.2356H128.496V36.1467Z" fill="#33496E"/>
<path d="M128.496 39.4045H54.1316V40.0483H128.496V39.4045Z" fill="#33496E"/>
<path d="M55.3247 36.1467H54.1316V45.8948H55.3247V36.1467Z" fill="#33496E"/>
<path d="M76.4353 36.1467H75.2379V45.8948H76.4353V36.1467Z" fill="#33496E"/>
<path fill-rule="evenodd" clip-rule="evenodd" d="M7.64492 107.653C4.49642 110.559 0.288879 112.334 -4.33323 112.334C-14.0903 112.334 -22 104.424 -22 94.6668C-22 84.9097 -14.0903 77 -4.33323 77C2.787 77 8.92343 81.2122 11.7201 87.2806C13.5289 86.3546 15.5785 85.8322 17.7501 85.8322C25.0679 85.8322 31.0002 91.7645 31.0002 99.0823C31.0002 106.4 25.0679 112.332 17.7501 112.332C13.7006 112.332 10.0754 110.516 7.64492 107.653Z" fill="#16A75C"/>
<path fill-rule="evenodd" clip-rule="evenodd" d="M112.062 95.0289C110.513 98.8308 107.193 101.631 103.204 102.26C101.522 109.306 95.5032 114.519 88.3363 114.519C79.8663 114.519 73 107.238 73 98.2563C73 89.2748 79.8663 81.9939 88.3363 81.9939C89.7789 81.9939 91.175 82.2051 92.4986 82.6C94.6061 79.7966 97.8541 78 101.498 78C107.85 78 113 83.4607 113 90.1968C113 91.283 112.866 92.336 112.615 93.3383H112.062V95.0289Z" fill="#16A75C"/>
</g>
<defs>
<clipPath id="clip0_636_149228">
<path d="M0 8C0 3.58172 3.58172 0 8 0H92C96.4183 0 100 3.58172 100 8V92C100 96.4183 96.4183 100 92 100H8C3.58172 100 0 96.4183 0 92V8Z" fill="white"/>
</clipPath>
<clipPath id="clip1_636_149228">
<rect width="100" height="100" fill="white"/>
</clipPath>
</defs>
</svg>
