<svg width="100" height="100" viewBox="0 0 100 100" fill="none" xmlns="http://www.w3.org/2000/svg">
<g clip-path="url(#clip0_607_926572)">
<path d="M0 8C0 3.58172 3.58172 0 8 0H92C96.4183 0 100 3.58172 100 8V92C100 96.4183 96.4183 100 92 100H8C3.58172 100 0 96.4183 0 92V8Z" fill="#E3F2FD"/>
<g clip-path="url(#clip1_607_926572)">
<path fill-rule="evenodd" clip-rule="evenodd" d="M63.0618 48V85.8319H-34.2332V101.466H-58V110.423H122.332V87.5948H105.331V81.4181H95.8493V66.6007L63.0618 48Z" fill="#BBDEFB"/>
<path d="M25.23 110.423V75.7434L14.511 63.7633H3.79199V110.423H25.23Z" fill="#BBDEFB"/>
<g opacity="0.37">
<path d="M76.2832 8.99991H53.5841V104H76.2832V8.99991Z" fill="#90CAF9"/>
<path d="M53.584 9H25V104H53.584V9Z" fill="#BBDEFB"/>
<rect x="27.5221" y="14.8849" width="23.5398" height="2.52212" fill="#E3F2FD"/>
<rect x="27.522" y="24.1328" width="23.5398" height="2.52212" fill="#E3F2FD"/>
<rect x="27.522" y="33.3809" width="23.5398" height="2.52212" fill="#E3F2FD"/>
<rect x="27.5221" y="41.7872" width="23.5398" height="2.52212" fill="#E3F2FD"/>
<rect x="27.522" y="50.1943" width="23.5398" height="2.52212" fill="#E3F2FD"/>
<rect x="27.5221" y="58.6016" width="23.5398" height="2.52212" fill="#E3F2FD"/>
<rect x="27.522" y="67.0088" width="23.5398" height="2.52212" fill="#E3F2FD"/>
<rect x="27.5221" y="75.4159" width="23.5398" height="2.52212" fill="#E3F2FD"/>
<rect x="27.522" y="83.8223" width="23.5398" height="2.52212" fill="#E3F2FD"/>
</g>
</g>
<path d="M29.5916 56.0139H44.5068V42.8384H29.5916V56.0139Z" fill="#383B5B"/>
<path d="M52.9763 60.8392H21.1221V57.5557C21.1221 54.9404 23.2416 52.8198 25.8569 52.8198H48.2415C50.8568 52.8198 52.9763 54.9404 52.9763 57.5557V60.8392Z" fill="#1A1E35"/>
<path d="M61.2745 49.4267H12.8239C11.264 49.4267 10 48.1616 10 46.6018V13.1803C10 11.6204 11.264 10.3553 12.8239 10.3553H61.2745C62.8343 10.3553 64.0994 11.6204 64.0994 13.1803V46.6018C64.0994 48.1616 62.8343 49.4267 61.2745 49.4267Z" fill="#1A1E35"/>
<path d="M13.6687 46.2038H60.4297V13.5782H13.6687V46.2038Z" fill="#383B5B"/>
<path d="M37.3588 46.2038H30.4407L45.025 13.5782H51.9421L37.3588 46.2038Z" fill="#484A68"/>
<path d="M48.7704 46.2038H39.3348L53.9192 13.5782H60.4298V20.1197L48.7704 46.2038Z" fill="#484A68"/>
<path d="M25.0462 45.9644H13.9082V39.9326L25.7964 13.3388H39.6306L25.0462 45.9644Z" fill="#484A68"/>
<path d="M68.2924 65.771H72.2558V45.1286H68.2924V65.771Z" fill="#DDDDCC"/>
<path d="M56.2075 47.7361V38.2345C56.2075 37.2928 56.9704 36.5299 57.9121 36.5299H82.6364C83.578 36.5299 84.3409 37.2928 84.3409 38.2345V47.7361C84.3409 48.6777 83.578 49.4406 82.6364 49.4406H57.9121C56.9704 49.4406 56.2075 48.6777 56.2075 47.7361Z" fill="#CCCBB8"/>
<path d="M82.134 39.7815V46.189C82.134 46.7646 81.6658 47.2328 81.0891 47.2328H59.4589C59.1514 47.2328 58.8748 47.0998 58.6843 46.8891C58.5173 46.704 58.4141 46.4582 58.4141 46.189V39.7815C58.4141 39.2049 58.8822 38.7378 59.4589 38.7378H81.0891C81.6658 38.7378 82.134 39.2049 82.134 39.7815Z" fill="#383B5B"/>
<path d="M82.6991 100H24.2191C20.3502 100 17.2427 96.8101 17.3441 92.9435L17.441 90.4069L89.5034 90.242L89.5747 92.9435C89.6758 96.8101 86.5678 100 82.6991 100Z" fill="#282C49"/>
<path d="M82.6991 96.1143H24.2191C20.3502 96.1143 17.2427 92.9244 17.3441 89.0568L18.1333 58.9539C18.2054 56.2024 20.4569 54.0095 23.2097 54.0095H83.7088C86.4614 54.0095 88.7128 56.2024 88.7852 58.9539L89.5747 89.0568C89.6758 92.9244 86.5678 96.1143 82.6991 96.1143Z" fill="#383B5B"/>
<path d="M85.5273 86.5254L85.4848 87.184L85.34 89.4121C85.2017 91.5613 83.4184 93.234 81.2628 93.234H25.6555C23.5006 93.234 21.7167 91.5613 21.5783 89.4121L21.4339 87.184L21.3914 86.5254H85.5273Z" fill="#CCCBB8"/>
<path d="M85.4848 87.184C85.206 89.0056 83.6324 90.4069 81.7267 90.4069H25.1916C23.2867 90.4069 21.7129 89.0056 21.434 87.184C21.4011 86.9702 21.3866 86.751 21.3914 86.5254L21.8553 64.277H85.0634L85.5274 86.5254C85.5327 86.751 85.5178 86.9702 85.4848 87.184Z" fill="#DDDDCC"/>
<path d="M85.0632 64.277H21.8541L22.3054 53.7114C22.3577 52.4836 23.3697 51.5143 24.5997 51.5143H82.3192C83.5492 51.5143 84.561 52.4836 84.6132 53.7114L85.0632 64.277Z" fill="#CCCBB8"/>
<path d="M53.641 77.676H49.119V73.154H53.641V77.676Z" fill="#383B5B"/>
<path d="M53.641 82.6897H49.119V78.1676H53.641V82.6897Z" fill="#383B5B"/>
<path d="M58.6451 87.7032H49.119V83.1812H58.6451V87.7032Z" fill="#383B5B"/>
<path d="M58.6451 77.676H54.123V73.154H58.6451V77.676Z" fill="#383B5B"/>
<path d="M58.6451 82.6897H54.123V78.1676H58.6451V82.6897Z" fill="#383B5B"/>
<path d="M63.6492 77.676H59.1272V73.154H63.6492V77.676Z" fill="#383B5B"/>
<path d="M63.6492 82.6897H59.1272V78.1676H63.6492V82.6897Z" fill="#383B5B"/>
<path d="M63.6492 87.7032H59.1272V83.1812H63.6492V87.7032Z" fill="#ED1C24"/>
<path d="M68.653 77.676H64.131V73.154H68.653V77.676Z" fill="#383B5B"/>
<path d="M68.653 82.6897H64.131V78.1676H68.653V82.6897Z" fill="#383B5B"/>
<path d="M68.653 87.7032H64.131V83.1812H68.653V87.7032Z" fill="#009444"/>
<path d="M73.6573 77.676H69.1353V73.154H73.6573V77.676Z" fill="#383B5B"/>
<path d="M73.6573 82.6897H69.1353V78.1676H73.6573V82.6897Z" fill="#383B5B"/>
<path d="M53.641 77.676H49.119V76.5311H53.641V77.676Z" fill="#282C49"/>
<path d="M58.6451 77.676H54.123V76.5311H58.6451V77.676Z" fill="#282C49"/>
<path d="M63.6492 77.676H59.1272V76.5311H63.6492V77.676Z" fill="#282C49"/>
<path d="M68.653 77.676H64.131V76.5311H68.653V77.676Z" fill="#282C49"/>
<path d="M73.6573 77.676H69.1353V76.5311H73.6573V77.676Z" fill="#282C49"/>
<path d="M78.6612 77.676H74.1392V73.154H78.6612V77.676Z" fill="#383B5B"/>
<path d="M78.6612 82.6897H74.1392V78.1676H78.6612V82.6897Z" fill="#383B5B"/>
<path d="M78.6613 87.7032H69.1353V83.1812H78.6613V87.7032Z" fill="#FFF200"/>
<path d="M78.6612 77.676H74.1392V76.5311H78.6612V77.676Z" fill="#282C49"/>
<path d="M53.641 82.6897H49.119V81.5448H53.641V82.6897Z" fill="#282C49"/>
<path d="M58.6451 82.6897H54.123V81.5448H58.6451V82.6897Z" fill="#282C49"/>
<path d="M63.6492 82.6897H59.1272V81.5448H63.6492V82.6897Z" fill="#282C49"/>
<path d="M68.653 82.6897H64.131V81.5448H68.653V82.6897Z" fill="#282C49"/>
<path d="M73.6573 82.6897H69.1353V81.5448H73.6573V82.6897Z" fill="#282C49"/>
<path d="M78.6612 82.6897H74.1392V81.5448H78.6612V82.6897Z" fill="#282C49"/>
<path d="M58.6451 87.7032H49.119V86.5584H58.6451V87.7032Z" fill="#282C49"/>
<path d="M63.6492 87.7032H59.1272V86.5584H63.6492V87.7032Z" fill="#D30F1E"/>
<path d="M68.653 87.7032H64.131V86.5584H68.653V87.7032Z" fill="#007C35"/>
<path d="M78.6613 87.7032H69.1353V86.5584H78.6613V87.7032Z" fill="#E2D100"/>
<path d="M32.7794 77.676H28.2577V73.154H32.7794V77.676Z" fill="#F7941D"/>
<path d="M32.7794 82.6897H28.2577V78.1676H32.7794V82.6897Z" fill="#F7941D"/>
<path d="M32.7794 87.7032H28.2577V83.1812H32.7794V87.7032Z" fill="#F7941D"/>
<path d="M37.7832 77.676H33.2615V73.154H37.7832V77.676Z" fill="#F7941D"/>
<path d="M37.7832 82.6897H33.2615V78.1676H37.7832V82.6897Z" fill="#F7941D"/>
<path d="M32.7794 77.676H28.2577V76.5311H32.7794V77.676Z" fill="#E27A0A"/>
<path d="M37.7832 77.676H33.2615V76.5311H37.7832V77.676Z" fill="#E27A0A"/>
<path d="M42.7872 77.676H38.2656V73.154H42.7872V77.676Z" fill="#F7941D"/>
<path d="M42.7872 82.6897H38.2656V78.1676H42.7872V82.6897Z" fill="#F7941D"/>
<path d="M42.7871 87.7032H33.2615V83.1812H42.7871V87.7032Z" fill="#27AAE1"/>
<path d="M42.7872 77.676H38.2656V76.5311H42.7872V77.676Z" fill="#E27A0A"/>
<path d="M32.7794 82.6897H28.2577V81.5448H32.7794V82.6897Z" fill="#E27A0A"/>
<path d="M37.7832 82.6897H33.2615V81.5448H37.7832V82.6897Z" fill="#E27A0A"/>
<path d="M42.7872 82.6897H38.2656V81.5448H42.7872V82.6897Z" fill="#E27A0A"/>
<path d="M32.7794 87.7032H28.2577V86.5584H32.7794V87.7032Z" fill="#E27A0A"/>
<path d="M42.7871 87.7032H33.2615V86.5584H42.7871V87.7032Z" fill="#0D8EBA"/>
<path d="M73.637 69.6577H54.1433C51.3918 69.6577 49.1829 67.3861 49.2595 64.6356L49.3372 61.8841H78.4431L78.5197 64.6356C78.5974 67.3861 76.3885 69.6577 73.637 69.6577Z" fill="#CCCBB8"/>
<path d="M44.9923 51.5143V65.7241C44.9923 67.9074 43.086 69.6779 40.7337 69.6779H30.3092C27.958 69.6779 26.0527 67.9074 26.0527 65.7241V51.5143H44.9923Z" fill="#CCCBB8"/>
<path d="M75.75 66.1954H52.0302L52.0408 65.4836L52.2057 54.0094H75.5745L75.75 66.1954Z" fill="#383B5B"/>
<path d="M81.2629 93.234H75.7502C75.7502 93.234 79.055 93.234 81.7268 90.4069C83.6324 90.4069 85.2061 89.0056 85.4848 87.184L85.3401 89.4121C85.2018 91.5613 83.4185 93.234 81.2629 93.234Z" fill="#C2C0AD"/>
<path d="M81.7267 90.4069C82.2683 89.8334 82.6236 88.4183 82.846 86.5254C83.7217 79.0869 82.5417 64.277 82.5417 64.277H85.0634L85.5273 86.5254C85.5284 86.5541 85.5284 86.5818 85.5284 86.6095C85.5284 86.8052 85.5135 86.9968 85.4848 87.184C85.206 89.0056 83.6323 90.4069 81.7267 90.4069Z" fill="#D1D0BF"/>
<path d="M85.0633 64.277H82.5416C82.5416 64.277 82.3192 61.4946 82.0224 57.1928C81.7266 52.89 77.9568 51.5143 77.9568 51.5143H82.3192C83.5492 51.5143 84.5611 52.4836 84.6132 53.7114L85.0633 64.277Z" fill="#C2C0AD"/>
<path d="M22.3064 53.6901C22.3695 52.4718 23.3759 51.5142 24.5996 51.5142C23.3769 51.5142 22.3696 52.4718 22.3064 53.6901Z" fill="white"/>
<path d="M21.3914 86.5254L21.8552 64.277H21.8553L21.3914 86.5254Z" fill="#50536F"/>
<path d="M31.169 93.234H25.6555C23.5007 93.234 21.7168 91.5613 21.5783 89.4121L21.434 87.184C21.7129 89.0056 23.2867 90.4069 25.1916 90.4069C27.8636 93.234 31.169 93.234 31.169 93.234Z" fill="#D2D1C1"/>
<path d="M25.1917 90.4069C23.2868 90.4069 21.713 89.0056 21.434 87.184C21.4053 86.9968 21.3906 86.8052 21.3905 86.6095C21.3905 86.5818 21.3908 86.5541 21.3915 86.5254L21.8554 64.277H24.3772C24.3772 64.277 23.1976 79.0869 24.0731 86.5254C24.2948 88.4183 24.6503 89.8334 25.1917 90.4069Z" fill="#E1E1D2"/>
<path d="M24.3769 64.277H21.855L22.3054 53.7114C22.3057 53.704 22.306 53.6976 22.3064 53.6901C22.3696 52.4719 23.3769 51.5143 24.5997 51.5143H28.9616C28.9616 51.5143 28.9614 51.5143 28.9611 51.5143H26.0526V53.8497C25.4639 54.685 24.9932 55.782 24.896 57.1928C24.5997 61.4946 24.3769 64.277 24.3769 64.277Z" fill="#D2D1C1"/>
<path d="M26.0527 53.8498V51.5143H28.9612C28.9265 51.527 27.2469 52.1537 26.0527 53.8498Z" fill="#D2D1C1"/>
<path d="M42.8076 51.5144V65.5848C42.8076 66.8914 41.6651 67.9522 40.2578 67.9522H30.7869C29.3784 67.9522 28.2371 66.8914 28.2371 65.5848V51.5144H42.8076Z" fill="#BFBEA9"/>
<path d="M42.0154 66.1954H29.0298C28.9126 66.1954 28.8176 66.0996 28.8176 65.9826C28.8176 65.8656 28.9126 65.7709 29.0298 65.7709H42.0154C42.1325 65.7709 42.2275 65.8656 42.2275 65.9826C42.2275 66.0996 42.1325 66.1954 42.0154 66.1954Z" fill="#383B5B"/>
<path d="M41.1605 65.9826H29.9025V45.9304H41.1605V65.9826Z" fill="#E8E6EF"/>
<path d="M40.1014 47.5807H35.339C35.1793 47.5807 35.0497 47.4509 35.0497 47.2913C35.0497 47.1317 35.1793 47.0019 35.339 47.0019H40.1014C40.2612 47.0019 40.3907 47.1317 40.3907 47.2913C40.3907 47.4509 40.2612 47.5807 40.1014 47.5807Z" fill="#D3D0E2"/>
<path d="M33.9837 47.5807H30.9617C30.802 47.5807 30.6724 47.4509 30.6724 47.2913C30.6724 47.1317 30.802 47.0019 30.9617 47.0019H33.9837C34.1434 47.0019 34.273 47.1317 34.273 47.2913C34.273 47.4509 34.1434 47.5807 33.9837 47.5807Z" fill="#D3D0E2"/>
<path d="M40.1013 50.6227H37.1798C37.0201 50.6227 36.8906 50.4928 36.8906 50.3332C36.8906 50.1726 37.0201 50.0438 37.1798 50.0438H40.1013C40.2611 50.0438 40.3906 50.1726 40.3906 50.3332C40.3906 50.4928 40.2611 50.6227 40.1013 50.6227Z" fill="#D3D0E2"/>
<path d="M35.5315 50.6227H30.9617C30.802 50.6227 30.6724 50.4928 30.6724 50.3332C30.6724 50.1726 30.802 50.0438 30.9617 50.0438H35.5315C35.6912 50.0438 35.8208 50.1726 35.8208 50.3332C35.8208 50.4928 35.6912 50.6227 35.5315 50.6227Z" fill="#D3D0E2"/>
<path d="M40.1013 53.6636H38.649C38.4892 53.6636 38.3597 53.5349 38.3597 53.3753C38.3597 53.2146 38.4892 53.0858 38.649 53.0858H40.1013C40.2611 53.0858 40.3906 53.2146 40.3906 53.3753C40.3906 53.5349 40.2611 53.6636 40.1013 53.6636Z" fill="#D3D0E2"/>
<path d="M37.395 53.6636H34.3239C34.164 53.6636 34.0345 53.5349 34.0345 53.3753C34.0345 53.2146 34.164 53.0858 34.3239 53.0858H37.395C37.5547 53.0858 37.6843 53.2146 37.6843 53.3753C37.6843 53.5349 37.5547 53.6636 37.395 53.6636Z" fill="#D3D0E2"/>
<path d="M33.306 53.6636H30.9617C30.802 53.6636 30.6724 53.5349 30.6724 53.3753C30.6724 53.2146 30.802 53.0858 30.9617 53.0858H33.306C33.4657 53.0858 33.5952 53.2146 33.5952 53.3753C33.5952 53.5349 33.4657 53.6636 33.306 53.6636Z" fill="#D3D0E2"/>
<path d="M40.1011 56.7056H36.5116C36.3519 56.7056 36.2224 56.5768 36.2224 56.4161C36.2224 56.2565 36.3519 56.1278 36.5116 56.1278H40.1011C40.261 56.1278 40.3904 56.2565 40.3904 56.4161C40.3904 56.5768 40.261 56.7056 40.1011 56.7056Z" fill="#D3D0E2"/>
<path d="M35.0699 56.7056H30.9617C30.802 56.7056 30.6724 56.5768 30.6724 56.4161C30.6724 56.2565 30.802 56.1278 30.9617 56.1278H35.0699C35.2296 56.1278 35.3592 56.2565 35.3592 56.4161C35.3592 56.5768 35.2296 56.7056 35.0699 56.7056Z" fill="#D3D0E2"/>
<path d="M40.1014 49.1012H30.9617C30.802 49.1012 30.6724 48.9714 30.6724 48.8118C30.6724 48.6522 30.802 48.5224 30.9617 48.5224H40.1014C40.2612 48.5224 40.3907 48.6522 40.3907 48.8118C40.3907 48.9714 40.2612 49.1012 40.1014 49.1012Z" fill="#D3D0E2"/>
<path d="M40.1014 52.1431H30.9617C30.802 52.1431 30.6724 52.0133 30.6724 51.8537C30.6724 51.6941 30.802 51.5642 30.9617 51.5642H40.1014C40.2612 51.5642 40.3907 51.6941 40.3907 51.8537C40.3907 52.0133 40.2612 52.1431 40.1014 52.1431Z" fill="#D3D0E2"/>
<path d="M40.1014 55.1851H30.9617C30.802 55.1851 30.6724 55.0553 30.6724 54.8957C30.6724 54.7361 30.802 54.6063 30.9617 54.6063H40.1014C40.2612 54.6063 40.3907 54.7361 40.3907 54.8957C40.3907 55.0553 40.2612 55.1851 40.1014 55.1851Z" fill="#D3D0E2"/>
<path d="M40.1013 58.2271H37.1798C37.0201 58.2271 36.8906 58.0973 36.8906 57.9377C36.8906 57.7781 37.0201 57.6483 37.1798 57.6483H40.1013C40.2611 57.6483 40.3906 57.7781 40.3906 57.9377C40.3906 58.0973 40.2611 58.2271 40.1013 58.2271Z" fill="#D3D0E2"/>
<path d="M35.5315 58.2271H30.9617C30.802 58.2271 30.6724 58.0973 30.6724 57.9377C30.6724 57.7781 30.802 57.6483 30.9617 57.6483H35.5315C35.6912 57.6483 35.8208 57.7781 35.8208 57.9377C35.8208 58.0973 35.6912 58.2271 35.5315 58.2271Z" fill="#D3D0E2"/>
<path d="M40.1013 61.2691H38.649C38.4892 61.2691 38.3597 61.1393 38.3597 60.9797C38.3597 60.8201 38.4892 60.6903 38.649 60.6903H40.1013C40.2611 60.6903 40.3906 60.8201 40.3906 60.9797C40.3906 61.1393 40.2611 61.2691 40.1013 61.2691Z" fill="#D3D0E2"/>
<path d="M37.395 61.2691H34.3239C34.164 61.2691 34.0345 61.1393 34.0345 60.9797C34.0345 60.8201 34.164 60.6903 34.3239 60.6903H37.395C37.5547 60.6903 37.6843 60.8201 37.6843 60.9797C37.6843 61.1393 37.5547 61.2691 37.395 61.2691Z" fill="#D3D0E2"/>
<path d="M33.306 61.2691H30.9617C30.802 61.2691 30.6724 61.1393 30.6724 60.9797C30.6724 60.8201 30.802 60.6903 30.9617 60.6903H33.306C33.4657 60.6903 33.5952 60.8201 33.5952 60.9797C33.5952 61.1393 33.4657 61.2691 33.306 61.2691Z" fill="#D3D0E2"/>
<path d="M40.1011 64.3111H36.5116C36.3519 64.3111 36.2224 64.1813 36.2224 64.0217C36.2224 63.8611 36.3519 63.7323 36.5116 63.7323H40.1011C40.261 63.7323 40.3904 63.8611 40.3904 64.0217C40.3904 64.1813 40.261 64.3111 40.1011 64.3111Z" fill="#D3D0E2"/>
<path d="M35.0699 64.3111H30.9617C30.802 64.3111 30.6724 64.1813 30.6724 64.0217C30.6724 63.8611 30.802 63.7323 30.9617 63.7323H35.0699C35.2296 63.7323 35.3592 63.8611 35.3592 64.0217C35.3592 64.1813 35.2296 64.3111 35.0699 64.3111Z" fill="#D3D0E2"/>
<path d="M40.1014 59.7476H30.9617C30.802 59.7476 30.6724 59.6189 30.6724 59.4582C30.6724 59.2986 30.802 59.1688 30.9617 59.1688H40.1014C40.2612 59.1688 40.3907 59.2986 40.3907 59.4582C40.3907 59.6189 40.2612 59.7476 40.1014 59.7476Z" fill="#D3D0E2"/>
<path d="M40.1014 62.7896H30.9617C30.802 62.7896 30.6724 62.6598 30.6724 62.5002C30.6724 62.3406 30.802 62.2108 30.9617 62.2108H40.1014C40.2612 62.2108 40.3907 62.3406 40.3907 62.5002C40.3907 62.6598 40.2612 62.7896 40.1014 62.7896Z" fill="#D3D0E2"/>
<path d="M58.3929 66.1954H52.0302L52.0408 65.4836L57.1693 54.0094H63.8406L58.3929 66.1954Z" fill="#484A68"/>
<path d="M64.4472 66.1954H61.1105L66.5582 54.0094H69.8938L64.4472 66.1954Z" fill="#484A68"/>
<path d="M69.9502 66.1954H65.3994L70.8471 54.0094H75.3979L69.9502 66.1954Z" fill="#484A68"/>
<path d="M66.0366 47.2328H59.4589C59.1514 47.2328 58.8748 47.0998 58.6843 46.8891L62.3275 38.7378H69.8351L66.0366 47.2328Z" fill="#484A68"/>
<path d="M72.8487 47.2328H69.0948L72.8923 38.7378H76.6461L72.8487 47.2328Z" fill="#484A68"/>
<path d="M79.041 47.2328H73.921L77.7174 38.7378H81.0892C81.6659 38.7378 82.1341 39.2049 82.1341 39.7815V40.3135L79.041 47.2328Z" fill="#484A68"/>
<path d="M63.2945 41.8129L63.7573 41.3501L63.2945 40.8873H61.6959L61.2582 41.3243V42.6954L61.6959 43.1331H62.8033V43.527H61.6959L61.2323 43.9897L61.6959 44.4525H63.2945L63.7289 44.0156V42.6445L63.2945 42.2067H62.1846V41.8129H63.2945Z" fill="#00B24C"/>
<path d="M66.1428 42.2067H65.5241V41.8129H66.1428V42.2067ZM66.1428 43.527H65.5241V43.1331H66.1428V43.527ZM67.0684 43.0435L66.6978 42.6695L67.0684 42.2963V41.3243L66.634 40.8873H65.0354L64.5977 41.3243V42.2963L64.9717 42.6695L64.5977 43.0435V44.0156L65.0354 44.4525H66.634L67.0684 44.0156V43.0435Z" fill="#00B24C"/>
<path d="M69.259 42.7901L69.1133 42.6436L69.259 42.498V41.2984L68.8212 40.8615H68.3713L67.9086 41.3243L68.3334 41.7491V42.498L68.4791 42.6436L68.3334 42.7901V43.9897L68.7962 44.4525L69.259 43.9897V42.7901Z" fill="#00B24C"/>
<path d="M71.0257 43.9897V43.8768L70.562 43.4141L70.0992 43.8768V43.9897L70.562 44.4525L71.0257 43.9897Z" fill="#00B24C"/>
<path d="M72.7921 42.5239V41.8129H73.4109V42.5239L73.5591 42.6695L73.4109 42.816V43.527H72.7921V42.816L72.6456 42.6695L72.7921 42.5239ZM73.9021 44.4525L74.3364 44.0156V42.816L74.1908 42.6695L74.3364 42.5239V41.3243L73.9021 40.8873H72.3035L71.8657 41.3243V42.5239L72.0114 42.6695L71.8657 42.816V44.0156L72.3035 44.4525H73.9021Z" fill="#00B24C"/>
<path d="M76.103 42.5239V41.8129H76.7218V42.5239L76.87 42.6695L76.7218 42.816V43.527H76.103V42.816L75.9565 42.6695L76.103 42.5239ZM77.213 44.4525L77.6473 44.0156V42.816L77.5017 42.6695L77.6473 42.5239V41.3243L77.213 40.8873H75.6144L75.1766 41.3243V42.5239L75.3223 42.6695L75.1766 42.816V44.0156L75.6144 44.4525H77.213Z" fill="#00B24C"/>
<path d="M79.4141 42.5239V41.8129H80.0328V42.5239L80.1811 42.6695L80.0328 42.816V43.527H79.4141V42.816L79.2676 42.6695L79.4141 42.5239ZM80.524 44.4525L80.9584 44.0156V42.816L80.8127 42.6695L80.9584 42.5239V41.3243L80.524 40.8873H78.9255L78.4877 41.3243V42.5239L78.6333 42.6695L78.4877 42.816V44.0156L78.9255 44.4525H80.524Z" fill="#00B24C"/>
<path fill-rule="evenodd" clip-rule="evenodd" d="M7.64492 107.653C4.49642 110.559 0.288879 112.334 -4.33323 112.334C-14.0903 112.334 -22 104.424 -22 94.6668C-22 84.9097 -14.0903 77 -4.33323 77C2.787 77 8.92343 81.2122 11.7201 87.2806C13.5289 86.3546 15.5785 85.8322 17.7501 85.8322C25.0679 85.8322 31.0002 91.7645 31.0002 99.0823C31.0002 106.4 25.0679 112.332 17.7501 112.332C13.7006 112.332 10.0754 110.516 7.64492 107.653Z" fill="#16A75C"/>
<path fill-rule="evenodd" clip-rule="evenodd" d="M112.062 95.0289C110.513 98.8308 107.193 101.631 103.204 102.26C101.522 109.306 95.5032 114.519 88.3363 114.519C79.8663 114.519 73 107.238 73 98.2563C73 89.2748 79.8663 81.9939 88.3363 81.9939C89.7789 81.9939 91.175 82.2051 92.4986 82.6C94.6061 79.7966 97.8541 78 101.498 78C107.85 78 113 83.4607 113 90.1968C113 91.283 112.866 92.336 112.615 93.3383H112.062V95.0289Z" fill="#16A75C"/>
</g>
<defs>
<clipPath id="clip0_607_926572">
<path d="M0 8C0 3.58172 3.58172 0 8 0H92C96.4183 0 100 3.58172 100 8V92C100 96.4183 96.4183 100 92 100H8C3.58172 100 0 96.4183 0 92V8Z" fill="white"/>
</clipPath>
<clipPath id="clip1_607_926572">
<rect width="100" height="100" fill="white"/>
</clipPath>
</defs>
</svg>
