<svg width="100" height="100" viewBox="0 0 100 100" fill="none" xmlns="http://www.w3.org/2000/svg">
<g clip-path="url(#clip0_22616_83704)">
<path d="M0 8C0 3.58172 3.58172 0 8 0H92C96.4183 0 100 3.58172 100 8V92C100 96.4183 96.4183 100 92 100H8C3.58172 100 0 96.4183 0 92V8Z" fill="#F5F5F5"/>
<g clip-path="url(#clip1_22616_83704)">
<path fill-rule="evenodd" clip-rule="evenodd" d="M63.0618 18V55.8319H-34.2332V71.4665H-58V80.4226H122.332V57.5948H105.331V51.4181H95.8493V36.6007L63.0618 18Z" fill="#BBDEFB"/>
<path d="M25.23 80.4226V45.7434L14.511 33.7633H3.79199V80.4226H25.23Z" fill="#BBDEFB"/>
<path d="M25.2298 46.3735L14.5107 34.0781V80.4222H25.2298V46.3735Z" fill="#90CAF9" stroke="#90CAF9"/>
<path d="M76.2831 8.99991H53.5841V104H76.2831V8.99991Z" fill="#90CAF9"/>
<path d="M53.584 9H25V104H53.584V9Z" fill="#BBDEFB"/>
<rect x="27.5221" y="14.8849" width="23.5398" height="2.52212" fill="#E3F2FD"/>
<rect x="27.522" y="24.1328" width="23.5398" height="2.52212" fill="#E3F2FD"/>
<rect x="27.522" y="33.3809" width="23.5398" height="2.52212" fill="#E3F2FD"/>
<rect x="27.5221" y="41.7872" width="23.5398" height="2.52212" fill="#E3F2FD"/>
<rect x="27.522" y="50.1943" width="23.5398" height="2.52212" fill="#E3F2FD"/>
<rect x="27.5221" y="58.6016" width="23.5398" height="2.52212" fill="#E3F2FD"/>
<rect x="27.522" y="67.0088" width="23.5398" height="2.52212" fill="#E3F2FD"/>
<rect x="27.5221" y="75.4159" width="23.5398" height="2.52212" fill="#E3F2FD"/>
<rect x="27.522" y="83.8223" width="23.5398" height="2.52212" fill="#E3F2FD"/>
</g>
<ellipse cx="50.5" cy="90" rx="60.5" ry="15" fill="#757575"/>
<path d="M80.5 89C56.3335 84.1356 42.2729 84.1904 16.5 89" stroke="white" stroke-width="2" stroke-dasharray="13 13"/>
<path d="M82.7459 72.1713C82.7459 73.6223 82.5005 75.0592 82.0239 76.3998C81.5473 77.7404 80.8487 78.9585 79.968 79.9846C79.0873 81.0107 78.0417 81.8246 76.891 82.3799C75.7403 82.9352 74.507 83.221 73.2615 83.221C72.016 83.221 70.1688 83.221 68.8286 83.221C67.4884 83.221 67.2822 81.0724 66.5551 79.9846C65.6744 78.9585 64.9758 77.7404 64.4991 76.3998C64.0225 75.0592 63.7772 73.6223 63.7772 72.1713L73.2615 72.1713H82.7459Z" fill="#424242"/>
<path d="M77.5893 72.1713C77.5893 73.6224 77.3464 75.0592 76.8744 76.3998C76.4024 77.7405 75.7105 78.9586 74.8384 79.9846C73.9662 81.0107 72.9308 81.8246 71.7913 82.3799C70.6518 82.9352 69.4305 83.221 68.1971 83.221C66.9636 83.221 65.7423 82.9352 64.6028 82.3799C63.4633 81.8246 62.4279 81.0107 61.5557 79.9846C60.6836 78.9586 59.9917 77.7405 59.5197 76.3998C59.0477 75.0592 58.8048 73.6224 58.8048 72.1713L68.1971 72.1713H77.5893Z" fill="#212121"/>
<path d="M73.9061 72.1713C73.9061 72.9935 73.7656 73.8078 73.4925 74.5674C73.2195 75.3271 72.8193 76.0174 72.3148 76.5988C71.8104 77.1803 71.2115 77.6415 70.5523 77.9561C69.8932 78.2708 69.1867 78.4328 68.4733 78.4328C67.7599 78.4328 67.0534 78.2708 66.3943 77.9561C65.7351 77.6415 65.1362 77.1803 64.6317 76.5988C64.1273 76.0174 63.7271 75.3271 63.4541 74.5674C63.181 73.8078 63.0405 72.9935 63.0405 72.1713L68.4733 72.1713H73.9061Z" fill="#757575"/>
<path d="M23.814 58.6056V72.1713H53.8324V49.8877H31.6676L27.5785 52.1798C25.2536 53.483 23.814 55.9404 23.814 58.6056Z" fill="#D71D0E"/>
<path d="M47.2026 59.6483C47.2026 55.885 50.2533 52.8343 54.0166 52.8343V72.1713H47.2026V59.6483Z" fill="#840601"/>
<path d="M33.2062 72.1713V54.3076H36.1528C36.1528 54.3076 39.4283 54.3076 41.4015 56.6096C43.1546 58.6549 43.2462 60.9182 43.2449 61.3976C43.2447 61.4602 43.2431 61.5212 43.2431 61.5838V72.1713H33.2062Z" fill="#B41A10"/>
<path d="M37.442 72.1713H17.0037V68.7643C17.0037 68.7643 16.8143 64.9353 19.1308 61.0295C21.0671 57.7648 24.6796 54.3076 27.3616 54.3076H33.0029C37.442 54.3076 37.442 58.7274 37.442 58.7274V72.1713Z" fill="#FF4C3E"/>
<path d="M22.8932 62.3186C22.8932 61.9626 23.1818 61.674 23.5377 61.674H29.7993C30.1552 61.674 30.4438 61.9626 30.4438 62.3186C30.4438 62.6746 30.1552 62.9632 29.7993 62.9632H23.5377C23.1818 62.9632 22.8932 62.6746 22.8932 62.3186Z" fill="#E53935"/>
<path d="M22.8932 65.0811C22.8932 64.7251 23.1818 64.4365 23.5377 64.4365H29.7993C30.1552 64.4365 30.4438 64.7251 30.4438 65.0811C30.4438 65.437 30.1552 65.7256 29.7993 65.7256H23.5377C23.1818 65.7256 22.8932 65.437 22.8932 65.0811Z" fill="#E53935"/>
<path d="M17 68.8564H37.442V72.1713H17V68.8564Z" fill="#A5130B"/>
<path d="M27.6814 48.4144C27.6814 47.3973 28.5059 46.5728 29.523 46.5728H50.8858C51.9029 46.5728 52.7274 47.3973 52.7274 48.4144V50.9926H27.6814V48.4144Z" fill="#3B0F03"/>
<path d="M46.535 72.1713C46.535 73.6223 46.2916 75.0592 45.8187 76.3998C45.3459 77.7404 44.6528 78.9585 43.779 79.9846C42.9053 81.0107 41.868 81.8246 40.7263 82.3799C39.5847 82.9352 38.3611 83.221 37.1255 83.221C35.8898 83.221 34.0571 83.221 32.7275 83.221C31.3979 83.221 31.1934 81.0724 30.4719 79.9846C29.5982 78.9585 28.9051 77.7404 28.4322 76.3998C27.9593 75.0592 27.7159 73.6223 27.7159 72.1713L37.1255 72.1713H46.535Z" fill="#424242"/>
<path d="M41.5281 72.1713C41.5281 73.6224 41.2847 75.0592 40.8118 76.3998C40.339 77.7405 39.6459 78.9586 38.7721 79.9846C37.8983 81.0107 36.861 81.8246 35.7194 82.3799C34.5778 82.9352 33.3542 83.221 32.1186 83.221C30.8829 83.221 29.6593 82.9352 28.5177 82.3799C27.3761 81.8246 26.3388 81.0107 25.465 79.9846C24.5913 78.9586 23.8982 77.7405 23.4253 76.3998C22.9524 75.0592 22.709 73.6224 22.709 72.1713L32.1186 72.1713H41.5281Z" fill="#212121"/>
<path d="M37.5571 72.1713C37.5571 72.9875 37.4187 73.7957 37.1497 74.5498C36.8807 75.3039 36.4865 75.9891 35.9895 76.5663C35.4925 77.1434 34.9024 77.6013 34.2531 77.9136C33.6037 78.226 32.9077 78.3867 32.2049 78.3867C31.502 78.3867 30.806 78.226 30.1567 77.9136C29.5073 77.6013 28.9173 77.1434 28.4203 76.5663C27.9233 75.9891 27.5291 75.3039 27.2601 74.5498C26.9911 73.7957 26.8527 72.9875 26.8527 72.1713L32.2049 72.1713H37.5571Z" fill="#757575"/>
<path d="M41.0332 72.7238V72.1713H51.5304L52.4831 70.438C53.1606 69.2054 53.4711 67.8047 53.3778 66.4014L51.7223 41.479C51.5815 39.3586 52.3924 37.2857 53.9347 35.8237C55.2611 34.5664 57.0191 33.8656 58.8468 33.8656H65.7776C67.9629 33.8656 70.0353 34.8358 71.4349 36.514L72.0772 37.2841C73.0887 38.497 73.6837 40.0029 73.7743 41.5797L75.5635 72.7238H41.0332Z" fill="#D71D0E"/>
<path fill-rule="evenodd" clip-rule="evenodd" d="M53.8737 35.6809C55.2452 34.3964 57.0557 33.6814 58.9368 33.6814H65.9505C68.2049 33.6814 70.3443 34.6744 71.7965 36.3948L72.4312 37.1468C73.4938 38.4056 74.1196 39.9736 74.2151 41.6166L76.0239 72.7238H39.7275V72.1726H50.9892L52.2071 70.1474C52.9514 68.9098 53.2984 67.4747 53.2016 66.0347L51.5559 41.5555C51.4076 39.3498 52.2582 37.1939 53.8737 35.6809ZM51.6335 72.1726H75.4385L73.6636 41.6485C73.5749 40.1243 72.9944 38.6696 72.0086 37.5018L71.3739 36.7498C70.0267 35.1538 68.0419 34.2326 65.9505 34.2326H58.9368C57.1962 34.2326 55.5209 34.8942 54.2518 36.0827C52.757 37.4828 51.9699 39.4776 52.1071 41.5186L53.7529 65.9978C53.8572 67.5501 53.4832 69.097 52.6809 70.431L51.6335 72.1726Z" fill="#FE4D3E"/>
<rect x="54.0166" y="39.1014" width="3.13076" height="1.10237" rx="0.551186" fill="#B41A10"/>
<rect x="66.9079" y="39.1014" width="3.13076" height="1.10237" rx="0.551186" fill="#B41A10"/>
<path d="M59.4714 33.6814H57.884L60.5919 63.3315H64.5138V54.6944C64.5138 53.7563 64.1559 52.8536 63.513 52.1704L61.9168 50.474C61.3605 49.8827 61.015 49.1242 60.9343 48.3163L59.4714 33.6814Z" fill="#B41A11"/>
<path d="M65.0663 33.6814H59.474L60.9828 48.2711C61.0634 49.0503 61.3902 49.7834 61.9159 50.3641L63.5612 52.1816C64.1743 52.8589 64.5138 53.7399 64.5138 54.6535V63.3315H70.2228L69.9024 54.388C69.8715 53.5239 69.5375 52.6982 68.959 52.0556L67.4403 50.3686C66.915 49.785 66.5899 49.0489 66.5124 48.2677L65.0663 33.6814Z" fill="#FF4C3E"/>
<rect x="61.3831" y="38.6538" width="3.13076" height="1.10497" rx="0.552486" fill="#FF7733"/>
<rect x="61.5672" y="41.0479" width="3.13076" height="1.10497" rx="0.552486" fill="#FF7733"/>
<path d="M70.2228 63.3315L60.7385 63.9761L60.6004 62.5488L60.5543 61.7661L62.26 60.6555C63.7409 59.6911 65.4316 59.0961 67.19 58.9202L70.0387 58.6354L70.082 59.7403L70.2228 63.3315Z" fill="#3A0F00"/>
<path d="M66.0792 56.93V55.3205H69.9466L70.0387 58.2671H67.4163C67.0888 58.2671 66.7727 58.1469 66.528 57.9293C66.2425 57.6756 66.0792 57.3119 66.0792 56.93Z" fill="#B51B12"/>
<rect x="65.9871" y="53.7551" width="5.70902" height="2.94659" rx="1.4733" fill="#D88B19"/>
<rect x="68.0129" y="54.3076" width="2.76243" height="1.10497" rx="0.552486" fill="#FEB536"/>
<path d="M77.7735 72.8159H57.9761C57.9761 72.8159 57.9761 60.1087 67.7366 60.2929C77.4972 60.477 77.7735 72.8159 77.7735 72.8159Z" fill="#840601"/>
<path d="M83.6667 72.8158H77.7735C77.7735 72.8158 77.4972 68.8564 76.3002 66.4623C74.1776 61.1924 70.0187 60.4023 68.4019 60.2999C67.8197 60.2928 67.7366 60.2928 67.7366 60.2928C67.7366 60.2928 67.9846 60.2735 68.4019 60.2999C69.1906 60.3094 70.8953 60.3319 74.5506 60.3849C83.4825 61.4899 83.6667 72.8158 83.6667 72.8158Z" fill="#FF4C3E"/>
<path d="M64.9742 23L65.0663 31.6556H57.884C57.832 30.9802 57.2688 30.4586 56.5913 30.4586H54.0986C53.2523 30.4586 52.4725 29.9997 52.0615 29.26L51.9824 29.1174C51.5938 28.4181 51.6426 27.5575 52.1076 26.9065C52.4966 26.3619 53.1246 26.0387 53.7939 26.0387H57.2394L58.0155 25.2383C59.4029 23.8076 61.3109 23 63.3039 23H64.9742Z" fill="#B41A11"/>
<rect x="57.884" y="31.6556" width="7.18232" height="2.02578" fill="#840501"/>
<path d="M71.0021 27.1154L70.9178 26.989C70.5987 26.5103 70.0615 26.2228 69.4862 26.2228C69.7244 27.4734 69.5233 28.7679 68.917 29.8874L68.6575 30.3665H69.181C69.9402 30.3665 70.6422 29.9632 71.0248 29.3074L71.0657 29.2373C71.4515 28.5759 71.4268 27.7525 71.0021 27.1154Z" fill="#6F1F13"/>
<path d="M70.359 27.6842L70.3063 27.6104C70.1383 27.3753 69.8672 27.2357 69.5783 27.2357C69.5783 27.9676 69.4603 28.6947 69.2288 29.389L69.2099 29.4457H69.4088C69.8006 29.4457 70.1648 29.2438 70.3725 28.9115L70.3957 28.8744C70.6255 28.5068 70.611 28.037 70.359 27.6842Z" fill="#4D1303"/>
<path d="M72.8973 27.512H71.2357L71.2492 27.5727C71.3606 28.0739 71.3239 28.5966 71.1437 29.0773H72.9438C73.1998 29.0773 73.4389 28.9494 73.5809 28.7364C73.7728 28.4485 73.7479 28.0678 73.5201 27.8074L73.5014 27.7861C73.349 27.6119 73.1287 27.512 72.8973 27.512Z" fill="#4D1303"/>
<path d="M64.478 23H66.0778C65.5361 23 64.9991 23.1395 64.5861 23.4901C63.7798 24.1746 62.5265 25.5668 62.5265 27.608C62.5265 29.2152 63.4728 30.437 64.2101 31.1451C64.7308 31.6452 65.4493 31.8398 66.1713 31.8398H64.2367C62.0811 31.8398 60.2589 30.2431 59.9758 28.1062C59.9319 27.7752 59.9271 27.4371 59.9608 27.1049C60.1957 24.7879 62.1491 23 64.478 23Z" fill="#AE9F8F"/>
<ellipse cx="66.0792" cy="27.4199" rx="3.59116" ry="4.41989" fill="#E9E0CE"/>
<ellipse cx="66.2634" cy="27.4199" rx="2.85451" ry="3.49908" fill="#FEB434"/>
<circle cx="52.9116" cy="28.1565" r="2.20995" fill="#6F1F13"/>
<circle cx="52.7274" cy="28.1565" r="1.4733" fill="#4D1303"/>
<rect x="47.0184" y="27.4199" width="6.26151" height="1.65746" rx="0.828729" fill="#3F0F02"/>
<path d="M20.3149 72.1713H35.232V72.5396C35.232 74.5738 33.583 76.2229 31.5488 76.2229H23.9982C21.964 76.2229 20.3149 74.5738 20.3149 72.5396V72.1713Z" fill="#C62828"/>
<rect x="22.8932" y="74.1971" width="7.55065" height="1.09081" rx="0.545403" fill="#EF5350"/>
<path fill-rule="evenodd" clip-rule="evenodd" d="M19.6449 103.653C16.4964 106.559 12.2889 108.334 7.66677 108.334C-2.09032 108.334 -10 100.424 -10 90.6668C-10 80.9097 -2.09032 73 7.66677 73C14.787 73 20.9234 77.2122 23.7201 83.2806C25.5289 82.3546 27.5785 81.8322 29.7501 81.8322C37.0679 81.8322 43.0002 87.7645 43.0002 95.0823C43.0002 102.4 37.0679 108.332 29.7501 108.332C25.7006 108.332 22.0754 106.516 19.6449 103.653Z" fill="#16A75C"/>
<path fill-rule="evenodd" clip-rule="evenodd" d="M104.062 92.0289C102.513 95.8308 99.1929 98.6313 95.2042 99.2603C93.522 106.306 87.5032 111.519 80.3363 111.519C71.8663 111.519 65 104.238 65 95.2563C65 86.2748 71.8663 78.9939 80.3363 78.9939C81.7789 78.9939 83.175 79.2051 84.4986 79.6C86.6061 76.7966 89.8541 75 93.4978 75C99.8503 75 105 80.4607 105 87.1968C105 88.283 104.866 89.336 104.615 90.3383H104.062V92.0289Z" fill="#16A75C"/>
</g>
<defs>
<clipPath id="clip0_22616_83704">
<path d="M0 8C0 3.58172 3.58172 0 8 0H92C96.4183 0 100 3.58172 100 8V92C100 96.4183 96.4183 100 92 100H8C3.58172 100 0 96.4183 0 92V8Z" fill="white"/>
</clipPath>
<clipPath id="clip1_22616_83704">
<rect width="100" height="100" fill="white"/>
</clipPath>
</defs>
</svg>
