<svg width="100" height="100" viewBox="0 0 100 100" fill="none" xmlns="http://www.w3.org/2000/svg">
<g clip-path="url(#clip0_22616_83674)">
<path d="M0 8C0 3.58172 3.58172 0 8 0H92C96.4183 0 100 3.58172 100 8V92C100 96.4183 96.4183 100 92 100H8C3.58172 100 0 96.4183 0 92V8Z" fill="#F5F5F5"/>
<g clip-path="url(#clip1_22616_83674)">
<path fill-rule="evenodd" clip-rule="evenodd" d="M63.0618 18V55.8319H-34.2332V71.4665H-58V80.4226H122.332V57.5948H105.331V51.4181H95.8493V36.6007L63.0618 18Z" fill="#BBDEFB"/>
<path d="M25.23 80.4227V45.7435L14.511 33.7634H3.79199V80.4227H25.23Z" fill="#BBDEFB"/>
<path d="M25.2298 46.3735L14.5107 34.0781V80.4222H25.2298V46.3735Z" fill="#90CAF9" stroke="#90CAF9"/>
<path d="M76.2831 8.99994H53.5841V104H76.2831V8.99994Z" fill="#90CAF9"/>
<path d="M53.584 9H25V104H53.584V9Z" fill="#BBDEFB"/>
<rect x="27.5221" y="14.8849" width="23.5398" height="2.52212" fill="#E3F2FD"/>
<rect x="27.522" y="24.1328" width="23.5398" height="2.52212" fill="#E3F2FD"/>
<rect x="27.522" y="33.3809" width="23.5398" height="2.52212" fill="#E3F2FD"/>
<rect x="27.5221" y="41.7872" width="23.5398" height="2.52212" fill="#E3F2FD"/>
<rect x="27.522" y="50.1943" width="23.5398" height="2.52212" fill="#E3F2FD"/>
<rect x="27.5221" y="58.6016" width="23.5398" height="2.52212" fill="#E3F2FD"/>
<rect x="27.522" y="67.0088" width="23.5398" height="2.52212" fill="#E3F2FD"/>
<rect x="27.5221" y="75.416" width="23.5398" height="2.52212" fill="#E3F2FD"/>
<rect x="27.522" y="83.8223" width="23.5398" height="2.52212" fill="#E3F2FD"/>
</g>
<ellipse cx="50.5" cy="90" rx="60.5" ry="15" fill="#757575"/>
<path d="M80.5 89C56.3335 84.1356 42.2729 84.1904 16.5 89" stroke="white" stroke-width="2" stroke-dasharray="13 13"/>
<path d="M82.272 54.556L82.217 54.4319C81.8557 53.6167 81.0478 53.0911 80.1561 53.0911H78.0468C77.385 53.0911 76.7488 53.3467 76.2709 53.8046C75.7656 54.2888 75.4799 54.9583 75.4799 55.6581V57.3419H80.4596C81.1777 57.3419 81.8398 56.9535 82.1901 56.3265C82.4944 55.7821 82.5247 55.1262 82.272 54.556Z" fill="#FF9500"/>
<path d="M7.95246 72.2397H93.2344C94.5777 72.2397 95.6667 71.1507 95.6667 69.8074V65.1646C95.6667 60.1272 91.583 56.0436 86.5456 56.0436H77.9419L66.7912 44.5907C65.3603 43.1211 63.3963 42.2922 61.3452 42.2922H16.5257C14.2005 42.2922 11.9665 43.1966 10.2962 44.8141C9.20241 45.8733 8.32134 47.132 7.70044 48.5222L5.05717 54.4405C4.36022 56.001 4 57.6909 4 59.3999V68.2872C4 70.4701 5.76958 72.2397 7.95246 72.2397Z" fill="#FFB900"/>
<path d="M54.77 41H21.6893C20.7014 41 19.7715 41.4851 19.2018 42.2922H57.2822L57.0498 42.0288C56.4727 41.3747 55.6424 41 54.77 41Z" fill="#FF9500"/>
<path fill-rule="evenodd" clip-rule="evenodd" d="M71.7792 72.2396C71.8098 72.32 71.8416 72.4 71.8745 72.4796C72.3253 73.5677 72.9859 74.5565 73.8188 75.3893C74.6516 76.2222 75.6404 76.8828 76.7285 77.3336C77.8167 77.7843 78.983 78.0163 80.1609 78.0163C81.3387 78.0163 82.505 77.7843 83.5932 77.3336C84.6813 76.8828 85.6701 76.2222 86.5029 75.3893C87.3358 74.5565 87.9964 73.5677 88.4472 72.4796C88.4801 72.4 88.5119 72.32 88.5425 72.2396H71.7792Z" fill="#424242"/>
<path d="M86.0895 70.4915C86.0895 72.4872 85.2967 74.4012 83.8856 75.8123C82.4744 77.2235 80.5604 78.0163 78.5647 78.0163C76.5689 78.0163 74.655 77.2235 73.2438 75.8123C71.8326 74.4012 71.0398 72.4872 71.0398 70.4915L78.5647 70.4915H86.0895Z" fill="#212121"/>
<path fill-rule="evenodd" clip-rule="evenodd" d="M30.5824 72.2396C30.613 72.32 30.6448 72.4 30.6778 72.4796C31.1285 73.5677 31.7891 74.5565 32.622 75.3893C33.4548 76.2222 34.4436 76.8828 35.5318 77.3336C36.6199 77.7843 37.7862 78.0163 38.9641 78.0163C40.1419 78.0163 41.3082 77.7843 42.3964 77.3336C43.4845 76.8828 44.4733 76.2222 45.3061 75.3893C46.139 74.5565 46.7996 73.5677 47.2504 72.4796C47.2833 72.4 47.3151 72.32 47.3457 72.2396H30.5824Z" fill="#424242"/>
<path d="M44.8928 70.4915C44.8928 72.4872 44.1 74.4012 42.6888 75.8123C41.2776 77.2235 39.3636 78.0163 37.3679 78.0163C35.3722 78.0163 33.4582 77.2235 32.047 75.8123C30.6358 74.4012 29.843 72.4872 29.843 70.4915L37.3679 70.4915H44.8928Z" fill="#212121"/>
<path d="M4 68.2872V67.9832L50.3654 69.8074H95.6667C95.6667 71.1507 94.5777 72.2396 93.2344 72.2396H7.95246C5.76958 72.2396 4 70.4701 4 68.2872Z" fill="#FF9500"/>
<path d="M95.6667 69.8073H72.56V68.9657C72.56 68.032 73.1497 67.2001 74.0307 66.891C74.2647 66.8089 74.5108 66.767 74.7587 66.767H94.4697C94.7518 66.767 95.0249 66.8666 95.2407 67.0484C95.5108 67.2758 95.6667 67.6108 95.6667 67.9639V69.8073Z" fill="white"/>
<path d="M76.5124 69.8073V66.767H92.9303V69.8073H76.5124Z" fill="#FF7500"/>
<path d="M71.2257 62.1829L71.2524 62.1459C71.5008 61.8021 71.8991 61.5984 72.3232 61.5984H94.9066C94.9066 61.5984 95.186 62.0197 95.3626 62.8145C95.5392 63.6093 95.5906 64.1827 95.5906 64.1827H72.2482C71.8684 64.1827 71.5088 64.0115 71.2693 63.7168C70.9097 63.2741 70.8918 62.6453 71.2257 62.1829Z" fill="white"/>
<path d="M76.4364 64.1827L77.8046 61.5984H80.6929L79.3248 64.1827H76.4364Z" fill="#FFE483"/>
<path d="M92.9303 64.1827H90.118L88.7498 61.5984H91.6382L92.9303 64.1827Z" fill="#FFE483"/>
<path d="M79.3248 64.1827L80.6929 61.5984H88.7498L90.118 64.1827H79.3248Z" fill="#FF7500"/>
<path d="M68.4555 70.6434C68.4555 69.4556 68.2215 68.2794 67.767 67.182C67.3124 66.0847 66.6462 65.0875 65.8063 64.2476C64.9663 63.4077 63.9692 62.7415 62.8718 62.2869C61.7744 61.8323 60.5983 61.5984 59.4104 61.5984C58.2226 61.5984 57.0464 61.8323 55.949 62.2869C54.8517 62.7415 53.8545 63.4077 53.0146 64.2476C52.1747 65.0875 51.5085 66.0847 51.0539 67.182C50.5993 68.2794 50.3654 69.4556 50.3654 70.6434H59.4104H68.4555Z" fill="#FF9500"/>
<path d="M27.4107 70.7194C27.4107 69.5217 27.1748 68.3356 26.7164 67.229C26.258 66.1224 25.5862 65.1169 24.7392 64.2699C23.8923 63.4229 22.8868 62.7511 21.7801 62.2927C20.6735 61.8343 19.4875 61.5984 18.2897 61.5984C17.0919 61.5984 15.9058 61.8343 14.7992 62.2927C13.6926 62.7511 12.6871 63.4229 11.8401 64.2699C10.9931 65.1169 10.3213 66.1224 9.8629 67.229C9.40452 68.3356 9.1686 69.5217 9.1686 70.7194H18.2897H27.4107Z" fill="#FF9500"/>
<path fill-rule="evenodd" clip-rule="evenodd" d="M52.4729 72.2396C52.5035 72.32 52.5353 72.4 52.5683 72.4796C53.019 73.5677 53.6797 74.5565 54.5125 75.3893C55.3454 76.2222 56.3341 76.8828 57.4223 77.3336C58.5105 77.7843 59.6768 78.0163 60.8546 78.0163C62.0324 78.0163 63.1987 77.7843 64.2869 77.3336C65.3751 76.8828 66.3638 76.2222 67.1967 75.3893C68.0295 74.5565 68.6902 73.5677 69.1409 72.4796C69.1739 72.4 69.2057 72.32 69.2363 72.2396H52.4729Z" fill="#424242"/>
<path d="M67.0873 70.4154C67.0873 74.6132 63.6843 78.0163 59.4865 78.0163C55.2886 78.0163 51.8856 74.6132 51.8856 70.4154C51.8856 66.2175 55.2886 62.8145 59.4865 62.8145C63.6843 62.8145 67.0873 66.2175 67.0873 70.4154Z" fill="#212121"/>
<path d="M64.503 70.4154C64.503 73.186 62.257 75.432 59.4864 75.432C56.7159 75.432 54.4699 73.186 54.4699 70.4154C54.4699 67.6449 56.7159 65.3989 59.4864 65.3989C62.257 65.3989 64.503 67.6449 64.503 70.4154Z" fill="#9E9E9E"/>
<path d="M62.9829 70.4154C62.9829 72.3464 61.4175 73.9118 59.4864 73.9118C57.5554 73.9118 55.99 72.3464 55.99 70.4154C55.99 68.4844 57.5554 66.919 59.4864 66.919C61.4175 66.919 62.9829 68.4844 62.9829 70.4154Z" fill="white"/>
<path fill-rule="evenodd" clip-rule="evenodd" d="M11.5802 72.2396C11.6108 72.32 11.6426 72.4 11.6755 72.4796C12.1263 73.5677 12.7869 74.5565 13.6198 75.3893C14.4526 76.2222 15.4414 76.8828 16.5296 77.3336C17.6177 77.7843 18.784 78.0163 19.9619 78.0163C21.1397 78.0163 22.306 77.7843 23.3942 77.3336C24.4823 76.8828 25.4711 76.2222 26.3039 75.3893C27.1368 74.5565 27.7974 73.5677 28.2482 72.4796C28.2811 72.4 28.3129 72.32 28.3435 72.2396H11.5802Z" fill="#424242"/>
<path d="M26.1946 70.4154C26.1946 74.6132 22.7915 78.0163 18.5937 78.0163C14.3958 78.0163 10.9928 74.6132 10.9928 70.4154C10.9928 66.2175 14.3958 62.8145 18.5937 62.8145C22.7915 62.8145 26.1946 66.2175 26.1946 70.4154Z" fill="#212121"/>
<path d="M23.6103 70.4154C23.6103 73.186 21.3643 75.432 18.5937 75.432C15.8231 75.432 13.5771 73.186 13.5771 70.4154C13.5771 67.6449 15.8231 65.3989 18.5937 65.3989C21.3643 65.3989 23.6103 67.6449 23.6103 70.4154Z" fill="#9E9E9E"/>
<path d="M22.0901 70.4154C22.0901 72.3464 20.5247 73.9118 18.5937 73.9118C16.6627 73.9118 15.0973 72.3464 15.0973 70.4154C15.0973 68.4844 16.6627 66.919 18.5937 66.919C20.5247 66.919 22.0901 68.4844 22.0901 70.4154Z" fill="white"/>
<path d="M27.4205 53.5312L28.6269 44.9525H17.8876C16.816 44.9525 15.7728 45.2972 14.9122 45.9357C14.2359 46.4375 13.6974 47.1022 13.3469 47.8681L12.2406 50.2857C11.9784 50.8585 11.9705 51.5154 12.2186 52.0944C12.5406 52.8458 13.2476 53.3612 14.0614 53.4379L26.1021 54.5726C26.7493 54.6336 27.33 54.1749 27.4205 53.5312Z" fill="#FFF9E1"/>
<path d="M30.2459 53.3857L31.3632 45.1045H40.8742C41.9472 45.1045 42.9851 45.4866 43.8019 46.1824C44.3197 46.6236 44.7312 47.176 45.0056 47.7986L48.5412 55.8217L31.3762 54.7622C30.6712 54.7187 30.1514 54.0857 30.2459 53.3857Z" fill="#FFF9E1"/>
<path d="M5.10907 57.798H4.37301C4.24937 57.798 4.1476 57.8952 4.14198 58.0187L4.07601 59.4702V61.2944H4.73035C5.32375 61.2944 5.88303 61.017 6.24209 60.5445L6.38086 60.3619C6.81544 59.7901 6.81496 58.9986 6.37969 58.4273C6.07756 58.0307 5.60761 57.798 5.10907 57.798Z" fill="#FF9500"/>
<path d="M49.0628 45.0284H65.3358C65.581 45.0284 65.8159 45.1272 65.9874 45.3024L76.0064 55.533C76.1948 55.7254 76.0585 56.0497 75.7891 56.0497H54.0286C53.4999 56.0497 53.0092 55.7751 52.7328 55.3244L47.8004 47.2839C47.6875 47.1 47.6163 46.8936 47.5915 46.6792C47.4901 45.7999 48.1776 45.0284 49.0628 45.0284Z" fill="#FFF9E1"/>
<path d="M42.9465 54.4653L43.0023 54.3409C43.3655 53.5308 44.1705 53.0094 45.0584 53.0094H47.2298C47.8904 53.0094 48.526 53.2626 49.0056 53.717C49.5203 54.2046 49.8118 54.8824 49.8118 55.5914V57.2602H44.7565C44.0413 57.2602 43.3816 56.8752 43.0297 56.2527C42.7196 55.7039 42.6887 55.0405 42.9465 54.4653Z" fill="#FF9500"/>
<path d="M29.995 58.0524C29.995 57.4501 30.4833 56.9619 31.0856 56.9619H33.921C34.5233 56.9619 35.0116 57.4501 35.0116 58.0524C35.0116 58.6547 34.5233 59.143 33.921 59.143H31.0856C30.4833 59.143 29.995 58.6547 29.995 58.0524Z" fill="#FF9500"/>
<path fill-rule="evenodd" clip-rule="evenodd" d="M19.6448 103.653C16.4963 106.559 12.2888 108.334 7.66677 108.334C-2.09032 108.334 -10 100.424 -10 90.6668C-10 80.9097 -2.09032 73 7.66677 73C14.7871 73 20.9235 77.2123 23.7202 83.2808C25.5289 82.3548 27.5785 81.8324 29.7501 81.8324C37.0679 81.8324 43.0002 87.7647 43.0002 95.0825C43.0002 102.4 37.0679 108.333 29.7501 108.333C25.7005 108.333 22.0753 106.516 19.6448 103.653Z" fill="#16A75C"/>
<path fill-rule="evenodd" clip-rule="evenodd" d="M105 87.1968C105 93.318 100.748 98.3861 95.2043 99.2603C93.5221 106.306 87.5034 111.519 80.3364 111.519C71.8664 111.519 65.0001 104.238 65.0001 95.2563C65.0001 86.2748 71.8664 78.9939 80.3364 78.9939C81.779 78.9939 83.1751 79.2051 84.4987 79.5999C86.6061 76.7966 89.8541 75 93.4978 75C99.8503 75 105 80.4607 105 87.1968Z" fill="#16A75C"/>
</g>
<defs>
<clipPath id="clip0_22616_83674">
<path d="M0 8C0 3.58172 3.58172 0 8 0H92C96.4183 0 100 3.58172 100 8V92C100 96.4183 96.4183 100 92 100H8C3.58172 100 0 96.4183 0 92V8Z" fill="white"/>
</clipPath>
<clipPath id="clip1_22616_83674">
<rect width="100" height="100" fill="white"/>
</clipPath>
</defs>
</svg>
