<svg width="100" height="100" viewBox="0 0 100 100" fill="none" xmlns="http://www.w3.org/2000/svg">
<g clip-path="url(#clip0_306_38916)">
<path d="M0 8C0 3.58172 3.58172 0 8 0H92C96.4183 0 100 3.58172 100 8V92C100 96.4183 96.4183 100 92 100H8C3.58172 100 0 96.4183 0 92V8Z" fill="#E3F2FD"/>
<g clip-path="url(#clip1_306_38916)">
<path fill-rule="evenodd" clip-rule="evenodd" d="M63.0618 18V55.8319H-34.2332V71.4665H-58V80.4226H122.332V57.5948H105.331V51.4181H95.8493V36.6007L63.0618 18Z" fill="#BBDEFB"/>
<path d="M25.23 80.4226V45.7434L14.511 33.7633H3.79199V80.4226H25.23Z" fill="#BBDEFB"/>
<path d="M25.2298 46.3735L14.5107 34.0781V80.4222H25.2298V46.3735Z" fill="#90CAF9" stroke="#90CAF9"/>
<g opacity="0.37">
<path d="M76.2831 8.99991H53.584V104H76.2831V8.99991Z" fill="#90CAF9"/>
<path d="M53.584 9H25V104H53.584V9Z" fill="#BBDEFB"/>
<rect x="27.5221" y="14.8849" width="23.5398" height="2.52212" fill="#E3F2FD"/>
<rect x="27.522" y="24.1328" width="23.5398" height="2.52212" fill="#E3F2FD"/>
<rect x="27.522" y="33.3809" width="23.5398" height="2.52212" fill="#E3F2FD"/>
<rect x="27.5221" y="41.7872" width="23.5398" height="2.52212" fill="#E3F2FD"/>
<rect x="27.522" y="50.1943" width="23.5398" height="2.52212" fill="#E3F2FD"/>
<rect x="27.5221" y="58.6016" width="23.5398" height="2.52212" fill="#E3F2FD"/>
<rect x="27.522" y="67.0088" width="23.5398" height="2.52212" fill="#E3F2FD"/>
<rect x="27.5221" y="75.4159" width="23.5398" height="2.52212" fill="#E3F2FD"/>
<rect x="27.522" y="83.8223" width="23.5398" height="2.52212" fill="#E3F2FD"/>
</g>
</g>
<path d="M101.531 26.5189H-4V30.1981H101.531V26.5189Z" fill="#B7B7B7"/>
<path d="M95.2 30.4133H0V78.526H95.2V30.4133Z" fill="#EDEDEF"/>
<path d="M101.023 36.0965H-3.80487V36.5747H101.023V36.0965Z" fill="#DBDBDB"/>
<path d="M101.023 43.3517H-3.80487V43.8306H101.023V43.3517Z" fill="#DBDBDB"/>
<path d="M101.023 52.2206H-3.80487V52.6989H101.023V52.2206Z" fill="#DBDBDB"/>
<path d="M101.023 61.0881H-3.80487V61.567H101.023V61.0881Z" fill="#DBDBDB"/>
<path d="M101.023 71.5685H-3.80487V72.0475H101.023V71.5685Z" fill="#DBDBDB"/>
<path d="M74.9261 25.744H24.1199V80.9912H74.9261V25.744Z" fill="#81D0DE"/>
<path d="M74.552 63.3037H24.7221V64.4485H74.552V63.3037Z" fill="#AEE7ED"/>
<g opacity="0.1">
<path d="M73.118 28.8787H25.9272V31.6214H73.118V28.8787Z" fill="black"/>
</g>
<g opacity="0.1">
<path d="M27.3326 31.7005H25.9272V80.5986H27.3326V31.7005Z" fill="black"/>
</g>
<g opacity="0.8">
<path d="M74.9612 74.7147H67.5589V72.3388H62.454V75.2433H57.0933V71.5441H49.4363V74.0546H45.9474V72.4704H40.842V75.3749H35.4819V71.6764H27.8254V74.1847H24.1666V81.3184L74.9612 80.9222V74.7147Z" fill="#5CAEB7"/>
</g>
<g opacity="0.8">
<path d="M74.9612 50.9003H67.5589V49.2593H62.454V51.2656H57.0933V48.7106H49.4363V50.443H45.9474V49.3513H40.842V51.3562H35.4819V48.8019H27.8254V50.5343H24.1666V55.4581L74.9612 55.1848V50.9003Z" fill="#5CAEB7"/>
</g>
<path d="M27.1935 28.7989H26.864V81.2832H27.1935V28.7989Z" fill="#AEE7ED"/>
<path d="M31.1471 28.7989H30.8177V81.2832H31.1471V28.7989Z" fill="#AEE7ED"/>
<path d="M35.4297 28.7989H35.0997V81.2832H35.4297V28.7989Z" fill="#AEE7ED"/>
<path d="M39.3828 28.7989H39.0539V81.2832H39.3828V28.7989Z" fill="#AEE7ED"/>
<path d="M43.667 28.7989H43.3364V81.2832H43.667V28.7989Z" fill="#AEE7ED"/>
<path d="M47.6202 28.7989H47.2907V81.2832H47.6202V28.7989Z" fill="#AEE7ED"/>
<path d="M51.9033 28.7989H51.5739V81.2832H51.9033V28.7989Z" fill="#AEE7ED"/>
<path d="M55.8575 28.7989H55.5275V81.2832H55.8575V28.7989Z" fill="#AEE7ED"/>
<path d="M60.1389 28.7989H59.8099V81.2832H60.1389V28.7989Z" fill="#AEE7ED"/>
<path d="M64.0926 28.7989H63.7637V81.2832H64.0926V28.7989Z" fill="#AEE7ED"/>
<path d="M68.3762 28.7989H68.0451V81.2832H68.3762V28.7989Z" fill="#AEE7ED"/>
<path d="M72.3293 28.7989H72.0004V81.2832H72.3293V28.7989Z" fill="#AEE7ED"/>
<path d="M74.5251 55.3143H24.7221V56.2477H74.5251V55.3143Z" fill="#AEE7ED"/>
<path d="M74.5251 45.1315H24.7221V46.0664H74.5251V45.1315Z" fill="#AEE7ED"/>
<path d="M74.5251 35.2558H24.7221V36.1893H74.5251V35.2558Z" fill="#AEE7ED"/>
<path d="M74.552 71.9238H24.7221V73.0687H74.552V71.9238Z" fill="#AEE7ED"/>
<g opacity="0.2">
<path d="M25.9272 28.8787L49.2207 80.9912H64.9852L40.9877 29.075L25.9272 28.8787Z" fill="white"/>
</g>
<g opacity="0.2">
<path d="M48.1162 29.075L73.1181 80.9912V62.9665L57.6555 29.075H48.1162Z" fill="white"/>
</g>
<g opacity="0.2">
<path d="M69.0441 88.8052L85.8988 100.638H97.1549L80.4743 88.757L69.0441 88.8052Z" fill="white"/>
</g>
<path d="M111.378 83.9152H6.55109V99.8768H111.378V83.9152Z" fill="#3CA3AC"/>
<g opacity="0.2">
<path d="M111.38 95.4937H96.1201V93.9469H85.5958V95.836H74.5448V93.4313H58.7608V95.063H51.5685V94.0317H41.0442V95.923H29.9937V93.5176H14.2092V95.15H6.66537V99.789L111.379 99.8768L111.38 95.4937Z" fill="black"/>
</g>
<path d="M11.7472 83.9152H11.054V99.8768H11.7472V83.9152Z" fill="#AEE7ED"/>
<path d="M20.0636 83.9152H19.371V99.8768H20.0636V83.9152Z" fill="#AEE7ED"/>
<path d="M29.0742 83.9152H28.381V99.8768H29.0742V83.9152Z" fill="#AEE7ED"/>
<path d="M37.3917 83.9152H36.698V99.8768H37.3917V83.9152Z" fill="#AEE7ED"/>
<path d="M46.4013 83.9152H45.7098V99.8768H46.4013V83.9152Z" fill="#AEE7ED"/>
<path d="M54.7192 83.9152H54.0261V99.8768H54.7192V83.9152Z" fill="#AEE7ED"/>
<path d="M63.7294 83.9152H63.0356V99.8768H63.7294V83.9152Z" fill="#AEE7ED"/>
<path d="M72.0459 83.9152H71.3516V99.8768H72.0459V83.9152Z" fill="#AEE7ED"/>
<path d="M81.056 83.9152H80.3622V99.8768H81.056V83.9152Z" fill="#AEE7ED"/>
<path d="M89.3734 83.9152H88.6813V99.8768H89.3734V83.9152Z" fill="#AEE7ED"/>
<path d="M98.3846 83.9152H97.6893V99.8768H98.3846V83.9152Z" fill="#AEE7ED"/>
<path d="M111.32 86.0308H6.55109V86.5292H111.32V86.0308Z" fill="#AEE7ED"/>
<path d="M111.378 90.2909H6.55109V90.9007H111.378V90.2909Z" fill="#AEE7ED"/>
<path opacity="0.3" d="M111.379 84.1201H88.6835V99.8767H111.379V84.1201Z" fill="black"/>
<path opacity="0.2" d="M111.379 84.5092H6.39606V87.7222H111.379V84.5092Z" fill="black"/>
<path d="M111.38 78.0283H-4V85.3867H111.38V78.0283Z" fill="#217582"/>
<path d="M101.665 84.7889H99.1205V99.7617H101.665V84.7889Z" fill="#217582"/>
<path d="M30.074 21H24.0891V100.141H30.074V21Z" fill="#B71B1C"/>
<path d="M76.458 21H70.4725V100.141H76.458V21Z" fill="#B71B1C"/>
<path d="M28.0785 21H22.0936V100.141H28.0785V21Z" fill="#E53935"/>
<path d="M74.463 21H68.478V100.141H74.463V21Z" fill="#E53935"/>
<path d="M74.4629 21H24.0891V28.9132H74.4629V21Z" fill="#E53935"/>
<path d="M111.38 99.6998H-4V101H111.38V99.6998Z" fill="#5D5D5D"/>
<path d="M5.44504 36.989H0.51178V72.9989H5.44504V36.989Z" fill="#5CAEB7"/>
<path d="M5.44511 38.4588H1.74503V72.9989H5.44511V38.4588Z" fill="#81D0DE"/>
<path d="M15.3111 36.989H10.3778V72.9989H15.3111V36.989Z" fill="#5CAEB7"/>
<path d="M15.311 38.4588H11.6109V72.9989H15.311V38.4588Z" fill="#81D0DE"/>
<path d="M85.6072 36.989H80.674V72.9989H85.6072V36.989Z" fill="#5CAEB7"/>
<path d="M85.6078 38.4588H81.9072V72.9989H85.6078V38.4588Z" fill="#81D0DE"/>
<path d="M95.4737 36.989H90.5399V72.9989H95.4737V36.989Z" fill="#5CAEB7"/>
<path d="M95.4737 38.4588H91.7731V72.9989H95.4737V38.4588Z" fill="#81D0DE"/>
<path opacity="0.1" d="M76.3253 26.3107L76.4711 78.7662H86.6467L76.3253 26.3107Z" fill="black"/>
<path opacity="0.1" d="M34.6046 28.9722H30.0982V84.6587H34.6046V28.9722Z" fill="black"/>
<path opacity="0.1" d="M22.055 30.2709H-3.80487V32.5196H22.055V30.2709Z" fill="black"/>
<path opacity="0.1" d="M100.893 30.2386H76.4227V32.393H100.893V30.2386Z" fill="black"/>
<path fill-rule="evenodd" clip-rule="evenodd" d="M7.64492 107.653C4.49642 110.559 0.288879 112.334 -4.33323 112.334C-14.0903 112.334 -22 104.424 -22 94.6668C-22 84.9097 -14.0903 77 -4.33323 77C2.787 77 8.92343 81.2122 11.7201 87.2806C13.5289 86.3546 15.5785 85.8322 17.7501 85.8322C25.0679 85.8322 31.0002 91.7645 31.0002 99.0823C31.0002 106.4 25.0679 112.332 17.7501 112.332C13.7006 112.332 10.0754 110.516 7.64492 107.653Z" fill="#16A75C"/>
<path fill-rule="evenodd" clip-rule="evenodd" d="M112.062 95.0289C110.513 98.8308 107.193 101.631 103.204 102.26C101.522 109.306 95.5032 114.519 88.3363 114.519C79.8663 114.519 73 107.238 73 98.2563C73 89.2748 79.8663 81.9939 88.3363 81.9939C89.7789 81.9939 91.175 82.2051 92.4986 82.6C94.6061 79.7966 97.8541 78 101.498 78C107.85 78 113 83.4607 113 90.1968C113 91.283 112.866 92.336 112.615 93.3383H112.062V95.0289Z" fill="#16A75C"/>
</g>
<defs>
<clipPath id="clip0_306_38916">
<path d="M0 8C0 3.58172 3.58172 0 8 0H92C96.4183 0 100 3.58172 100 8V92C100 96.4183 96.4183 100 92 100H8C3.58172 100 0 96.4183 0 92V8Z" fill="white"/>
</clipPath>
<clipPath id="clip1_306_38916">
<rect width="100" height="100" fill="white"/>
</clipPath>
</defs>
</svg>
