<svg width="100" height="100" viewBox="0 0 100 100" fill="none" xmlns="http://www.w3.org/2000/svg">
<g clip-path="url(#clip0_584_40996)">
<path d="M0 8C0 3.58172 3.58172 0 8 0H92C96.4183 0 100 3.58172 100 8V92C100 96.4183 96.4183 100 92 100H8C3.58172 100 0 96.4183 0 92V8Z" fill="#E3F2FD"/>
<g clip-path="url(#clip1_584_40996)">
<path fill-rule="evenodd" clip-rule="evenodd" d="M63.0618 18V55.8319H-34.2332V71.4665H-58V80.4226H122.332V57.5948H105.331V51.4181H95.8493V36.6007L63.0618 18Z" fill="#BBDEFB"/>
<path d="M25.23 80.4226V45.7434L14.511 33.7633H3.79199V80.4226H25.23Z" fill="#BBDEFB"/>
<g opacity="0.37">
<path d="M76.2831 8.99991H53.584V104H76.2831V8.99991Z" fill="#90CAF9"/>
<path d="M53.584 9H25V104H53.584V9Z" fill="#BBDEFB"/>
<rect x="27.522" y="14.8849" width="23.5398" height="2.52212" fill="#E3F2FD"/>
<rect x="27.522" y="24.1328" width="23.5398" height="2.52212" fill="#E3F2FD"/>
<rect x="27.522" y="33.3809" width="23.5398" height="2.52212" fill="#E3F2FD"/>
<rect x="27.522" y="41.7872" width="23.5398" height="2.52212" fill="#E3F2FD"/>
<rect x="27.522" y="50.1943" width="23.5398" height="2.52212" fill="#E3F2FD"/>
<rect x="27.522" y="58.6016" width="23.5398" height="2.52212" fill="#E3F2FD"/>
<rect x="27.522" y="67.0088" width="23.5398" height="2.52212" fill="#E3F2FD"/>
<rect x="27.522" y="75.4159" width="23.5398" height="2.52212" fill="#E3F2FD"/>
<rect x="27.522" y="83.8223" width="23.5398" height="2.52212" fill="#E3F2FD"/>
</g>
</g>
<g clip-path="url(#clip2_584_40996)">
<path d="M68.6891 21.897H21.5298V152.885H68.6891V21.897Z" fill="#42A5F5"/>
<path d="M70.8119 19.691H19.4904V21.897H70.8119V19.691Z" fill="#1E88E5"/>
<path d="M90.0003 19.691H70.7703V21.897H90.0003V19.691Z" fill="#42A5F5"/>
<path d="M87.6694 21.897H68.7308V152.885H87.6694V21.897Z" fill="#1E88E5"/>
<path d="M64.069 81.9178H26.1918V100.732H64.069V81.9178Z" stroke="#1E88E5" stroke-width="0.208117" stroke-miterlimit="10"/>
<path d="M49.2511 87.4121H38.2209V91.1582H49.2511V87.4121Z" fill="#1E88E5"/>
<path d="M51.1657 87.7034H40.1356V90.8668H51.1657V87.7034Z" stroke="#1E88E5" stroke-width="0.208117" stroke-miterlimit="10"/>
<path d="M64.069 34.5089H26.1918V53.3226H64.069V34.5089Z" stroke="#1E88E5" stroke-width="0.208117" stroke-miterlimit="10"/>
<path d="M49.2511 40.0032H38.2209V43.7493H49.2511V40.0032Z" fill="#1E88E5"/>
<path d="M51.1657 40.2529H40.1356V43.4162H51.1657V40.2529Z" stroke="#1E88E5" stroke-width="0.208117" stroke-miterlimit="10"/>
<path d="M64.0689 58.1509H30.687V76.9646H64.0689V58.1509Z" fill="#1E88E5"/>
<path d="M59.865 52.3653H30.687V73.5099H59.865V52.3653Z" fill="#FFA600"/>
<path d="M41.0096 50.2009H30.687V52.3653H41.5923L41.0096 50.2009Z" fill="#FFA600"/>
<g opacity="0.3">
<path d="M59.865 52.3653H30.687V73.5099H59.865V52.3653Z" fill="#FFD026"/>
<path d="M41.0096 50.2009H30.687V52.3653H41.5923L41.0096 50.2009Z" fill="#FFD026"/>
</g>
<path d="M40.1771 51.0334H31.7275V52.3237H40.1771V51.0334Z" fill="#FAFAFA"/>
<path d="M59.9066 73.5515H30.6871L30.4789 53.6972H59.6985L59.9066 73.5515Z" fill="#FFA600"/>
<path d="M40.7599 51.6993H30.4789V53.6972H41.3843L40.7599 51.6993Z" fill="#FFA600"/>
<g opacity="0.1">
<path d="M59.9066 73.5515H30.6871L30.4789 53.6972H59.6985L59.9066 73.5515Z" fill="#FFD026"/>
<path d="M40.7599 51.6993H30.4789V53.6972H41.3843L40.7599 51.6993Z" fill="#FFD026"/>
</g>
<path d="M58.4082 50.9084H29.2302V72.0531H58.4082V50.9084Z" fill="#FFA600"/>
<path d="M39.5528 48.7024H29.2302V50.9084H40.1355L39.5528 48.7024Z" fill="#FFA600"/>
<g opacity="0.3">
<path d="M58.4082 50.9084H29.2302V72.0531H58.4082V50.9084Z" fill="#FFD026"/>
<path d="M39.5528 48.7024H29.2302V50.9084H40.1355L39.5528 48.7024Z" fill="#FFD026"/>
</g>
<path d="M38.6787 49.5349H30.2292V50.8252H38.6787V49.5349Z" fill="#FAFAFA"/>
<path d="M58.4498 72.0531H29.2302L29.0221 52.1988H58.2L58.4498 72.0531Z" fill="#FFA600"/>
<path d="M39.3031 50.2009H29.0221V52.1988H39.9274L39.3031 50.2009Z" fill="#FFA600"/>
<g opacity="0.1">
<path d="M58.4498 72.0531H29.2302L29.0221 52.1988H58.2L58.4498 72.0531Z" fill="#FFD026"/>
<path d="M39.3031 50.2009H29.0221V52.1988H39.9274L39.3031 50.2009Z" fill="#FFD026"/>
</g>
<path d="M45.5049 41.7929H16.327V62.9375H45.5049V41.7929Z" fill="#FFA600"/>
<path d="M26.6079 39.6285H16.327V41.7929H27.2323L26.6079 39.6285Z" fill="#FFA600"/>
<g opacity="0.2">
<path d="M45.5049 41.7929H16.327V62.9375H45.5049V41.7929Z" fill="#FFD026"/>
<path d="M26.6079 39.6285H16.327V41.7929H27.2323L26.6079 39.6285Z" fill="#FFD026"/>
</g>
<path d="M25.7755 40.2529H17.326V41.5432H25.7755V40.2529Z" fill="#FAFAFA"/>
<path d="M45.4216 62.9792H16.2437L13.996 43.5411H43.174L45.4216 62.9792Z" fill="#FFA600"/>
<path d="M24.0689 41.5432H13.7463L13.9961 43.5411H24.9014L24.0689 41.5432Z" fill="#FFA600"/>
<path d="M41.1762 51.4911H11.9982V72.6358H41.1762V51.4911Z" fill="#FFA600"/>
<path d="M22.3208 49.2851H11.9982V51.4912H22.9035L22.3208 49.2851Z" fill="#FFA600"/>
<g opacity="0.2">
<path d="M41.1762 51.4911H11.9982V72.6358H41.1762V51.4911Z" fill="#FAFAFA"/>
<path d="M22.3208 49.2851H11.9982V51.4912H22.9035L22.3208 49.2851Z" fill="#FAFAFA"/>
</g>
<path d="M21.4883 50.1592H13.0388V51.4495H21.4883V50.1592Z" fill="#FAFAFA"/>
<path d="M41.2178 72.6357H11.9982L11.7901 52.8231H40.968L41.2178 72.6357Z" fill="#FFA600"/>
<path d="M22.0711 50.7836H11.7901V52.8231H22.6954L22.0711 50.7836Z" fill="#FFA600"/>
<g opacity="0.4">
<path d="M41.2178 72.6357H11.9982L11.7901 52.8231H40.968L41.2178 72.6357Z" fill="#FAFAFA"/>
<path d="M22.0711 50.7836H11.7901V52.8231H22.6954L22.0711 50.7836Z" fill="#FAFAFA"/>
</g>
<path d="M48.0023 58.1509H10.1251V76.9646H48.0023V58.1509Z" fill="#42A5F5" stroke="#1E88E5" stroke-width="0.208117" stroke-miterlimit="10"/>
<path d="M33.1427 63.6451H22.1125V67.3912H33.1427V63.6451Z" fill="#1E88E5"/>
<path d="M35.099 63.9365H24.0688V67.0999H35.099V63.9365Z" stroke="#1E88E5" stroke-width="0.208117" stroke-miterlimit="10"/>
<path d="M64.0689 60.9813H48.0855V76.9646H64.0689V60.9813Z" fill="#1E88E5"/>
<path d="M31.6027 59.9407H26.483V62.1051H31.6027V59.9407Z" fill="#FAFAFA"/>
<path d="M26.483 60.565H31.6027" stroke="#FFA600" stroke-width="0.208117" stroke-miterlimit="10"/>
<path d="M26.483 61.5223H31.6027" stroke="#FFA600" stroke-width="0.208117" stroke-miterlimit="10"/>
<path d="M47.6694 36.4235H42.5497V38.5879H47.6694V36.4235Z" fill="#FAFAFA"/>
<path d="M42.5497 37.0062H47.711" stroke="#FFA600" stroke-width="0.208117" stroke-miterlimit="10"/>
<path d="M42.5497 38.0052H47.711" stroke="#FFA600" stroke-width="0.208117" stroke-miterlimit="10"/>
<path d="M47.7109 83.8741H42.5912V86.0385H47.7109V83.8741Z" fill="#FAFAFA"/>
<path d="M42.5912 84.4568H47.7525" stroke="#FFA600" stroke-width="0.208117" stroke-miterlimit="10"/>
<path d="M42.5912 85.4558H47.7525" stroke="#FFA600" stroke-width="0.208117" stroke-miterlimit="10"/>
</g>
<path fill-rule="evenodd" clip-rule="evenodd" d="M7.64492 107.653C4.49642 110.559 0.288879 112.334 -4.33323 112.334C-14.0903 112.334 -22 104.424 -22 94.6668C-22 84.9097 -14.0903 77 -4.33323 77C2.787 77 8.92343 81.2122 11.7201 87.2806C13.5289 86.3546 15.5785 85.8322 17.7501 85.8322C25.0679 85.8322 31.0002 91.7645 31.0002 99.0823C31.0002 106.4 25.0679 112.332 17.7501 112.332C13.7006 112.332 10.0754 110.516 7.64492 107.653Z" fill="#16A75C"/>
<path fill-rule="evenodd" clip-rule="evenodd" d="M112.062 95.0289C110.513 98.8308 107.193 101.631 103.204 102.26C101.522 109.306 95.5032 114.519 88.3363 114.519C79.8663 114.519 73 107.238 73 98.2563C73 89.2748 79.8663 81.9939 88.3363 81.9939C89.7789 81.9939 91.175 82.2051 92.4986 82.6C94.6061 79.7966 97.8541 78 101.498 78C107.85 78 113 83.4607 113 90.1968C113 91.283 112.866 92.336 112.615 93.3383H112.062V95.0289Z" fill="#16A75C"/>
</g>
<defs>
<clipPath id="clip0_584_40996">
<path d="M0 8C0 3.58172 3.58172 0 8 0H92C96.4183 0 100 3.58172 100 8V92C100 96.4183 96.4183 100 92 100H8C3.58172 100 0 96.4183 0 92V8Z" fill="white"/>
</clipPath>
<clipPath id="clip1_584_40996">
<rect width="100" height="100" fill="white"/>
</clipPath>
<clipPath id="clip2_584_40996">
<rect width="80" height="133.195" fill="white" transform="translate(10 19.691)"/>
</clipPath>
</defs>
</svg>
