<svg width="34" height="34" viewBox="0 0 34 34" fill="none" xmlns="http://www.w3.org/2000/svg">
    <rect width="34" height="34" rx="17" fill="#F5F5F5" />
    <g clip-path="url(#clip0_15200_495288)">
        <rect x="21.6842" y="22.6211" width="3.68421" height="4.37895" rx="1.05263" fill="#424242" />
        <rect x="8.00003" y="22.6211" width="3.68421" height="4.37895" rx="1.05263" fill="#424242" />
        <path
            d="M8.00003 19.821C8.00003 18.949 8.70695 18.2421 9.57898 18.2421H23.7895C24.6615 18.2421 25.3685 18.949 25.3685 19.821V23.3457C25.3685 23.8524 24.9577 24.2631 24.451 24.2631H8.91746C8.41078 24.2631 8.00003 23.8524 8.00003 23.3457V19.821Z"
            fill="#1E88E5" />
        <path
            d="M20.8269 18.7894H12.5415C12.1489 18.7894 11.8945 19.2038 12.0722 19.5539L12.6491 20.6908C12.7388 20.8675 12.9202 20.9789 13.1185 20.9789H20.25C20.4482 20.9789 20.6296 20.8675 20.7193 20.6908L21.2963 19.5539C21.4739 19.2038 21.2196 18.7894 20.8269 18.7894Z"
            fill="#1976D2" />
        <rect x="9.05266" y="16.6" width="2.63158" height="1.64211" rx="0.821053" fill="#424242" />
        <rect x="21.6842" y="16.6" width="2.63158" height="1.64211" rx="0.821053" fill="#424242" />
        <path
            d="M12.0796 13.9405C12.2052 13.5672 12.5552 13.3158 12.9491 13.3158H20.4194C20.8133 13.3158 21.1633 13.5672 21.2889 13.9405L22.7369 18.2421H10.6316L12.0796 13.9405Z"
            fill="#1E88E5" />
        <path
            d="M12.8528 14.5067C12.9726 14.1238 13.3272 13.8632 13.7284 13.8632H19.6401C20.0413 13.8632 20.3959 14.1238 20.5157 14.5067L21.4704 17.5587C21.5765 17.8976 21.3233 18.2421 20.9681 18.2421H12.4003C12.0452 18.2421 11.792 17.8976 11.898 17.5587L12.8528 14.5067Z"
            fill="#E3F2FD" />
        <path
            d="M12.7641 14.5247C12.8779 14.1328 13.237 13.8632 13.6451 13.8632H16.5655C16.9736 13.8632 17.3326 14.1328 17.4465 14.5247L18.3308 17.569C18.4286 17.9057 18.176 18.2421 17.8254 18.2421H12.3852C12.0346 18.2421 11.782 17.9057 11.8798 17.569L12.7641 14.5247Z"
            fill="#BBDEFB" />
        <path
            d="M13.0502 22.9827L13.536 21.8459C13.6188 21.6521 13.8092 21.5264 14.02 21.5264H19.8748C20.0855 21.5264 20.276 21.6521 20.3588 21.8459L20.8446 22.9827C20.993 23.3299 20.7382 23.7158 20.3606 23.7158H13.5341C13.1565 23.7158 12.9018 23.3299 13.0502 22.9827Z"
            fill="#1976D2" />
        <path
            d="M14.4927 23.0537L14.7963 21.9169C14.8578 21.6866 15.0664 21.5264 15.3048 21.5264H18.59C18.8284 21.5264 19.037 21.6866 19.0985 21.9169L19.4021 23.0537C19.4914 23.3879 19.2395 23.7158 18.8936 23.7158H15.0012C14.6553 23.7158 14.4034 23.3879 14.4927 23.0537Z"
            fill="#1565C0" />
        <path
            d="M9.34194 20.0588C9.20342 19.7131 9.45803 19.3368 9.83051 19.3368H10.6702C10.8853 19.3368 11.0788 19.4677 11.1588 19.6674L11.395 20.2568C11.5335 20.6026 11.2789 20.9789 10.9064 20.9789H10.0667C9.85157 20.9789 9.65811 20.848 9.57811 20.6483L9.34194 20.0588Z"
            fill="white" />
        <path
            d="M22.2097 19.6674C22.2897 19.4677 22.4831 19.3368 22.6983 19.3368H23.538C23.9104 19.3368 24.1651 19.7131 24.0265 20.0588L23.7904 20.6483C23.7104 20.848 23.5169 20.9789 23.3018 20.9789H22.4621C22.0896 20.9789 21.835 20.6026 21.9735 20.2568L22.2097 19.6674Z"
            fill="white" />
        <circle cx="22" cy="13" r="6" fill="#F44336" />
        <path
            d="M22 9.66663C21.081 9.66663 20.3333 10.4143 20.3333 11.3333V12H20C19.6323 12 19.3333 12.299 19.3333 12.6666V15.6666C19.3333 16.0343 19.6323 16.3333 20 16.3333H24C24.3677 16.3333 24.6667 16.0343 24.6667 15.6666V12.6666C24.6667 12.299 24.3677 12 24 12H23.6667V11.3333C23.6667 10.4143 22.919 9.66663 22 9.66663ZM21 11.3333C21 10.782 21.4487 10.3333 22 10.3333C22.5513 10.3333 23 10.782 23 11.3333V12H21V11.3333ZM24.0007 15.6666H22.3333V14.9073C22.5317 14.7916 22.6667 14.579 22.6667 14.3333C22.6667 13.9656 22.3677 13.6666 22 13.6666C21.6323 13.6666 21.3333 13.9656 21.3333 14.3333C21.3333 14.5786 21.4683 14.7916 21.6667 14.9073V15.6666H20V12.6666H24L24.0007 15.6666Z"
            fill="white" />
    </g>
    <defs>
        <clipPath id="clip0_15200_495288">
            <rect width="20" height="20" fill="white" transform="translate(8.00002 7)" />
        </clipPath>
    </defs>
</svg>