<svg width="92" height="92" viewBox="0 0 92 92" fill="none" xmlns="http://www.w3.org/2000/svg">
<rect width="92" height="92" rx="46" fill="#F5F5F5"/>
<mask id="mask0_21537_360431" style="mask-type:alpha" maskUnits="userSpaceOnUse" x="21" y="21" width="50" height="50">
<rect x="21" y="21" width="50" height="50" fill="#D9D9D9"/>
</mask>
<g mask="url(#mask0_21537_360431)">
<path d="M29.3333 35.5833H58.5V31.4166H29.3333V35.5833ZM29.3333 64.75C28.1875 64.75 27.2066 64.342 26.3906 63.526C25.5746 62.71 25.1667 61.7291 25.1667 60.5833V31.4166C25.1667 30.2708 25.5746 29.2899 26.3906 28.4739C27.2066 27.658 28.1875 27.25 29.3333 27.25H31.4167V25.1666C31.4167 24.5764 31.6163 24.0816 32.0156 23.6823C32.4149 23.283 32.9097 23.0833 33.5 23.0833C34.0903 23.0833 34.5851 23.283 34.9844 23.6823C35.3837 24.0816 35.5833 24.5764 35.5833 25.1666V27.25H52.25V25.1666C52.25 24.5764 52.4496 24.0816 52.8489 23.6823C53.2483 23.283 53.743 23.0833 54.3333 23.0833C54.9236 23.0833 55.4184 23.283 55.8177 23.6823C56.217 24.0816 56.4167 24.5764 56.4167 25.1666V27.25H58.5C59.6458 27.25 60.6267 27.658 61.4427 28.4739C62.2587 29.2899 62.6667 30.2708 62.6667 31.4166V43.2396C62.0069 42.9271 61.3298 42.6666 60.6354 42.4583C59.941 42.25 59.2292 42.0937 58.5 41.9896V39.75H29.3333V60.5833H42.4583C42.7014 61.3472 42.9878 62.0764 43.3177 62.7708C43.6476 63.4653 44.0382 64.125 44.4896 64.75H29.3333Z" fill="#069550"/>
<path d="M49.0469 63.7865C51.0781 65.8177 53.5347 66.8333 56.4167 66.8333C59.2986 66.8333 61.7552 65.8177 63.7865 63.7865C65.8177 61.7552 66.8333 59.2986 66.8333 56.4167C66.8333 53.5347 65.8177 51.0781 63.7865 49.0469C61.7552 47.0156 59.2986 46 56.4167 46C53.5347 46 51.0781 47.0156 49.0469 49.0469C47.0156 51.0781 46 53.5347 46 56.4167C46 59.2986 47.0156 61.7552 49.0469 63.7865Z" stroke="#FFA600" stroke-width="4.16667"/>
<path d="M57.4583 51.2084V56L60.6354 59.1771C60.8437 59.3854 60.9479 59.6285 60.9479 59.9063C60.9479 60.1841 60.8437 60.4271 60.6354 60.6354C60.4271 60.8438 60.184 60.9479 59.9063 60.9479C59.6285 60.9479 59.3854 60.8438 59.1771 60.6354L56 57.4584C55.7917 57.25 55.6354 57.0156 55.5312 56.7552C55.4271 56.4948 55.375 56.2257 55.375 55.9479V51.2084C55.375 50.9306 55.4792 50.6875 55.6875 50.4792C55.8958 50.2709 56.1389 50.1667 56.4167 50.1667C56.6944 50.1667 56.9375 50.2709 57.1458 50.4792C57.3542 50.6875 57.4583 50.9306 57.4583 51.2084Z" fill="#069550" stroke="#069550" stroke-width="1.04167"/>
</g>
</svg>
