<svg width="131" height="114" viewBox="0 0 131 114" fill="none" xmlns="http://www.w3.org/2000/svg">
<rect x="0.351995" y="0.351995" width="130.296" height="113.296" fill="#F5F5F5"/>
<rect x="0.351995" y="0.351995" width="130.296" height="113.296" stroke="#E3E7ED" stroke-width="0.70399"/>
<path d="M58.7985 16.7988L58.9829 16H58.163H45.1196C43.3186 16 41.8587 17.4599 41.8587 19.2609V73.3913C41.8587 75.1922 43.3186 76.6522 45.1196 76.6522H85.2283C87.0292 76.6522 88.4891 75.1922 88.4891 73.3913V31.7545C88.4891 30.8896 88.1456 30.0602 87.534 29.4487L75.0404 16.9551C74.4289 16.3435 73.5995 16 72.7347 16H69.25H68.9069L68.7126 16.2827L65.1256 21.5001L64.8031 21.9692L65.2243 22.3521L68.4382 25.2738L63.0543 35.5286V29.0435V28.684L62.7504 28.4921L56.9461 24.8261L58.7985 16.7988Z" fill="white" stroke="#B9C3D3" stroke-width="1.30435"/>
<path d="M55.5543 46.3261L58 43.8804M60.4456 41.4348L58 43.8804M58 43.8804L55.5543 41.4348M58 43.8804L60.4456 46.3261" stroke="#B9C3D3" stroke-width="1.30435" stroke-linecap="round" stroke-linejoin="round"/>
<path d="M68.5978 46.3261L71.0434 43.8804M73.4891 41.4348L71.0434 43.8804M71.0434 43.8804L68.5978 41.4348M71.0434 43.8804L73.4891 46.3261" stroke="#B9C3D3" stroke-width="1.30435" stroke-linecap="round" stroke-linejoin="round"/>
<path d="M55.5543 58.3912C62.5315 52.7023 66.5097 52.8337 73.4891 58.3912" stroke="#B9C3D3" stroke-width="1.30435" stroke-linecap="round" stroke-linejoin="round"/>
<path d="M74.4674 29.6957V16.9223L78.8935 21.3484L86.9529 29.6957H74.4674Z" fill="#B9C3D3" stroke="#B9C3D3" stroke-width="1.30435" stroke-linejoin="round"/>
<path d="M22.0791 91.46V94.0625C21.9912 94.1927 21.8512 94.3392 21.6592 94.502C21.4671 94.6615 21.2018 94.8014 20.8633 94.9219C20.528 95.0391 20.0951 95.0977 19.5645 95.0977C19.1315 95.0977 18.7327 95.0228 18.3682 94.873C18.0068 94.7201 17.6927 94.4987 17.4258 94.209C17.1621 93.916 16.957 93.5612 16.8105 93.1445C16.6673 92.7246 16.5957 92.2493 16.5957 91.7188V91.167C16.5957 90.6364 16.6576 90.1628 16.7812 89.7461C16.9082 89.3294 17.0938 88.9762 17.3379 88.6865C17.582 88.3936 17.8815 88.1722 18.2363 88.0225C18.5911 87.8695 18.998 87.793 19.457 87.793C20.0007 87.793 20.4548 87.8874 20.8193 88.0762C21.1872 88.2617 21.4736 88.5189 21.6787 88.8477C21.887 89.1764 22.0205 89.5508 22.0791 89.9707H21.1367C21.0944 89.7135 21.0098 89.4792 20.8828 89.2676C20.7591 89.056 20.5817 88.8867 20.3506 88.7598C20.1195 88.6296 19.8216 88.5645 19.457 88.5645C19.1283 88.5645 18.8434 88.6247 18.6025 88.7451C18.3617 88.8656 18.1631 89.0381 18.0068 89.2627C17.8506 89.4873 17.7334 89.7591 17.6553 90.0781C17.5804 90.3971 17.543 90.7568 17.543 91.1572V91.7188C17.543 92.1289 17.5902 92.4951 17.6846 92.8174C17.7822 93.1396 17.9206 93.4147 18.0996 93.6426C18.2786 93.8672 18.4919 94.0381 18.7393 94.1553C18.9899 94.2725 19.2666 94.3311 19.5693 94.3311C19.9046 94.3311 20.1764 94.3034 20.3848 94.248C20.5931 94.1895 20.7559 94.1211 20.873 94.043C20.9902 93.9616 21.0798 93.8851 21.1416 93.8135V92.2217H19.4961V91.46H22.0791ZM26.6201 94.0967V91.377C26.6201 91.1686 26.5778 90.988 26.4932 90.835C26.4118 90.6787 26.2881 90.5583 26.1221 90.4736C25.9561 90.389 25.751 90.3467 25.5068 90.3467C25.279 90.3467 25.0788 90.3857 24.9062 90.4639C24.737 90.542 24.6035 90.6445 24.5059 90.7715C24.4115 90.8984 24.3643 91.0352 24.3643 91.1816H23.4609C23.4609 90.9928 23.5098 90.8057 23.6074 90.6201C23.7051 90.4346 23.8451 90.2669 24.0273 90.1172C24.2129 89.9642 24.4342 89.8438 24.6914 89.7559C24.9518 89.6647 25.2415 89.6191 25.5605 89.6191C25.9447 89.6191 26.2832 89.6842 26.5762 89.8145C26.8724 89.9447 27.1035 90.1416 27.2695 90.4053C27.4388 90.6657 27.5234 90.9928 27.5234 91.3867V93.8477C27.5234 94.0234 27.5381 94.2106 27.5674 94.4092C27.5999 94.6077 27.6471 94.7786 27.709 94.9219V95H26.7666C26.721 94.8958 26.6852 94.7575 26.6592 94.585C26.6331 94.4092 26.6201 94.2464 26.6201 94.0967ZM26.7764 91.7969L26.7861 92.4316H25.873C25.6159 92.4316 25.3864 92.4528 25.1846 92.4951C24.9827 92.5342 24.8135 92.5944 24.6768 92.6758C24.54 92.7572 24.4359 92.8597 24.3643 92.9834C24.2926 93.1038 24.2568 93.2454 24.2568 93.4082C24.2568 93.5742 24.2943 93.7256 24.3691 93.8623C24.444 93.999 24.5563 94.1081 24.7061 94.1895C24.859 94.2676 25.0462 94.3066 25.2676 94.3066C25.5443 94.3066 25.7884 94.248 26 94.1309C26.2116 94.0137 26.3792 93.8704 26.5029 93.7012C26.6299 93.5319 26.6982 93.3675 26.708 93.208L27.0938 93.6426C27.071 93.7793 27.0091 93.9307 26.9082 94.0967C26.8073 94.2627 26.6722 94.4222 26.5029 94.5752C26.3369 94.7249 26.1383 94.8503 25.9072 94.9512C25.6794 95.0488 25.4222 95.0977 25.1357 95.0977C24.7777 95.0977 24.4635 95.0277 24.1934 94.8877C23.9264 94.7477 23.7181 94.5605 23.5684 94.3262C23.4219 94.0885 23.3486 93.8232 23.3486 93.5303C23.3486 93.2471 23.404 92.998 23.5146 92.7832C23.6253 92.5651 23.7848 92.3844 23.9932 92.2412C24.2015 92.0947 24.4521 91.984 24.7451 91.9092C25.0381 91.8343 25.3652 91.7969 25.7266 91.7969H26.7764ZM29.8428 90.7666V95H28.9346V89.7168H29.7939L29.8428 90.7666ZM29.6572 92.1582L29.2373 92.1436C29.2406 91.7822 29.2878 91.4486 29.3789 91.1426C29.4701 90.8333 29.6051 90.5648 29.7842 90.3369C29.9632 90.109 30.1862 89.9333 30.4531 89.8096C30.7201 89.6826 31.0293 89.6191 31.3809 89.6191C31.6283 89.6191 31.8561 89.6549 32.0645 89.7266C32.2728 89.7949 32.4535 89.904 32.6064 90.0537C32.7594 90.2035 32.8783 90.3955 32.9629 90.6299C33.0475 90.8643 33.0898 91.1475 33.0898 91.4795V95H32.1865V91.5234C32.1865 91.2467 32.1393 91.0254 32.0449 90.8594C31.9538 90.6934 31.8236 90.5729 31.6543 90.498C31.485 90.4199 31.2865 90.3809 31.0586 90.3809C30.7917 90.3809 30.5687 90.4281 30.3896 90.5225C30.2106 90.6169 30.0674 90.7471 29.96 90.9131C29.8525 91.0791 29.7744 91.2695 29.7256 91.4844C29.68 91.696 29.6572 91.9206 29.6572 92.1582ZM33.0801 91.6602L32.4746 91.8457C32.4779 91.556 32.5251 91.2777 32.6162 91.0107C32.7106 90.7438 32.8457 90.5062 33.0215 90.2979C33.2005 90.0895 33.4202 89.9251 33.6807 89.8047C33.9411 89.681 34.2389 89.6191 34.5742 89.6191C34.8574 89.6191 35.1081 89.6566 35.3262 89.7314C35.5475 89.8063 35.7331 89.9219 35.8828 90.0781C36.0358 90.2311 36.1514 90.4281 36.2295 90.6689C36.3076 90.9098 36.3467 91.1963 36.3467 91.5283V95H35.4385V91.5186C35.4385 91.2223 35.3913 90.9928 35.2969 90.8301C35.2057 90.6641 35.0755 90.5485 34.9062 90.4834C34.7402 90.415 34.5417 90.3809 34.3105 90.3809C34.112 90.3809 33.9362 90.415 33.7832 90.4834C33.6302 90.5518 33.5016 90.6462 33.3975 90.7666C33.2933 90.8838 33.2135 91.0189 33.1582 91.1719C33.1061 91.3249 33.0801 91.4876 33.0801 91.6602ZM37.709 87.5H38.6172V93.9746L38.5391 95H37.709V87.5ZM42.1865 92.3145V92.417C42.1865 92.8011 42.141 93.1576 42.0498 93.4863C41.9587 93.8118 41.8252 94.0951 41.6494 94.3359C41.4736 94.5768 41.2588 94.764 41.0049 94.8975C40.751 95.0309 40.4596 95.0977 40.1309 95.0977C39.7956 95.0977 39.501 95.0407 39.2471 94.9268C38.9964 94.8096 38.7848 94.6419 38.6123 94.4238C38.4398 94.2057 38.3014 93.9421 38.1973 93.6328C38.0964 93.3236 38.0264 92.9753 37.9873 92.5879V92.1387C38.0264 91.748 38.0964 91.3981 38.1973 91.0889C38.3014 90.7796 38.4398 90.516 38.6123 90.2979C38.7848 90.0765 38.9964 89.9089 39.2471 89.7949C39.4977 89.6777 39.7891 89.6191 40.1211 89.6191C40.4531 89.6191 40.7477 89.6842 41.0049 89.8145C41.262 89.9414 41.4769 90.1237 41.6494 90.3613C41.8252 90.599 41.9587 90.8838 42.0498 91.2158C42.141 91.5446 42.1865 91.9108 42.1865 92.3145ZM41.2783 92.417V92.3145C41.2783 92.0508 41.2539 91.8034 41.2051 91.5723C41.1562 91.3379 41.0781 91.1328 40.9707 90.957C40.8633 90.778 40.7217 90.638 40.5459 90.5371C40.3701 90.4329 40.1536 90.3809 39.8965 90.3809C39.6686 90.3809 39.4701 90.4199 39.3008 90.498C39.1348 90.5762 38.9932 90.682 38.876 90.8154C38.7588 90.9456 38.6628 91.0954 38.5879 91.2646C38.5163 91.4307 38.4626 91.6032 38.4268 91.7822V92.959C38.4788 93.1868 38.5635 93.4066 38.6807 93.6182C38.8011 93.8265 38.9606 93.9974 39.1592 94.1309C39.361 94.2643 39.61 94.3311 39.9062 94.3311C40.1504 94.3311 40.3587 94.2822 40.5312 94.1846C40.707 94.0837 40.8486 93.9453 40.9561 93.7695C41.0667 93.5938 41.1481 93.3903 41.2002 93.1592C41.2523 92.9281 41.2783 92.6807 41.2783 92.417ZM46.4443 94.0967V91.377C46.4443 91.1686 46.402 90.988 46.3174 90.835C46.236 90.6787 46.1123 90.5583 45.9463 90.4736C45.7803 90.389 45.5752 90.3467 45.3311 90.3467C45.1032 90.3467 44.903 90.3857 44.7305 90.4639C44.5612 90.542 44.4277 90.6445 44.3301 90.7715C44.2357 90.8984 44.1885 91.0352 44.1885 91.1816H43.2852C43.2852 90.9928 43.334 90.8057 43.4316 90.6201C43.5293 90.4346 43.6693 90.2669 43.8516 90.1172C44.0371 89.9642 44.2585 89.8438 44.5156 89.7559C44.776 89.6647 45.0658 89.6191 45.3848 89.6191C45.7689 89.6191 46.1074 89.6842 46.4004 89.8145C46.6966 89.9447 46.9277 90.1416 47.0938 90.4053C47.263 90.6657 47.3477 90.9928 47.3477 91.3867V93.8477C47.3477 94.0234 47.3623 94.2106 47.3916 94.4092C47.4242 94.6077 47.4714 94.7786 47.5332 94.9219V95H46.5908C46.5452 94.8958 46.5094 94.7575 46.4834 94.585C46.4574 94.4092 46.4443 94.2464 46.4443 94.0967ZM46.6006 91.7969L46.6104 92.4316H45.6973C45.4401 92.4316 45.2106 92.4528 45.0088 92.4951C44.807 92.5342 44.6377 92.5944 44.501 92.6758C44.3643 92.7572 44.2601 92.8597 44.1885 92.9834C44.1169 93.1038 44.0811 93.2454 44.0811 93.4082C44.0811 93.5742 44.1185 93.7256 44.1934 93.8623C44.2682 93.999 44.3805 94.1081 44.5303 94.1895C44.6833 94.2676 44.8704 94.3066 45.0918 94.3066C45.3685 94.3066 45.6126 94.248 45.8242 94.1309C46.0358 94.0137 46.2035 93.8704 46.3271 93.7012C46.4541 93.5319 46.5225 93.3675 46.5322 93.208L46.918 93.6426C46.8952 93.7793 46.8333 93.9307 46.7324 94.0967C46.6315 94.2627 46.4964 94.4222 46.3271 94.5752C46.1611 94.7249 45.9626 94.8503 45.7314 94.9512C45.5036 95.0488 45.2464 95.0977 44.96 95.0977C44.6019 95.0977 44.2878 95.0277 44.0176 94.8877C43.7507 94.7477 43.5423 94.5605 43.3926 94.3262C43.2461 94.0885 43.1729 93.8232 43.1729 93.5303C43.1729 93.2471 43.2282 92.998 43.3389 92.7832C43.4495 92.5651 43.609 92.3844 43.8174 92.2412C44.0257 92.0947 44.2764 91.984 44.5693 91.9092C44.8623 91.8343 45.1895 91.7969 45.5508 91.7969H46.6006ZM49.6719 90.5469V95H48.7686V89.7168H49.6475L49.6719 90.5469ZM51.3223 89.6875L51.3174 90.5273C51.2425 90.5111 51.1709 90.5013 51.1025 90.498C51.0374 90.4915 50.9626 90.4883 50.8779 90.4883C50.6696 90.4883 50.4857 90.5208 50.3262 90.5859C50.1667 90.651 50.0316 90.7422 49.9209 90.8594C49.8102 90.9766 49.7223 91.1165 49.6572 91.2793C49.5954 91.4388 49.5547 91.6146 49.5352 91.8066L49.2812 91.9531C49.2812 91.6341 49.3122 91.3346 49.374 91.0547C49.4391 90.7747 49.5384 90.5273 49.6719 90.3125C49.8053 90.0944 49.9746 89.9251 50.1797 89.8047C50.388 89.681 50.6354 89.6191 50.9219 89.6191C50.987 89.6191 51.0618 89.6273 51.1465 89.6436C51.2311 89.6566 51.2897 89.6712 51.3223 89.6875ZM58.0605 89.7168H58.8809V94.8877C58.8809 95.3532 58.7865 95.7503 58.5977 96.0791C58.4089 96.4079 58.1452 96.6569 57.8066 96.8262C57.4714 96.9987 57.084 97.085 56.6445 97.085C56.4622 97.085 56.2474 97.0557 56 96.9971C55.7559 96.9417 55.515 96.8457 55.2773 96.709C55.043 96.5755 54.846 96.3949 54.6865 96.167L55.1602 95.6299C55.3815 95.8968 55.6126 96.0824 55.8535 96.1865C56.0977 96.2907 56.3385 96.3428 56.5762 96.3428C56.8626 96.3428 57.11 96.2891 57.3184 96.1816C57.5267 96.0742 57.6878 95.9147 57.8018 95.7031C57.9189 95.4948 57.9775 95.2376 57.9775 94.9316V90.8789L58.0605 89.7168ZM54.4229 92.417V92.3145C54.4229 91.9108 54.4701 91.5446 54.5645 91.2158C54.6621 90.8838 54.8005 90.599 54.9795 90.3613C55.1618 90.1237 55.3815 89.9414 55.6387 89.8145C55.8958 89.6842 56.1855 89.6191 56.5078 89.6191C56.8398 89.6191 57.1296 89.6777 57.377 89.7949C57.6276 89.9089 57.8392 90.0765 58.0117 90.2979C58.1875 90.516 58.3258 90.7796 58.4268 91.0889C58.5277 91.3981 58.5977 91.748 58.6367 92.1387V92.5879C58.6009 92.9753 58.5309 93.3236 58.4268 93.6328C58.3258 93.9421 58.1875 94.2057 58.0117 94.4238C57.8392 94.6419 57.6276 94.8096 57.377 94.9268C57.1263 95.0407 56.8333 95.0977 56.498 95.0977C56.1823 95.0977 55.8958 95.0309 55.6387 94.8975C55.3848 94.764 55.1667 94.5768 54.9844 94.3359C54.8021 94.0951 54.6621 93.8118 54.5645 93.4863C54.4701 93.1576 54.4229 92.8011 54.4229 92.417ZM55.3262 92.3145V92.417C55.3262 92.6807 55.3522 92.9281 55.4043 93.1592C55.4596 93.3903 55.5426 93.5938 55.6533 93.7695C55.7673 93.9453 55.9121 94.0837 56.0879 94.1846C56.2637 94.2822 56.4736 94.3311 56.7178 94.3311C57.0173 94.3311 57.2646 94.2676 57.46 94.1406C57.6553 94.0137 57.8099 93.846 57.9238 93.6377C58.041 93.4294 58.1322 93.2031 58.1973 92.959V91.7822C58.1615 91.6032 58.1061 91.4307 58.0312 91.2646C57.9596 91.0954 57.8652 90.9456 57.748 90.8154C57.6341 90.682 57.4925 90.5762 57.3232 90.498C57.154 90.4199 56.9554 90.3809 56.7275 90.3809C56.4801 90.3809 56.2669 90.4329 56.0879 90.5371C55.9121 90.638 55.7673 90.778 55.6533 90.957C55.5426 91.1328 55.4596 91.3379 55.4043 91.5723C55.3522 91.8034 55.3262 92.0508 55.3262 92.3145ZM63.3682 94.0967V91.377C63.3682 91.1686 63.3258 90.988 63.2412 90.835C63.1598 90.6787 63.0361 90.5583 62.8701 90.4736C62.7041 90.389 62.499 90.3467 62.2549 90.3467C62.027 90.3467 61.8268 90.3857 61.6543 90.4639C61.485 90.542 61.3516 90.6445 61.2539 90.7715C61.1595 90.8984 61.1123 91.0352 61.1123 91.1816H60.209C60.209 90.9928 60.2578 90.8057 60.3555 90.6201C60.4531 90.4346 60.5931 90.2669 60.7754 90.1172C60.9609 89.9642 61.1823 89.8438 61.4395 89.7559C61.6999 89.6647 61.9896 89.6191 62.3086 89.6191C62.6927 89.6191 63.0312 89.6842 63.3242 89.8145C63.6204 89.9447 63.8516 90.1416 64.0176 90.4053C64.1868 90.6657 64.2715 90.9928 64.2715 91.3867V93.8477C64.2715 94.0234 64.2861 94.2106 64.3154 94.4092C64.348 94.6077 64.3952 94.7786 64.457 94.9219V95H63.5146C63.4691 94.8958 63.4333 94.7575 63.4072 94.585C63.3812 94.4092 63.3682 94.2464 63.3682 94.0967ZM63.5244 91.7969L63.5342 92.4316H62.6211C62.3639 92.4316 62.1344 92.4528 61.9326 92.4951C61.7308 92.5342 61.5615 92.5944 61.4248 92.6758C61.2881 92.7572 61.1839 92.8597 61.1123 92.9834C61.0407 93.1038 61.0049 93.2454 61.0049 93.4082C61.0049 93.5742 61.0423 93.7256 61.1172 93.8623C61.1921 93.999 61.3044 94.1081 61.4541 94.1895C61.6071 94.2676 61.7943 94.3066 62.0156 94.3066C62.2923 94.3066 62.5365 94.248 62.748 94.1309C62.9596 94.0137 63.1273 93.8704 63.251 93.7012C63.3779 93.5319 63.4463 93.3675 63.4561 93.208L63.8418 93.6426C63.819 93.7793 63.7572 93.9307 63.6562 94.0967C63.5553 94.2627 63.4202 94.4222 63.251 94.5752C63.085 94.7249 62.8864 94.8503 62.6553 94.9512C62.4274 95.0488 62.1702 95.0977 61.8838 95.0977C61.5257 95.0977 61.2116 95.0277 60.9414 94.8877C60.6745 94.7477 60.4661 94.5605 60.3164 94.3262C60.1699 94.0885 60.0967 93.8232 60.0967 93.5303C60.0967 93.2471 60.152 92.998 60.2627 92.7832C60.3734 92.5651 60.5329 92.3844 60.7412 92.2412C60.9495 92.0947 61.2002 91.984 61.4932 91.9092C61.7861 91.8343 62.1133 91.7969 62.4746 91.7969H63.5244ZM69.1152 89.7168H69.9355V94.8877C69.9355 95.3532 69.8411 95.7503 69.6523 96.0791C69.4635 96.4079 69.1999 96.6569 68.8613 96.8262C68.526 96.9987 68.1387 97.085 67.6992 97.085C67.5169 97.085 67.3021 97.0557 67.0547 96.9971C66.8105 96.9417 66.5697 96.8457 66.332 96.709C66.0977 96.5755 65.9007 96.3949 65.7412 96.167L66.2148 95.6299C66.4362 95.8968 66.6673 96.0824 66.9082 96.1865C67.1523 96.2907 67.3932 96.3428 67.6309 96.3428C67.9173 96.3428 68.1647 96.2891 68.373 96.1816C68.5814 96.0742 68.7425 95.9147 68.8564 95.7031C68.9736 95.4948 69.0322 95.2376 69.0322 94.9316V90.8789L69.1152 89.7168ZM65.4775 92.417V92.3145C65.4775 91.9108 65.5247 91.5446 65.6191 91.2158C65.7168 90.8838 65.8551 90.599 66.0342 90.3613C66.2165 90.1237 66.4362 89.9414 66.6934 89.8145C66.9505 89.6842 67.2402 89.6191 67.5625 89.6191C67.8945 89.6191 68.1842 89.6777 68.4316 89.7949C68.6823 89.9089 68.8939 90.0765 69.0664 90.2979C69.2422 90.516 69.3805 90.7796 69.4814 91.0889C69.5824 91.3981 69.6523 91.748 69.6914 92.1387V92.5879C69.6556 92.9753 69.5856 93.3236 69.4814 93.6328C69.3805 93.9421 69.2422 94.2057 69.0664 94.4238C68.8939 94.6419 68.6823 94.8096 68.4316 94.9268C68.181 95.0407 67.888 95.0977 67.5527 95.0977C67.237 95.0977 66.9505 95.0309 66.6934 94.8975C66.4395 94.764 66.2214 94.5768 66.0391 94.3359C65.8568 94.0951 65.7168 93.8118 65.6191 93.4863C65.5247 93.1576 65.4775 92.8011 65.4775 92.417ZM66.3809 92.3145V92.417C66.3809 92.6807 66.4069 92.9281 66.459 93.1592C66.5143 93.3903 66.5973 93.5938 66.708 93.7695C66.8219 93.9453 66.9668 94.0837 67.1426 94.1846C67.3184 94.2822 67.5283 94.3311 67.7725 94.3311C68.0719 94.3311 68.3193 94.2676 68.5146 94.1406C68.71 94.0137 68.8646 93.846 68.9785 93.6377C69.0957 93.4294 69.1868 93.2031 69.252 92.959V91.7822C69.2161 91.6032 69.1608 91.4307 69.0859 91.2646C69.0143 91.0954 68.9199 90.9456 68.8027 90.8154C68.6888 90.682 68.5472 90.5762 68.3779 90.498C68.2087 90.4199 68.0101 90.3809 67.7822 90.3809C67.5348 90.3809 67.3216 90.4329 67.1426 90.5371C66.9668 90.638 66.8219 90.778 66.708 90.957C66.5973 91.1328 66.5143 91.3379 66.459 91.5723C66.4069 91.8034 66.3809 92.0508 66.3809 92.3145ZM74.4229 94.0967V91.377C74.4229 91.1686 74.3805 90.988 74.2959 90.835C74.2145 90.6787 74.0908 90.5583 73.9248 90.4736C73.7588 90.389 73.5537 90.3467 73.3096 90.3467C73.0817 90.3467 72.8815 90.3857 72.709 90.4639C72.5397 90.542 72.4062 90.6445 72.3086 90.7715C72.2142 90.8984 72.167 91.0352 72.167 91.1816H71.2637C71.2637 90.9928 71.3125 90.8057 71.4102 90.6201C71.5078 90.4346 71.6478 90.2669 71.8301 90.1172C72.0156 89.9642 72.237 89.8438 72.4941 89.7559C72.7546 89.6647 73.0443 89.6191 73.3633 89.6191C73.7474 89.6191 74.0859 89.6842 74.3789 89.8145C74.6751 89.9447 74.9062 90.1416 75.0723 90.4053C75.2415 90.6657 75.3262 90.9928 75.3262 91.3867V93.8477C75.3262 94.0234 75.3408 94.2106 75.3701 94.4092C75.4027 94.6077 75.4499 94.7786 75.5117 94.9219V95H74.5693C74.5238 94.8958 74.488 94.7575 74.4619 94.585C74.4359 94.4092 74.4229 94.2464 74.4229 94.0967ZM74.5791 91.7969L74.5889 92.4316H73.6758C73.4186 92.4316 73.1891 92.4528 72.9873 92.4951C72.7855 92.5342 72.6162 92.5944 72.4795 92.6758C72.3428 92.7572 72.2386 92.8597 72.167 92.9834C72.0954 93.1038 72.0596 93.2454 72.0596 93.4082C72.0596 93.5742 72.097 93.7256 72.1719 93.8623C72.2467 93.999 72.359 94.1081 72.5088 94.1895C72.6618 94.2676 72.849 94.3066 73.0703 94.3066C73.347 94.3066 73.5911 94.248 73.8027 94.1309C74.0143 94.0137 74.182 93.8704 74.3057 93.7012C74.4326 93.5319 74.501 93.3675 74.5107 93.208L74.8965 93.6426C74.8737 93.7793 74.8118 93.9307 74.7109 94.0967C74.61 94.2627 74.4749 94.4222 74.3057 94.5752C74.1396 94.7249 73.9411 94.8503 73.71 94.9512C73.4821 95.0488 73.2249 95.0977 72.9385 95.0977C72.5804 95.0977 72.2663 95.0277 71.9961 94.8877C71.7292 94.7477 71.5208 94.5605 71.3711 94.3262C71.2246 94.0885 71.1514 93.8232 71.1514 93.5303C71.1514 93.2471 71.2067 92.998 71.3174 92.7832C71.4281 92.5651 71.5876 92.3844 71.7959 92.2412C72.0042 92.0947 72.2549 91.984 72.5479 91.9092C72.8408 91.8343 73.168 91.7969 73.5293 91.7969H74.5791ZM77.7285 87.5V95H76.8203V87.5H77.7285ZM84.9893 93.9746V87.5H85.8975V95H85.0674L84.9893 93.9746ZM81.4346 92.417V92.3145C81.4346 91.9108 81.4834 91.5446 81.5811 91.2158C81.682 90.8838 81.8236 90.599 82.0059 90.3613C82.1914 90.1237 82.4111 89.9414 82.665 89.8145C82.9222 89.6842 83.2087 89.6191 83.5244 89.6191C83.8564 89.6191 84.1462 89.6777 84.3936 89.7949C84.6442 89.9089 84.8558 90.0765 85.0283 90.2979C85.2041 90.516 85.3424 90.7796 85.4434 91.0889C85.5443 91.3981 85.6143 91.748 85.6533 92.1387V92.5879C85.6175 92.9753 85.5475 93.3236 85.4434 93.6328C85.3424 93.9421 85.2041 94.2057 85.0283 94.4238C84.8558 94.6419 84.6442 94.8096 84.3936 94.9268C84.1429 95.0407 83.8499 95.0977 83.5146 95.0977C83.2054 95.0977 82.9222 95.0309 82.665 94.8975C82.4111 94.764 82.1914 94.5768 82.0059 94.3359C81.8236 94.0951 81.682 93.8118 81.5811 93.4863C81.4834 93.1576 81.4346 92.8011 81.4346 92.417ZM82.3428 92.3145V92.417C82.3428 92.6807 82.3688 92.9281 82.4209 93.1592C82.4762 93.3903 82.5609 93.5938 82.6748 93.7695C82.7887 93.9453 82.9336 94.0837 83.1094 94.1846C83.2852 94.2822 83.4951 94.3311 83.7393 94.3311C84.0387 94.3311 84.2845 94.2676 84.4766 94.1406C84.6719 94.0137 84.8281 93.846 84.9453 93.6377C85.0625 93.4294 85.1536 93.2031 85.2188 92.959V91.7822C85.1797 91.6032 85.1227 91.4307 85.0479 91.2646C84.9762 91.0954 84.8818 90.9456 84.7646 90.8154C84.6507 90.682 84.5091 90.5762 84.3398 90.498C84.1738 90.4199 83.9769 90.3809 83.749 90.3809C83.5016 90.3809 83.2884 90.4329 83.1094 90.5371C82.9336 90.638 82.7887 90.778 82.6748 90.957C82.5609 91.1328 82.4762 91.3379 82.4209 91.5723C82.3688 91.8034 82.3428 92.0508 82.3428 92.3145ZM88.2852 89.7168V95H87.377V89.7168H88.2852ZM87.3086 88.3154C87.3086 88.1689 87.3525 88.0452 87.4404 87.9443C87.5316 87.8434 87.665 87.793 87.8408 87.793C88.0133 87.793 88.1452 87.8434 88.2363 87.9443C88.3307 88.0452 88.3779 88.1689 88.3779 88.3154C88.3779 88.4554 88.3307 88.5758 88.2363 88.6768C88.1452 88.7744 88.0133 88.8232 87.8408 88.8232C87.665 88.8232 87.5316 88.7744 87.4404 88.6768C87.3525 88.5758 87.3086 88.4554 87.3086 88.3154ZM90.6338 90.7666V95H89.7256V89.7168H90.585L90.6338 90.7666ZM90.4482 92.1582L90.0283 92.1436C90.0316 91.7822 90.0788 91.4486 90.1699 91.1426C90.2611 90.8333 90.3962 90.5648 90.5752 90.3369C90.7542 90.109 90.9772 89.9333 91.2441 89.8096C91.5111 89.6826 91.8203 89.6191 92.1719 89.6191C92.4193 89.6191 92.6471 89.6549 92.8555 89.7266C93.0638 89.7949 93.2445 89.904 93.3975 90.0537C93.5505 90.2035 93.6693 90.3955 93.7539 90.6299C93.8385 90.8643 93.8809 91.1475 93.8809 91.4795V95H92.9775V91.5234C92.9775 91.2467 92.9303 91.0254 92.8359 90.8594C92.7448 90.6934 92.6146 90.5729 92.4453 90.498C92.276 90.4199 92.0775 90.3809 91.8496 90.3809C91.5827 90.3809 91.3597 90.4281 91.1807 90.5225C91.0016 90.6169 90.8584 90.7471 90.751 90.9131C90.6436 91.0791 90.5654 91.2695 90.5166 91.4844C90.471 91.696 90.4482 91.9206 90.4482 92.1582ZM93.8711 91.6602L93.2656 91.8457C93.2689 91.556 93.3161 91.2777 93.4072 91.0107C93.5016 90.7438 93.6367 90.5062 93.8125 90.2979C93.9915 90.0895 94.2113 89.9251 94.4717 89.8047C94.7321 89.681 95.0299 89.6191 95.3652 89.6191C95.6484 89.6191 95.8991 89.6566 96.1172 89.7314C96.3385 89.8063 96.5241 89.9219 96.6738 90.0781C96.8268 90.2311 96.9424 90.4281 97.0205 90.6689C97.0986 90.9098 97.1377 91.1963 97.1377 91.5283V95H96.2295V91.5186C96.2295 91.2223 96.1823 90.9928 96.0879 90.8301C95.9967 90.6641 95.8665 90.5485 95.6973 90.4834C95.5312 90.415 95.3327 90.3809 95.1016 90.3809C94.903 90.3809 94.7272 90.415 94.5742 90.4834C94.4212 90.5518 94.2926 90.6462 94.1885 90.7666C94.0843 90.8838 94.0046 91.0189 93.9492 91.1719C93.8971 91.3249 93.8711 91.4876 93.8711 91.6602ZM101.737 93.7793V89.7168H102.646V95H101.781L101.737 93.7793ZM101.908 92.666L102.284 92.6562C102.284 93.0078 102.247 93.3333 102.172 93.6328C102.1 93.929 101.983 94.1862 101.82 94.4043C101.658 94.6224 101.444 94.7933 101.181 94.917C100.917 95.0374 100.596 95.0977 100.219 95.0977C99.9616 95.0977 99.7256 95.0602 99.5107 94.9854C99.2992 94.9105 99.1169 94.7949 98.9639 94.6387C98.8109 94.4824 98.6921 94.279 98.6074 94.0283C98.526 93.7777 98.4854 93.4766 98.4854 93.125V89.7168H99.3887V93.1348C99.3887 93.3724 99.4147 93.5693 99.4668 93.7256C99.5221 93.8786 99.5954 94.0007 99.6865 94.0918C99.7809 94.1797 99.8851 94.2415 99.999 94.2773C100.116 94.3132 100.237 94.3311 100.36 94.3311C100.744 94.3311 101.049 94.2578 101.273 94.1113C101.498 93.9616 101.659 93.7614 101.757 93.5107C101.858 93.2568 101.908 92.9753 101.908 92.666ZM107.138 94.0967V91.377C107.138 91.1686 107.095 90.988 107.011 90.835C106.929 90.6787 106.806 90.5583 106.64 90.4736C106.474 90.389 106.269 90.3467 106.024 90.3467C105.797 90.3467 105.596 90.3857 105.424 90.4639C105.255 90.542 105.121 90.6445 105.023 90.7715C104.929 90.8984 104.882 91.0352 104.882 91.1816H103.979C103.979 90.9928 104.027 90.8057 104.125 90.6201C104.223 90.4346 104.363 90.2669 104.545 90.1172C104.73 89.9642 104.952 89.8438 105.209 89.7559C105.469 89.6647 105.759 89.6191 106.078 89.6191C106.462 89.6191 106.801 89.6842 107.094 89.8145C107.39 89.9447 107.621 90.1416 107.787 90.4053C107.956 90.6657 108.041 90.9928 108.041 91.3867V93.8477C108.041 94.0234 108.056 94.2106 108.085 94.4092C108.118 94.6077 108.165 94.7786 108.227 94.9219V95H107.284C107.239 94.8958 107.203 94.7575 107.177 94.585C107.151 94.4092 107.138 94.2464 107.138 94.0967ZM107.294 91.7969L107.304 92.4316H106.391C106.133 92.4316 105.904 92.4528 105.702 92.4951C105.5 92.5342 105.331 92.5944 105.194 92.6758C105.058 92.7572 104.953 92.8597 104.882 92.9834C104.81 93.1038 104.774 93.2454 104.774 93.4082C104.774 93.5742 104.812 93.7256 104.887 93.8623C104.962 93.999 105.074 94.1081 105.224 94.1895C105.377 94.2676 105.564 94.3066 105.785 94.3066C106.062 94.3066 106.306 94.248 106.518 94.1309C106.729 94.0137 106.897 93.8704 107.021 93.7012C107.147 93.5319 107.216 93.3675 107.226 93.208L107.611 93.6426C107.589 93.7793 107.527 93.9307 107.426 94.0967C107.325 94.2627 107.19 94.4222 107.021 94.5752C106.854 94.7249 106.656 94.8503 106.425 94.9512C106.197 95.0488 105.94 95.0977 105.653 95.0977C105.295 95.0977 104.981 95.0277 104.711 94.8877C104.444 94.7477 104.236 94.5605 104.086 94.3262C103.939 94.0885 103.866 93.8232 103.866 93.5303C103.866 93.2471 103.922 92.998 104.032 92.7832C104.143 92.5651 104.302 92.3844 104.511 92.2412C104.719 92.0947 104.97 91.984 105.263 91.9092C105.556 91.8343 105.883 91.7969 106.244 91.7969H107.294ZM111.674 89.7168V90.4102H108.817V89.7168H111.674ZM109.784 88.4326H110.688V93.6914C110.688 93.8704 110.715 94.0055 110.771 94.0967C110.826 94.1878 110.897 94.248 110.985 94.2773C111.073 94.3066 111.168 94.3213 111.269 94.3213C111.343 94.3213 111.422 94.3148 111.503 94.3018C111.588 94.2855 111.651 94.2725 111.693 94.2627L111.698 95C111.627 95.0228 111.532 95.0439 111.415 95.0635C111.301 95.0863 111.163 95.0977 111 95.0977C110.779 95.0977 110.575 95.0537 110.39 94.9658C110.204 94.8779 110.056 94.7314 109.945 94.5264C109.838 94.318 109.784 94.0381 109.784 93.6865V88.4326ZM113.808 87.8906L113.744 92.9932H112.929L112.86 87.8906H113.808ZM112.831 94.5459C112.831 94.3994 112.875 94.2757 112.963 94.1748C113.054 94.0739 113.188 94.0234 113.363 94.0234C113.536 94.0234 113.668 94.0739 113.759 94.1748C113.853 94.2757 113.9 94.3994 113.9 94.5459C113.9 94.6859 113.853 94.8063 113.759 94.9072C113.668 95.0081 113.536 95.0586 113.363 95.0586C113.188 95.0586 113.054 95.0081 112.963 94.9072C112.875 94.8063 112.831 94.6859 112.831 94.5459Z" fill="#212121"/>
</svg>
