<svg width="92" height="92" viewBox="0 0 92 92" fill="none" xmlns="http://www.w3.org/2000/svg">
<rect width="92" height="92" rx="46" fill="#1F2121"/>
<rect x="16" y="16" width="60" height="60" rx="30" fill="#069550"/>
<path d="M46 51.3625C45.8 51.3625 45.6125 51.3312 45.4375 51.2687C45.2625 51.2062 45.1 51.1 44.95 50.95L39.55 45.55C39.25 45.25 39.1063 44.9 39.1188 44.5C39.1313 44.1 39.275 43.75 39.55 43.45C39.85 43.15 40.2062 42.9938 40.6187 42.9813C41.0312 42.9688 41.3875 43.1125 41.6875 43.4125L44.5 46.225V35.5C44.5 35.075 44.6438 34.7188 44.9312 34.4312C45.2188 34.1437 45.575 34 46 34C46.425 34 46.7813 34.1437 47.0688 34.4312C47.3563 34.7188 47.5 35.075 47.5 35.5V46.225L50.3125 43.4125C50.6125 43.1125 50.9688 42.9688 51.3813 42.9813C51.7938 42.9938 52.15 43.15 52.45 43.45C52.725 43.75 52.8688 44.1 52.8813 44.5C52.8938 44.9 52.75 45.25 52.45 45.55L47.05 50.95C46.9 51.1 46.7375 51.2062 46.5625 51.2687C46.3875 51.3312 46.2 51.3625 46 51.3625ZM37 58C36.175 58 35.4688 57.7063 34.8813 57.1188C34.2938 56.5312 34 55.825 34 55V52C34 51.575 34.1437 51.2188 34.4312 50.9313C34.7188 50.6438 35.075 50.5 35.5 50.5C35.925 50.5 36.2812 50.6438 36.5687 50.9313C36.8563 51.2188 37 51.575 37 52V55H55V52C55 51.575 55.1438 51.2188 55.4313 50.9313C55.7188 50.6438 56.075 50.5 56.5 50.5C56.925 50.5 57.2812 50.6438 57.5688 50.9313C57.8563 51.2188 58 51.575 58 52V55C58 55.825 57.7063 56.5312 57.1188 57.1188C56.5312 57.7063 55.825 58 55 58H37Z" fill="white"/>
</svg>
