<svg width="92" height="92" viewBox="0 0 92 92" fill="none" xmlns="http://www.w3.org/2000/svg">
<rect width="92" height="92" rx="46" fill="#F5F5F5"/>
<path d="M75.7594 49.6319L64.8861 34.9512C64.4285 34.3472 63.7146 33.9811 62.9458 33.9811H30.1431C29.3743 33.9811 28.6604 34.3472 28.2027 34.9512L17.3295 49.6319V67.516C17.3295 69.5296 18.977 71.177 20.9905 71.177H72.0983C74.1119 71.177 75.7594 69.5296 75.7594 67.516V49.6319Z" fill="#006430"/>
<path d="M72.0983 71.5249H20.9905C18.7756 71.5249 17 69.731 17 67.5344V49.6503C17 49.5771 17.0183 49.5039 17.0732 49.449L27.9464 34.7683C28.459 34.0727 29.2827 33.6517 30.1614 33.6517H62.9824C63.8427 33.6517 64.6664 34.0727 65.179 34.7683L76.0522 49.449C76.0888 49.5039 76.1254 49.5771 76.1254 49.6503V67.5344C76.0888 69.731 74.3132 71.5249 72.0983 71.5249ZM17.659 49.7418V67.5161C17.659 69.3466 19.16 70.8476 20.9905 70.8476H72.0983C73.9288 70.8476 75.4298 69.3466 75.4298 67.5161V49.7418L64.6298 35.1527C64.2454 34.6218 63.623 34.3107 62.9641 34.3107H30.1431C29.4841 34.3107 28.8617 34.6218 28.4773 35.1527L17.659 49.7418Z" fill="#006430"/>
<path d="M75.7594 49.6319V67.516C75.7594 69.5295 74.1119 71.177 72.0983 71.177H20.9905C18.977 71.177 17.3295 69.5295 17.3295 67.516V49.6319H33.1451L34.6278 56.9905C34.9024 58.3451 36.1105 59.3336 37.4834 59.3336H55.7702C57.1797 59.3336 58.3878 58.3268 58.6441 56.9539L60.017 49.6502L75.7594 49.6319Z" fill="#069550"/>
<path d="M38.6755 63.3509C39.0485 63.3509 39.3509 63.0485 39.3509 62.6755C39.3509 62.3024 39.0485 62 38.6755 62C38.3024 62 38 62.3024 38 62.6755C38 63.0485 38.3024 63.3509 38.6755 63.3509Z" fill="white"/>
<path d="M53.4111 63.3509C53.7841 63.3509 54.0865 63.0485 54.0865 62.6755C54.0865 62.3024 53.7841 62 53.4111 62C53.038 62 52.7356 62.3024 52.7356 62.6755C52.7356 63.0485 53.038 63.3509 53.4111 63.3509Z" fill="white"/>
<path d="M72.0983 71.5249H20.9905C18.7756 71.5249 17 69.731 17 67.5344V49.6503C17 49.4672 17.1464 49.3208 17.3295 49.3208H33.1451C33.3098 49.3208 33.438 49.4306 33.4746 49.5954L34.9573 56.954C35.1953 58.1622 36.2569 59.0225 37.5017 59.0408H55.7885C57.0332 59.0408 58.1132 58.1439 58.3329 56.9174L59.7058 49.6137C59.7424 49.4489 59.8705 49.3391 60.0353 49.3391H75.7593C75.9424 49.3391 76.0888 49.4856 76.0888 49.6686V67.5527C76.0888 69.731 74.2949 71.5249 72.0983 71.5249ZM17.659 49.9615V67.5161C17.659 69.3466 19.1417 70.8476 20.9905 70.8476H72.0983C73.9288 70.8476 75.4298 69.3649 75.4298 67.5161V49.9615H60.3281L59.0102 57.0089C58.7173 58.5466 57.381 59.6632 55.8068 59.6632H37.52C35.9641 59.6632 34.6278 58.5649 34.3349 57.0455L32.9071 49.9615H17.659Z" fill="#006430"/>
<path d="M49.0216 67.5541C48.9887 67.5541 48.9576 67.5449 48.9283 67.5285C47.2204 66.5015 44.9268 66.4997 43.2189 67.5248C43.1329 67.576 43.0194 67.5486 42.9682 67.4626C42.9169 67.3765 42.9444 67.263 43.0304 67.2118C44.8499 66.119 47.2955 66.1208 49.1168 67.2154C49.2029 67.2667 49.2322 67.3802 49.1791 67.4662C49.1443 67.5211 49.0839 67.5541 49.0216 67.5541Z" fill="white"/>
<path d="M71.5308 63.1959H64.9776C64.7946 63.1959 64.6481 63.0495 64.6481 62.8664C64.6481 62.6834 64.7946 62.5369 64.9776 62.5369H71.5308C71.7139 62.5369 71.8603 62.6834 71.8603 62.8664C71.8603 63.0495 71.7139 63.1959 71.5308 63.1959Z" fill="white"/>
<path d="M34.701 29.588C34.4997 29.588 34.2983 29.4965 34.1702 29.3318L29.6305 23.3277C29.3925 23.0531 29.4292 22.6321 29.7037 22.3941C29.9783 22.1562 30.3993 22.1928 30.6373 22.4673C30.6556 22.4856 30.6739 22.504 30.6739 22.5223L35.2136 28.5263C35.4332 28.8192 35.3783 29.2402 35.0854 29.4599C34.9939 29.5331 34.8475 29.588 34.701 29.588Z" fill="#E53935"/>
<path d="M56.2095 29.5879C55.8434 29.5879 55.5505 29.295 55.5505 28.9289C55.5505 28.7824 55.6055 28.636 55.6787 28.5262L60.2183 22.5221C60.4197 22.2109 60.8407 22.1377 61.1519 22.3391C61.4631 22.5404 61.5363 22.9614 61.3349 23.2726C61.3166 23.2909 61.3166 23.3092 61.2983 23.3275L56.7587 29.3316C56.6122 29.4963 56.4109 29.5879 56.2095 29.5879Z" fill="#E53935"/>
<path d="M45.977 27.5744C45.6109 27.5744 45.318 27.2815 45.318 26.9154V18.6415C45.3363 18.2754 45.6475 17.9825 46.0136 18.0008C46.3614 18.0191 46.636 18.2937 46.6543 18.6415V26.9154C46.636 27.2815 46.3431 27.5744 45.977 27.5744Z" fill="#E53935"/>
</svg>
