<svg width="92" height="92" viewBox="0 0 92 92" fill="none" xmlns="http://www.w3.org/2000/svg">
<rect width="92" height="92" rx="46" fill="#F5F5F5"/>
<rect x="16" y="16" width="60" height="60" rx="30" fill="#E53935"/>
<path fill-rule="evenodd" clip-rule="evenodd" d="M33.1101 32.0834C34.1271 31.0665 35.9409 31.2313 37.1613 32.4517L59.2583 54.5488C60.4787 55.7692 60.6436 57.583 59.6266 58.5999C58.6096 59.6169 56.7959 59.4521 55.5755 58.2317L33.4784 36.1346C32.258 34.9142 32.0931 33.1004 33.1101 32.0834Z" fill="white"/>
<path fill-rule="evenodd" clip-rule="evenodd" d="M59.6264 32.0834C60.6434 33.1004 60.4785 34.9142 59.2581 36.1346L37.161 58.2317C35.9406 59.4521 34.1269 59.6169 33.1099 58.5999C32.0929 57.583 32.2578 55.7692 33.4782 54.5488L55.5752 32.4517C56.7956 31.2313 58.6094 31.0665 59.6264 32.0834Z" fill="white"/>
</svg>
