<svg width="92" height="92" viewBox="0 0 92 92" fill="none" xmlns="http://www.w3.org/2000/svg">
<rect width="92" height="92" rx="46" fill="#F5F5F5"/>
<circle cx="46" cy="46" r="30" fill="white"/>
<path d="M46 16C40.0666 16 34.2664 17.7595 29.3329 21.0559C24.3994 24.3524 20.5543 29.0377 18.2836 34.5195C16.013 40.0013 15.4189 46.0333 16.5765 51.8527C17.734 57.6721 20.5912 63.0176 24.7868 67.2132C28.9824 71.4088 34.3279 74.266 40.1473 75.4236C45.9667 76.5811 51.9987 75.987 57.4805 73.7164C62.9623 71.4458 67.6476 67.6006 70.9441 62.6671C74.2405 57.7336 76 51.9334 76 46C76 42.0603 75.224 38.1593 73.7164 34.5195C72.2088 30.8797 69.999 27.5726 67.2132 24.7868C64.4274 22.001 61.1203 19.7913 57.4805 18.2836C53.8407 16.776 49.9397 16 46 16ZM49 58C49 58.7956 48.6839 59.5587 48.1213 60.1213C47.5587 60.6839 46.7957 61 46 61C45.2044 61 44.4413 60.6839 43.8787 60.1213C43.3161 59.5587 43 58.7956 43 58V43C43 42.2043 43.3161 41.4413 43.8787 40.8787C44.4413 40.3161 45.2044 40 46 40C46.7957 40 47.5587 40.3161 48.1213 40.8787C48.6839 41.4413 49 42.2043 49 43V58ZM46 37C45.4067 37 44.8266 36.824 44.3333 36.4944C43.84 36.1648 43.4554 35.6962 43.2284 35.148C43.0013 34.5999 42.9419 33.9967 43.0577 33.4147C43.1734 32.8328 43.4591 32.2982 43.8787 31.8787C44.2982 31.4591 44.8328 31.1734 45.4147 31.0576C45.9967 30.9419 46.5999 31.0013 47.1481 31.2284C47.6962 31.4554 48.1648 31.8399 48.4944 32.3333C48.8241 32.8266 49 33.4067 49 34C49 34.7956 48.6839 35.5587 48.1213 36.1213C47.5587 36.6839 46.7957 37 46 37Z" fill="#1565C0"/>
</svg>
