<svg width="92" height="92" viewBox="0 0 92 92" fill="none" xmlns="http://www.w3.org/2000/svg">
<rect width="92" height="92" rx="46" fill="#F5F5F5"/>
<path d="M26.6092 20.0305H64.7161C66.5299 20.0305 68.0138 21.4962 68.0138 23.3282V72.3908C68.0138 74.2046 66.5482 75.6885 64.7161 75.6885H26.6092C24.7955 75.6885 23.3115 74.2229 23.3115 72.3908V23.3099C23.3298 21.4962 24.7955 20.0305 26.6092 20.0305Z" fill="#006430"/>
<path d="M64.9359 76H26.4077C24.5207 76 23.0001 74.4794 23.0001 72.5924V23.1084C23.0001 21.2214 24.5207 19.7007 26.4077 19.7007H64.9543C66.8413 19.7007 68.3619 21.2214 68.3619 23.1084V72.6107C68.3436 74.4794 66.823 76 64.9359 76ZM26.4077 20.3603C24.8871 20.3603 23.6596 21.5878 23.6596 23.1084V72.5924C23.6596 74.113 24.8871 75.3405 26.4077 75.3405H64.9543C66.4566 75.3405 67.684 74.113 67.7024 72.5924V23.1084C67.7024 21.5878 66.4749 20.3603 64.9543 20.3603H26.4077Z" fill="#006430"/>
<path d="M26.3711 16.3481H64.9726C66.6581 16.3481 68.0138 17.7038 68.0138 19.3893V68.9649C68.0138 70.6504 66.6581 72.0061 64.9726 72.0061H26.3711C24.6856 72.0061 23.3298 70.6504 23.3298 68.9649V19.371C23.3298 17.7038 24.6856 16.3481 26.3711 16.3481Z" fill="#16A75C"/>
<path d="M64.9358 72.3176H26.4076C24.5205 72.3176 22.9999 70.797 22.9999 68.9099V19.4076C22.9999 17.5206 24.5205 16 26.4076 16H64.9541C66.8412 16 68.3618 17.5206 68.3618 19.4076V68.9099C68.3435 70.797 66.8228 72.3176 64.9358 72.3176ZM26.4076 16.6779C24.887 16.6779 23.6595 17.9053 23.6595 19.426V68.9099C23.6595 70.4305 24.887 71.6397 26.4076 71.6397H64.9541C66.4564 71.6397 67.6839 70.4122 67.7022 68.9099V19.4076C67.7022 17.887 66.4748 16.6595 64.9541 16.6595L26.4076 16.6779Z" fill="#006430"/>
<path d="M27.0306 31.2244H34.084C34.2856 31.2244 34.4504 31.3893 34.4504 31.5908V38.6443C34.4504 38.8458 34.2856 39.0107 34.084 39.0107H27.0306C26.8291 39.0107 26.6642 38.8458 26.6642 38.6443V31.5908C26.6642 31.3893 26.8291 31.2244 27.0306 31.2244Z" fill="#FAFAFA"/>
<path d="M33.7909 39.3588H27.342C26.7924 39.3588 26.3344 38.9008 26.3344 38.3511V31.9023C26.3344 31.3527 26.7924 30.8947 27.342 30.8947H33.7909C34.3405 30.8947 34.7985 31.3527 34.7985 31.9023V38.3511C34.7985 38.9008 34.3405 39.3588 33.7909 39.3588ZM27.342 31.5725C27.1588 31.5725 26.994 31.7191 26.994 31.9023V38.3511C26.994 38.5343 27.1405 38.6992 27.3237 38.6992H33.7726C33.9558 38.6992 34.1024 38.5527 34.1024 38.3695V31.9206C34.1024 31.7374 33.9558 31.5908 33.7726 31.5908H27.342V31.5725Z" fill="#006430"/>
<path d="M30.9878 33.716H29.3939V33.0748H31.7573V33.6793L30.4748 36.2992H29.6871L30.9878 33.716Z" fill="#212121"/>
<path d="M37.0703 31.2244H44.1237C44.3252 31.2244 44.4901 31.3893 44.4901 31.5908V38.6443C44.4901 38.8458 44.3252 39.0107 44.1237 39.0107H37.0703C36.8687 39.0107 36.7039 38.8458 36.7039 38.6443V31.5908C36.7039 31.3893 36.8687 31.2244 37.0703 31.2244Z" fill="#FAFAFA"/>
<path d="M43.8123 39.3588H37.3634C36.8138 39.3588 36.3558 38.9008 36.3558 38.3511V31.9023C36.3558 31.3527 36.8138 30.8947 37.3634 30.8947H43.8123C44.3619 30.8947 44.8199 31.3527 44.8199 31.9023V38.3511C44.8199 38.9008 44.3802 39.3588 43.8123 39.3588ZM37.3817 31.5725C37.1985 31.5725 37.052 31.7191 37.052 31.9206V38.3695C37.052 38.5527 37.1985 38.6992 37.3817 38.7176H43.8306C44.0138 38.7176 44.1604 38.571 44.1604 38.3695V31.9206C44.1604 31.7374 44.0138 31.5908 43.8306 31.5725H37.3817Z" fill="#006430"/>
<path d="M39.5252 34.3572C39.5252 34.229 39.5436 34.0824 39.6168 33.9725C39.6718 33.8626 39.7451 33.771 39.855 33.6977C39.9649 33.6244 40.0749 33.5694 40.2031 33.5328C40.4779 33.4595 40.771 33.4595 41.0458 33.5328C41.1741 33.5694 41.284 33.6244 41.3939 33.6977C41.4855 33.771 41.5771 33.8626 41.6321 33.9725C41.6871 34.1007 41.7237 34.229 41.7237 34.3572C41.7237 34.5221 41.6687 34.687 41.5771 34.8152C41.4672 34.9435 41.339 35.0351 41.1741 35.0717V35.0901C41.5405 35.1633 41.797 35.4931 41.7787 35.8778C41.7787 36.1527 41.6504 36.4091 41.4306 36.574C41.3207 36.6473 41.1924 36.7206 41.0642 36.7572C40.7894 36.8305 40.4962 36.8305 40.2031 36.7572C40.0749 36.7206 39.9466 36.6473 39.8367 36.574C39.6168 36.4091 39.4886 36.1527 39.4886 35.8778C39.4703 35.4931 39.7268 35.1633 40.1115 35.0901V35.0717C39.9466 35.0351 39.8184 34.9435 39.7084 34.8152C39.5802 34.6687 39.5252 34.5221 39.5252 34.3572ZM40.1481 35.7679C40.1481 35.8778 40.1848 35.9878 40.2764 36.0611C40.4596 36.2259 40.7344 36.2259 40.9359 36.0611C41.1008 35.9145 41.1008 35.658 40.9359 35.4931C40.7527 35.3282 40.4779 35.3282 40.2764 35.4931C40.2031 35.5481 40.1481 35.658 40.1481 35.7679ZM40.2031 34.4488C40.2031 34.5404 40.2397 34.632 40.313 34.7053C40.4779 34.8519 40.7161 34.8519 40.881 34.7053C40.9542 34.632 40.9909 34.5404 40.9909 34.4488C40.9909 34.3572 40.9542 34.2656 40.881 34.1923C40.7161 34.0458 40.4779 34.0458 40.313 34.1923C40.2397 34.2656 40.2031 34.3572 40.2031 34.4488Z" fill="#212121"/>
<path d="M47.1099 31.2244H54.1634C54.3649 31.2244 54.5298 31.3893 54.5298 31.5908V38.6443C54.5298 38.8458 54.3649 39.0107 54.1634 39.0107H47.1099C46.9084 39.0107 46.7435 38.8458 46.7435 38.6443V31.5908C46.7435 31.3893 46.9084 31.2244 47.1099 31.2244Z" fill="#FAFAFA"/>
<path d="M53.852 39.3588H47.4031C46.8535 39.3588 46.3955 38.9008 46.3955 38.3511V31.9023C46.3955 31.3527 46.8535 30.8947 47.4031 30.8947H53.852C54.4016 30.8947 54.8596 31.3527 54.8596 31.9023V38.3511C54.8596 38.9008 54.4016 39.3588 53.852 39.3588ZM47.4031 31.5725C47.2199 31.5725 47.0734 31.7191 47.0734 31.9023V38.3511C47.0734 38.5343 47.2199 38.6809 47.4031 38.6809H53.852C54.0352 38.6809 54.2001 38.5343 54.2001 38.3511V31.9023C54.2001 31.7191 54.0535 31.5542 53.852 31.5542H47.4031V31.5725Z" fill="#006430"/>
<path d="M50.6642 35.6214L50.5543 35.6397C50.5176 35.6397 50.481 35.6397 50.4443 35.658C50.2978 35.658 50.1695 35.6397 50.023 35.5848C49.8947 35.5298 49.7848 35.4565 49.7115 35.3649C49.6199 35.2733 49.5466 35.1451 49.51 35.0351C49.455 34.9069 49.4367 34.7603 49.4367 34.6321C49.4367 34.4855 49.4733 34.3206 49.5283 34.1741C49.5833 34.0458 49.6749 33.9176 49.7848 33.826C49.8947 33.7344 50.023 33.6428 50.1512 33.6061C50.4627 33.4962 50.7924 33.4962 51.0856 33.6061C51.2321 33.6611 51.3604 33.7344 51.4703 33.826C51.6901 34.0275 51.8184 34.3206 51.8184 34.6321C51.8184 34.742 51.8184 34.8336 51.8001 34.9435C51.7817 35.0351 51.7451 35.1267 51.7085 35.2183C51.6718 35.3099 51.6352 35.3832 51.5802 35.4565C51.5436 35.5298 51.4886 35.6214 51.4337 35.6947L50.7191 36.7939H49.8947L50.6642 35.6214ZM50.1146 34.6138C50.1146 34.742 50.1695 34.8886 50.2611 34.9802C50.481 35.1634 50.7924 35.1634 51.0123 34.9802C51.1955 34.7786 51.1955 34.4672 51.0123 34.2657C50.7924 34.0825 50.481 34.0825 50.2611 34.2657C50.1695 34.3573 50.1146 34.4855 50.1146 34.6138Z" fill="#212121"/>
<path d="M57.1314 31.2244H64.1848C64.3863 31.2244 64.5512 31.3893 64.5512 31.5908V38.6443C64.5512 38.8458 64.3863 39.0107 64.1848 39.0107H57.1314C56.9298 39.0107 56.765 38.8458 56.765 38.6443V31.5908C56.765 31.3893 56.9298 31.2244 57.1314 31.2244Z" fill="#FAFAFA"/>
<path d="M63.8917 39.3588H57.4428C56.8932 39.3588 56.4352 38.9008 56.4352 38.3511V31.9023C56.4352 31.3527 56.8932 30.8947 57.4428 30.8947H63.8917C64.4413 30.8947 64.8993 31.3527 64.8993 31.9023V38.3511C64.8993 38.9008 64.4413 39.3588 63.8917 39.3588ZM57.4428 31.5725C57.2596 31.5725 57.0947 31.7191 57.0947 31.9023V38.3511C57.0947 38.5343 57.2413 38.6992 57.4428 38.6992H63.8917C64.0749 38.6992 64.2214 38.5527 64.2214 38.3695V31.9206C64.2214 31.7374 64.0749 31.5908 63.8917 31.5908H57.4428V31.5725Z" fill="#006430"/>
<path d="M27.0306 40.7328H34.084C34.2856 40.7328 34.4504 40.8977 34.4504 41.0992V48.1526C34.4504 48.3542 34.2856 48.519 34.084 48.519H27.0306C26.8291 48.519 26.6642 48.3542 26.6642 48.1526V41.0992C26.6642 40.8977 26.8291 40.7328 27.0306 40.7328Z" fill="#FAFAFA"/>
<path d="M33.7909 48.8488H27.342C26.7924 48.8488 26.3344 48.3908 26.3344 47.8412V41.3923C26.3344 40.8427 26.7924 40.3847 27.342 40.3847H33.7909C34.3405 40.3847 34.7985 40.8427 34.7985 41.3923V47.8412C34.7985 48.4091 34.3405 48.8488 33.7909 48.8488ZM27.342 41.0626C27.1588 41.0626 27.0123 41.2091 27.0123 41.3923V47.8412C27.0123 48.0244 27.1588 48.1893 27.342 48.1893H33.7909C33.9741 48.1893 34.1207 48.0427 34.1207 47.8595V41.4107C34.1207 41.2275 33.9741 41.0809 33.7909 41.0809L27.342 41.0626Z" fill="#006430"/>
<path d="M30.7314 45.5878H29.3207V45.0198L30.6398 43.0229H31.3909V45.0198H31.8123V45.5878H31.3909V46.229H30.7314V45.5878ZM30.7314 43.9023L30.0169 45.0198H30.7314V43.9023Z" fill="#212121"/>
<path d="M37.0703 40.7328H44.1237C44.3252 40.7328 44.4901 40.8977 44.4901 41.0992V48.1526C44.4901 48.3542 44.3252 48.519 44.1237 48.519H37.0703C36.8687 48.519 36.7039 48.3542 36.7039 48.1526V41.0992C36.7039 40.8977 36.8687 40.7328 37.0703 40.7328Z" fill="#FAFAFA"/>
<path d="M43.8123 48.8488H37.3634C36.8138 48.8488 36.3558 48.3908 36.3558 47.8412V41.3923C36.3558 40.8427 36.8138 40.3847 37.3634 40.3847H43.8123C44.3619 40.3847 44.8199 40.8427 44.8199 41.3923V47.8412C44.8199 48.4091 44.3802 48.8488 43.8123 48.8488ZM37.3817 41.0626C37.1985 41.0626 37.052 41.2091 37.052 41.3923V47.8412C37.052 48.0244 37.1985 48.171 37.3817 48.1893H43.8306C44.0138 48.1893 44.1604 48.0427 44.1604 47.8412V41.3923C44.1604 41.2091 44.0138 41.0626 43.8306 41.0626H37.3817Z" fill="#006430"/>
<path d="M41.6504 43.5909H40.368L40.3497 44.0855C40.4413 44.0672 40.5329 44.0489 40.6428 44.0489C40.7894 44.0489 40.9543 44.0672 41.1008 44.1222C41.2291 44.1588 41.3573 44.2321 41.4489 44.3237C41.5405 44.4153 41.6321 44.5252 41.6871 44.6535C41.742 44.8 41.7787 44.9466 41.7604 45.0931C41.7604 45.258 41.7237 45.4229 41.6688 45.5878C41.6138 45.7344 41.5222 45.8443 41.4123 45.9542C41.3023 46.0641 41.1741 46.1374 41.0275 46.1741C40.8627 46.229 40.6978 46.2473 40.5329 46.2473C40.2764 46.2473 40.0382 46.1924 39.8367 46.0458C39.6352 45.8993 39.5069 45.6794 39.452 45.4229L40.1665 45.258C40.1848 45.368 40.2398 45.4596 40.313 45.5328C40.3863 45.6061 40.4962 45.6428 40.6062 45.6428C40.7344 45.6428 40.8627 45.6061 40.9543 45.4962C41.0459 45.4046 41.0825 45.2764 41.0825 45.1481C41.0825 45.0565 41.0642 44.9649 41.0092 44.8916C40.9726 44.8183 40.8993 44.7634 40.8443 44.7267C40.771 44.6901 40.6978 44.6535 40.6062 44.6351C40.5146 44.6168 40.423 44.6168 40.3497 44.6168C40.2398 44.6168 40.1298 44.6351 40.0016 44.6535C39.8917 44.6718 39.7817 44.7084 39.6718 44.7451L39.7085 42.968H41.6504V43.5909Z" fill="#212121"/>
<path d="M47.1099 40.7328H54.1634C54.3649 40.7328 54.5298 40.8977 54.5298 41.0992V48.1526C54.5298 48.3542 54.3649 48.519 54.1634 48.519H47.1099C46.9084 48.519 46.7435 48.3542 46.7435 48.1526V41.0992C46.7435 40.8977 46.9084 40.7328 47.1099 40.7328Z" fill="#FAFAFA"/>
<path d="M53.852 48.8488H47.4031C46.8535 48.8488 46.3955 48.3908 46.3955 47.8412V41.3923C46.3955 40.8427 46.8535 40.3847 47.4031 40.3847H53.852C54.4016 40.3847 54.8596 40.8427 54.8596 41.3923V47.8412C54.8596 48.4091 54.4016 48.8488 53.852 48.8488ZM47.4031 41.0626C47.2199 41.0626 47.0734 41.2091 47.0734 41.3923V47.8412C47.0734 48.0244 47.2199 48.171 47.4031 48.171H53.852C54.0352 48.171 54.2001 48.0244 54.2001 47.8229V41.374C54.2001 41.1908 54.0535 41.0442 53.8703 41.0442L47.4031 41.0626Z" fill="#006430"/>
<path d="M50.6092 44.1405L50.7192 44.1222C50.7558 44.1222 50.7924 44.1222 50.8291 44.1038C50.9757 44.1038 51.1039 44.1222 51.2321 44.1771C51.3604 44.2321 51.4703 44.3054 51.5436 44.397C51.6352 44.4886 51.7085 44.5985 51.7451 44.7267C51.8001 44.855 51.8184 45.0015 51.8184 45.1298C51.8184 45.2947 51.7818 45.4412 51.7268 45.5878C51.6718 45.716 51.5802 45.8443 51.4703 45.9359C51.3604 46.0275 51.2321 46.1191 51.0856 46.1557C50.7741 46.2657 50.4444 46.2657 50.1512 46.1557C50.0047 46.1008 49.8764 46.0275 49.7665 45.9359C49.6566 45.8443 49.565 45.716 49.51 45.5878C49.455 45.4412 49.4184 45.2947 49.4184 45.1298C49.4184 45.0199 49.4184 44.9099 49.455 44.8183C49.4734 44.7267 49.51 44.6351 49.5466 44.5435C49.5833 44.4519 49.6199 44.3786 49.6749 44.3054L49.8215 44.0672L50.536 42.968H51.3604L50.6092 44.1405ZM51.1589 45.1298C51.1589 45.0015 51.1039 44.855 51.0123 44.7634C50.9207 44.6718 50.7741 44.6168 50.6459 44.6168C50.4993 44.6168 50.3711 44.6718 50.2795 44.7634C50.0963 44.9649 50.0963 45.2764 50.2795 45.4779C50.3711 45.5695 50.5176 45.6244 50.6459 45.6244C50.7924 45.6244 50.9207 45.5695 51.0123 45.4779C51.1039 45.3863 51.1589 45.258 51.1589 45.1298Z" fill="#212121"/>
<path d="M57.1314 40.7328H64.1848C64.3863 40.7328 64.5512 40.8977 64.5512 41.0992V48.1526C64.5512 48.3542 64.3863 48.519 64.1848 48.519H57.1314C56.9298 48.519 56.765 48.3542 56.765 48.1526V41.0992C56.765 40.8977 56.9298 40.7328 57.1314 40.7328Z" fill="#FAFAFA"/>
<path d="M63.8917 48.8488H57.4428C56.8932 48.8488 56.4352 48.3908 56.4352 47.8412V41.3923C56.4352 40.8427 56.8932 40.3847 57.4428 40.3847H63.8917C64.4413 40.3847 64.8993 40.8427 64.8993 41.3923V47.8412C64.8993 48.4091 64.4413 48.8488 63.8917 48.8488ZM57.4428 41.0626C57.2596 41.0626 57.113 41.2091 57.113 41.3923V47.8412C57.113 48.0244 57.2596 48.1893 57.4611 48.1893H63.8917C64.0749 48.1893 64.2214 48.0427 64.2214 47.8595V41.4107C64.2214 41.2275 64.0749 41.0809 63.8917 41.0809L57.4428 41.0626Z" fill="#006430"/>
<path d="M27.0306 50.2229H34.084C34.2856 50.2229 34.4504 50.3878 34.4504 50.5893V57.6427C34.4504 57.8443 34.2856 58.0092 34.084 58.0092H27.0306C26.8291 58.0092 26.6642 57.8443 26.6642 57.6427V50.5893C26.6642 50.3878 26.8291 50.2229 27.0306 50.2229Z" fill="#FAFAFA"/>
<path d="M33.7909 58.3573H27.342C26.7924 58.3573 26.3344 57.8992 26.3344 57.3496V50.9008C26.3344 50.3511 26.7924 49.8931 27.342 49.8931H33.7909C34.3405 49.8931 34.7985 50.3511 34.7985 50.9008V57.3496C34.7985 57.8992 34.3405 58.3573 33.7909 58.3573ZM27.342 50.571C27.1588 50.571 26.994 50.7176 26.994 50.9191V57.3679C26.994 57.5511 27.1405 57.6977 27.3237 57.6977H33.7726C33.9558 57.6977 34.1024 57.5511 34.1024 57.3679V50.9191C34.1024 50.7359 33.9558 50.5893 33.7726 50.5893H27.342V50.571Z" fill="#006430"/>
<path d="M30.7496 53.2825L30.1084 53.8504L29.7237 53.4107L30.768 52.5313H31.4092V55.7374H30.7496V53.2825Z" fill="#212121"/>
<path d="M37.0703 50.2229H44.1237C44.3252 50.2229 44.4901 50.3878 44.4901 50.5893V57.6427C44.4901 57.8443 44.3252 58.0092 44.1237 58.0092H37.0703C36.8687 58.0092 36.7039 57.8443 36.7039 57.6427V50.5893C36.7039 50.3878 36.8687 50.2229 37.0703 50.2229Z" fill="#FAFAFA"/>
<path d="M43.8123 58.3573H37.3634C36.8138 58.3573 36.3558 57.8992 36.3558 57.3496V50.9008C36.3558 50.3511 36.8138 49.8931 37.3634 49.8931H43.8123C44.3619 49.8931 44.8199 50.3511 44.8199 50.9008V57.3496C44.8199 57.8992 44.3802 58.3573 43.8123 58.3573ZM37.3817 50.571C37.1985 50.571 37.052 50.7176 37.052 50.9191V57.3679C37.052 57.5511 37.1985 57.6977 37.3817 57.6977H43.8306C44.0138 57.6977 44.1604 57.5511 44.1604 57.3679V50.9191C44.1604 50.7359 44.0138 50.5893 43.8306 50.571H37.3817Z" fill="#006430"/>
<path d="M39.4703 55.0412L40.7161 53.9236C40.7894 53.8687 40.8443 53.7954 40.8993 53.7221C40.9543 53.6488 40.9909 53.5572 40.9909 53.4656C40.9909 53.374 40.9543 53.2641 40.881 53.2091C40.8077 53.1542 40.6978 53.1175 40.6062 53.1175C40.4962 53.1175 40.3863 53.1542 40.313 53.2275C40.2398 53.3007 40.2031 53.4107 40.1848 53.5206L39.5069 53.4656C39.5069 53.3191 39.5436 53.1725 39.6168 53.0259C39.6718 52.916 39.7634 52.8061 39.855 52.7145C39.9649 52.6229 40.0749 52.5679 40.2031 52.5313C40.3497 52.4946 40.4962 52.4763 40.6428 52.4763C40.7894 52.4763 40.9176 52.4946 41.0459 52.5313C41.1741 52.5679 41.284 52.6412 41.3756 52.7145C41.4672 52.8061 41.5405 52.8977 41.5955 53.0076C41.6504 53.1359 41.6871 53.2824 41.6688 53.429C41.6688 53.5206 41.6504 53.6122 41.6321 53.7038C41.6138 53.7771 41.5772 53.8687 41.5405 53.9236C41.5039 53.9969 41.4489 54.0519 41.4123 54.1069C41.3573 54.1618 41.3023 54.2168 41.2474 54.2717L40.2764 55.1145H41.7054V55.7191H39.452V55.0412H39.4703Z" fill="#212121"/>
<path d="M47.1099 50.2229H54.1634C54.3649 50.2229 54.5298 50.3878 54.5298 50.5893V57.6427C54.5298 57.8443 54.3649 58.0092 54.1634 58.0092H47.1099C46.9084 58.0092 46.7435 57.8443 46.7435 57.6427V50.5893C46.7435 50.3878 46.9084 50.2229 47.1099 50.2229Z" fill="#FAFAFA"/>
<path d="M53.852 58.3573H47.4031C46.8535 58.3573 46.3955 57.8992 46.3955 57.3496V50.9008C46.3955 50.3511 46.8535 49.8931 47.4031 49.8931H53.852C54.4016 49.8931 54.8596 50.3511 54.8596 50.9008V57.3496C54.8596 57.8992 54.4016 58.3573 53.852 58.3573ZM47.4031 50.571C47.2199 50.571 47.0734 50.7176 47.0734 50.9008V57.3496C47.0734 57.5328 47.2199 57.6794 47.4031 57.6794H53.852C54.0352 57.6794 54.1818 57.5328 54.1818 57.3496V50.9008C54.1818 50.7176 54.0352 50.5527 53.8337 50.5527H47.4031V50.571Z" fill="#006430"/>
<path d="M50.3161 53.7771H50.5359C50.5909 53.7771 50.6642 53.7771 50.7191 53.7588C50.7741 53.7588 50.8291 53.7404 50.884 53.7038C50.939 53.6855 50.9756 53.6488 51.0123 53.5939C51.0489 53.5389 51.0672 53.484 51.0489 53.4107C51.0489 53.3191 51.0123 53.2275 50.939 53.1725C50.8657 53.0992 50.7558 53.0809 50.6459 53.0809C50.5543 53.0809 50.4626 53.0992 50.3894 53.1725C50.3161 53.2275 50.2794 53.3007 50.2611 53.3923L49.51 53.2458C49.5466 53.1175 49.6016 52.9893 49.6749 52.8794C49.7481 52.7878 49.8397 52.6962 49.9313 52.6412C50.0413 52.5862 50.1512 52.5313 50.2611 52.513C50.3894 52.4763 50.5176 52.4763 50.6459 52.4763C50.7924 52.4763 50.9207 52.4946 51.0489 52.5313C51.1772 52.5679 51.2871 52.6229 51.397 52.6962C51.4886 52.7695 51.5802 52.8611 51.6352 52.971C51.6901 53.0992 51.7268 53.2275 51.7268 53.374C51.7268 53.5389 51.6901 53.7038 51.5802 53.832C51.4886 53.9603 51.342 54.0519 51.1772 54.0702V54.0885C51.2688 54.1069 51.3604 54.1252 51.4336 54.1801C51.5069 54.2168 51.5619 54.2717 51.6168 54.345C51.6718 54.4183 51.7085 54.4916 51.7268 54.5649C51.7451 54.6565 51.7634 54.7481 51.7634 54.8397C51.7634 54.9862 51.7268 55.1328 51.6718 55.2611C51.6168 55.371 51.5252 55.4809 51.4153 55.5542C51.3054 55.6458 51.1772 55.7007 51.0489 55.7374C50.9023 55.774 50.7558 55.7924 50.6092 55.7924C50.3527 55.7924 50.0962 55.7374 49.8581 55.5908C49.6382 55.4443 49.4917 55.2244 49.455 54.9496L50.1695 54.7847C50.1878 54.8946 50.2428 54.9862 50.3161 55.0595C50.4077 55.1328 50.5359 55.1694 50.6459 55.1511C50.8657 55.1878 51.0489 55.0229 51.0856 54.8214C51.0856 54.803 51.0856 54.7664 51.0856 54.7481C51.0856 54.6748 51.0672 54.6015 51.0306 54.5282C50.9939 54.4733 50.939 54.4366 50.884 54.4183C50.8107 54.4 50.7558 54.3817 50.6825 54.3817C50.6092 54.3817 50.5359 54.3817 50.4627 54.3817H50.2978L50.3161 53.7771Z" fill="#212121"/>
<path d="M57.1314 50.2229H64.1848C64.3863 50.2229 64.5512 50.3878 64.5512 50.5893V57.6427C64.5512 57.8443 64.3863 58.0092 64.1848 58.0092H57.1314C56.9298 58.0092 56.765 57.8443 56.765 57.6427V50.5893C56.765 50.3878 56.9298 50.2229 57.1314 50.2229Z" fill="#FAFAFA"/>
<path d="M63.8917 58.3573H57.4428C56.8932 58.3573 56.4352 57.8992 56.4352 57.3496V50.9008C56.4352 50.3511 56.8932 49.8931 57.4428 49.8931H63.8917C64.4413 49.8931 64.8993 50.3511 64.8993 50.9008V57.3496C64.8993 57.8992 64.4413 58.3573 63.8917 58.3573ZM57.4428 50.571C57.2596 50.571 57.0947 50.7176 57.0947 50.9191V57.3679C57.0947 57.5511 57.2413 57.6977 57.4245 57.6977H63.8917C64.0749 57.6977 64.2214 57.5511 64.2214 57.3679V50.9191C64.2214 50.7359 64.0749 50.5893 63.8917 50.5893H57.4428V50.571Z" fill="#006430"/>
<path d="M27.0306 59.7313H34.084C34.2856 59.7313 34.4504 59.8962 34.4504 60.0977V67.1512C34.4504 67.3527 34.2856 67.5176 34.084 67.5176H27.0306C26.8291 67.5176 26.6642 67.3527 26.6642 67.1512V60.0977C26.6642 59.8962 26.8291 59.7313 27.0306 59.7313Z" fill="#FAFAFA"/>
<path d="M33.7909 67.8657H27.342C26.7924 67.8657 26.3344 67.4077 26.3344 66.858V60.4092C26.3344 59.8596 26.7924 59.4016 27.342 59.4016H33.7909C34.3405 59.4016 34.7985 59.8596 34.7985 60.4092V66.858C34.7985 67.4077 34.3405 67.8657 33.7909 67.8657ZM27.342 60.0611C27.1588 60.0611 26.994 60.2077 26.994 60.4092V66.858C26.994 67.0412 27.1405 67.2061 27.3237 67.2061H33.7726C33.9558 67.2061 34.1024 67.0596 34.1024 66.8764V60.4275C34.1024 60.2443 33.9558 60.0977 33.7726 60.0977H27.342V60.0611Z" fill="#006430"/>
<path d="M29.3756 63.1939C29.3756 62.9924 29.3939 62.8092 29.4306 62.6076C29.4672 62.4244 29.5222 62.2412 29.6138 62.0763C29.7054 61.9115 29.8336 61.7832 29.9802 61.6916C30.3466 61.4901 30.7863 61.4901 31.171 61.6916C31.3176 61.7832 31.4458 61.9298 31.5374 62.0763C31.629 62.2412 31.684 62.4244 31.7206 62.6076C31.7939 62.9924 31.7939 63.3954 31.7206 63.7802C31.684 63.9634 31.629 64.1466 31.5374 64.3115C31.4458 64.4763 31.3176 64.6046 31.171 64.6962C30.8046 64.8977 30.3649 64.8977 29.9802 64.6962C29.8336 64.6046 29.7054 64.458 29.6138 64.3115C29.5222 64.1466 29.4672 63.9634 29.4306 63.7802C29.3939 63.5786 29.3756 63.3771 29.3756 63.1939ZM30.0535 63.1939C30.0535 63.2855 30.0535 63.3771 30.0718 63.5054C30.0718 63.6153 30.1084 63.7435 30.1268 63.8534C30.1634 63.9634 30.2 64.055 30.2733 64.1283C30.4382 64.2748 30.6947 64.2748 30.8413 64.1283C30.9145 64.055 30.9695 63.945 31.0061 63.8534C31.0428 63.7435 31.0611 63.6336 31.0611 63.5054C31.0611 63.3954 31.0794 63.2855 31.0794 63.1939C31.0794 63.1023 31.0794 63.0107 31.0611 62.8825C31.0611 62.7725 31.0428 62.6443 31.0061 62.5344C30.9695 62.4244 30.9145 62.3328 30.8413 62.2595C30.6764 62.113 30.4199 62.113 30.2733 62.2595C30.2 62.3328 30.1451 62.4428 30.1268 62.5344C30.0901 62.6443 30.0718 62.7542 30.0718 62.8825C30.0535 63.0107 30.0535 63.1023 30.0535 63.1939Z" fill="#212121"/>
<path d="M37.0703 59.7313H44.1237C44.3252 59.7313 44.4901 59.8962 44.4901 60.0977V67.1512C44.4901 67.3527 44.3252 67.5176 44.1237 67.5176H37.0703C36.8687 67.5176 36.7039 67.3527 36.7039 67.1512V60.0977C36.7039 59.8962 36.8687 59.7313 37.0703 59.7313Z" fill="#FAFAFA"/>
<path d="M43.8123 67.8657H37.3634C36.8138 67.8657 36.3558 67.4077 36.3558 66.858V60.4092C36.3558 59.8596 36.8138 59.4016 37.3634 59.4016H43.8123C44.3619 59.4016 44.8199 59.8596 44.8199 60.4092V66.858C44.8199 67.4077 44.3802 67.8657 43.8123 67.8657ZM37.3817 60.0611C37.1985 60.0611 37.052 60.2077 37.052 60.4092V66.858C37.052 67.0412 37.1985 67.1878 37.3817 67.2061H43.8306C44.0138 67.2061 44.1604 67.0596 44.1604 66.858V60.4092C44.1604 60.226 44.0138 60.0794 43.8306 60.0611H37.3817Z" fill="#006430"/>
<path d="M47.1099 59.7313H54.1634C54.3649 59.7313 54.5298 59.8962 54.5298 60.0977V67.1512C54.5298 67.3527 54.3649 67.5176 54.1634 67.5176H47.1099C46.9084 67.5176 46.7435 67.3527 46.7435 67.1512V60.0977C46.7435 59.8962 46.9084 59.7313 47.1099 59.7313Z" fill="#FAFAFA"/>
<path d="M53.852 67.8657H47.4031C46.8535 67.8657 46.3955 67.4077 46.3955 66.858V60.4092C46.3955 59.8596 46.8535 59.4016 47.4031 59.4016H53.852C54.4016 59.4016 54.8596 59.8596 54.8596 60.4092V66.858C54.8596 67.4077 54.4016 67.8474 53.852 67.8657ZM47.4031 60.0611C47.2199 60.0611 47.0734 60.2077 47.0734 60.3909V66.8397C47.0734 67.0229 47.2199 67.1695 47.4031 67.1695H53.852C54.0352 67.1695 54.2001 67.0229 54.2001 66.8214V60.3725C54.2001 60.1893 54.0535 60.0245 53.852 60.0245H47.4031V60.0611Z" fill="#006430"/>
<path d="M57.1314 59.7313H64.1848C64.3863 59.7313 64.5512 59.8962 64.5512 60.0977V67.1512C64.5512 67.3527 64.3863 67.5176 64.1848 67.5176H57.1314C56.9298 67.5176 56.765 67.3527 56.765 67.1512V60.0977C56.765 59.8962 56.9298 59.7313 57.1314 59.7313Z" fill="#FAFAFA"/>
<path d="M63.8917 67.8657H57.4428C56.8932 67.8657 56.4352 67.4077 56.4352 66.858V60.4092C56.4352 59.8596 56.8932 59.4016 57.4428 59.4016H63.8917C64.4413 59.4016 64.8993 59.8596 64.8993 60.4092V66.858C64.8993 67.4077 64.4413 67.8657 63.8917 67.8657ZM57.4428 60.0611C57.2596 60.0611 57.0947 60.2077 57.0947 60.4092V66.858C57.0947 67.0412 57.2413 67.2061 57.4428 67.2061H63.8917C64.0749 67.2061 64.2214 67.0596 64.2214 66.8764V60.4275C64.2214 60.2443 64.0749 60.0977 63.8917 60.0977H57.4428V60.0611Z" fill="#006430"/>
<path d="M40.6062 64.3664C41.021 64.3664 41.3573 64.0301 41.3573 63.6153C41.3573 63.2004 41.021 62.8641 40.6062 62.8641C40.1913 62.8641 39.855 63.2004 39.855 63.6153C39.855 64.0301 40.1913 64.3664 40.6062 64.3664Z" fill="#212121"/>
<path d="M59.2382 36.9038C59.1466 36.9038 59.0733 36.8672 59.0001 36.8122C58.8718 36.684 58.8718 36.4641 59.0001 36.3359L61.8397 33.4412C61.968 33.313 62.1878 33.313 62.3161 33.4412C62.4443 33.5695 62.4443 33.7893 62.3161 33.9176L59.4764 36.8122C59.4214 36.8672 59.3298 36.9038 59.2382 36.9038Z" fill="#212121"/>
<path d="M59.2382 46.4122C59.055 46.4122 58.9084 46.2656 58.9084 46.0641C58.9084 45.9725 58.9451 45.8992 59.0001 45.8443L61.8397 42.9496C61.968 42.803 62.1695 42.803 62.3161 42.9313C62.4626 43.0595 62.4626 43.2611 62.3344 43.4076L62.3161 43.4259L59.4764 46.3206C59.4214 46.3756 59.3298 46.4122 59.2382 46.4122Z" fill="#212121"/>
<path d="M62.0962 46.4122C62.0046 46.4122 61.913 46.3755 61.8581 46.3023L59.0184 43.4076C58.8901 43.2794 58.8901 43.0595 59.0184 42.9313C59.1466 42.803 59.3665 42.803 59.4947 42.9313L62.3344 45.8259C62.4626 45.9542 62.4626 46.174 62.3344 46.3023C62.2611 46.3755 62.1695 46.4122 62.0962 46.4122Z" fill="#212121"/>
<path d="M62.1329 54.455H59.2199C59.0367 54.455 58.8901 54.3084 58.8901 54.1252C58.8901 53.942 59.0367 53.7954 59.2199 53.7954H62.1329C62.3161 53.7954 62.4627 53.942 62.4627 54.1252C62.4627 54.3084 62.3161 54.455 62.1329 54.455Z" fill="#212121"/>
<path d="M62.1329 62.9924H59.2199C59.0367 62.9924 58.8901 62.8458 58.8901 62.6626C58.8901 62.4794 59.0367 62.3328 59.2199 62.3328H62.1329C62.3161 62.3328 62.4627 62.4794 62.4627 62.6626C62.4627 62.8458 62.3161 62.9924 62.1329 62.9924Z" fill="#212121"/>
<path d="M62.1329 64.9343H59.2199C59.0367 64.9343 58.8901 64.7878 58.8901 64.6046C58.8901 64.4213 59.0367 64.2748 59.2199 64.2748H62.1329C62.3161 64.2748 62.4627 64.4213 62.4627 64.6046C62.4627 64.7878 62.3161 64.9343 62.1329 64.9343Z" fill="#212121"/>
<path d="M52.0932 63.9634H49.1802C48.997 63.9634 48.8504 63.8168 48.8504 63.6336C48.8504 63.4504 48.997 63.3038 49.1802 63.3038H52.0932C52.2764 63.3038 52.4229 63.4504 52.4229 63.6336C52.4229 63.8168 52.2764 63.9634 52.0932 63.9634Z" fill="#212121"/>
<path d="M50.6276 65.4107C50.4444 65.4107 50.2978 65.2642 50.2978 65.0809V62.168C50.2978 61.9848 50.4444 61.8382 50.6276 61.8382C50.8108 61.8382 50.9573 61.9848 50.9573 62.168V65.0809C50.9757 65.2642 50.8108 65.4107 50.6276 65.4107Z" fill="#212121"/>
<path d="M64.5512 19.6091H26.6642V28.3297H64.5512V19.6091Z" fill="white"/>
<path d="M64.5512 28.6595H26.6642C26.481 28.6595 26.3344 28.5129 26.3344 28.3297V19.6091C26.3344 19.4259 26.481 19.2794 26.6642 19.2794H64.5512C64.7344 19.2794 64.881 19.4259 64.881 19.6091V28.3297C64.8993 28.5129 64.7527 28.6595 64.5512 28.6595ZM26.994 28H64.2214V19.9572H26.994V28Z" fill="#006430"/>
<path d="M60.5573 27.0107H59.1649C58.5603 27.0107 58.0474 26.516 58.0474 25.8931V21.8992C58.0474 21.2947 58.542 20.7817 59.1649 20.7817H60.5573C61.1619 20.7817 61.6748 21.2763 61.6748 21.8992V25.8931C61.6565 26.516 61.1619 27.0107 60.5573 27.0107ZM59.1649 21.4595C58.9268 21.4595 58.7252 21.6611 58.7252 21.8992V25.8931C58.7252 26.1313 58.9268 26.3328 59.1649 26.3328H60.5573C60.7955 26.3328 60.997 26.1313 60.997 25.8931V21.8992C60.997 21.6611 60.7955 21.4595 60.5573 21.4595H59.1649Z" fill="#212121"/>
<path d="M61.1802 26.6809C61.0703 26.6809 60.9604 26.6259 60.8871 26.516L58.1207 22.0824C58.0108 21.9359 58.0474 21.716 58.2123 21.6244C58.3589 21.5145 58.5787 21.5511 58.6703 21.716L58.6886 21.7343L61.4734 26.1863C61.565 26.3511 61.5283 26.5527 61.3634 26.6443C61.3085 26.6809 61.2352 26.6992 61.1802 26.6809Z" fill="#212121"/>
</svg>
