<svg width="110" height="26" viewBox="0 0 110 26" fill="none" xmlns="http://www.w3.org/2000/svg">
<path d="M3.8 5.725C2.875 6.2 1.025 8.13125 0.25 9.28125V0.187502C1.375 0.187502 3.75 2.4 4.35 4.15L4.725 5.25L3.8 5.725Z" fill="#BDBDBD"/>
<path d="M93.125 0.600001C91.925 1.125 90.4 3.025 89.9 4.675C89.75 5.125 89.925 5.35 91.075 6.075C91.825 6.55 92.825 7.475 93.275 8.125L94.125 9.3L94.2 4.975C94.225 2.6 94.175 0.575002 94.075 0.475001C93.95 0.375002 93.525 0.425001 93.125 0.600001Z" fill="#BDBDBD"/>
<path d="M6.175 5.49999C3.925 6.07499 1.95 7.64999 0.924999 9.74999C-0.175001 11.975 0.324999 16.75 1.625 16.55C3 16.325 4.4 14.425 4.875 12.15C5.075 11.175 6.25 10.075 7.3 9.87499C9.075 9.54999 11 11.075 11 12.825C11 14.55 9.55 16.05 7.9 16.05C6.925 16.05 5.625 15.425 5.275 14.825C5.05 14.4 4.975 14.425 4.575 15C3.95 15.9 3.1 16.65 2.225 17.05L1.475 17.425L2.75 18.575C4.4 20.075 6 20.6 8.35 20.45C11.25 20.25 13.275 18.925 14.525 16.35C15.225 14.95 15.325 14.475 15.325 12.85C15.3 11.275 15.175 10.725 14.6 9.54999C13.05 6.52499 9.3 4.72499 6.175 5.49999Z" fill="#BDBDBD"/>
<path d="M21.925 5.525C19.775 6.025 18.05 7.35 16.825 9.425C16.325 10.275 16.15 11 16.05 12.375C15.875 14.975 16.45 16.475 18.225 18.275C20.025 20.05 21.525 20.625 24.1 20.45C26.925 20.275 28.9 18.975 30.25 16.475C30.975 15.125 31.075 14.7 31.075 13.025C31.075 11.075 30.55 9.25 29.975 9.25C29.475 9.25 28.025 10.25 27.525 10.975C27.25 11.325 26.875 12.3 26.675 13.1C26.225 14.775 25.525 15.65 24.325 15.975C22.025 16.625 19.75 14.35 20.5 12.15C21.275 9.825 24.1 9.10001 25.725 10.85L26.275 11.45L27.625 10.1C28.0312 9.65626 29.2438 8.68751 29.4375 8.62501C29.8063 8.31251 29.825 8.375 28.775 7.425C27.525 6.3 26.7 5.875 25.05 5.525C23.8125 5.34376 22.6546 5.35534 21.925 5.525Z" fill="#BDBDBD"/>
<path d="M37.55 5.62499C36.075 6.02499 35.225 6.49999 34.075 7.59999C33.175 8.42499 33.05 8.75 33.65 8.75C33.85 8.75 34.625 9.35 35.35 10.075L36.675 11.375L37.1 10.825C37.6 10.125 39.225 9.625 40.15 9.85C40.525 9.95 41.625 10.4062 41.8125 10.6875C42.0732 11.0786 42.5 11.875 42.5 12.95C42.5 15.8 39.35 17.2 37.25 15.25C36.85 14.875 36.475 14.275 36.4 13.925C36.325 13.55 36.2 13 36.125 12.675C35.875 11.35 33.65 9.075 32.9 9.325C32.325 9.5 31.75 11.825 31.85 13.45C32.025 16.2 33.525 18.45 36.075 19.8C37.575 20.625 41.15 20.6 42.7 19.8C49.025 16.475 48.025 7.42499 41.1 5.62499C39.6562 5.34375 39 5.34375 37.55 5.62499Z" fill="#BDBDBD"/>
<path d="M52.7312 5.79375C50.5562 6.64375 49.2062 7.89375 48.3062 9.84375C47.5312 11.5687 47.5062 14.5938 48.2812 16.2688C48.9312 17.6938 50.1812 18.9938 51.5812 19.6938L52.6062 20.2188V18.6938C52.6062 17.5687 53.1094 16.4062 53.1562 16.3125C53.25 16.125 53.625 15.75 53.625 15.75C53.05 15.75 52.1062 13.8937 52.1062 12.9437C52.1062 11.6687 53.0062 10.4187 54.2812 9.99375C55.1562 9.66875 55.7 9.81251 56.2562 9.99375C57.4062 10.4187 58.3562 11.7188 58.3562 12.8187C58.4062 14.1562 56.5312 14.625 56.0625 14.8125C53.7125 16.0625 53.575 16.2062 53.25 17.5312C52.975 18.6562 53.1312 20.4375 53.5312 20.4375C53.6562 20.4375 55.9437 19.325 57.8437 18.375C61.5937 16.45 62.1562 15.6688 62.6062 13.9437C63.4312 10.8937 60.7562 6.66875 57.4062 5.71875C56.1812 5.39375 53.6812 5.41875 52.7312 5.79375Z" fill="#BDBDBD"/>
<path d="M68.475 5.825C66.375 6.625 65 7.825 63.925 9.85C63.425 10.775 63.375 11.325 63.3 15.8L63.2 20.75L64.05 20.6C66.375 20.175 67.75 17.5 67.75 13.35C67.75 10.175 71.025 8.65 73.125 10.85C73.85 11.625 73.9 11.825 74.175 14.85C74.475 18.225 74.825 19.175 76 20.025C76.35 20.275 77.025 20.5 77.5 20.55L78.375 20.625V16C78.375 16 78.375 12.0938 78.375 11.9063C78.375 11.625 78.375 10.875 77.7188 9.46875C77.0625 8.0625 75.725 7 74 6.125C72.875 5.525 69.7 5.375 68.475 5.825Z" fill="#BDBDBD"/>
<path d="M84.175 5.84999C81.75 6.74999 80.05 8.54999 79.35 10.975C78.55 13.65 79.425 16.725 81.475 18.525C82.9 19.8 83.525 20.125 85.175 20.475C87.5 20.95 90 20.2 91.85 18.425L92.875 17.45L92.125 17.125C91.275 16.775 90.45 16.025 89.85 15.125L89.45 14.5L88.975 15.1C88.375 15.875 86.95 16.35 85.875 16.15C84.875 15.95 83.625 14.625 83.375 13.525C83.175 12.55 83.825 11.125 84.825 10.4C85.7 9.74999 87.375 9.72499 88.3 10.35C89.05 10.825 89.75 12.15 89.75 13.05C89.75 13.95 90.95 15.625 92.05 16.25C93 16.775 93.05 16.775 93.375 16.35C93.575 16.075 93.825 15.475 93.925 15C94.725 11.35 93.075 7.84999 89.75 6.12499C88.2188 5.15625 85.45 5.37499 84.175 5.84999Z" fill="#BDBDBD"/>
<path d="M100.025 5.775C98.85 6.125 97.15 7.325 96.375 8.375C92.1 13.975 97.025 21.8 103.9 20.35C106.425 19.825 108.2 18.375 109.325 15.925C109.9 14.6 109.9 11.2 109.3 10.075L108.875 9.25L108 9.7C106.9 10.25 105.5 12.075 105.5 12.95C105.5 14.725 103.675 16.375 101.95 16.175C100 15.925 98.65 13.925 99.25 12.15C99.575 11.125 100.675 10.1 101.7 9.875C102.6 9.675 104.425 10.375 104.775 11.05C105.025 11.5 105.1 11.45 106 10.425C106.55 9.825 107.325 9.15 107.75 8.95L108.525 8.575L107.9 7.825C107.575 7.425 106.7 6.775 105.975 6.375C104.9 5.8 104.275 5.65 102.75 5.6C101.725 5.55 100.5 5.625 100.025 5.775Z" fill="#BDBDBD"/>
<path d="M30.775 17C30.6 17.35 30.1 18 29.675 18.45C29.05 19.1 28.95 19.35 29.15 19.7C29.425 20.125 30.9 20.675 31.15 20.45C31.225 20.375 31.25 19.425 31.2 18.35C31.125 16.525 31.1 16.425 30.775 17Z" fill="#BDBDBD"/>
<path d="M31.75 21.075C31.75 24.75 31.825 25.75 32.075 25.75C32.8 25.75 34.475 24.35 35.2 23.15C36.475 21 36.475 20.9 34.9 19.9C34.05 19.375 33.175 18.525 32.65 17.7L31.75 16.375V21.075Z" fill="#BDBDBD"/>
<path d="M109.5 17.2C109.5 17.325 109.1 17.9 108.6 18.475C107.825 19.375 107.725 19.575 108.025 19.875C108.225 20.075 108.675 20.3 109.075 20.375L109.75 20.55V18.775C109.75 17.8 109.7 17 109.625 17C109.55 17 109.5 17.1 109.5 17.2Z" fill="#BDBDBD"/>
<path d="M57.15 19.275C55.775 19.95 54.6 20.575 54.525 20.65C54.35 20.85 62.2 20.625 62.4 20.45C62.725 20.1 60.475 17.975 59.825 18.025C59.725 18.025 58.5 18.6 57.15 19.275Z" fill="#BDBDBD"/>
</svg>
