<svg width="23" height="27" viewBox="0 0 23 27" fill="none" xmlns="http://www.w3.org/2000/svg">
    <g clip-path="url(#clip0_17821_12902)">
        <path
            d="M12.8921 17.2041C12.7069 15.8075 12.1452 14.4876 11.2672 13.3859C10.3158 12.0702 9.15633 10.9182 7.83447 9.97533C7.25198 9.56431 6.6455 9.18839 6.01827 8.84956L5.84081 8.75806C5.63851 8.8112 5.44868 8.90369 5.28215 9.03025C5.11563 9.15681 4.97568 9.31495 4.87032 9.49563C4.76067 9.71607 4.70462 9.95928 4.70672 10.2055C4.69815 10.5383 4.77248 10.8679 4.923 11.1649C8.64136 13.1558 10.9705 15.704 11.6166 17.5424C11.8745 18.2716 12.1961 19.8189 11.9604 21.0417C11.8984 21.3866 11.7873 21.7209 11.6305 22.0344C11.3785 22.4993 11.0363 22.9094 10.6239 23.2405C10.8537 23.0968 11.0699 22.9326 11.27 22.7497C13.2997 20.8587 12.9531 17.681 12.8921 17.2041ZM6.21237 11.1039C6.07691 11.1039 5.94449 11.0637 5.83186 10.9884C5.71923 10.9132 5.63145 10.8062 5.57961 10.6811C5.52777 10.5559 5.51421 10.4182 5.54064 10.2854C5.56706 10.1525 5.63229 10.0305 5.72808 9.93469C5.82386 9.83891 5.94589 9.77368 6.07875 9.74725C6.21161 9.72082 6.34931 9.73439 6.47446 9.78623C6.59961 9.83806 6.70657 9.92585 6.78183 10.0385C6.85709 10.1511 6.89725 10.2835 6.89725 10.419C6.89652 10.6004 6.82413 10.7742 6.69585 10.9025C6.56756 11.0307 6.39378 11.1031 6.21237 11.1039Z"
            fill="#1E88E5" />
        <path
            d="M13.4053 21.8439L10.8708 23.0536C14.1219 19.8024 13.5781 13.4916 5.85936 8.88338C5.82504 8.85927 5.82782 8.82864 5.83089 8.79796L5.80176 8.71057L9.37311 10.093L12.9445 12.3971L13.4053 21.8439Z"
            fill="#1976D2" />
        <path
            d="M16.5108 11.4227C16.6407 11.3371 16.7492 11.2228 16.828 11.0887C16.9069 10.9546 16.9539 10.8042 16.9655 10.6491C16.9849 10.4105 16.9217 10.1726 16.7864 9.97513C16.651 9.77771 16.4519 9.63286 16.2224 9.5649C16.1522 9.54256 16.0796 9.5286 16.0061 9.52331C15.8692 9.51126 15.7312 9.52664 15.6003 9.56854C15.4694 9.61044 15.3481 9.67801 15.2436 9.76732C15.4358 9.59209 15.5538 9.35008 15.5736 9.09075C15.5896 8.88637 15.5452 8.6818 15.4461 8.50236C15.347 8.32291 15.1975 8.17646 15.016 8.08114C14.8345 7.98582 14.629 7.94582 14.4251 7.96608C14.2211 7.98634 14.0275 8.06597 13.8683 8.19512C13.9921 8.057 14.0769 7.88833 14.1138 7.70652C14.1507 7.52471 14.1384 7.33635 14.0782 7.16087C14.018 6.98538 13.9121 6.82914 13.7714 6.70826C13.6307 6.58738 13.4602 6.50623 13.2777 6.4732L13.1723 6.45934C12.4422 6.35641 11.7412 6.10396 11.1131 5.71775C10.485 5.33155 9.9433 4.8199 9.52195 4.21482C9.1006 3.60973 8.80863 2.92422 8.66429 2.20114C8.51996 1.47807 8.52636 0.732996 8.68311 0.0125122C7.60257 0.455656 6.66598 1.18957 5.9773 2.13278C5.28861 3.07598 4.87478 4.19159 4.78174 5.35575C4.75821 5.66494 4.75821 5.97546 4.78174 6.28465C4.79558 6.60012 4.83734 6.91375 4.90652 7.22186C5.06988 7.81065 5.39222 8.34308 5.83819 8.76078L6.01565 8.85228C6.64288 9.19112 7.24936 9.56704 7.83185 9.97805C9.1536 10.9166 10.3139 12.0638 11.2674 13.3748C11.8913 14.312 12.6732 15.4738 12.8923 17.1929C13.0501 18.8209 12.687 20.4569 11.8552 21.8652C11.5485 22.4057 11.1342 22.8775 10.6379 23.2516C9.98211 23.7349 9.18999 23.998 8.37532 24.003C7.86323 23.9977 7.35757 23.8882 6.88909 23.6814C6.36106 23.4574 5.90455 23.093 5.56922 22.6277C4.48053 21.2118 4.69963 19.2823 6.01842 17.7115C5.46112 18.2031 5.01489 18.8078 4.70938 19.4852C4.40388 20.1627 4.24612 20.8974 4.24658 21.6406C4.26421 22.319 4.41672 22.9871 4.69521 23.606C4.97371 24.2249 5.37262 24.7821 5.86869 25.2452C6.21601 25.5556 6.60296 25.8185 7.01941 26.0272C7.48576 26.2612 7.98821 26.4149 8.50565 26.4819C8.80504 26.5131 9.1066 26.5178 9.40681 26.4958C9.93583 26.4695 10.4622 26.4046 10.9818 26.3017C12.3297 25.9793 13.6009 25.3942 14.7223 24.5798C15.7827 23.7621 16.6555 22.7268 17.2821 21.5435C17.9087 20.3602 18.2744 19.0563 18.3547 17.7198C18.4048 16.4511 18.2167 15.1842 17.8002 13.9848C17.49 13.0756 17.0561 12.2135 16.5108 11.4227ZM13.042 8.05371C12.9677 8.04596 12.8958 8.0233 12.8306 7.98709C12.7653 7.95088 12.708 7.90186 12.6621 7.84298C12.5759 7.73711 12.5341 7.60191 12.5457 7.46587C12.5529 7.35553 12.5929 7.24987 12.6606 7.16246C12.7283 7.07505 12.8207 7.00988 12.9257 6.97531C13.0307 6.94075 13.1437 6.93837 13.2501 6.96849C13.3565 6.9986 13.4514 7.05983 13.5228 7.14432C13.5941 7.2288 13.6385 7.33268 13.6504 7.44262C13.6623 7.55256 13.641 7.66353 13.5893 7.76128C13.5376 7.85903 13.4579 7.9391 13.3604 7.99121C13.2629 8.04332 13.152 8.06508 13.042 8.05371ZM14.8859 9.44012C14.8026 9.50798 14.7014 9.55017 14.5945 9.56156C14.4877 9.57296 14.3798 9.55307 14.2841 9.50431C14.1883 9.45555 14.1088 9.38003 14.0552 9.28692C14.0015 9.19381 13.9761 9.08712 13.982 8.97983C13.987 8.89415 14.0138 8.81115 14.0596 8.7386C14.1263 8.63696 14.2246 8.56005 14.3392 8.5197C14.4539 8.47936 14.5787 8.47782 14.6943 8.51531C14.81 8.55281 14.9101 8.62727 14.9793 8.72723C15.0485 8.8272 15.0829 8.94713 15.0772 9.06857C15.0603 9.20669 14.992 9.33338 14.8859 9.42349V9.44012ZM16.2391 11.0262C16.1352 11.0894 16.0134 11.1166 15.8925 11.1038C15.7483 11.0911 15.6148 11.0225 15.5205 10.9126C15.4262 10.8028 15.3786 10.6604 15.3878 10.516C15.3929 10.443 15.4131 10.3718 15.4469 10.3069C15.4808 10.242 15.5277 10.1848 15.5847 10.1389C15.664 10.0733 15.76 10.031 15.862 10.0169C15.8979 10.0127 15.9342 10.0127 15.9701 10.0169C16.1143 10.0303 16.2476 10.0996 16.3413 10.2099C16.4351 10.3203 16.482 10.463 16.472 10.6075C16.4645 10.6874 16.4399 10.7647 16.3997 10.8341C16.3594 10.9035 16.3047 10.9634 16.2391 11.0095V11.0262Z"
            fill="#16A75C" />
        <path
            d="M9.66133 24.3209L8.50928 24.0329C14.6042 22.8397 17.6821 18.2398 16.516 11.4179L16.7464 11.9939L17.6105 15.1621L16.8616 19.8855L13.0599 23.572L9.66133 24.3209Z"
            fill="#069550" />
        <path
            d="M16.5108 11.4227C16.7243 12.0133 18.1745 16.2058 15.7926 19.8437C13.7324 23.002 9.429 24.7849 6.88909 23.6675C6.36128 23.4432 5.90486 23.0788 5.56922 22.6138C5.19175 22.0801 4.77652 21.0335 4.95317 20.6802C4.95703 19.7183 5.35559 18.681 6.01842 17.7114C5.46112 18.2031 5.01489 18.8077 4.70938 19.4852C4.40388 20.1626 4.24612 20.8974 4.24658 21.6405C4.26421 22.319 4.41672 22.9871 4.69521 23.606C4.97371 24.2248 5.37262 24.7821 5.86869 25.2452C6.21601 25.5556 6.60296 25.8185 7.01941 26.0272C7.48562 26.2615 7.98813 26.4152 8.50565 26.4819C8.80504 26.5131 9.1066 26.5177 9.40681 26.4958C9.93583 26.4695 10.4622 26.4046 10.9818 26.3017C12.3297 25.9793 13.6009 25.3941 14.7223 24.5797C15.7827 23.7621 16.6555 22.7268 17.2821 21.5435C17.9087 20.3602 18.2744 19.0563 18.3547 17.7198C18.4048 16.451 18.2167 15.1842 17.8002 13.9848C17.49 13.0756 17.0561 12.2135 16.5108 11.4227Z"
            fill="#FFC800" />
        <path
            d="M9.40939 16.9268V17.0294C9.51753 17.0294 9.60349 17.0654 9.60349 17.107C9.60349 17.1486 9.5203 17.1791 9.41494 17.1819V17.29C9.5203 17.29 9.60349 17.3288 9.60349 17.3677C9.60349 17.4065 9.52308 17.437 9.42048 17.4425V17.5507C9.52308 17.5507 9.60072 17.5895 9.60072 17.6283C9.60072 17.6671 9.52308 17.6976 9.42326 17.7032V17.8113C9.52308 17.8113 9.59794 17.8501 9.59794 17.8889C9.59794 17.9278 9.52308 17.9555 9.42603 17.9638V18.0719C9.52308 18.0719 9.59517 18.1108 9.59517 18.1496C9.59517 18.1884 9.52308 18.2161 9.4288 18.2245V18.5017C9.42809 18.5174 9.42135 18.5322 9.40998 18.5431C9.39862 18.5539 9.38351 18.56 9.3678 18.56H9.44821H9.47594L9.93623 18.7236C9.95823 18.7281 9.97761 18.741 9.99021 18.7596C10.0028 18.7782 10.0076 18.8009 10.0036 18.823C9.99966 18.8451 9.98718 18.8648 9.96888 18.8778C9.95058 18.8908 9.92791 18.8962 9.90573 18.8927H8.8271C8.80491 18.8962 8.78224 18.8908 8.76394 18.8778C8.74565 18.8648 8.73317 18.8451 8.72918 18.823C8.7252 18.8009 8.73002 18.7782 8.74262 18.7596C8.75522 18.741 8.77459 18.7281 8.7966 18.7236L9.23748 18.5905H9.26798H9.37889C9.37052 18.5909 9.36216 18.5895 9.35437 18.5864C9.34659 18.5834 9.33956 18.5786 9.33377 18.5726C9.32798 18.5665 9.32356 18.5593 9.32082 18.5514C9.31808 18.5434 9.31708 18.535 9.31789 18.5267V18.2494C9.22361 18.2494 9.15152 18.2106 9.15152 18.1745C9.15152 18.1385 9.22361 18.1052 9.32066 18.0969V17.9888C9.22361 17.9888 9.14875 17.9499 9.14875 17.9139C9.14875 17.8779 9.22361 17.8446 9.32343 17.8363V17.7281C9.22361 17.7281 9.14597 17.6893 9.14597 17.6533C9.14597 17.6172 9.22361 17.5812 9.32621 17.5756V17.4536C9.22361 17.4536 9.1432 17.4148 9.1432 17.3787C9.1432 17.3427 9.22639 17.3039 9.33175 17.3011V17.2041C9.22639 17.2041 9.1432 17.168 9.1432 17.1292C9.1432 17.0904 9.22916 17.0543 9.3373 17.0515V16.9268H9.37334H9.35394L9.16538 16.8796C8.91567 16.8258 8.66107 16.798 8.40563 16.7964C7.59979 16.7979 6.81769 17.0694 6.18422 17.5675C5.55076 18.0656 5.10246 18.7616 4.91092 19.5443C4.71939 20.3271 4.79566 21.1514 5.12755 21.8858C5.45945 22.6201 6.02783 23.222 6.74193 23.5954V22.2866C6.74268 22.2751 6.7411 22.2636 6.7373 22.2527C6.73349 22.2418 6.72752 22.2318 6.71976 22.2232C6.712 22.2147 6.70259 22.2078 6.69211 22.203C6.68163 22.1982 6.67028 22.1955 6.65875 22.1951H5.95999C5.93507 22.1948 5.91125 22.1849 5.89345 22.1674L4.93682 21.086C4.92567 21.0732 4.91844 21.0574 4.91598 21.0406C4.91352 21.0238 4.91593 21.0067 4.92294 20.9912C4.92995 20.9757 4.94126 20.9626 4.95551 20.9533C4.96977 20.9441 4.98638 20.9391 5.00337 20.9391H11.9354C11.95 20.935 11.9653 20.935 11.9798 20.9391C12.0097 20.7557 12.0246 20.5702 12.0242 20.3845C12.0223 19.6025 11.7663 18.8424 11.2946 18.2186C10.823 17.5949 10.1613 17.1415 9.40939 16.9268ZM7.57378 19.0979H11.1785C11.1951 19.0972 11.2117 19.1013 11.2261 19.1099C11.2404 19.1184 11.252 19.1309 11.2594 19.1459C11.2667 19.1609 11.2695 19.1778 11.2675 19.1943C11.2654 19.2109 11.2586 19.2266 11.2478 19.2393L10.9705 19.6053C10.9571 19.6235 10.9374 19.6358 10.9153 19.64C10.8931 19.6441 10.8702 19.6396 10.8513 19.6275L10.7819 19.5804C10.7665 19.5764 10.7503 19.5764 10.7348 19.5804H8.07012C8.05655 19.5763 8.04209 19.5763 8.02852 19.5804L7.92038 19.6386C7.90227 19.6477 7.88169 19.6508 7.86171 19.6473C7.84173 19.6438 7.82341 19.6339 7.80947 19.6192L7.49891 19.2449C7.48717 19.2315 7.47971 19.215 7.47749 19.1973C7.47527 19.1797 7.4784 19.1618 7.48647 19.146C7.49453 19.1301 7.50717 19.1171 7.52274 19.1085C7.5383 19.0999 7.55609 19.0962 7.57378 19.0979ZM11.8855 20.4011H7.31036C7.29492 20.397 7.27867 20.397 7.26322 20.4011L6.98594 20.5647C6.97068 20.576 6.95222 20.5821 6.93326 20.5821C6.91429 20.5821 6.89583 20.576 6.88057 20.5647L6.39256 20.0822C6.38006 20.0692 6.37185 20.0526 6.36901 20.0348C6.36618 20.017 6.36886 19.9987 6.3767 19.9824C6.38454 19.9661 6.39716 19.9526 6.41288 19.9437C6.42859 19.9348 6.44665 19.9309 6.46465 19.9325H11.733C11.7498 19.9321 11.7664 19.9365 11.7807 19.9454C11.795 19.9543 11.8064 19.9671 11.8134 19.9824L11.9521 20.2763C11.9586 20.2891 11.9618 20.3033 11.9614 20.3176C11.961 20.3319 11.957 20.3459 11.9499 20.3583C11.9427 20.3707 11.9326 20.3811 11.9204 20.3886C11.9082 20.3961 11.8943 20.4004 11.88 20.4011H11.8855ZM7.37414 21.6406C7.3506 21.6406 7.32803 21.6499 7.31139 21.6666C7.29475 21.6832 7.28541 21.7058 7.28541 21.7293V23.8117C7.64918 23.9335 8.03033 23.9953 8.41395 23.9947C9.32865 23.9966 10.2099 23.6506 10.879 23.027V22.1951C10.879 22.1716 10.8883 22.149 10.905 22.1324C10.9216 22.1158 10.9442 22.1064 10.9677 22.1064H11.5389C11.5534 22.1021 11.5688 22.1021 11.5833 22.1064C11.6646 21.9564 11.7351 21.8007 11.794 21.6406H7.37414ZM8.78273 23.2322C8.7831 23.2437 8.78116 23.2552 8.777 23.2659C8.77285 23.2767 8.76658 23.2865 8.75856 23.2948C8.75054 23.303 8.74094 23.3096 8.73032 23.3141C8.71971 23.3186 8.7083 23.3209 8.69677 23.3209H7.95088C7.92735 23.3209 7.90478 23.3116 7.88814 23.2949C7.8715 23.2783 7.86215 23.2557 7.86215 23.2322V22.1951C7.86215 22.1716 7.8715 22.149 7.88814 22.1324C7.90478 22.1158 7.92735 22.1064 7.95088 22.1064H8.69677C8.7083 22.1064 8.71971 22.1087 8.73032 22.1132C8.74094 22.1177 8.75054 22.1243 8.75856 22.1326C8.76658 22.1408 8.77285 22.1506 8.777 22.1614C8.78116 22.1721 8.7831 22.1836 8.78273 22.1951V23.2322ZM10.3078 23.2322C10.3078 23.2557 10.2984 23.2783 10.2818 23.2949C10.2652 23.3116 10.2426 23.3209 10.2191 23.3209H9.44267C9.41913 23.3209 9.39656 23.3116 9.37992 23.2949C9.36328 23.2783 9.35394 23.2557 9.35394 23.2322V22.1951C9.35394 22.1716 9.36328 22.149 9.37992 22.1324C9.39656 22.1158 9.41913 22.1064 9.44267 22.1064H10.2191C10.2426 22.1064 10.2652 22.1158 10.2818 22.1324C10.2984 22.149 10.3078 22.1716 10.3078 22.1951V23.2322Z"
            fill="#1E88E5" />
    </g>
    <defs>
        <clipPath id="clip0_17821_12902">
            <rect width="14.1161" height="26.4969" fill="white" transform="translate(4.24658 0.0125122)" />
        </clipPath>
    </defs>
</svg>