<svg width="250" height="122" viewBox="0 0 250 122" fill="none" xmlns="http://www.w3.org/2000/svg">
<g clip-path="url(#clip0_17964_18821)">
<path d="M39.8296 79.0534C38.9818 72.6592 36.4101 66.6163 32.3902 61.5721C28.034 55.5482 22.7256 50.2741 16.6736 45.957C14.0067 44.0752 11.23 42.354 8.35822 40.8027L7.54572 40.3838C6.61953 40.6271 5.75039 41.0506 4.98797 41.63C4.22555 42.2095 3.58482 42.9335 3.1024 43.7607C2.60039 44.77 2.34375 45.8835 2.35339 47.0107C2.31416 48.5343 2.65445 50.0438 3.34361 51.4032C20.3679 60.5184 31.0318 72.1853 33.9898 80.6022C35.1705 83.941 36.6431 91.0249 35.564 96.6235C35.2801 98.2029 34.7714 99.7334 34.0533 101.168C32.8997 103.297 31.333 105.175 29.4449 106.691C30.4969 106.033 31.487 105.281 32.4029 104.444C41.6958 95.7856 40.1089 81.2369 39.8296 79.0534ZM9.24688 51.1239C8.62669 51.1239 8.02044 50.94 7.50477 50.5955C6.9891 50.2509 6.58719 49.7612 6.34986 49.1882C6.11252 48.6152 6.05043 47.9847 6.17142 47.3765C6.29241 46.7682 6.59106 46.2095 7.0296 45.7709C7.46813 45.3324 8.02686 45.0337 8.63513 44.9128C9.2434 44.7918 9.87389 44.8539 10.4469 45.0912C11.0198 45.3285 11.5096 45.7304 11.8541 46.2461C12.1987 46.7618 12.3826 47.368 12.3826 47.9882C12.3793 48.8188 12.0478 49.6145 11.4605 50.2018C10.8731 50.7891 10.0775 51.1206 9.24688 51.1239Z" fill="#1E88E5"/>
<path d="M42.1791 100.297L30.575 105.835C45.4602 90.9498 42.9702 62.056 7.63055 40.9577C7.47343 40.8473 7.48616 40.7071 7.50019 40.5666L7.36682 40.1665L23.718 46.4961L40.0692 57.0452L42.1791 100.297Z" fill="#1976D2"/>
<path d="M56.3969 52.5838C56.9915 52.1918 57.4884 51.6687 57.8494 51.0547C58.2103 50.4407 58.4256 49.7521 58.4789 49.0418C58.5677 47.9496 58.278 46.8601 57.6585 45.9562C57.0389 45.0523 56.1273 44.3891 55.0766 44.078C54.7551 43.9757 54.4228 43.9118 54.0863 43.8876C53.4594 43.8324 52.8277 43.9028 52.2283 44.0946C51.6288 44.2865 51.0736 44.5959 50.5951 45.0047C51.4751 44.2025 52.0155 43.0944 52.1059 41.9071C52.179 40.9714 51.9762 40.0348 51.5224 39.2132C51.0686 38.3916 50.3839 37.7211 49.553 37.2847C48.7221 36.8483 47.7814 36.6651 46.8474 36.7579C45.9135 36.8506 45.0272 37.2152 44.2983 37.8066C44.8653 37.1742 45.2534 36.4019 45.4223 35.5695C45.5913 34.7371 45.5351 33.8747 45.2595 33.0713C44.9839 32.2678 44.499 31.5525 43.8547 30.999C43.2104 30.4456 42.43 30.0741 41.5942 29.9228L41.1118 29.8594C37.769 29.3881 34.5594 28.2323 31.6837 26.4641C28.808 24.6959 26.328 22.3533 24.3989 19.583C22.4698 16.8126 21.133 13.6741 20.4722 10.3635C19.8113 7.05298 19.8406 3.6417 20.5583 0.343018C15.6112 2.37192 11.323 5.73209 8.16993 10.0505C5.01684 14.3689 3.12214 19.4766 2.69615 24.8067C2.5884 26.2223 2.5884 27.644 2.69615 29.0596C2.75954 30.504 2.95072 31.9399 3.26743 33.3505C4.01539 36.0463 5.49119 38.484 7.53302 40.3964L8.34552 40.8153C11.2173 42.3666 13.994 44.0878 16.6609 45.9696C22.7124 50.2664 28.0249 55.5189 32.3902 61.5212C35.2466 65.8122 38.8267 71.1315 39.8296 79.0025C40.5522 86.4558 38.8897 93.9462 35.0816 100.394C33.6774 102.869 31.7806 105.029 29.5084 106.741C26.5057 108.954 22.8791 110.159 19.1491 110.182C16.8045 110.157 14.4894 109.656 12.3445 108.709C9.92696 107.684 7.83685 106.015 6.30159 103.885C1.31707 97.4025 2.32023 88.5682 8.35821 81.3765C5.80667 83.6274 3.7636 86.3958 2.36488 89.4975C0.966162 92.5992 0.243848 95.9631 0.245976 99.3656C0.32668 102.472 1.02492 105.531 2.29999 108.364C3.57506 111.198 5.40145 113.749 7.67267 115.869C9.26286 117.29 11.0345 118.494 12.9412 119.449C15.0763 120.521 17.3768 121.225 19.7458 121.531C21.1166 121.674 22.4973 121.695 23.8717 121.595C26.2938 121.475 28.7038 121.178 31.0826 120.706C37.2542 119.23 43.0739 116.551 48.2084 112.823C53.0632 109.079 57.0595 104.339 59.9283 98.9212C62.797 93.5035 64.4715 87.5339 64.8392 81.4146C65.0685 75.6059 64.2073 69.8056 62.3001 64.3141C60.8801 60.1516 58.8937 56.2044 56.3969 52.5838ZM40.5152 37.1591C40.1752 37.1236 39.846 37.0199 39.5471 36.8541C39.2483 36.6883 38.986 36.4639 38.7759 36.1943C38.3812 35.7096 38.19 35.0906 38.2427 34.4677C38.2758 33.9625 38.4591 33.4788 38.7691 33.0786C39.0792 32.6784 39.5018 32.38 39.9826 32.2217C40.4635 32.0635 40.9807 32.0526 41.4678 32.1905C41.955 32.3284 42.3897 32.6087 42.7163 32.9955C43.0429 33.3823 43.2465 33.8579 43.3007 34.3613C43.355 34.8646 43.2576 35.3727 43.021 35.8202C42.7844 36.2678 42.4194 36.6344 41.9729 36.873C41.5264 37.1115 41.0187 37.2112 40.5152 37.1591ZM48.9575 43.5067C48.576 43.8174 48.1125 44.0105 47.6233 44.0627C47.1342 44.1149 46.6404 44.0238 46.202 43.8006C45.7636 43.5773 45.3995 43.2316 45.1539 42.8053C44.9084 42.379 44.792 41.8905 44.8188 41.3993C44.842 41.007 44.9643 40.627 45.1743 40.2948C45.4797 39.8295 45.9295 39.4773 46.4545 39.2926C46.9796 39.1079 47.5508 39.1008 48.0803 39.2725C48.6097 39.4442 49.0681 39.7851 49.3849 40.2428C49.7017 40.7005 49.8593 41.2495 49.8334 41.8055C49.7557 42.4379 49.443 43.018 48.9575 43.4305V43.5067ZM55.1527 50.7684C54.677 51.0576 54.1195 51.1825 53.5658 51.1238C52.9056 51.0655 52.2944 50.7514 51.8627 50.2485C51.4309 49.7456 51.213 49.0939 51.2553 48.4324C51.2788 48.0982 51.3709 47.7723 51.526 47.4752C51.6811 47.1782 51.8958 46.9163 52.1567 46.7059C52.5198 46.4055 52.9594 46.2121 53.4262 46.1473C53.5907 46.1281 53.7568 46.1281 53.9213 46.1473C54.5816 46.2087 55.1916 46.526 55.621 47.0313C56.0504 47.5366 56.2651 48.1899 56.2191 48.8514C56.1851 49.2171 56.0721 49.5711 55.888 49.8889C55.7039 50.2067 55.453 50.4807 55.1527 50.6922V50.7684Z" fill="#16A75C"/>
<path d="M25.0367 111.637L19.7621 110.318C47.6672 104.856 61.7594 83.7952 56.4204 52.5618L57.4753 55.1991L61.4313 69.7042L58.0028 91.3299L40.5967 108.209L25.0367 111.637Z" fill="#069550"/>
<path d="M56.3969 52.5837C57.3744 55.2878 64.014 74.483 53.1088 91.1391C43.6763 105.599 23.9733 113.762 12.3445 108.646C9.92796 107.619 7.83827 105.951 6.30159 103.822C4.57334 101.378 2.67228 96.5865 3.48105 94.9689C3.49872 90.5645 5.32349 85.8157 8.35821 81.3765C5.80667 83.6274 3.7636 86.3957 2.36488 89.4974C0.966162 92.5991 0.243848 95.9631 0.245976 99.3656C0.32668 102.472 1.02492 105.531 2.29999 108.364C3.57506 111.198 5.40145 113.749 7.67267 115.869C9.26286 117.29 11.0345 118.494 12.9412 119.449C15.0757 120.522 17.3764 121.226 19.7458 121.531C21.1166 121.674 22.4973 121.695 23.8717 121.595C26.2938 121.475 28.7038 121.178 31.0826 120.706C37.2542 119.23 43.0739 116.551 48.2084 112.822C53.0632 109.079 57.0595 104.339 59.9283 98.9212C62.797 93.5034 64.4715 87.5339 64.8392 81.4145C65.0685 75.6058 64.2073 69.8056 62.3001 64.3141C60.8801 60.1516 58.8937 56.2044 56.3969 52.5837Z" fill="#FFC800"/>
<path d="M23.8845 77.7839V78.2537C24.3796 78.2537 24.7731 78.4187 24.7731 78.6091C24.7731 78.7995 24.3923 78.9392 23.9099 78.9519V79.447C24.3923 79.447 24.7731 79.6247 24.7731 79.8025C24.7731 79.9802 24.405 80.1198 23.9352 80.1452V80.6404C24.405 80.6404 24.7604 80.8181 24.7604 80.9958C24.7604 81.1735 24.405 81.3132 23.9479 81.3386V81.8337C24.405 81.8337 24.7477 82.0114 24.7477 82.1892C24.7477 82.3669 24.405 82.4938 23.9606 82.5319V83.027C24.405 83.027 24.735 83.2048 24.735 83.3825C24.735 83.5603 24.405 83.6872 23.9733 83.7253V84.9948C23.9701 85.0667 23.9392 85.1345 23.8872 85.1841C23.8351 85.2338 23.766 85.2615 23.694 85.2614H24.0622H24.1891L26.2966 86.0104C26.3973 86.031 26.486 86.0901 26.5437 86.1753C26.6014 86.2604 26.6234 86.3647 26.6052 86.4659C26.587 86.5671 26.5298 86.6571 26.446 86.7167C26.3623 86.7763 26.2585 86.8008 26.1569 86.7848H21.2185C21.1169 86.8008 21.0131 86.7763 20.9293 86.7167C20.8456 86.6571 20.7884 86.5671 20.7702 86.4659C20.7519 86.3647 20.774 86.2604 20.8317 86.1753C20.8894 86.0901 20.9781 86.031 21.0788 86.0104L23.0974 85.4011H23.237H23.7448C23.7065 85.4031 23.6682 85.3968 23.6326 85.3826C23.5969 85.3685 23.5647 85.3468 23.5382 85.3191C23.5117 85.2914 23.4915 85.2583 23.4789 85.222C23.4664 85.1858 23.4618 85.1472 23.4655 85.1091V83.8395C23.0339 83.8395 22.7038 83.6618 22.7038 83.4968C22.7038 83.3317 23.0339 83.1794 23.4782 83.1413V82.6462C23.0339 82.6462 22.6911 82.4685 22.6911 82.3034C22.6911 82.1384 23.0339 81.986 23.4909 81.948V81.4528C23.0339 81.4528 22.6784 81.2751 22.6784 81.1101C22.6784 80.945 23.0339 80.78 23.5036 80.7546V80.196C23.0339 80.196 22.6657 80.0183 22.6657 79.8533C22.6657 79.6882 23.0466 79.5105 23.529 79.4978V79.0535C23.0466 79.0535 22.6657 78.8884 22.6657 78.7107C22.6657 78.5329 23.0593 78.3679 23.5544 78.3552V77.7839H23.7194H23.6306L22.7673 77.5681C21.624 77.3218 20.4583 77.1942 19.2888 77.1873C15.5993 77.1941 12.0185 78.437 9.11824 80.7175C6.21796 82.998 4.16546 86.1845 3.28853 89.7683C2.41159 93.352 2.76079 97.1263 4.28036 100.488C5.79993 103.85 8.40222 106.606 11.6717 108.316V102.324C11.6751 102.271 11.6679 102.218 11.6505 102.168C11.633 102.118 11.6057 102.073 11.5702 102.033C11.5346 101.994 11.4916 101.963 11.4436 101.941C11.3956 101.919 11.3436 101.906 11.2908 101.905H8.09163C7.97754 101.903 7.86844 101.858 7.78695 101.778L3.40711 96.8267C3.35606 96.768 3.32293 96.6959 3.31167 96.619C3.3004 96.542 3.31147 96.4634 3.34356 96.3926C3.37565 96.3217 3.42741 96.2615 3.49268 96.2192C3.55796 96.1769 3.634 96.1542 3.71179 96.1539H35.4498C35.5163 96.1355 35.5865 96.1355 35.6529 96.1539C35.79 95.3145 35.8579 94.4653 35.856 93.6148C35.8477 90.0347 34.6754 86.5543 32.516 83.6987C30.3565 80.8431 27.327 78.7671 23.8845 77.7839ZM15.4802 87.7243H31.984C32.0604 87.721 32.1362 87.74 32.202 87.7791C32.2677 87.8181 32.3207 87.8755 32.3544 87.9442C32.3881 88.0129 32.401 88.09 32.3916 88.1659C32.3822 88.2418 32.3508 88.3133 32.3014 88.3717L31.0319 90.0475C30.9707 90.1305 30.8803 90.1872 30.779 90.2061C30.6776 90.225 30.5729 90.2046 30.486 90.1491L30.1686 89.9332C30.0978 89.915 30.0236 89.915 29.9528 89.9332H17.7527C17.6906 89.9145 17.6244 89.9145 17.5623 89.9332L17.0671 90.1998C16.9842 90.2416 16.89 90.2555 16.7985 90.2395C16.707 90.2235 16.6232 90.1784 16.5593 90.111L15.1375 88.3971C15.0837 88.336 15.0496 88.2602 15.0394 88.1795C15.0292 88.0988 15.0435 88.0169 15.0805 87.9444C15.1174 87.8719 15.1753 87.8121 15.2465 87.7729C15.3178 87.7336 15.3992 87.7167 15.4802 87.7243ZM35.2213 93.691H14.2742C14.2035 93.6722 14.1291 93.6722 14.0584 93.691L12.7889 94.44C12.719 94.4916 12.6345 94.5194 12.5476 94.5194C12.4608 94.5194 12.3763 94.4916 12.3064 94.44L10.0721 92.2311C10.0149 92.1713 9.97727 92.0955 9.9643 92.0138C9.95133 91.9321 9.9636 91.8484 9.99949 91.7739C10.0354 91.6994 10.0932 91.6376 10.1651 91.5967C10.2371 91.5559 10.3198 91.5381 10.4022 91.5455H34.523C34.6 91.5434 34.676 91.5639 34.7414 91.6046C34.8068 91.6452 34.8589 91.7041 34.8912 91.774L35.526 93.1197C35.5557 93.1782 35.5703 93.2431 35.5685 93.3086C35.5668 93.3741 35.5487 93.4382 35.5159 93.4949C35.4831 93.5517 35.4366 93.5993 35.3808 93.6336C35.3249 93.6678 35.2613 93.6876 35.1959 93.691H35.2213ZM14.5662 99.3658C14.4584 99.3658 14.3551 99.4086 14.2789 99.4848C14.2027 99.5609 14.1599 99.6643 14.1599 99.772V109.306C15.8254 109.864 17.5705 110.147 19.3269 110.144C23.5148 110.153 27.5493 108.569 30.6129 105.713V101.905C30.6129 101.797 30.6557 101.694 30.7319 101.618C30.8081 101.541 30.9114 101.499 31.0192 101.499H33.6344C33.7006 101.479 33.7712 101.479 33.8375 101.499C34.2099 100.812 34.5323 100.099 34.8023 99.3658H14.5662ZM21.0153 106.653C21.0171 106.706 21.0081 106.758 20.9891 106.807C20.9701 106.857 20.9414 106.901 20.9047 106.939C20.868 106.977 20.824 107.007 20.7754 107.028C20.7268 107.049 20.6746 107.059 20.6218 107.059H17.2068C17.099 107.059 16.9957 107.016 16.9195 106.94C16.8433 106.864 16.8005 106.761 16.8005 106.653V101.905C16.8005 101.797 16.8433 101.694 16.9195 101.618C16.9957 101.541 17.099 101.499 17.2068 101.499H20.6218C20.6746 101.499 20.7268 101.509 20.7754 101.53C20.824 101.55 20.868 101.58 20.9047 101.618C20.9414 101.656 20.9701 101.701 20.9891 101.75C21.0081 101.8 21.0171 101.852 21.0153 101.905V106.653ZM27.9977 106.653C27.9977 106.761 27.9549 106.864 27.8787 106.94C27.8025 107.016 27.6992 107.059 27.5915 107.059H24.0368C23.9291 107.059 23.8257 107.016 23.7495 106.94C23.6734 106.864 23.6306 106.761 23.6306 106.653V101.905C23.6306 101.797 23.6734 101.694 23.7495 101.618C23.8257 101.541 23.9291 101.499 24.0368 101.499H27.5915C27.6992 101.499 27.8025 101.541 27.8787 101.618C27.9549 101.694 27.9977 101.797 27.9977 101.905V106.653Z" fill="#1E88E5"/>
</g>
<path d="M89.8431 42.8729C89.8431 46.2529 98.1601 46.2909 98.1601 43.1767C98.1601 41.3159 95.9574 40.8981 93.299 40.7462C87.5265 40.3285 83.7288 38.3537 83.6529 32.5812C83.425 21.1121 104.084 21.1121 103.933 32.5812C101.54 32.5812 99.7931 32.5812 97.4765 32.5812C97.4765 29.0493 90.3368 29.3531 90.109 32.5052C89.9571 34.518 91.9319 34.9357 94.3244 35.2016C99.6032 35.7712 104.768 36.5687 104.768 43.2147C104.768 54.38 83.1212 54.5698 83.2731 42.8729C85.5517 42.8729 87.5265 42.8729 89.8431 42.8729ZM126.956 51L125.399 47.658H114.917L113.36 51H106.714V50.0126L118.677 24.0743H121.601L133.602 50.0126V51H126.956ZM123.196 41.8475L120.12 34.8598L117.12 41.8475H123.196ZM144.043 51C141.688 51 139.409 51 137.131 51V24.4161C139.409 24.4161 141.688 24.4161 144.043 24.4161V34.48H144.536C151.334 34.48 150.992 29.3911 150.992 24.4161C153.309 24.4161 155.625 24.4161 157.98 24.4161C157.98 29.8468 158.132 34.8598 152.853 38.2397L160.069 49.9366V51H152.511L146.663 40.7082C145.751 40.8601 144.916 40.8601 144.043 40.8601V51ZM167.892 30.4924H161.36C161.36 28.4417 161.36 26.4289 161.36 24.4161H181.108C181.108 26.4289 181.108 28.4417 181.108 30.4924H174.614V51C172.374 51 170.133 51 167.892 51V30.4924ZM193.205 45.0376H196.585C196.585 47.2783 196.585 48.6834 196.585 51C192.066 51 187.622 51 183.103 51C183.103 48.6834 183.103 47.2783 183.103 45.0376H186.483V30.3405H183.369C183.369 28.0619 183.369 26.6568 183.369 24.4161C187.698 24.4161 191.99 24.4161 196.319 24.4161C196.319 26.6568 196.319 28.0619 196.319 30.3405H193.205V45.0376Z" fill="#E9E9E9"/>
<path d="M103.705 62.4161V80.1514C103.705 85.9618 98.9196 89.3038 93.4509 89.3038C87.9823 89.3038 83.501 85.9618 83.501 80.1514V76.6955C85.5897 76.6955 87.7924 76.6955 89.9191 76.6955V80.0374C89.9191 82.1262 91.4761 83.2275 93.4509 83.2275C95.4257 83.2275 96.7549 82.1641 96.7549 80.0374V68.4545H92.8813C92.8813 66.3657 92.8813 64.3909 92.8813 62.4161H103.705ZM127.179 89L125.622 85.658H115.14L113.583 89H106.937V88.0126L118.9 62.0743H121.824L133.825 88.0126V89H127.179ZM123.419 79.8475L120.343 72.8598L117.343 79.8475H123.419ZM149.344 62.8339C150.408 62.8339 151.167 62.8339 152.231 62.8339L156.75 76.9613H156.864L158.041 72.442L161.421 62.4161H168.181V63.4415L158.953 89.2658H155.041L150.788 76.4676H150.674L146.42 89.2658H142.661L133.318 63.4415V62.4161H140.192L143.61 72.442L144.787 76.9613H144.901L149.344 62.8339ZM187.89 89L186.333 85.658H175.851L174.294 89H167.648V88.0126L179.611 62.0743H182.535L194.536 88.0126V89H187.89ZM184.13 79.8475L181.054 72.8598L178.054 79.8475H184.13ZM215.268 79.5817L220.471 88.0126V89H212.876L208.318 81.1767H204.786V89C202.508 89 200.191 89 197.989 89C197.989 80.1514 197.989 71.3027 197.989 62.4161C201.824 62.4161 205.774 62.4161 209.647 62.4161C220.091 62.4541 221.99 75.0245 215.268 79.5817ZM209.647 75.1384C213.331 75.1384 213.521 68.5304 209.647 68.4924C208.052 68.4545 206.381 68.4924 204.786 68.4924C204.786 70.6571 204.786 73.0117 204.786 75.1384H209.647ZM242.704 89L241.147 85.658H230.666L229.109 89H222.463V88.0126L234.425 62.0743H237.35L249.35 88.0126V89H242.704ZM238.945 79.8475L235.868 72.8598L232.868 79.8475H238.945Z" fill="#E9E9E9"/>
<defs>
<clipPath id="clip0_17964_18821">
<rect width="64.6294" height="121.314" fill="white" transform="translate(0.245972 0.343018)"/>
</clipPath>
</defs>
</svg>
