<svg width="40" height="40" viewBox="0 0 40 40" fill="none" xmlns="http://www.w3.org/2000/svg">
<rect width="40" height="40" rx="20" fill="#E6F6EC"/>
<g clip-path="url(#clip0_17999_424931)">
<path d="M21.8922 24.2041C21.707 22.8075 21.1453 21.4876 20.2673 20.3859C19.3159 19.0702 18.1564 17.9182 16.8346 16.9753C16.2521 16.5643 15.6456 16.1884 15.0184 15.8495L14.8409 15.758C14.6386 15.8112 14.4488 15.9037 14.2822 16.0302C14.1157 16.1568 13.9758 16.3149 13.8704 16.4956C13.7608 16.716 13.7047 16.9592 13.7068 17.2054C13.6982 17.5382 13.7726 17.8679 13.9231 18.1648C17.6415 20.1557 19.9706 22.704 20.6167 24.5423C20.8746 25.2716 21.1962 26.8188 20.9605 28.0416C20.8985 28.3866 20.7874 28.7209 20.6306 29.0343C20.3786 29.4993 20.0364 29.9094 19.624 30.2405C19.8538 30.0968 20.07 29.9325 20.2701 29.7497C22.2998 27.8586 21.9532 24.681 21.8922 24.2041ZM15.2125 18.1038C15.077 18.1038 14.9446 18.0637 14.832 17.9884C14.7193 17.9132 14.6315 17.8062 14.5797 17.681C14.5279 17.5559 14.5143 17.4182 14.5407 17.2853C14.5672 17.1525 14.6324 17.0304 14.7282 16.9347C14.824 16.8389 14.946 16.7736 15.0788 16.7472C15.2117 16.7208 15.3494 16.7344 15.4746 16.7862C15.5997 16.838 15.7067 16.9258 15.7819 17.0384C15.8572 17.1511 15.8973 17.2835 15.8973 17.4189C15.8966 17.6004 15.8242 17.7741 15.6959 17.9024C15.5677 18.0307 15.3939 18.1031 15.2125 18.1038Z" fill="#1E88E5"/>
<path d="M22.4053 28.8439L19.8708 30.0536C23.122 26.8024 22.5782 20.4916 14.8594 15.8834C14.8251 15.8593 14.8279 15.8286 14.8309 15.798L14.8018 15.7106L18.3732 17.093L21.9445 19.3971L22.4053 28.8439Z" fill="#1976D2"/>
<path d="M25.5107 18.4227C25.6406 18.3371 25.7492 18.2228 25.828 18.0887C25.9068 17.9546 25.9539 17.8042 25.9655 17.6491C25.9849 17.4105 25.9216 17.1726 25.7863 16.9751C25.651 16.7777 25.4519 16.6329 25.2224 16.5649C25.1522 16.5426 25.0796 16.5286 25.0061 16.5233C24.8691 16.5113 24.7312 16.5266 24.6002 16.5685C24.4693 16.6104 24.3481 16.678 24.2436 16.7673C24.4357 16.5921 24.5538 16.3501 24.5735 16.0907C24.5895 15.8864 24.5452 15.6818 24.4461 15.5024C24.347 15.3229 24.1974 15.1765 24.0159 15.0811C23.8344 14.9858 23.629 14.9458 23.425 14.9661C23.221 14.9863 23.0274 15.066 22.8682 15.1951C22.9921 15.057 23.0768 14.8883 23.1137 14.7065C23.1506 14.5247 23.1384 14.3363 23.0782 14.1609C23.018 13.9854 22.9121 13.8291 22.7713 13.7083C22.6306 13.5874 22.4602 13.5062 22.2776 13.4732L22.1723 13.4593C21.4421 13.3564 20.7411 13.104 20.113 12.7178C19.4849 12.3315 18.9432 11.8199 18.5219 11.2148C18.1005 10.6097 17.8086 9.92422 17.6642 9.20114C17.5199 8.47807 17.5263 7.733 17.683 7.01251C16.6025 7.45566 15.6659 8.18957 14.9772 9.13278C14.2886 10.076 13.8747 11.1916 13.7817 12.3558C13.7581 12.6649 13.7581 12.9755 13.7817 13.2846C13.7955 13.6001 13.8373 13.9138 13.9065 14.2219C14.0698 14.8106 14.3922 15.3431 14.8381 15.7608L15.0156 15.8523C15.6428 16.1911 16.2493 16.567 16.8318 16.9781C18.1535 17.9166 19.3139 19.0638 20.2673 20.3748C20.8912 21.312 21.6731 22.4738 21.8922 24.1929C22.05 25.8209 21.6869 27.4569 20.8552 28.8652C20.5485 29.4057 20.1342 29.8775 19.6379 30.2516C18.9821 30.7349 18.1899 30.998 17.3753 31.003C16.8632 30.9977 16.3575 30.8882 15.889 30.6814C15.361 30.4574 14.9045 30.093 14.5692 29.6277C13.4805 28.2118 13.6996 26.2823 15.0184 24.7115C14.4611 25.2031 14.0148 25.8078 13.7093 26.4852C13.4038 27.1627 13.2461 27.8974 13.2465 28.6406C13.2641 29.319 13.4167 29.9871 13.6952 30.606C13.9736 31.2249 14.3726 31.7821 14.8686 32.2452C15.2159 32.5556 15.6029 32.8185 16.0193 33.0272C16.4857 33.2612 16.9881 33.4149 17.5056 33.4819C17.805 33.5131 18.1065 33.5178 18.4068 33.4958C18.9358 33.4695 19.4622 33.4046 19.9817 33.3017C21.3297 32.9793 22.6008 32.3942 23.7223 31.5798C24.7826 30.7621 25.6555 29.7268 26.282 28.5435C26.9086 27.3602 27.2744 26.0563 27.3547 24.7198C27.4048 23.4511 27.2167 22.1842 26.8001 20.9848C26.4899 20.0756 26.0561 19.2135 25.5107 18.4227ZM22.0419 15.0537C21.9677 15.046 21.8958 15.0233 21.8305 14.9871C21.7652 14.9509 21.7079 14.9019 21.6621 14.843C21.5758 14.7371 21.5341 14.6019 21.5456 14.4659C21.5528 14.3555 21.5929 14.2499 21.6606 14.1625C21.7283 14.0751 21.8206 14.0099 21.9256 13.9753C22.0307 13.9407 22.1436 13.9384 22.25 13.9685C22.3564 13.9986 22.4514 14.0598 22.5227 14.1443C22.594 14.2288 22.6385 14.3327 22.6503 14.4426C22.6622 14.5526 22.6409 14.6635 22.5892 14.7613C22.5376 14.859 22.4578 14.9391 22.3603 14.9912C22.2628 15.0433 22.1519 15.0651 22.0419 15.0537ZM23.8859 16.4401C23.8025 16.508 23.7013 16.5502 23.5945 16.5616C23.4876 16.573 23.3798 16.5531 23.284 16.5043C23.1883 16.4556 23.1087 16.38 23.0551 16.2869C23.0015 16.1938 22.976 16.0871 22.9819 15.9798C22.987 15.8942 23.0137 15.8111 23.0596 15.7386C23.1263 15.637 23.2245 15.56 23.3392 15.5197C23.4539 15.4794 23.5786 15.4778 23.6943 15.5153C23.8099 15.5528 23.91 15.6273 23.9792 15.7272C24.0484 15.8272 24.0828 15.9471 24.0772 16.0686C24.0602 16.2067 23.9919 16.3334 23.8859 16.4235V16.4401ZM25.239 18.0262C25.1351 18.0894 25.0133 18.1166 24.8924 18.1038C24.7482 18.0911 24.6147 18.0225 24.5204 17.9126C24.4261 17.8028 24.3785 17.6604 24.3877 17.516C24.3929 17.443 24.413 17.3718 24.4469 17.3069C24.4807 17.242 24.5276 17.1848 24.5846 17.1389C24.6639 17.0733 24.7599 17.031 24.8619 17.0169C24.8978 17.0127 24.9341 17.0127 24.97 17.0169C25.1142 17.0303 25.2475 17.0996 25.3413 17.2099C25.4351 17.3203 25.482 17.463 25.4719 17.6075C25.4645 17.6874 25.4398 17.7647 25.3996 17.8341C25.3594 17.9035 25.3046 17.9634 25.239 18.0095V18.0262Z" fill="#16A75C"/>
<path d="M18.6612 31.3209L17.5092 31.0329C23.6041 29.8397 26.682 25.2398 25.5159 18.4179L25.7463 18.9939L26.6103 22.1621L25.8615 26.8855L22.0598 30.572L18.6612 31.3209Z" fill="#069550"/>
<path d="M25.5107 18.4227C25.7242 19.0133 27.1744 23.2058 24.7926 26.8437C22.7324 30.002 18.4289 31.7849 15.889 30.6675C15.3612 30.4432 14.9048 30.0788 14.5692 29.6138C14.1917 29.0801 13.7765 28.0335 13.9531 27.6802C13.957 26.7183 14.3555 25.681 15.0184 24.7114C14.4611 25.2031 14.0148 25.8077 13.7093 26.4852C13.4038 27.1626 13.2461 27.8974 13.2465 28.6405C13.2641 29.319 13.4167 29.9871 13.6952 30.606C13.9736 31.2248 14.3726 31.7821 14.8686 32.2452C15.2159 32.5556 15.6029 32.8185 16.0193 33.0272C16.4856 33.2615 16.9881 33.4152 17.5056 33.4819C17.805 33.5131 18.1065 33.5177 18.4068 33.4958C18.9358 33.4695 19.4622 33.4046 19.9817 33.3017C21.3297 32.9793 22.6008 32.3941 23.7223 31.5797C24.7826 30.7621 25.6555 29.7268 26.282 28.5435C26.9086 27.3602 27.2744 26.0563 27.3547 24.7198C27.4048 23.451 27.2167 22.1842 26.8001 20.9848C26.4899 20.0756 26.0561 19.2135 25.5107 18.4227Z" fill="#FFC800"/>
<path d="M18.4095 23.9268V24.0294C18.5177 24.0294 18.6036 24.0654 18.6036 24.107C18.6036 24.1486 18.5205 24.1791 18.4151 24.1819V24.29C18.5205 24.29 18.6036 24.3288 18.6036 24.3677C18.6036 24.4065 18.5232 24.437 18.4206 24.4425V24.5507C18.5232 24.5507 18.6009 24.5895 18.6009 24.6283C18.6009 24.6671 18.5232 24.6976 18.4234 24.7032V24.8113C18.5232 24.8113 18.5981 24.8501 18.5981 24.8889C18.5981 24.9278 18.5232 24.9555 18.4262 24.9638V25.0719C18.5232 25.0719 18.5953 25.1108 18.5953 25.1496C18.5953 25.1884 18.5232 25.2161 18.429 25.2245V25.5017C18.4282 25.5174 18.4215 25.5322 18.4101 25.5431C18.3988 25.5539 18.3837 25.56 18.368 25.56H18.4484H18.4761L18.9364 25.7236C18.9584 25.7281 18.9778 25.741 18.9904 25.7596C19.003 25.7782 19.0078 25.8009 19.0038 25.823C18.9998 25.8451 18.9873 25.8648 18.969 25.8778C18.9507 25.8908 18.9281 25.8962 18.9059 25.8927H17.8273C17.8051 25.8962 17.7824 25.8908 17.7641 25.8778C17.7458 25.8648 17.7333 25.8451 17.7293 25.823C17.7254 25.8009 17.7302 25.7782 17.7428 25.7596C17.7554 25.741 17.7747 25.7281 17.7967 25.7236L18.2376 25.5905H18.2681H18.379C18.3707 25.5909 18.3623 25.5895 18.3545 25.5864C18.3467 25.5834 18.3397 25.5786 18.3339 25.5726C18.3281 25.5665 18.3237 25.5593 18.321 25.5514C18.3182 25.5434 18.3172 25.535 18.318 25.5267V25.2494C18.2238 25.2494 18.1517 25.2106 18.1517 25.1745C18.1517 25.1385 18.2238 25.1052 18.3208 25.0969V24.9888C18.2238 24.9888 18.1489 24.9499 18.1489 24.9139C18.1489 24.8779 18.2238 24.8446 18.3236 24.8363V24.7281C18.2238 24.7281 18.1461 24.6893 18.1461 24.6533C18.1461 24.6172 18.2238 24.5812 18.3264 24.5756V24.4536C18.2238 24.4536 18.1434 24.4148 18.1434 24.3787C18.1434 24.3427 18.2265 24.3039 18.3319 24.3011V24.2041C18.2265 24.2041 18.1434 24.168 18.1434 24.1292C18.1434 24.0904 18.2293 24.0543 18.3375 24.0515V23.9268H18.3735H18.3541L18.1655 23.8796C17.9158 23.8258 17.6612 23.798 17.4058 23.7964C16.5999 23.7979 15.8178 24.0694 15.1844 24.5675C14.5509 25.0656 14.1026 25.7616 13.9111 26.5443C13.7195 27.3271 13.7958 28.1514 14.1277 28.8858C14.4596 29.6201 15.028 30.222 15.7421 30.5954V29.2866C15.7428 29.2751 15.7413 29.2636 15.7374 29.2527C15.7336 29.2418 15.7277 29.2318 15.7199 29.2232C15.7121 29.2147 15.7027 29.2078 15.6923 29.203C15.6818 29.1982 15.6704 29.1955 15.6589 29.1951H14.9601C14.9352 29.1948 14.9114 29.1849 14.8936 29.1674L13.937 28.086C13.9258 28.0732 13.9186 28.0574 13.9161 28.0406C13.9137 28.0238 13.9161 28.0067 13.9231 27.9912C13.9301 27.9757 13.9414 27.9626 13.9557 27.9533C13.9699 27.9441 13.9865 27.9391 14.0035 27.9391H20.9356C20.9501 27.935 20.9654 27.935 20.98 27.9391C21.0099 27.7557 21.0247 27.5702 21.0243 27.3845C21.0225 26.6025 20.7665 25.8424 20.2948 25.2186C19.8231 24.5949 19.1615 24.1415 18.4095 23.9268ZM16.5739 26.0979H20.1786C20.1953 26.0972 20.2118 26.1013 20.2262 26.1099C20.2406 26.1184 20.2521 26.1309 20.2595 26.1459C20.2669 26.1609 20.2697 26.1778 20.2676 26.1943C20.2656 26.2109 20.2587 26.2266 20.2479 26.2393L19.9706 26.6053C19.9573 26.6235 19.9376 26.6358 19.9154 26.64C19.8933 26.6441 19.8704 26.6396 19.8514 26.6275L19.7821 26.5804C19.7666 26.5764 19.7504 26.5764 19.735 26.5804H17.0703C17.0567 26.5763 17.0422 26.5763 17.0287 26.5804L16.9205 26.6386C16.9024 26.6477 16.8818 26.6508 16.8619 26.6473C16.8419 26.6438 16.8236 26.6339 16.8096 26.6192L16.4991 26.2449C16.4873 26.2315 16.4799 26.215 16.4776 26.1973C16.4754 26.1797 16.4786 26.1618 16.4866 26.146C16.4947 26.1301 16.5073 26.1171 16.5229 26.1085C16.5385 26.0999 16.5562 26.0962 16.5739 26.0979ZM20.8857 27.4011H16.3105C16.2951 27.397 16.2788 27.397 16.2634 27.4011L15.9861 27.5647C15.9708 27.576 15.9524 27.5821 15.9334 27.5821C15.9144 27.5821 15.896 27.576 15.8807 27.5647L15.3927 27.0822C15.3802 27.0692 15.372 27.0526 15.3692 27.0348C15.3663 27.017 15.369 26.9987 15.3769 26.9824C15.3847 26.9661 15.3973 26.9526 15.413 26.9437C15.4287 26.9348 15.4468 26.9309 15.4648 26.9325H20.7332C20.75 26.9321 20.7666 26.9365 20.7809 26.9454C20.7952 26.9543 20.8065 26.9671 20.8136 26.9824L20.9522 27.2763C20.9587 27.2891 20.9619 27.3033 20.9615 27.3176C20.9611 27.3319 20.9572 27.3459 20.95 27.3583C20.9429 27.3707 20.9327 27.3811 20.9205 27.3886C20.9083 27.3961 20.8944 27.4004 20.8801 27.4011H20.8857ZM16.3743 28.6406C16.3508 28.6406 16.3282 28.6499 16.3115 28.6666C16.2949 28.6832 16.2856 28.7058 16.2856 28.7293V30.8117C16.6493 30.9335 17.0305 30.9953 17.4141 30.9947C18.3288 30.9966 19.21 30.6506 19.8791 30.027V29.1951C19.8791 29.1716 19.8885 29.149 19.9051 29.1324C19.9218 29.1158 19.9443 29.1064 19.9679 29.1064H20.5391C20.5535 29.1021 20.569 29.1021 20.5834 29.1064C20.6648 28.9564 20.7352 28.8007 20.7942 28.6406H16.3743ZM17.7829 30.2322C17.7833 30.2437 17.7813 30.2552 17.7772 30.2659C17.773 30.2767 17.7667 30.2865 17.7587 30.2948C17.7507 30.303 17.7411 30.3096 17.7305 30.3141C17.7199 30.3186 17.7085 30.3209 17.6969 30.3209H16.951C16.9275 30.3209 16.9049 30.3116 16.8883 30.2949C16.8717 30.2783 16.8623 30.2557 16.8623 30.2322V29.1951C16.8623 29.1716 16.8717 29.149 16.8883 29.1324C16.9049 29.1158 16.9275 29.1064 16.951 29.1064H17.6969C17.7085 29.1064 17.7199 29.1087 17.7305 29.1132C17.7411 29.1177 17.7507 29.1243 17.7587 29.1326C17.7667 29.1408 17.773 29.1506 17.7772 29.1614C17.7813 29.1721 17.7833 29.1836 17.7829 29.1951V30.2322ZM19.3079 30.2322C19.3079 30.2557 19.2986 30.2783 19.282 30.2949C19.2653 30.3116 19.2427 30.3209 19.2192 30.3209H18.4428C18.4193 30.3209 18.3967 30.3116 18.3801 30.2949C18.3634 30.2783 18.3541 30.2557 18.3541 30.2322V29.1951C18.3541 29.1716 18.3634 29.149 18.3801 29.1324C18.3967 29.1158 18.4193 29.1064 18.4428 29.1064H19.2192C19.2427 29.1064 19.2653 29.1158 19.282 29.1324C19.2986 29.149 19.3079 29.1716 19.3079 29.1951V30.2322Z" fill="#1E88E5"/>
</g>
<defs>
<clipPath id="clip0_17999_424931">
<rect width="14.1161" height="26.4969" fill="white" transform="translate(13.2465 7.01251)"/>
</clipPath>
</defs>
</svg>
