<svg width="250" height="122" viewBox="0 0 250 122" fill="none" xmlns="http://www.w3.org/2000/svg">
<g clip-path="url(#clip0_17964_29964)">
<path d="M39.8296 79.0531C38.9818 72.659 36.4101 66.6161 32.3902 61.5718C28.034 55.5479 22.7256 50.2738 16.6736 45.9567C14.0067 44.0749 11.23 42.3538 8.35822 40.8025L7.54572 40.3835C6.61953 40.6269 5.75039 41.0503 4.98797 41.6298C4.22555 42.2092 3.58482 42.9332 3.1024 43.7605C2.60039 44.7697 2.34375 45.8833 2.35339 47.0104C2.31416 48.5341 2.65445 50.0435 3.34361 51.403C20.3679 60.5181 31.0318 72.185 33.9898 80.6019C35.1705 83.9408 36.6431 91.0247 35.564 96.6233C35.2801 98.2026 34.7714 99.7332 34.0533 101.168C32.8997 103.297 31.333 105.175 29.4449 106.691C30.4969 106.033 31.487 105.281 32.4029 104.444C41.6958 95.7854 40.1089 81.2367 39.8296 79.0531ZM9.24688 51.1237C8.62669 51.1237 8.02044 50.9398 7.50477 50.5952C6.9891 50.2507 6.58719 49.7609 6.34986 49.188C6.11252 48.615 6.05043 47.9845 6.17142 47.3762C6.29241 46.768 6.59106 46.2092 7.0296 45.7707C7.46813 45.3321 8.02686 45.0335 8.63513 44.9125C9.2434 44.7915 9.87389 44.8536 10.4469 45.0909C11.0198 45.3283 11.5096 45.7302 11.8541 46.2459C12.1987 46.7615 12.3826 47.3678 12.3826 47.988C12.3793 48.8186 12.0478 49.6142 11.4605 50.2016C10.8731 50.7889 10.0775 51.1203 9.24688 51.1237Z" fill="#1E88E5"/>
<path d="M42.1791 100.296L30.575 105.835C45.4602 90.9496 42.9702 62.0558 7.63055 40.9574C7.47343 40.8471 7.48616 40.7068 7.50019 40.5664L7.36682 40.1663L23.718 46.4958L40.0692 57.045L42.1791 100.296Z" fill="#1976D2"/>
<path d="M56.3969 52.5835C56.9915 52.1916 57.4884 51.6685 57.8494 51.0544C58.2103 50.4404 58.4256 49.7518 58.4789 49.0416C58.5677 47.9494 58.278 46.8598 57.6585 45.956C57.0389 45.0521 56.1273 44.3889 55.0766 44.0777C54.7551 43.9755 54.4228 43.9115 54.0863 43.8873C53.4594 43.8322 52.8277 43.9026 52.2283 44.0944C51.6288 44.2862 51.0736 44.5956 50.5951 45.0045C51.4751 44.2022 52.0155 43.0942 52.1059 41.9069C52.179 40.9712 51.9762 40.0345 51.5224 39.2129C51.0686 38.3914 50.3839 37.7209 49.553 37.2845C48.7221 36.848 47.7814 36.6649 46.8474 36.7576C45.9135 36.8504 45.0272 37.215 44.2983 37.8063C44.8653 37.1739 45.2534 36.4017 45.4223 35.5693C45.5913 34.7369 45.5351 33.8745 45.2595 33.071C44.9839 32.2676 44.499 31.5522 43.8547 30.9988C43.2104 30.4453 42.43 30.0738 41.5942 29.9226L41.1118 29.8591C37.769 29.3879 34.5594 28.232 31.6837 26.4638C28.808 24.6956 26.328 22.3531 24.3989 19.5827C22.4698 16.8124 21.133 13.6738 20.4722 10.3633C19.8113 7.05274 19.8406 3.64146 20.5583 0.342773C15.6112 2.37168 11.323 5.73184 8.16993 10.0503C5.01684 14.3687 3.12214 19.4764 2.69615 24.8064C2.5884 26.222 2.5884 27.6437 2.69615 29.0593C2.75954 30.5037 2.95072 31.9396 3.26743 33.3503C4.01539 36.046 5.49119 38.4837 7.53302 40.3961L8.34552 40.8151C11.2173 42.3664 13.994 44.0875 16.6609 45.9693C22.7124 50.2662 28.0249 55.5186 32.3902 61.521C35.2466 65.8119 38.8267 71.1312 39.8296 79.0022C40.5522 86.4556 38.8897 93.9459 35.0816 100.394C33.6774 102.868 31.7806 105.029 29.5084 106.741C26.5057 108.954 22.8791 110.159 19.1491 110.182C16.8045 110.157 14.4894 109.656 12.3445 108.709C9.92696 107.684 7.83685 106.015 6.30159 103.885C1.31707 97.4022 2.32023 88.568 8.35821 81.3762C5.80667 83.6272 3.7636 86.3955 2.36488 89.4972C0.966162 92.5989 0.243848 95.9629 0.245976 99.3653C0.32668 102.471 1.02492 105.53 2.29999 108.364C3.57506 111.197 5.40145 113.749 7.67267 115.869C9.26286 117.29 11.0345 118.494 12.9412 119.449C15.0763 120.52 17.3768 121.224 19.7458 121.531C21.1166 121.674 22.4973 121.695 23.8717 121.595C26.2938 121.474 28.7038 121.177 31.0826 120.706C37.2542 119.23 43.0739 116.551 48.2084 112.822C53.0632 109.079 57.0595 104.339 59.9283 98.921C62.797 93.5032 64.4715 87.5337 64.8392 81.4143C65.0685 75.6056 64.2073 69.8054 62.3001 64.3139C60.8801 60.1514 58.8937 56.2042 56.3969 52.5835ZM40.5152 37.1589C40.1752 37.1234 39.846 37.0196 39.5471 36.8538C39.2483 36.688 38.986 36.4636 38.7759 36.194C38.3812 35.7093 38.19 35.0903 38.2427 34.4675C38.2758 33.9623 38.4591 33.4785 38.7691 33.0783C39.0792 32.6781 39.5018 32.3797 39.9826 32.2215C40.4635 32.0632 40.9807 32.0523 41.4678 32.1902C41.955 32.3281 42.3897 32.6085 42.7163 32.9953C43.0429 33.3821 43.2465 33.8577 43.3007 34.361C43.355 34.8644 43.2576 35.3724 43.021 35.82C42.7844 36.2675 42.4194 36.6341 41.9729 36.8727C41.5264 37.1113 41.0187 37.2109 40.5152 37.1589ZM48.9575 43.5065C48.576 43.8171 48.1125 44.0103 47.6233 44.0625C47.1342 44.1146 46.6404 44.0236 46.202 43.8003C45.7636 43.5771 45.3995 43.2313 45.1539 42.805C44.9084 42.3787 44.792 41.8903 44.8188 41.3991C44.842 41.0068 44.9643 40.6267 45.1743 40.2946C45.4797 39.8292 45.9295 39.4771 46.4545 39.2924C46.9796 39.1077 47.5508 39.1006 48.0803 39.2723C48.6097 39.444 49.0681 39.7849 49.3849 40.2425C49.7017 40.7002 49.8593 41.2493 49.8334 41.8053C49.7557 42.4377 49.443 43.0177 48.9575 43.4303V43.5065ZM55.1527 50.7681C54.677 51.0574 54.1195 51.1823 53.5658 51.1236C52.9056 51.0653 52.2944 50.7511 51.8627 50.2483C51.4309 49.7454 51.213 49.0936 51.2553 48.4322C51.2788 48.0979 51.3709 47.7721 51.526 47.475C51.6811 47.1779 51.8958 46.916 52.1567 46.7057C52.5198 46.4052 52.9594 46.2118 53.4262 46.1471C53.5907 46.1278 53.7568 46.1278 53.9213 46.1471C54.5816 46.2085 55.1916 46.5257 55.621 47.0311C56.0504 47.5364 56.2651 48.1896 56.2191 48.8511C56.1851 49.2168 56.0721 49.5708 55.888 49.8886C55.7039 50.2064 55.453 50.4805 55.1527 50.6919V50.7681Z" fill="#16A75C"/>
<path d="M25.0367 111.637L19.7621 110.318C47.6672 104.856 61.7594 83.7949 56.4204 52.5615L57.4753 55.1988L61.4313 69.7039L58.0028 91.3297L40.5967 108.208L25.0367 111.637Z" fill="#069550"/>
<path d="M56.3969 52.5835C57.3744 55.2876 64.014 74.4827 53.1088 91.1388C43.6763 105.599 23.9733 113.762 12.3445 108.646C9.92796 107.619 7.83827 105.95 6.30159 103.821C4.57334 101.378 2.67228 96.5862 3.48105 94.9687C3.49872 90.5643 5.32349 85.8155 8.35821 81.3762C5.80667 83.6271 3.7636 86.3955 2.36488 89.4972C0.966162 92.5989 0.243848 95.9628 0.245976 99.3653C0.32668 102.471 1.02492 105.53 2.29999 108.364C3.57506 111.197 5.40145 113.749 7.67267 115.869C9.26286 117.29 11.0345 118.494 12.9412 119.449C15.0757 120.522 17.3764 121.226 19.7458 121.531C21.1166 121.674 22.4973 121.695 23.8717 121.595C26.2938 121.474 28.7038 121.177 31.0826 120.706C37.2542 119.23 43.0739 116.551 48.2084 112.822C53.0632 109.079 57.0595 104.339 59.9283 98.9209C62.797 93.5032 64.4715 87.5336 64.8392 81.4143C65.0685 75.6056 64.2073 69.8053 62.3001 64.3139C60.8801 60.1513 58.8937 56.2041 56.3969 52.5835Z" fill="#FFC800"/>
<path d="M23.8845 77.7834V78.2532C24.3796 78.2532 24.7731 78.4182 24.7731 78.6086C24.7731 78.7991 24.3923 78.9387 23.9099 78.9514V79.4465C24.3923 79.4465 24.7731 79.6242 24.7731 79.802C24.7731 79.9797 24.405 80.1194 23.9352 80.1448V80.6399C24.405 80.6399 24.7604 80.8176 24.7604 80.9953C24.7604 81.1731 24.405 81.3127 23.9479 81.3381V81.8332C24.405 81.8332 24.7477 82.0109 24.7477 82.1887C24.7477 82.3664 24.405 82.4934 23.9606 82.5314V83.0266C24.405 83.0266 24.735 83.2043 24.735 83.382C24.735 83.5598 24.405 83.6867 23.9733 83.7248V84.9943C23.9701 85.0662 23.9392 85.134 23.8872 85.1837C23.8351 85.2333 23.766 85.261 23.694 85.2609H24.0622H24.1891L26.2966 86.0099C26.3973 86.0305 26.486 86.0897 26.5437 86.1748C26.6014 86.2599 26.6234 86.3642 26.6052 86.4654C26.587 86.5666 26.5298 86.6566 26.446 86.7162C26.3623 86.7758 26.2585 86.8003 26.1569 86.7843H21.2185C21.1169 86.8003 21.0131 86.7758 20.9293 86.7162C20.8456 86.6566 20.7884 86.5666 20.7702 86.4654C20.7519 86.3642 20.774 86.2599 20.8317 86.1748C20.8894 86.0897 20.9781 86.0305 21.0788 86.0099L23.0974 85.4006H23.237H23.7448C23.7065 85.4026 23.6682 85.3963 23.6326 85.3821C23.5969 85.368 23.5647 85.3463 23.5382 85.3186C23.5117 85.2909 23.4915 85.2578 23.4789 85.2215C23.4664 85.1853 23.4618 85.1467 23.4655 85.1086V83.8391C23.0339 83.8391 22.7038 83.6613 22.7038 83.4963C22.7038 83.3312 23.0339 83.1789 23.4782 83.1408V82.6457C23.0339 82.6457 22.6911 82.468 22.6911 82.3029C22.6911 82.1379 23.0339 81.9856 23.4909 81.9475V81.4524C23.0339 81.4524 22.6784 81.2746 22.6784 81.1096C22.6784 80.9445 23.0339 80.7795 23.5036 80.7541V80.1955C23.0339 80.1955 22.6657 80.0178 22.6657 79.8528C22.6657 79.6877 23.0466 79.51 23.529 79.4973V79.053C23.0466 79.053 22.6657 78.8879 22.6657 78.7102C22.6657 78.5325 23.0593 78.3674 23.5544 78.3547V77.7834H23.7194H23.6306L22.7673 77.5676C21.624 77.3214 20.4583 77.1937 19.2888 77.1868C15.5993 77.1936 12.0185 78.4365 9.11824 80.717C6.21796 82.9975 4.16546 86.184 3.28853 89.7678C2.41159 93.3515 2.76079 97.1258 4.28036 100.488C5.79993 103.85 8.40222 106.606 11.6717 108.315V102.323C11.6751 102.271 11.6679 102.218 11.6505 102.168C11.633 102.118 11.6057 102.072 11.5702 102.033C11.5346 101.994 11.4916 101.962 11.4436 101.94C11.3956 101.918 11.3436 101.906 11.2908 101.904H8.09163C7.97754 101.903 7.86844 101.857 7.78695 101.777L3.40711 96.8262C3.35606 96.7676 3.32293 96.6954 3.31167 96.6185C3.3004 96.5415 3.31147 96.4629 3.34356 96.3921C3.37565 96.3212 3.42741 96.261 3.49268 96.2187C3.55796 96.1764 3.634 96.1538 3.71179 96.1534H35.4498C35.5163 96.135 35.5865 96.135 35.6529 96.1534C35.79 95.314 35.8579 94.4648 35.856 93.6144C35.8477 90.0342 34.6754 86.5538 32.516 83.6982C30.3565 80.8426 27.327 78.7666 23.8845 77.7834ZM15.4802 87.7238H31.984C32.0604 87.7205 32.1362 87.7395 32.202 87.7786C32.2677 87.8177 32.3207 87.8751 32.3544 87.9438C32.3881 88.0124 32.401 88.0895 32.3916 88.1654C32.3822 88.2413 32.3508 88.3128 32.3014 88.3712L31.0319 90.047C30.9707 90.1301 30.8803 90.1867 30.779 90.2056C30.6776 90.2245 30.5729 90.2041 30.486 90.1486L30.1686 89.9328C30.0978 89.9145 30.0236 89.9145 29.9528 89.9328H17.7527C17.6906 89.914 17.6244 89.914 17.5623 89.9328L17.0671 90.1993C16.9842 90.2411 16.89 90.2551 16.7985 90.2391C16.707 90.223 16.6232 90.178 16.5593 90.1105L15.1375 88.3966C15.0837 88.3355 15.0496 88.2597 15.0394 88.179C15.0292 88.0983 15.0435 88.0164 15.0805 87.9439C15.1174 87.8714 15.1753 87.8116 15.2465 87.7724C15.3178 87.7332 15.3992 87.7162 15.4802 87.7238ZM35.2213 93.6905H14.2742C14.2035 93.6717 14.1291 93.6717 14.0584 93.6905L12.7889 94.4396C12.719 94.4911 12.6345 94.5189 12.5476 94.5189C12.4608 94.5189 12.3763 94.4911 12.3064 94.4396L10.0721 92.2306C10.0149 92.1708 9.97727 92.095 9.9643 92.0133C9.95133 91.9316 9.9636 91.8479 9.99949 91.7734C10.0354 91.6989 10.0932 91.6371 10.1651 91.5963C10.2371 91.5554 10.3198 91.5376 10.4022 91.545H34.523C34.6 91.5429 34.676 91.5635 34.7414 91.6041C34.8068 91.6447 34.8589 91.7036 34.8912 91.7736L35.526 93.1192C35.5557 93.1777 35.5703 93.2426 35.5685 93.3081C35.5668 93.3736 35.5487 93.4377 35.5159 93.4944C35.4831 93.5512 35.4366 93.5988 35.3808 93.6331C35.3249 93.6673 35.2613 93.6871 35.1959 93.6905H35.2213ZM14.5662 99.3653C14.4584 99.3653 14.3551 99.4081 14.2789 99.4843C14.2027 99.5605 14.1599 99.6638 14.1599 99.7715V109.306C15.8254 109.863 17.5705 110.146 19.3269 110.144C23.5148 110.152 27.5493 108.568 30.6129 105.713V101.904C30.6129 101.797 30.6557 101.693 30.7319 101.617C30.8081 101.541 30.9114 101.498 31.0192 101.498H33.6344C33.7006 101.478 33.7712 101.478 33.8375 101.498C34.2099 100.811 34.5323 100.098 34.8023 99.3653H14.5662ZM21.0153 106.652C21.0171 106.705 21.0081 106.758 20.9891 106.807C20.9701 106.856 20.9414 106.901 20.9047 106.939C20.868 106.977 20.824 107.007 20.7754 107.027C20.7268 107.048 20.6746 107.059 20.6218 107.059H17.2068C17.099 107.059 16.9957 107.016 16.9195 106.94C16.8433 106.863 16.8005 106.76 16.8005 106.652V101.904C16.8005 101.797 16.8433 101.693 16.9195 101.617C16.9957 101.541 17.099 101.498 17.2068 101.498H20.6218C20.6746 101.498 20.7268 101.509 20.7754 101.529C20.824 101.55 20.868 101.58 20.9047 101.618C20.9414 101.656 20.9701 101.701 20.9891 101.75C21.0081 101.799 21.0171 101.852 21.0153 101.904V106.652ZM27.9977 106.652C27.9977 106.76 27.9549 106.863 27.8787 106.94C27.8025 107.016 27.6992 107.059 27.5915 107.059H24.0368C23.9291 107.059 23.8257 107.016 23.7495 106.94C23.6734 106.863 23.6306 106.76 23.6306 106.652V101.904C23.6306 101.797 23.6734 101.693 23.7495 101.617C23.8257 101.541 23.9291 101.498 24.0368 101.498H27.5915C27.6992 101.498 27.8025 101.541 27.8787 101.617C27.9549 101.693 27.9977 101.797 27.9977 101.904V106.652Z" fill="#1E88E5"/>
</g>
<path d="M89.8431 42.8727C89.8431 46.2526 98.1601 46.2906 98.1601 43.1765C98.1601 41.3156 95.9574 40.8979 93.299 40.746C87.5265 40.3282 83.7288 38.3534 83.6529 32.5809C83.425 21.1119 104.084 21.1119 103.933 32.5809C101.54 32.5809 99.7931 32.5809 97.4765 32.5809C97.4765 29.0491 90.3368 29.3529 90.109 32.505C89.9571 34.5177 91.9319 34.9355 94.3244 35.2013C99.6032 35.771 104.768 36.5685 104.768 43.2145C104.768 54.3797 83.1212 54.5696 83.2731 42.8727C85.5517 42.8727 87.5265 42.8727 89.8431 42.8727ZM126.956 50.9998L125.399 47.6578H114.917L113.36 50.9998H106.714V50.0124L118.677 24.0741H121.601L133.602 50.0124V50.9998H126.956ZM123.196 41.8473L120.12 34.8595L117.12 41.8473H123.196ZM144.043 50.9998C141.688 50.9998 139.409 50.9998 137.131 50.9998V24.4159C139.409 24.4159 141.688 24.4159 144.043 24.4159V34.4798H144.536C151.334 34.4798 150.992 29.3909 150.992 24.4159C153.309 24.4159 155.625 24.4159 157.98 24.4159C157.98 29.8466 158.132 34.8595 152.853 38.2395L160.069 49.9364V50.9998H152.511L146.663 40.708C145.751 40.8599 144.916 40.8599 144.043 40.8599V50.9998ZM167.892 30.4922H161.36C161.36 28.4414 161.36 26.4286 161.36 24.4159H181.108C181.108 26.4286 181.108 28.4414 181.108 30.4922H174.614V50.9998C172.374 50.9998 170.133 50.9998 167.892 50.9998V30.4922ZM193.205 45.0374H196.585C196.585 47.278 196.585 48.6832 196.585 50.9998C192.066 50.9998 187.622 50.9998 183.103 50.9998C183.103 48.6832 183.103 47.278 183.103 45.0374H186.483V30.3403H183.369C183.369 28.0617 183.369 26.6565 183.369 24.4159C187.698 24.4159 191.99 24.4159 196.319 24.4159C196.319 26.6565 196.319 28.0617 196.319 30.3403H193.205V45.0374Z" fill="#212121"/>
<path d="M103.705 62.4159V80.1511C103.705 85.9616 98.9196 89.3036 93.4509 89.3036C87.9823 89.3036 83.501 85.9616 83.501 80.1511V76.6952C85.5897 76.6952 87.7924 76.6952 89.9191 76.6952V80.0372C89.9191 82.1259 91.4761 83.2273 93.4509 83.2273C95.4257 83.2273 96.7549 82.1639 96.7549 80.0372V68.4542H92.8813C92.8813 66.3655 92.8813 64.3907 92.8813 62.4159H103.705ZM127.179 88.9998L125.622 85.6578H115.14L113.583 88.9998H106.937V88.0124L118.9 62.0741H121.824L133.825 88.0124V88.9998H127.179ZM123.419 79.8473L120.343 72.8595L117.343 79.8473H123.419ZM149.344 62.8336C150.408 62.8336 151.167 62.8336 152.231 62.8336L156.75 76.9611H156.864L158.041 72.4418L161.421 62.4159H168.181V63.4412L158.953 89.2656H155.041L150.788 76.4674H150.674L146.42 89.2656H142.661L133.318 63.4412V62.4159H140.192L143.61 72.4418L144.787 76.9611H144.901L149.344 62.8336ZM187.89 88.9998L186.333 85.6578H175.851L174.294 88.9998H167.648V88.0124L179.611 62.0741H182.535L194.536 88.0124V88.9998H187.89ZM184.13 79.8473L181.054 72.8595L178.054 79.8473H184.13ZM215.268 79.5815L220.471 88.0124V88.9998H212.876L208.318 81.1765H204.786V88.9998C202.508 88.9998 200.191 88.9998 197.989 88.9998C197.989 80.1511 197.989 71.3025 197.989 62.4159C201.824 62.4159 205.774 62.4159 209.647 62.4159C220.091 62.4538 221.99 75.0242 215.268 79.5815ZM209.647 75.1382C213.331 75.1382 213.521 68.5302 209.647 68.4922C208.052 68.4542 206.381 68.4922 204.786 68.4922C204.786 70.6569 204.786 73.0114 204.786 75.1382H209.647ZM242.704 88.9998L241.147 85.6578H230.666L229.109 88.9998H222.463V88.0124L234.425 62.0741H237.35L249.35 88.0124V88.9998H242.704ZM238.945 79.8473L235.868 72.8595L232.868 79.8473H238.945Z" fill="#212121"/>
<defs>
<clipPath id="clip0_17964_29964">
<rect width="64.6294" height="121.314" fill="white" transform="translate(0.245972 0.342773)"/>
</clipPath>
</defs>
</svg>
