<svg width="16" height="16" viewBox="0 0 16 16" fill="none" xmlns="http://www.w3.org/2000/svg">
<mask id="mask0_2717_110542" style="mask-type:alpha" maskUnits="userSpaceOnUse" x="0" y="0" width="16" height="16">
<rect width="16" height="16" fill="#D9D9D9"/>
</mask>
<g mask="url(#mask0_2717_110542)">
<path d="M8.00001 14.6667C7.16668 14.6667 6.38612 14.5083 5.65834 14.1917C4.93057 13.875 4.29723 13.4472 3.75834 12.9083C3.21945 12.3694 2.79168 11.7361 2.47501 11.0083C2.15834 10.2806 2.00001 9.5 2.00001 8.66667C2.00001 7.83333 2.15834 7.05278 2.47501 6.325C2.79168 5.59722 3.21945 4.96389 3.75834 4.425C4.29723 3.88611 4.93057 3.45833 5.65834 3.14167C6.38612 2.825 7.16668 2.66667 8.00001 2.66667C8.83334 2.66667 9.6139 2.825 10.3417 3.14167C11.0695 3.45833 11.7028 3.88611 12.2417 4.425C12.7806 4.96389 13.2083 5.59722 13.525 6.325C13.8417 7.05278 14 7.83333 14 8.66667C14 9.5 13.8417 10.2806 13.525 11.0083C13.2083 11.7361 12.7806 12.3694 12.2417 12.9083C11.7028 13.4472 11.0695 13.875 10.3417 14.1917C9.6139 14.5083 8.83334 14.6667 8.00001 14.6667ZM9.86668 11.4667L10.8 10.5333L8.66668 8.4V5.33333H7.33334V8.93333L9.86668 11.4667ZM3.73334 1.56667L4.66668 2.5L1.83334 5.33333L0.900009 4.4L3.73334 1.56667ZM12.2667 1.56667L15.1 4.4L14.1667 5.33333L11.3333 2.5L12.2667 1.56667ZM8.00001 13.3333C9.30001 13.3333 10.4028 12.8806 11.3083 11.975C12.2139 11.0694 12.6667 9.96667 12.6667 8.66667C12.6667 7.36667 12.2139 6.26389 11.3083 5.35833C10.4028 4.45278 9.30001 4 8.00001 4C6.70001 4 5.59723 4.45278 4.69168 5.35833C3.78612 6.26389 3.33334 7.36667 3.33334 8.66667C3.33334 9.96667 3.78612 11.0694 4.69168 11.975C5.59723 12.8806 6.70001 13.3333 8.00001 13.3333Z" fill="#757575"/>
</g>
</svg>
