<svg width="24" height="25" viewBox="0 0 24 25" fill="none" xmlns="http://www.w3.org/2000/svg">
    <mask id="mask0_5901_154365" style="mask-type:alpha" maskUnits="userSpaceOnUse" x="0" y="0" width="24" height="25">
        <rect y="0.125" width="24" height="24" fill="#D9D9D9" />
    </mask>
    <g mask="url(#mask0_5901_154365)">
        <path
            d="M5 22.125C4.45 22.125 3.97917 21.9292 3.5875 21.5375C3.19583 21.1458 3 20.675 3 20.125V6.125C3 5.575 3.19583 5.10417 3.5875 4.7125C3.97917 4.32083 4.45 4.125 5 4.125H6V2.125H8V4.125H16V2.125H18V4.125H19C19.55 4.125 20.0208 4.32083 20.4125 4.7125C20.8042 5.10417 21 5.575 21 6.125V20.125C21 20.675 20.8042 21.1458 20.4125 21.5375C20.0208 21.9292 19.55 22.125 19 22.125H5ZM5 20.125H19V10.125H5V20.125ZM5 8.125H19V6.125H5V8.125ZM12 14.125C11.7167 14.125 11.4792 14.0292 11.2875 13.8375C11.0958 13.6458 11 13.4083 11 13.125C11 12.8417 11.0958 12.6042 11.2875 12.4125C11.4792 12.2208 11.7167 12.125 12 12.125C12.2833 12.125 12.5208 12.2208 12.7125 12.4125C12.9042 12.6042 13 12.8417 13 13.125C13 13.4083 12.9042 13.6458 12.7125 13.8375C12.5208 14.0292 12.2833 14.125 12 14.125ZM8 14.125C7.71667 14.125 7.47917 14.0292 7.2875 13.8375C7.09583 13.6458 7 13.4083 7 13.125C7 12.8417 7.09583 12.6042 7.2875 12.4125C7.47917 12.2208 7.71667 12.125 8 12.125C8.28333 12.125 8.52083 12.2208 8.7125 12.4125C8.90417 12.6042 9 12.8417 9 13.125C9 13.4083 8.90417 13.6458 8.7125 13.8375C8.52083 14.0292 8.28333 14.125 8 14.125ZM16 14.125C15.7167 14.125 15.4792 14.0292 15.2875 13.8375C15.0958 13.6458 15 13.4083 15 13.125C15 12.8417 15.0958 12.6042 15.2875 12.4125C15.4792 12.2208 15.7167 12.125 16 12.125C16.2833 12.125 16.5208 12.2208 16.7125 12.4125C16.9042 12.6042 17 12.8417 17 13.125C17 13.4083 16.9042 13.6458 16.7125 13.8375C16.5208 14.0292 16.2833 14.125 16 14.125ZM12 18.125C11.7167 18.125 11.4792 18.0292 11.2875 17.8375C11.0958 17.6458 11 17.4083 11 17.125C11 16.8417 11.0958 16.6042 11.2875 16.4125C11.4792 16.2208 11.7167 16.125 12 16.125C12.2833 16.125 12.5208 16.2208 12.7125 16.4125C12.9042 16.6042 13 16.8417 13 17.125C13 17.4083 12.9042 17.6458 12.7125 17.8375C12.5208 18.0292 12.2833 18.125 12 18.125ZM8 18.125C7.71667 18.125 7.47917 18.0292 7.2875 17.8375C7.09583 17.6458 7 17.4083 7 17.125C7 16.8417 7.09583 16.6042 7.2875 16.4125C7.47917 16.2208 7.71667 16.125 8 16.125C8.28333 16.125 8.52083 16.2208 8.7125 16.4125C8.90417 16.6042 9 16.8417 9 17.125C9 17.4083 8.90417 17.6458 8.7125 17.8375C8.52083 18.0292 8.28333 18.125 8 18.125ZM16 18.125C15.7167 18.125 15.4792 18.0292 15.2875 17.8375C15.0958 17.6458 15 17.4083 15 17.125C15 16.8417 15.0958 16.6042 15.2875 16.4125C15.4792 16.2208 15.7167 16.125 16 16.125C16.2833 16.125 16.5208 16.2208 16.7125 16.4125C16.9042 16.6042 17 16.8417 17 17.125C17 17.4083 16.9042 17.6458 16.7125 17.8375C16.5208 18.0292 16.2833 18.125 16 18.125Z"
            fill="#212121" />
    </g>
</svg>