<svg width="248" height="178" viewBox="0 0 248 178" fill="none" xmlns="http://www.w3.org/2000/svg">
<path d="M82.4366 150.42H30.9874C30.9874 150.42 15.7057 149.569 16.0486 154.195C16.452 159.637 75.6523 156.049 79.9803 159.472C84.3084 162.895 86.573 166.918 94.2912 168.875C102.009 170.831 116.637 165.852 157.634 171.3C182.444 166.207 102.057 150.42 82.4366 150.42Z" fill="#5AD2D6"/>
<path d="M21.1166 8.54343C21.048 -0.751059 38.6821 -2.11557 38.4748 2.77439L70.1312 2.88455C73.7943 2.93609 76.7518 6.25167 76.7394 10.2879L76.3222 145.1C76.3099 149.049 73.3667 152.25 69.7458 152.252L36.2129 152.42C35.891 153.078 35.2854 153.675 34.3298 154.17C24.9464 154.095 20.6818 150.399 20.6452 145.641C20.295 144.764 20.7388 10.2912 21.1166 8.54343Z" fill="#027273"/>
<path d="M24.734 63.8623C25.5114 63.88 26.1527 63.2657 26.1592 62.4969L26.46 27.2988C26.4666 26.5188 25.8312 25.8656 25.0478 25.8476C24.2644 25.8296 23.6184 26.4533 23.6122 27.2334L23.3319 62.4324C23.3257 63.2013 23.9566 63.8446 24.734 63.8623Z" fill="#013F40"/>
<path d="M34.8892 154.195L76.1484 154.148C79.8975 154.155 82.9473 150.87 82.962 146.809L83.4635 8.1555C83.4785 4.0031 80.4163 0.599649 76.622 0.556119L35.2429 0.0185538C31.4178 -0.0253243 28.3097 3.32322 28.3024 7.49535L28.0577 146.798C28.0505 150.878 31.1098 154.188 34.8892 154.195Z" fill="#03C0C2"/>
<path d="M34.0551 153.211C34.3048 153.245 34.5604 153.263 34.8146 153.263L76.0636 153.151C79.2859 153.153 81.9342 150.272 81.9467 146.727L82.4366 8.22562C82.4494 4.60104 79.7905 1.6171 76.5301 1.57624L35.1632 0.971931C35.0681 0.97077 34.9721 0.971928 34.8775 0.975526C33.348 1.03391 31.922 1.71867 30.86 2.90152C29.7751 4.10991 29.1772 5.71738 29.1741 7.42978L28.9198 146.873C28.9138 150.083 31.114 152.806 34.0551 153.211Z" fill="#0D0D0D"/>
<path d="M31.3068 8.1687L31.0304 147.1L79.9435 147.096L80.4118 8.5715L31.3068 8.1687Z" fill="white"/>
<mask id="mask0_108_53" style="mask-type:luminance" maskUnits="userSpaceOnUse" x="30" y="8" width="51" height="140">
<path d="M31.2638 8.1687L30.9874 147.1L79.9006 147.096L80.3687 8.5715L31.2638 8.1687Z" fill="white"/>
</mask>
<g mask="url(#mask0_108_53)">
<path d="M82.1561 21.402H22.491V151.792H82.1561V21.402Z" fill="#E6E6E6"/>
<path d="M89.4304 135.451L-7.34296 106.096L-3.50989 102.909L87.4154 126.553L89.4304 135.451Z" fill="#04F2F5"/>
<path d="M-8.24564 106.267L-8.82312 108.26L101.29 140.165L101.868 138.172L-8.24564 106.267Z" fill="white"/>
<path d="M44.4955 73.0785C43.6459 72.9929 42.7773 72.947 41.8935 72.947C41.0097 72.947 40.1379 72.9929 39.2873 73.0785C31.256 73.8829 24.3599 78.5022 23.3269 84.5665C22.1906 91.2373 28.4346 97.2881 37.8807 98.4452C38.8974 98.5704 39.9471 98.6375 41.0174 98.6375C42.0877 98.6375 43.142 98.5703 44.1729 98.4452C53.698 97.288 60.3544 91.2373 59.6728 84.5665C59.0532 78.5022 52.472 73.883 44.4955 73.0785ZM44.2299 93.961C43.2463 94.1292 42.2176 94.2177 41.1681 94.2177C40.1186 94.2177 39.1015 94.1292 38.1294 93.961C32.1021 92.9309 28.0718 88.9943 28.6493 84.5665C29.1908 80.4143 33.6561 77.1342 39.1069 76.3319C39.9725 76.2029 40.868 76.1354 41.7848 76.1354C42.7016 76.1354 43.5974 76.2029 44.4542 76.3319C49.8504 77.1374 54.0919 80.4143 54.3504 84.5665C54.6261 88.9943 50.3272 92.9269 44.2299 93.961Z" fill="#FFD84F"/>
<path d="M44.7006 56.9552L44.4541 76.332C43.5973 76.203 42.7016 76.1355 41.7848 76.1355C40.868 76.1355 39.9724 76.203 39.1068 76.332L40.1811 56.9552H44.7006Z" fill="#FFD84F"/>
<path d="M93.4005 86.593H55.6576C55.8224 85.935 55.8834 85.2538 55.8329 84.5647C55.7829 83.8828 55.6258 83.2256 55.3741 82.5999H92.004L93.4005 86.593Z" fill="#FFD84F"/>
<path d="M41.0583 97.4381C42.1313 97.4381 43.1835 97.3356 44.1895 97.1407L43.6242 147.135H35.4883L37.9531 97.1407C38.9458 97.3356 39.9851 97.4381 41.0583 97.4381Z" fill="#FFD84F"/>
<path d="M31.2795 69.7334H21.9072L23.8373 65.1194H33.6526L31.2795 69.7334Z" fill="white"/>
<path d="M37.939 65.1194H35.4848L33.0291 69.7334H37.6106L37.939 65.1194Z" fill="white"/>
<path d="M34.5238 73.0084C35.4726 72.8463 36.4335 72.8228 37.3914 72.8149L37.5229 70.9661H32.3729L30.7479 74.0192C31.9518 73.581 33.2176 73.2316 34.5238 73.0084Z" fill="white"/>
<path d="M52.0103 84.5665C52.1979 88.7605 47.3782 92.3592 41.2343 92.3592C35.0905 92.3592 30.516 88.7607 30.9895 84.5665C31.4349 80.6206 36.2366 77.5891 41.7378 77.5891C47.2388 77.5892 51.8339 80.6206 52.0103 84.5665Z" fill="#03E484"/>
<path d="M41.8871 78.1599C41.8871 78.1599 51.0021 79.2298 49.8538 83.9164C48.6183 88.959 43.5575 88.959 44.335 85.7087C45.0766 82.6082 42.3747 81.9338 40.9461 80.516C39.5483 79.1286 39.5098 78.2164 41.8871 78.1599Z" fill="#04F2F5"/>
<path d="M46.2681 63.7697L46.2839 71.7692C46.2839 71.7692 58.734 74.1883 60.6763 81.6161C71.6519 81.6161 87.2008 81.6161 87.2008 81.6161L80.4115 63.9131L46.2681 63.7697Z" fill="#03E484"/>
<path d="M75.0798 95.724H63.4238L61.925 88.6948H72.4856L75.0798 95.724Z" fill="white"/>
<path d="M89.5611 95.724H77.9052L75.0455 88.6948H85.606L89.5611 95.724Z" fill="white"/>
<path d="M79.0885 106.586H65.7399L63.8006 97.4912H75.7319L79.0885 106.586Z" fill="white"/>
<path d="M95.6727 106.586H82.3241L78.6241 97.4912H90.5554L95.6727 106.586Z" fill="white"/>
<path d="M83.952 121.636L80.0107 109.085H66.2728L67.5287 117.61L83.952 121.636Z" fill="white"/>
<path d="M55.4367 97.4912C53.7111 99.1691 51.6068 100.71 49.1274 101.61L49.304 106.586H62.5779L60.9744 97.4912H55.4367Z" fill="white"/>
<path d="M-5.33201 111.205C-4.61812 111.22 33.6131 122.693 33.6131 122.693L32.5315 137.613H-13.8112L-5.33201 111.205Z" fill="#03E484"/>
<path d="M82.0443 21.64H22.8614V64.3327H82.0443V21.64Z" fill="#94F3F7"/>
<path d="M49.8339 108.921L62.7151 109.345L63.3964 117.398L49.753 113.496L49.8339 108.921Z" fill="white"/>
<path d="M29.49 98.9096L27.4768 109.133L35.3176 111.04L36.3772 100.869L29.49 98.9096Z" fill="white"/>
</g>
<path d="M65.6476 30.1584L60.1254 30.1134L42.3777 8.25952L47.9245 8.30503L65.6476 30.1584Z" fill="#F13005"/>
<path d="M60.1254 30.1133L54.607 30.0682L36.8307 8.21399L42.3777 8.25949L60.1254 30.1133Z" fill="#F1E3E0"/>
<path d="M54.6073 30.0682L49.0849 30.0232L31.2878 8.16852L36.831 8.21402L54.6073 30.0682Z" fill="#F13005"/>
<path d="M71.1656 30.2035L65.6475 30.1584L47.9245 8.30499L53.4672 8.3505L71.1656 30.2035Z" fill="#F1E3E0"/>
<path d="M82.2054 30.2937L76.6875 30.2486L59.0139 8.396L64.5565 8.4415L82.2054 30.2937Z" fill="#F1E3E0"/>
<path d="M98.2234 30.4246L93.2449 30.3838L75.6454 8.53253L80.6421 8.57351L98.2234 30.4246Z" fill="#F13005"/>
<path d="M93.2449 30.3838L87.7273 30.3387L70.103 8.487L75.6454 8.5325L93.2449 30.3838Z" fill="#F1E3E0"/>
<path d="M76.6875 30.2486L71.1656 30.2035L53.4672 8.35052L59.014 8.39603L76.6875 30.2486Z" fill="#F13005"/>
<path d="M87.7273 30.3388L82.2055 30.2937L64.5565 8.44153L70.103 8.48703L87.7273 30.3388Z" fill="#F13005"/>
<path d="M54.607 30.0682L54.6089 33.3949C54.611 36.92 49.0963 36.8751 49.0903 33.3498L49.0846 30.023L54.607 30.0682Z" fill="#D62B04"/>
<path d="M60.1254 30.1133L60.1236 33.4401C60.1218 36.9652 54.6111 36.9201 54.609 33.395L54.6071 30.0683L60.1254 30.1133Z" fill="#F1C5BC"/>
<path d="M65.6475 30.1584L65.6421 33.485C65.6363 37.01 60.1218 36.9649 60.1237 33.4399L60.1254 30.1132L65.6475 30.1584Z" fill="#D62B04"/>
<path d="M71.1656 30.2035L71.1564 33.5301C71.1466 37.0551 65.6362 37.0101 65.642 33.4851L65.6475 30.1585L71.1656 30.2035Z" fill="#F1C5BC"/>
<path d="M76.6875 30.2485L76.6745 33.575C76.6608 37.0999 71.1466 37.0549 71.1563 33.53L71.1655 30.2034L76.6875 30.2485Z" fill="#D62B04"/>
<path d="M82.2055 30.2937L82.1888 33.6202C82.1711 37.1449 76.6608 37.1 76.6745 33.5751L76.6875 30.2487L82.2055 30.2937Z" fill="#F1C5BC"/>
<path d="M87.7273 30.3387L87.7068 33.6651C87.6852 37.1899 82.1711 37.1448 82.1888 33.6201L82.2055 30.2936L87.7273 30.3387Z" fill="#D62B04"/>
<path d="M93.2448 30.3838L93.2207 33.7102C93.1951 37.2348 87.6851 37.1899 87.7067 33.6651L87.7271 30.3387L93.2448 30.3838Z" fill="#F1C5BC"/>
<path d="M98.2234 30.4245L98.1958 33.7508C98.1667 37.2754 93.1951 37.2348 93.2207 33.7102L93.2448 30.3838L98.2234 30.4245Z" fill="#D62B04"/>
<path d="M49.0846 30.0232L49.5171 30.0831L31.2636 29.9212L31.2875 8.16852L49.0846 30.0232Z" fill="#F13005"/>
<path d="M47.3117 118.345C44.7328 115.775 48.7987 109.606 54.7962 103.791C57.2168 101.443 59.9522 99.1545 62.6922 97.1818C62.7865 97.1339 62.8664 97.0773 62.9264 97.0139C62.9675 96.9846 63.0084 96.9547 63.0495 96.9255C63.0495 96.8962 63.0443 96.8656 63.0355 96.8346C63.0483 96.7913 63.0527 96.7466 63.0473 96.7006L61.408 88.1126L74.1396 87.9906C74.3282 87.9906 74.5041 87.8968 74.6093 87.7405C74.7145 87.584 74.735 87.3857 74.664 87.2111L72.3606 81.5517C72.2738 81.3385 72.0666 81.199 71.8363 81.199H60.2308C59.9518 80.5211 59.2485 79.0589 57.8517 77.4827C56.131 75.5408 52.9813 73.048 47.748 72.2C46.585 72.153 46.6387 73.202 47.567 73.3176C51.4819 73.952 54.6447 75.592 56.9675 78.1922C58.704 80.136 59.2951 81.9207 59.3005 81.9376C59.3755 82.1721 59.5935 82.3313 59.8397 82.3313H71.4555L73.2981 86.8585H60.5767C59.7673 86.8803 59.5278 87.4293 59.5475 88.1305L60.4275 95.9964C52.358 100.509 43.311 106.458 39.1807 110.109C33.5916 115.049 33.6547 123.704 40.458 130.065C55.9593 144.56 81.0667 154.313 107.332 160.813C160.021 173.854 195.002 176.203 198.496 176.521C210.41 177.499 225.881 175.691 224.458 162.236C223.036 148.78 245.571 149.686 248 149.084C221.264 148.015 69.7236 140.679 47.3117 118.345Z" fill="#808080"/>
<path d="M248 149.084C240.393 148.9 225.617 149.534 223.931 159.643C223.75 160.832 223.888 162.029 223.973 163.214C224.134 165.892 223.443 168.652 221.661 170.693C216.126 176.465 207.147 176.345 199.69 176.078C177.259 174.349 154.99 170.723 132.961 166.2C108.452 161.001 83.5494 155.532 61.1454 143.939C53.1138 139.656 45.1461 134.735 38.8798 128.06C34.4181 123.014 33.8628 114.77 39.1807 110.109C36.0684 112.685 34.5114 116.89 35.1306 120.879C36.4897 129.907 46.9851 135.747 53.9559 140.506C69.8635 150.177 87.7231 156.142 105.66 160.783C136.53 168.455 167.886 174.539 199.621 177.135C208.202 177.542 221.06 177.35 224.53 167.773C225.506 165.172 224.81 162.457 225.039 159.796C226.418 150.76 241.358 149.871 248 149.803V149.084Z" fill="#636363"/>
<path d="M62.0958 136.617C68.6898 139.545 76.3685 142.187 84.7124 144.571C85.1625 143.886 85.9488 142.589 86.1834 142.284C78.0928 140.26 70.6381 137.991 64.2037 135.451C63.5024 135.842 62.7997 136.231 62.0958 136.617Z" fill="white"/>
<path d="M41.6774 118.83C41.5231 118.852 40.85 119.064 40.565 119.169C40.919 120.763 41.8868 122.554 43.0788 124.008C43.2616 124.223 43.4499 124.436 43.6435 124.648C44.0468 124.367 44.4496 124.086 44.8531 123.805C43.591 122.427 42.3419 120.676 41.6774 118.83Z" fill="white"/>
<path d="M51.4174 103.857C52.3944 103.099 53.4169 102.328 54.5067 101.487C54.3811 101.444 54.2549 101.404 54.128 101.365C53.0574 102.074 51.935 102.828 50.8136 103.615C51.0143 103.697 51.2157 103.777 51.4174 103.857Z" fill="white"/>
<path d="M49.4876 105.084C48.1147 106.065 46.7587 107.093 45.5171 108.148C45.7888 108.321 46.0755 108.475 46.3616 108.62C47.5745 107.426 48.8132 106.386 50.1295 105.347C49.9148 105.261 49.7009 105.173 49.4876 105.084Z" fill="white"/>
<path d="M44.8531 110.394C44.5279 110.215 44.2056 110.021 43.9057 109.803C41.3613 112.231 40.0957 114.415 40.3286 117.147C40.6596 117.147 41.3454 117.108 41.6842 117.055C41.6279 114.097 43.5078 111.871 44.8531 110.394Z" fill="white"/>
<path d="M47.0726 127.861C49.5248 129.859 52.4621 131.755 55.8058 133.552C56.4114 133.229 57.0158 132.904 57.6194 132.577C54.0191 130.829 50.8931 128.965 48.3388 126.98C47.9167 127.274 47.4944 127.567 47.0726 127.861Z" fill="white"/>
<path d="M98.3391 145.057C97.4086 145.851 96.4779 146.645 95.5475 147.439C105.839 149.972 116.792 152.171 127.745 154.081C128.774 153.411 131.241 151.316 131.998 150.766C120.581 149.187 109.11 147.302 98.3391 145.057Z" fill="white"/>
<path d="M205.08 158.031C194.375 157.286 170.33 155.227 155.806 153.671C153.995 155.003 152.183 156.334 150.37 157.663C164.031 159.631 187.476 162.146 198.185 163.363C200.466 161.564 202.77 159.792 205.08 158.031Z" fill="white"/>
<path d="M47.8077 73.7744C50.1102 73.7744 51.9767 73.1767 51.9767 72.4393C51.9767 71.7019 50.1102 71.1041 47.8077 71.1041C45.5053 71.1041 43.6387 71.7019 43.6387 72.4393C43.6387 73.1767 45.5053 73.7744 47.8077 73.7744Z" fill="#222222"/>
<path d="M49.3071 72.3237C49.3071 72.6155 48.5685 72.8521 47.6573 72.8521C46.7461 72.8521 46.0074 72.6155 46.0074 72.3237C46.0074 72.0319 46.7461 71.7953 47.6573 71.7953C48.5685 71.7953 49.3071 72.0319 49.3071 72.3237Z" fill="white"/>
<path d="M47.6561 48.2809C42.9076 48.2809 39.0558 52.1327 39.0558 56.8813C39.0558 61.6322 47.6561 70.3184 47.6561 70.3184C47.6561 70.3184 56.2589 61.6323 56.2589 56.8813C56.2589 52.1328 52.407 48.2809 47.6561 48.2809ZM47.6561 61.7155C44.9763 61.7155 42.8041 59.5434 42.8041 56.8635C42.8041 54.1837 44.9763 52.0115 47.6561 52.0115C50.3359 52.0115 52.5107 54.1837 52.5107 56.8635C52.5106 59.5434 50.3359 61.7155 47.6561 61.7155Z" fill="#FF3305"/>
<path d="M112.682 37.8887C112.688 37.8123 112.692 37.7355 112.692 37.6577C112.692 36.0293 111.372 34.7093 109.743 34.7093C108.115 34.7093 106.795 36.0293 106.795 37.6577C106.795 37.7355 106.799 37.8124 106.805 37.8887H112.682Z" fill="white"/>
<path d="M122.368 37.8887C122.374 37.8123 122.378 37.7355 122.378 37.6577C122.378 36.0293 121.058 34.7093 119.43 34.7093C117.801 34.7093 116.481 36.0293 116.481 37.6577C116.481 37.7355 116.485 37.8124 116.491 37.8887H122.368Z" fill="white"/>
<path d="M124.877 37.8887C124.885 37.8127 124.89 37.7358 124.89 37.6577C124.89 36.5063 123.956 35.5728 122.805 35.5728C121.653 35.5728 120.72 36.5061 120.72 37.6577C120.72 37.7358 120.724 37.8127 120.733 37.8887H124.877Z" fill="white"/>
<path d="M118.977 37.8887C119 37.7086 119.011 37.5252 119.011 37.339C119.011 34.9536 117.077 33.0197 114.692 33.0197C112.307 33.0197 110.373 34.9535 110.373 37.339C110.373 37.5252 110.384 37.7086 110.407 37.8887H118.977Z" fill="white"/>
<path d="M145.215 27.103C145.224 26.9786 145.231 26.8532 145.231 26.7262C145.231 24.0701 143.077 21.9168 140.421 21.9168C137.765 21.9168 135.612 24.07 135.612 26.7262C135.612 26.8532 135.618 26.9786 135.628 27.103H145.215Z" fill="white"/>
<path d="M161.014 27.103C161.024 26.9786 161.03 26.8532 161.03 26.7262C161.03 24.0701 158.877 21.9168 156.221 21.9168C153.565 21.9168 151.412 24.07 151.412 26.7262C151.412 26.8532 151.418 26.9786 151.428 27.103H161.014Z" fill="white"/>
<path d="M165.106 27.103C165.12 26.9793 165.127 26.8537 165.127 26.7262C165.127 24.8481 163.605 23.3254 161.727 23.3254C159.848 23.3254 158.326 24.8481 158.326 26.7262C158.326 26.8537 158.333 26.9793 158.347 27.103H165.106Z" fill="white"/>
<path d="M155.482 27.1031C155.52 26.8095 155.539 26.5102 155.539 26.2066C155.539 22.3155 152.384 19.1611 148.493 19.1611C144.602 19.1611 141.448 22.3155 141.448 26.2066C141.448 26.5102 141.467 26.8095 141.504 27.1031H155.482Z" fill="white"/>
<path d="M9.5039 124.125C9.49809 124.051 9.49426 123.975 9.49426 123.899C9.49426 122.303 10.7882 121.009 12.3843 121.009C13.9804 121.009 15.2743 122.303 15.2743 123.899C15.2743 123.975 15.2705 124.05 15.2647 124.125H9.5039Z" fill="white"/>
<path d="M0.00963374 124.125C0.00382976 124.051 0 123.975 0 123.899C0 122.303 1.29382 121.009 2.89003 121.009C4.48613 121.009 5.77995 122.303 5.77995 123.899C5.77995 123.975 5.77612 124.05 5.77031 124.125H0.00963374Z" fill="white"/>
<path d="M3.33394 124.125C3.31153 123.949 3.29993 123.769 3.29993 123.587C3.29993 121.248 5.19539 119.353 7.53358 119.353C9.87177 119.353 11.7672 121.248 11.7672 123.587C11.7672 123.769 11.7556 123.949 11.7332 124.125H3.33394Z" fill="white"/>
<path opacity="0.5" d="M165.178 65.5002C141.97 64.5836 117.576 61.8742 92.5497 58.2097L91.5519 59.9506C116.637 67.3279 136.849 71.7329 155.664 73.4424C156.911 71.7765 162.456 66.6208 165.178 65.5002Z" fill="url(#paint0_linear_108_53)"/>
<path opacity="0.5" d="M177.512 48.4812C154.305 47.5646 139.421 47.1226 116.45 44.5223L115.842 45.5822C141.428 50.0558 154.348 51.1216 173.163 52.8311C173.481 51.5148 175.459 49.2138 177.512 48.4812Z" fill="url(#paint1_linear_108_53)"/>
<path opacity="0.5" d="M113.683 115.928C92.8389 114.461 72.94 110.909 57.5123 100.189L56.9048 101.249C72.4132 115.053 87.7067 123.537 108.586 126.474C108.905 125.158 111.589 118.906 113.683 115.928Z" fill="url(#paint2_linear_108_53)"/>
<path opacity="0.6" d="M116.577 141.229L199.531 149.696C209.847 151.576 201.435 161.081 181.632 159.748C181.632 159.748 133.205 153.878 108.032 149.991C98.9341 148.585 101.272 139.291 116.577 141.229Z" fill="#222222"/>
<path d="M133.123 103.052L106.205 100.673L106.663 72.6046L133.581 74.983L133.123 103.052Z" fill="#DE7F04"/>
<path d="M105.666 71.5572L105.57 77.4544L134.338 79.9965L134.439 73.8111L105.666 71.5572Z" fill="#DE7F04"/>
<path d="M119.506 102.073L97.2062 100.096L97.6668 72.0274L119.967 74.0046L119.506 102.073Z" fill="#FFA305"/>
<path d="M96.8455 70.8661L96.7466 76.8923L120.58 79.0055L120.678 72.7331L96.8455 70.8661Z" fill="#FFA305"/>
<path d="M97.5964 76.8191L97.5722 77.0916L125.502 79.5675L125.526 79.2949L97.5964 76.8191Z" fill="#DE7F04"/>
<path d="M102.034 100.524L100.364 100.376L100.845 71.1709L102.515 71.3189L102.034 100.524Z" fill="white"/>
<path d="M116.01 101.777L114.341 101.628L114.82 72.2965L116.49 72.4445L116.01 101.777Z" fill="white"/>
<path d="M140.783 137.955C142.868 131.553 139.698 124.78 133.703 122.829C127.709 120.877 121.159 124.485 119.075 130.887C116.99 137.289 120.16 144.062 126.155 146.013C132.149 147.965 138.699 144.357 140.783 137.955Z" fill="#222222"/>
<path d="M144.263 135.328C143.613 142.331 137.994 147.664 130.638 147.204C123.282 146.743 117.845 140.693 118.495 133.691C119.145 126.688 125.635 121.385 132.991 121.845C140.348 122.306 144.912 128.326 144.263 135.328Z" fill="#222222"/>
<path d="M137.604 136.92C139.078 132.393 136.837 127.604 132.598 126.224C128.359 124.844 123.728 127.395 122.254 131.922C120.78 136.449 123.021 141.238 127.26 142.618C131.499 143.998 136.13 141.447 137.604 136.92Z" fill="#CCCCCC"/>
<path d="M133.189 135.542C133.877 133.431 132.832 131.199 130.856 130.555C128.879 129.912 126.72 131.101 126.033 133.212C125.346 135.322 126.391 137.555 128.367 138.198C130.343 138.842 132.502 137.652 133.189 135.542Z" fill="#737373"/>
<path d="M162.592 132.226C160.524 132.412 137.867 132.1 162.611 106.871C134.556 104.323 121.041 99.0004 109.629 131.665L160.345 135.858C162.768 136.01 163.264 133.107 162.592 132.226Z" fill="#E82728"/>
<path d="M166.678 107.112L139.004 104.851C136.018 104.604 136.557 98.2392 139.543 98.4859L167.217 100.747C170.787 101.043 170.248 107.407 166.678 107.112Z" fill="#222222"/>
<path d="M133.531 105.335L109.798 103.461C109.134 103.409 108.642 102.829 108.699 102.167C108.756 101.504 109.341 101.009 110.005 101.062L133.737 102.935C134.402 102.988 134.894 103.567 134.837 104.23C134.78 104.892 134.195 105.387 133.531 105.335Z" fill="#222222"/>
<path d="M112.609 102.056L111.583 102.848L120.255 114.096L121.282 113.304L112.609 102.056Z" fill="#222222"/>
<path d="M157.628 106.672C157.628 106.672 133.931 131.469 157.642 132.654C162.343 132.78 162.592 132.226 162.592 132.226C155.794 131.06 149.362 128.483 154.867 119.691C159.422 112.415 167.107 107.054 167.107 107.054L157.628 106.672Z" fill="#B81F20"/>
<path d="M144.422 134.504C144.796 133.719 145.124 132.911 145.399 132.084C148.425 122.974 143.809 116.049 135.495 114.316C116.753 110.41 111.323 130.951 111.169 131.755L144.422 134.504Z" fill="#B81F20"/>
<path d="M140.068 134.144C140.441 133.358 140.77 132.551 141.044 131.724C144.071 122.613 139.637 114.658 131.14 113.956C122.644 113.254 113.303 120.07 110.276 129.18C110.001 130.007 109.79 130.825 109.635 131.628L140.068 134.144Z" fill="#E82728"/>
<path d="M133.334 122.439L122.327 121.766C122.112 121.753 121.952 121.569 121.971 121.357L121.975 121.319C121.994 121.107 122.186 120.944 122.401 120.957L133.408 121.629C133.623 121.643 133.783 121.827 133.764 122.039L133.76 122.077C133.741 122.289 133.549 122.452 133.334 122.439Z" fill="#222222"/>
<path d="M133.166 124.278L122.159 123.606C121.944 123.593 121.784 123.408 121.803 123.196L121.807 123.158C121.826 122.946 122.018 122.783 122.233 122.796L133.24 123.469C133.455 123.482 133.615 123.666 133.596 123.878L133.592 123.916C133.573 124.128 133.381 124.291 133.166 124.278Z" fill="#222222"/>
<path d="M132.998 126.117L121.991 125.445C121.776 125.432 121.616 125.247 121.635 125.035L121.639 124.998C121.658 124.785 121.85 124.623 122.065 124.636L133.072 125.308C133.287 125.321 133.447 125.505 133.428 125.718L133.425 125.755C133.405 125.967 133.213 126.13 132.998 126.117Z" fill="#222222"/>
<path d="M132.831 127.956L121.823 127.284C121.608 127.271 121.448 127.087 121.468 126.874L121.471 126.837C121.49 126.625 121.682 126.462 121.897 126.475L132.904 127.147C133.119 127.16 133.28 127.345 133.26 127.557L133.257 127.595C133.237 127.807 133.046 127.969 132.831 127.956Z" fill="#222222"/>
<path d="M173.234 70.3904C173.234 70.3904 169.917 82.1368 171.248 86.6656C173.973 91.2223 194.586 90.7867 194.586 90.7867L196.097 87.4471L182.492 83.3327L183.865 75.0866C185.237 67.6651 176.849 65.1163 173.234 70.3904Z" fill="#32613F"/>
<path d="M159.547 131.997L167.945 132.707C170.161 129.759 185.213 109.528 185.607 104.833C185.937 100.898 184.405 97.0606 174.583 92.9323C167.999 90.1644 160.405 91.5342 160.405 91.5342C160.405 91.5342 154.853 97.3741 159.467 100.837C164.081 104.3 172.848 106.343 172.848 106.343L159.547 131.997Z" fill="#024545"/>
<path d="M159.512 132.06L176.513 133.379C176.513 133.379 181.673 131.292 178.091 126.825C175.288 124.199 169.647 125.518 167.538 128.413L161.698 128.046L159.512 132.06Z" fill="#222222"/>
<path d="M150.189 131.411L158.588 132.121C160.804 129.174 175.855 108.942 176.249 104.247C176.579 100.313 175.047 96.4749 165.226 92.3466C158.641 89.5787 153.971 90.2784 151.672 90.8131C149.374 91.3477 145.495 96.7883 150.11 100.252C154.724 103.715 163.491 105.757 163.491 105.757L150.189 131.411Z" fill="#027273"/>
<path d="M150.155 131.475L167.155 132.793C167.155 132.793 172.315 130.706 168.733 126.239C165.931 123.613 160.289 124.932 158.181 127.827L152.341 127.46C149.482 128.849 150.059 130.156 150.155 131.475Z" fill="#222222"/>
<path d="M173.021 92.9842C177.196 91.2592 179.967 82.3105 182.667 76.7828C187.494 66.9134 172.23 59.8658 164.068 68.5688C156.542 76.1586 148.609 83.4211 149.597 92.1696C156.704 95.624 169.839 94.6089 173.021 92.9842Z" fill="#56A66B"/>
<path d="M169.974 93.9996L169.84 93.7609C171.268 92.9622 171.81 91.2269 172.439 89.2176C173.024 87.3443 173.688 85.2214 175.238 83.5532C179.249 77.8691 180.408 73.793 180.673 71.374C180.959 68.7598 180.292 67.4698 180.286 67.457L180.527 67.3278C180.556 67.3819 181.236 68.6844 180.948 71.3706C180.685 73.8276 179.519 77.9641 175.456 83.7185L175.445 83.7328C173.932 85.3565 173.277 87.4511 172.7 89.2992C172.054 91.3644 171.496 93.1477 169.974 93.9996Z" fill="#386B45"/>
<path d="M164.238 69.4758C164.238 69.4758 152.817 80.5299 156.338 86.6756C159.171 91.62 176.753 92.6673 177.936 91.3301L179.447 87.9906C178.17 84.9681 171.65 83.7561 166.486 82.5726L172.368 77.1973C177.488 72.2289 170.664 63.7924 164.238 69.4758Z" fill="#417D51"/>
<path d="M181.098 70.569C181.098 70.569 182.067 71.1552 181.933 72.5954C183.933 70.9921 181.936 65.7169 176.851 63.8724C172.028 62.1231 181.098 70.569 181.098 70.569Z" fill="#417D51"/>
<path d="M175.419 64.9118C173.942 66.4921 181.098 70.569 181.098 70.569L186.126 63.7791L180.283 59.9501L175.419 64.9118Z" fill="#FFA794"/>
<path d="M178.399 57.9354C178.399 57.9354 179.965 68.2331 188.437 67.3618C192.229 66.9718 193.894 61.3461 193.869 58.0581C193.814 50.8269 187.541 47.2647 183.752 48.8672C177.469 51.5243 178.37 56.962 178.399 57.9354Z" fill="#FFA794"/>
<path d="M179.614 61.8479C179.614 61.8479 181.25 66.5094 185.386 67.3735C187.054 67.6071 187.487 67.4141 187.487 67.4141C186.797 67.3915 182.218 65.9895 181.493 60.8861C181.235 59.9022 179.283 60.6431 179.614 61.8479Z" fill="#222222"/>
<path d="M182.089 61.4317C183.015 59.8659 183.491 57.7615 184.03 55.5579C186.793 55.9245 190.445 56.3149 194.37 56.2696C195.485 56.275 196.073 48.2276 187.08 46.9808C183.45 46.4776 178.924 47.7056 177.007 51.2714C174.942 55.1121 175.461 59.4588 177.297 61.4017C178.468 62.6407 180.831 62.905 182.089 61.4317Z" fill="#E82728"/>
<mask id="mask1_108_53" style="mask-type:luminance" maskUnits="userSpaceOnUse" x="175" y="46" width="20" height="17">
<path d="M182.089 61.4317C183.015 59.8659 183.491 57.7615 184.03 55.5579C186.793 55.9245 190.445 56.3149 194.37 56.2696C195.485 56.275 196.073 48.2276 187.08 46.9808C183.45 46.4776 178.924 47.7056 177.007 51.2714C174.942 55.1121 175.461 59.4588 177.297 61.4017C178.468 62.6407 180.831 62.905 182.089 61.4317Z" fill="white"/>
</mask>
<g mask="url(#mask1_108_53)">
<path d="M191.857 56.1802L191.353 56.2823C192.208 53.0306 190.181 50.5274 188.852 49.4529C186.572 47.6087 183.329 46.716 181.77 47.5036L181.57 47.1076C183.296 46.2355 186.689 47.1328 189.131 49.108C190.543 50.25 192.775 52.6872 191.857 56.1802Z" fill="white"/>
</g>
<mask id="mask2_108_53" style="mask-type:luminance" maskUnits="userSpaceOnUse" x="175" y="46" width="20" height="17">
<path d="M182.089 61.4317C183.015 59.8659 183.491 57.7615 184.03 55.5579C186.793 55.9245 190.445 56.3149 194.37 56.2696C195.485 56.275 196.073 48.2276 187.08 46.9808C183.45 46.4776 178.924 47.7056 177.007 51.2714C174.942 55.1121 175.461 59.4588 177.297 61.4017C178.468 62.6407 180.831 62.905 182.089 61.4317Z" fill="white"/>
</mask>
<g mask="url(#mask2_108_53)">
<path d="M192.755 56.4843L192.33 56.3591C193.014 54.0317 192.436 51.726 190.7 49.867C188.719 47.7448 185.666 46.6993 183.104 47.265L183.009 46.8319C185.719 46.2331 188.94 47.3315 191.024 49.5643C192.871 51.5426 193.486 54.0001 192.755 56.4843Z" fill="white"/>
</g>
<path d="M189.765 61.1243C189.373 61.1297 189.06 61.0685 189.035 61.0634C188.955 61.0474 188.903 60.9694 188.919 60.8894C188.935 60.8095 189.012 60.7572 189.093 60.7735C189.105 60.7757 190.226 60.9936 190.796 60.5448C190.843 60.5075 190.867 60.4577 190.871 60.3879C190.899 59.879 189.945 58.8241 189.575 58.4606C189.517 58.4034 189.516 58.3097 189.573 58.2516C189.63 58.1932 189.724 58.1926 189.782 58.2497C189.928 58.3932 191.207 59.6715 191.166 60.4042C191.158 60.5583 191.093 60.6873 190.979 60.7772C190.638 61.0456 190.161 61.119 189.765 61.1243Z" fill="#B3523D"/>
<path d="M186.276 57.837C186.238 58.2417 185.964 58.5544 185.663 58.5356C185.362 58.5168 185.148 58.1735 185.186 57.7687C185.223 57.3639 185.498 57.0512 185.799 57.07C186.1 57.0889 186.314 57.4323 186.276 57.837Z" fill="#222222"/>
<path d="M192.716 58.3388C192.684 58.6846 192.449 58.9519 192.192 58.9358C191.935 58.9196 191.752 58.6263 191.784 58.2804C191.816 57.9346 192.051 57.6672 192.308 57.6834C192.565 57.6995 192.748 57.993 192.716 58.3388Z" fill="#222222"/>
<path d="M185.634 61.709C185.634 61.709 187.285 63.7308 191.031 63.4775C191.031 63.4775 188.907 66.3686 186.388 65.1704C183.869 63.9723 185.634 61.709 185.634 61.709Z" fill="#B33A20"/>
<path d="M184.03 55.5579C188.181 55.9882 192.179 56.3679 194.578 56.2182C194.578 56.2182 197.331 57.0623 196.603 57.6255C195.875 58.1886 184.03 55.5579 184.03 55.5579Z" fill="#222222"/>
<path d="M176.851 63.8725C176.851 63.8725 175.308 63.153 174.567 64.694C174.767 68.556 177.706 72.2119 179.22 72.575C179.465 71.9506 179.991 71.1805 181.098 70.5691C181.098 70.5691 176.861 67.0562 176.851 63.8725Z" fill="#417D51"/>
<path d="M205.35 144.118C207.307 138.107 204.331 131.749 198.703 129.916C193.075 128.084 186.925 131.471 184.968 137.482C183.011 143.494 185.987 149.852 191.615 151.684C197.244 153.517 203.393 150.13 205.35 144.118Z" fill="#222222"/>
<path d="M208.617 141.655C208.007 148.23 202.732 153.237 195.825 152.805C188.918 152.372 183.814 146.692 184.424 140.117C185.034 133.543 191.128 128.563 198.035 128.996C204.942 129.428 209.228 135.08 208.617 141.655Z" fill="#222222"/>
<path d="M202.365 143.146C203.749 138.896 201.644 134.4 197.665 133.104C193.685 131.808 189.337 134.203 187.953 138.454C186.569 142.704 188.673 147.2 192.653 148.496C196.633 149.792 200.981 147.397 202.365 143.146Z" fill="#CCCCCC"/>
<path d="M198.22 141.852C198.865 139.871 197.884 137.775 196.029 137.171C194.173 136.566 192.146 137.683 191.501 139.665C190.856 141.646 191.837 143.742 193.692 144.347C195.548 144.951 197.575 143.834 198.22 141.852Z" fill="#737373"/>
<path d="M200.689 132.025C198.518 134.77 195.579 136.813 192.178 137.666C191.972 137.718 191.764 137.766 191.555 137.808C191.22 137.877 190.883 137.934 190.543 137.978C189.78 138.078 189.008 138.119 188.238 138.1C187.945 138.093 187.653 138.077 187.362 138.054L187.141 138.036L173.704 136.925C173.703 136.925 173.703 136.925 173.703 136.925L160.885 136.036C154.857 135.659 155.568 133.362 161.329 132.562C179.278 132.636 187.31 113.564 182.772 103.541C181.224 99.8752 185.325 97.0632 189.265 96.4645C189.779 96.3859 190.291 96.3454 190.787 96.3458C191.128 96.345 191.463 96.3645 191.786 96.4047C191.887 96.4183 191.986 96.4319 192.085 96.4492C192.585 96.5149 193.072 96.6203 193.541 96.7688C194.952 97.2173 196.185 98.055 197.002 99.3633L203.078 113.094C206.031 119.768 204.624 127.049 200.689 132.025Z" fill="#E82728"/>
<path d="M199.544 124.071C199.493 124.408 199.432 124.739 199.363 125.066L201.03 125.138C201.069 124.922 201.106 124.709 201.137 124.5C201.883 119.527 200.512 115.475 200.454 115.306L193.541 96.7688C193.072 96.6201 191.947 96.4706 191.605 96.4714L198.964 115.991C199.036 116.207 200.189 119.775 199.544 124.071Z" fill="white"/>
<path d="M199.774 84.4181V84.4196C199.596 84.3977 199.414 84.3922 199.23 84.4045C198.918 84.425 198.61 84.4943 198.309 84.6069C196.067 85.4396 194.191 88.6807 193.929 92.441C193.75 95.0053 194.362 97.2266 195.452 98.5522C195.798 98.9733 196.192 99.3037 196.625 99.5261L193.705 98.5097L193.456 98.423C191.443 97.6306 190.114 94.8338 190.336 91.4232C190.595 87.4392 192.872 84.0684 195.495 83.6911C195.97 83.7062 196.462 83.7456 196.969 83.8116C197.858 83.9262 198.793 84.1237 199.774 84.4181Z" fill="#FF6162"/>
<path d="M193.456 98.4229L184.859 95.4309C184.859 95.4309 181.853 94.0663 183.569 89.9712C183.569 89.9712 187.44 83.4319 195.495 83.6911C192.872 84.0682 190.594 87.4392 190.336 91.4232C190.114 94.8337 191.442 97.6305 193.456 98.4229Z" fill="#E82728"/>
<path d="M199.774 84.4195C199.702 84.778 199.585 85.3774 199.44 86.1378C198.873 89.1247 197.864 94.5826 197.316 97.5595C197.085 98.8171 196.934 99.633 196.934 99.633L196.625 99.526C196.192 99.3036 195.798 98.9731 195.452 98.5521C194.362 97.2263 193.75 95.0052 193.929 92.4409C194.191 88.6807 196.067 85.4395 198.309 84.6068C198.61 84.4942 198.918 84.425 199.23 84.4044C199.414 84.3921 199.596 84.3977 199.774 84.4195Z" fill="#E82728"/>
<path d="M203.451 91.8084C203.153 96.0714 200.78 99.6697 198.151 99.8448C197.606 99.8813 197.093 99.7666 196.625 99.526C196.192 99.3036 195.798 98.9731 195.452 98.5521C194.362 97.2263 193.75 95.0051 193.929 92.4408C194.191 88.6807 196.067 85.4395 198.309 84.6067C198.61 84.4941 198.918 84.4249 199.23 84.4044C199.414 84.3921 199.596 84.3975 199.774 84.4195C202.113 84.7012 203.728 87.8444 203.451 91.8084Z" fill="#FF6162"/>
<path d="M202.942 91.8556C202.695 95.3927 200.726 98.3782 198.544 98.5236C198.093 98.5539 197.667 98.4587 197.278 98.259C196.919 98.0745 196.592 97.8003 196.305 97.451C195.401 96.351 194.893 94.508 195.042 92.3804C195.259 89.2605 196.815 86.5713 198.676 85.8804C198.926 85.787 199.181 85.7295 199.439 85.7126C199.593 85.7024 199.744 85.7069 199.891 85.7251C201.832 85.9587 203.172 88.5666 202.942 91.8556Z" fill="white"/>
<path d="M186.826 93.4336L176.598 93.6611L176.623 89.2263L186.848 89.5775C188.832 89.5334 188.715 93.3915 186.826 93.4336Z" fill="#222222"/>
<path d="M178.03 91.4789C178.06 90.2543 177.45 89.2459 176.668 89.2265C175.885 89.2072 175.226 90.1843 175.195 91.4089C175.165 92.6335 175.775 93.642 176.558 93.6613C177.341 93.6806 178 92.7036 178.03 91.4789Z" fill="#222222"/>
<path d="M202.453 128.645C202.051 129.813 201.432 130.949 200.688 132.025C198.518 134.769 195.578 136.813 192.178 137.666C191.64 137.801 191.094 137.906 190.543 137.978C189.49 138.116 188.42 138.14 187.361 138.054L187.141 138.036L173.704 136.925C173.836 136.917 182.131 137.622 188.252 128.056C193.52 120.069 204.649 122.262 202.453 128.645Z" fill="#B81F20"/>
<path d="M212.698 139.718C212.792 139.636 212.849 139.546 212.862 139.449C214.002 131.438 204.51 122.879 197.122 123.721C190.667 125.422 186.654 131.139 185.788 137.924L212.698 139.718Z" fill="#E82728"/>
<path d="M177.665 88.9975C177.665 88.9975 179.144 86.8263 182.544 88.0184C185.944 89.2104 184.786 93.0177 183.873 93.4993C182.959 93.9809 179.794 94.4205 180.256 93.5797C180.718 92.739 181.203 91.3354 180.427 90.1777C179.896 89.3851 177.64 89.2612 177.64 89.2612L177.665 88.9975Z" fill="#FFA794"/>
<path d="M134.762 104.268L133.404 104.113L134.222 96.9531L128.483 96.5941L127.682 103.604L126.323 103.448L127.198 95.7934C127.24 95.4318 127.558 95.1675 127.92 95.1887L135.026 95.6334C135.213 95.6451 135.387 95.7331 135.508 95.8768C135.628 96.0205 135.684 96.2073 135.663 96.3936L134.762 104.268Z" fill="#222222"/>
<path opacity="0.8" d="M118.683 132.419L144.422 134.504L143.405 139.035L118.452 135.317L118.683 132.419Z" fill="#222222"/>
<path opacity="0.8" d="M184.834 137.845L208.663 139.466C208.726 141.141 208.582 142.694 208.163 144.083L184.368 140.762C184.437 139.706 184.572 138.714 184.834 137.845Z" fill="#222222"/>
<path d="M121.76 63.7145C124.59 60.8841 124.59 56.2951 121.76 53.4647C118.93 50.6343 114.341 50.6343 111.51 53.4647C108.68 56.2951 108.68 60.8841 111.51 63.7145C114.341 66.5449 118.93 66.5449 121.76 63.7145Z" fill="#56A66B"/>
<path d="M116.245 61.9969L112.868 56.7196L113.435 56.1201L116.234 58.768L124.695 51.2314L125.245 51.932L116.245 61.9969Z" fill="white"/>
<path opacity="0.5" d="M199.439 85.7124L236.881 84.0104L233.042 107.723L198.041 98.5338L199.439 85.7124Z" fill="url(#paint3_linear_108_53)"/>
<path d="M88.3428 61.3222H63.2104C62.1196 61.3222 61.2354 60.4379 61.2354 59.3471V44.6758C61.2354 43.585 62.1196 42.7007 63.2104 42.7007H88.3428C89.4336 42.7007 90.3179 43.585 90.3179 44.6758V59.3472C90.3179 60.438 89.4336 61.3222 88.3428 61.3222Z" fill="white"/>
<path d="M66.7831 56.2123L67.0625 57.0725H67.967L67.2353 57.6041L67.5147 58.4643L66.7831 57.9326L66.0513 58.4643L66.3308 57.6041L65.5992 57.0725H66.5036L66.7831 56.2123Z" fill="#FDF280"/>
<path d="M71.2294 56.2123L71.5088 57.0725H72.4133L71.6815 57.6041L71.961 58.4643L71.2294 57.9326L70.4976 58.4643L70.7771 57.6041L70.0455 57.0725H70.9498L71.2294 56.2123Z" fill="#FDF280"/>
<path d="M75.6757 56.2123L75.9551 57.0725H76.8595L76.1278 57.6041L76.4074 58.4643L75.6757 57.9326L74.9439 58.4643L75.2235 57.6041L74.4917 57.0725H75.3962L75.6757 56.2123Z" fill="#FDF280"/>
<path d="M80.1219 56.2123L80.4014 57.0725H81.3058L80.5741 57.6041L80.8536 58.4643L80.1219 57.9326L79.3902 58.4643L79.6698 57.6041L78.938 57.0725H79.8425L80.1219 56.2123Z" fill="#FDF280"/>
<path d="M84.5682 56.2123L84.8477 57.0725H85.7521L85.0204 57.6041L85.2999 58.4643L84.5682 57.9326L83.8365 58.4643L84.1159 57.6041L83.3843 57.0725H84.2888L84.5682 56.2123Z" fill="#FDF280"/>
<path d="M85.2422 47.3199H78.9734C78.6918 47.3199 78.4636 47.0917 78.4636 46.8101C78.4636 46.5285 78.6918 46.3003 78.9734 46.3003H85.2422C85.5238 46.3003 85.752 46.5285 85.752 46.8101C85.752 47.0917 85.5238 47.3199 85.2422 47.3199Z" fill="#94F3F7"/>
<path d="M85.2422 49.5485H77.1143C76.8327 49.5485 76.6045 49.3203 76.6045 49.0387C76.6045 48.7571 76.8327 48.5289 77.1143 48.5289H85.2422C85.5238 48.5289 85.752 48.7571 85.752 49.0387C85.752 49.3203 85.5238 49.5485 85.2422 49.5485Z" fill="#94F3F7"/>
<path d="M85.2422 51.7771H77.1143C76.8327 51.7771 76.6045 51.5489 76.6045 51.2673C76.6045 50.9857 76.8327 50.7575 77.1143 50.7575H85.2422C85.5238 50.7575 85.752 50.9857 85.752 51.2673C85.752 51.5489 85.5238 51.7771 85.2422 51.7771Z" fill="#94F3F7"/>
<path d="M85.2422 54.0057H77.1143C76.8327 54.0057 76.6045 53.7775 76.6045 53.4959C76.6045 53.2143 76.8327 52.9861 77.1143 52.9861H85.2422C85.5238 52.9861 85.752 53.2143 85.752 53.4959C85.752 53.7775 85.5238 54.0057 85.2422 54.0057Z" fill="#94F3F7"/>
<path d="M74.1266 45.9331H64.9045V54.2304H74.1266V45.9331Z" fill="#94F3F7"/>
<defs>
<linearGradient id="paint0_linear_108_53" x1="159.458" y1="69.8237" x2="63.4606" y2="51.7017" gradientUnits="userSpaceOnUse">
<stop stop-color="white"/>
<stop offset="1"/>
</linearGradient>
<linearGradient id="paint1_linear_108_53" x1="172.771" y1="51.9575" x2="92.7863" y2="36.8583" gradientUnits="userSpaceOnUse">
<stop stop-color="white"/>
<stop offset="1"/>
</linearGradient>
<linearGradient id="paint2_linear_108_53" x1="109.316" y1="118.347" x2="32.7615" y2="103.896" gradientUnits="userSpaceOnUse">
<stop stop-color="white"/>
<stop offset="1"/>
</linearGradient>
<linearGradient id="paint3_linear_108_53" x1="199.697" y1="96.9625" x2="237.737" y2="95.7803" gradientUnits="userSpaceOnUse">
<stop stop-color="white"/>
<stop offset="1"/>
</linearGradient>
</defs>
</svg>
