<svg width="32" height="32" viewBox="0 0 32 32" fill="none" xmlns="http://www.w3.org/2000/svg">
<g clip-path="url(#clip0_268_29437)">
<rect width="32" height="32" rx="16" fill="#171A1C"/>
<g clip-path="url(#clip1_268_29437)">
<path d="M18.7379 22.1854L13.145 22.2193L13.1631 25.1978L18.756 25.1639L18.7379 22.1854Z" fill="#ECB79E"/>
<path d="M14.7143 24.4856C15.6076 24.4467 16.4995 24.1735 17.1589 23.7679C17.7195 23.4299 18.1806 23.0589 18.5087 22.5884C18.5743 22.4876 18.6399 22.3868 18.7054 22.286L18.7048 22.1856L13.145 22.2193L13.1584 24.428C13.6552 24.492 14.1847 24.4888 14.7143 24.4856Z" fill="#CE9980"/>
<path d="M15.8239 5.5032C12.2504 5.62525 9.5456 7.11418 9.57662 12.2345C9.59507 15.2799 9.8651 16.1484 10.7797 19.6234C11.39 22.0293 14.6076 23.2481 15.8658 23.3409C15.8989 23.3407 15.932 23.3405 15.932 23.3405C15.9651 23.3403 15.9982 23.3401 15.9982 23.3401C17.2223 23.2657 20.4247 21.9746 21.0389 19.5612C21.8784 16.109 22.1708 15.2037 22.1523 12.1583C22.1215 7.07146 19.3987 5.58194 15.8239 5.5032Z" fill="#ECB79E"/>
<path d="M21.4703 14.2709L21.0914 17.2852C22.6178 17.9453 22.861 14.3963 22.861 14.3963C22.4917 13.5284 21.4703 14.2709 21.4703 14.2709Z" fill="#ECB79E"/>
<path d="M8.69678 14.5156C8.69678 14.5156 8.94993 18.0616 10.5013 17.3828L10.0859 14.3733C10.0857 14.3398 9.05534 13.6098 8.69678 14.5156Z" fill="#ECB79E"/>
<path d="M18.7891 25.1638L26.3465 27.0925C26.3465 27.0925 28.9302 27.4785 29.6063 29.8171L30.7573 34.0604L16.0635 34.1495L15.9311 34.1503L1.2705 34.2391L2.36995 29.9821C3.01763 27.6355 5.59653 27.2183 5.59653 27.2183L13.0969 25.1983L18.7891 25.1638Z" fill="#ECB79E"/>
<path d="M1.2705 34.2391L2.36995 29.9821C3.01763 27.6355 5.59653 27.2183 5.59653 27.2183L13.0969 25.1983L18.7891 25.1638L26.3465 27.0925C26.3465 27.0925 28.9302 27.4785 29.6063 29.8171L30.7573 34.0604" fill="white"/>
<path d="M16.4391 25.178L15.9758 25.1808L15.9427 25.181L15.4794 25.1838L14.1028 27.401L15.3358 28.7992L15.9646 28.7953L15.9977 28.7951L16.5934 28.7915L17.8424 27.3783L16.4391 25.178Z" fill="#FFB900"/>
<path d="M16.658 28.5234C15.8584 27.6581 15.4865 26.3551 15.711 25.1824L15.4794 25.1838L14.1028 27.401L15.3358 28.7992L16.5934 28.7915L16.7578 28.6232C16.7243 28.5565 16.6912 28.5567 16.658 28.5234Z" fill="#FF9500"/>
<path d="M18.7473 23.7584L15.9434 25.2814L17.8137 28.0813L21.1438 26.0197L18.7473 23.7584Z" fill="#BCBEC0"/>
<path d="M18.7473 23.7584L15.9434 25.2814L17.8445 27.713L20.9773 25.8534L18.7473 23.7584Z" fill="white"/>
<path d="M13.1212 23.6921L15.9433 25.181L14.107 28.0034L10.7191 25.9824L13.1212 23.6921Z" fill="#BCBEC0"/>
<path d="M13.1216 23.6921L15.9437 25.181L14.0722 27.6354L10.9171 25.8139L13.1216 23.6921Z" fill="white"/>
<path d="M10.9492 25.7801L5.59653 27.2181C5.59653 27.2181 3.01763 27.6354 2.36995 29.982L1.2705 34.239L30.7572 34.0603L29.6063 29.817C28.9302 27.4784 26.3465 27.0924 26.3465 27.0924L20.7106 25.4867L15.9959 33.9155L10.9492 25.7801Z" fill="#008444"/>
<path d="M15.3362 28.7991L14.6593 31.7818L15.996 33.9156L17.1744 31.7665L16.5938 28.7915L15.3362 28.7991Z" fill="#FFB900"/>
<path d="M10.949 25.7803L8.40478 26.4651L9.86436 27.0252L8.97691 28.0346L14.1438 34.1612L16.1294 34.1492L10.949 25.7803Z" fill="#16A75C"/>
<path d="M20.7108 25.4867L23.5289 26.3063L22.0766 26.951L22.9762 27.9495L17.884 34.1383L15.8983 34.1504L20.7108 25.4867Z" fill="#16A75C"/>
<path d="M21.4907 17.6842L21.0292 17.9882L21.4637 13.2333L20.6926 11.5981C20.6926 11.5981 21.3653 7.9126 16.1689 7.84368C16.1689 7.84368 11.766 7.63609 11.2156 9.64745C11.2156 9.64745 8.80889 5.71291 15.2234 4.73697C15.2234 4.73697 21.6404 4.16262 22.3593 8.10738C22.3593 8.10738 22.8821 12.4549 22.0659 14.3006L21.4907 17.6842Z" fill="#212121"/>
<path d="M9.30032 10.362C9.30032 10.362 9.37624 11.9679 9.68869 14.3757L10.2718 17.7523L10.7369 18.0507L10.2448 13.3014L11.0275 11.389L11.1836 9.84856L11.2486 9.64736L11.2328 7.03703C9.34786 7.28272 9.30032 10.362 9.30032 10.362Z" fill="#212121"/>
<path d="M11.4993 7.33651C11.6327 7.50303 11.8657 7.73589 11.9327 7.86935C11.9644 7.63489 11.8308 7.4349 11.8294 7.20064C12.1945 7.36576 12.6251 7.43009 12.9899 7.56175C12.9887 7.36095 12.9211 7.12709 12.8868 6.9265C13.4821 6.85596 13.8494 7.3892 14.412 7.3858C14.4432 7.0844 14.2763 6.85114 14.2745 6.54995C14.87 6.51288 15.3696 7.04532 15.932 7.00845C15.8977 6.80785 15.8299 6.54053 15.7956 6.33993C16.3249 6.30326 17.1896 7.00083 17.5886 7.29962C17.5869 7.03189 17.5853 6.76416 17.6168 6.49623C18.3798 6.79282 18.9789 7.35813 19.6434 7.78917C19.6751 7.55471 19.5746 7.35452 19.5732 7.12026C20.3697 7.48357 20.8058 8.45147 21.3724 9.11738C21.3712 8.91658 21.238 8.78352 21.237 8.61619C21.3706 8.81619 21.5042 9.01618 21.6709 9.21597C21.3373 8.78292 21.102 8.18194 20.9004 7.68116C20.9676 7.84808 21.0681 8.04828 21.1684 8.215C20.8346 7.74849 20.3023 7.28317 20.1334 6.71526C20.1011 6.84932 20.1681 6.98278 20.2682 7.11605C20.0014 6.78299 19.4355 6.25095 19.0376 6.11949C19.0719 6.32008 19.2713 6.45274 19.3056 6.65334C19.0067 6.48781 18.6734 6.08823 18.342 6.0233C18.3755 6.09003 18.343 6.19063 18.3763 6.2239C17.9796 6.29323 17.5141 5.92792 17.1819 5.72913C17.1827 5.86299 17.2495 5.96299 17.2503 6.09685C16.9521 6.03172 16.6526 5.7658 16.3546 5.73414C16.3221 5.83474 16.3227 5.93514 16.3564 6.03533C15.9264 6.0714 15.528 5.87302 15.0982 5.94255C15.0984 5.97602 15.0992 6.10988 15.1325 6.14315C14.9333 6.04395 14.4028 5.87983 14.1718 5.98163C13.9736 6.04977 14.0069 6.08303 14.0414 6.31709C13.6776 6.35277 13.3465 6.3213 12.9824 6.32351C12.983 6.42391 12.9505 6.52451 12.9512 6.6249C12.6866 6.65997 12.4545 6.59444 12.1898 6.59605C12.1902 6.66298 12.1573 6.69665 12.1577 6.76358C11.893 6.76518 11.4952 6.66719 11.5638 7.06838C11.5307 7.06858 11.4977 7.06878 11.4644 7.03552C11.4321 7.16958 11.4658 7.26978 11.5984 7.30244" fill="#424242"/>
<path d="M10.6726 7.44202C10.7083 7.87687 10.9751 8.20993 10.9448 8.67865C10.914 9.04698 10.8187 9.71689 10.4892 9.95316C10.4953 10.9571 10.571 12.5296 9.8811 13.3705C9.77999 13.0699 9.74426 12.635 9.54408 12.3685C9.64376 12.4348 9.74345 12.5012 9.87583 12.5004C9.807 12.0657 9.5388 11.4984 9.60215 11.0295C9.76843 11.1623 9.90162 11.2954 10.0679 11.4283C10.0992 11.1269 9.833 10.8942 9.76519 10.6269C9.69738 10.3596 9.52785 9.69125 9.55912 9.38985C9.7583 9.48905 9.92519 9.72231 10.0917 9.88863C10.0568 9.58764 10.0547 9.25298 10.0529 8.95179C10.1855 8.98445 10.2852 9.05079 10.4177 9.08345C10.4494 8.84899 10.2829 8.68266 10.2486 8.48207C10.2145 8.31494 10.2135 8.14761 10.2125 7.98028C10.3453 8.04641 10.4783 8.146 10.6112 8.2456C10.544 8.07867 10.3759 7.64462 10.5404 7.47629" fill="#424242"/>
</g>
</g>
<defs>
<clipPath id="clip0_268_29437">
<rect width="32" height="32" rx="16" fill="white"/>
</clipPath>
<clipPath id="clip1_268_29437">
<rect x="4.11938" y="2.14285" width="23.5808" height="29.8577" rx="2.03575" transform="rotate(-0.347123 4.11938 2.14285)" fill="white"/>
</clipPath>
</defs>
</svg>
