<svg width="24" height="24" viewBox="0 0 24 24" fill="none" xmlns="http://www.w3.org/2000/svg">
<mask id="mask0_27_2158" style="mask-type:alpha" maskUnits="userSpaceOnUse" x="0" y="0" width="24" height="24">
<rect width="24" height="24" fill="#D9D9D9"/>
</mask>
<g mask="url(#mask0_27_2158)">
<path d="M4 20C3.45 20 2.97917 19.8042 2.5875 19.4125C2.19583 19.0208 2 18.55 2 18V6C2 5.45 2.19583 4.97917 2.5875 4.5875C2.97917 4.19583 3.45 4 4 4H9.175C9.44167 4 9.69583 4.05 9.9375 4.15C10.1792 4.25 10.3917 4.39167 10.575 4.575L12 6H21C21.2833 6 21.5208 6.09583 21.7125 6.2875C21.9042 6.47917 22 6.71667 22 7C22 7.28333 21.9042 7.52083 21.7125 7.7125C21.5208 7.90417 21.2833 8 21 8H7.85C6.81667 8 5.91667 8.325 5.15 8.975C4.38333 9.625 4 10.45 4 11.45V18L5.975 11.425C6.10833 10.9917 6.35417 10.6458 6.7125 10.3875C7.07083 10.1292 7.46667 10 7.9 10H20.8C21.4833 10 22.0208 10.2708 22.4125 10.8125C22.8042 11.3542 22.9083 11.9417 22.725 12.575L20.925 18.575C20.7917 19.0083 20.5458 19.3542 20.1875 19.6125C19.8292 19.8708 19.4333 20 19 20H4Z" fill="#069550"/>
<path d="M5.975 11.425L4 18L3.44721 19.1056C3.24175 19.5165 3.54056 20 4 20H19C19.4333 20 19.8292 19.8708 20.1875 19.6125C20.5458 19.3542 20.7917 19.0083 20.925 18.575L22.725 12.575C22.9083 11.9417 22.8042 11.3542 22.4125 10.8125C22.0208 10.2708 21.4833 10 20.8 10H7.9C7.46667 10 7.07083 10.1292 6.7125 10.3875C6.35417 10.6458 6.10833 10.9917 5.975 11.425Z" fill="#FFA600"/>
</g>
</svg>
