<svg width="24" height="24" viewBox="0 0 24 24" fill="none" xmlns="http://www.w3.org/2000/svg">
<mask id="mask0_76_139691" style="mask-type:alpha" maskUnits="userSpaceOnUse" x="0" y="0" width="24" height="24">
<rect width="24" height="24" fill="#D9D9D9"/>
</mask>
<g mask="url(#mask0_76_139691)">
<path d="M5.55 10.5C5.35 10.4167 5.1625 10.3292 4.9875 10.2375C4.8125 10.1458 4.63333 10.0333 4.45 9.9L3.725 10.125C3.50833 10.1917 3.29583 10.1833 3.0875 10.1C2.87916 10.0167 2.71666 9.88333 2.6 9.7L2.4 9.35C2.28333 9.15 2.24166 8.93333 2.275 8.7C2.30833 8.46667 2.41666 8.275 2.6 8.125L3.15 7.65C3.11666 7.43333 3.1 7.21667 3.1 7C3.1 6.78333 3.11666 6.56667 3.15 6.35L2.6 5.875C2.41666 5.725 2.30833 5.5375 2.275 5.3125C2.24166 5.0875 2.28333 4.875 2.4 4.675L2.625 4.3C2.74166 4.11667 2.9 3.98333 3.1 3.9C3.3 3.81667 3.50833 3.80833 3.725 3.875L4.45 4.1C4.63333 3.96667 4.8125 3.85417 4.9875 3.7625C5.1625 3.67083 5.35 3.58333 5.55 3.5L5.7 2.775C5.75 2.54167 5.8625 2.35417 6.0375 2.2125C6.2125 2.07083 6.41666 2 6.65 2H7.05C7.28333 2 7.4875 2.075 7.6625 2.225C7.8375 2.375 7.95 2.56667 8 2.8L8.15 3.5C8.35 3.58333 8.5375 3.67083 8.7125 3.7625C8.8875 3.85417 9.06666 3.96667 9.25 4.1L9.975 3.875C10.1917 3.80833 10.4042 3.81667 10.6125 3.9C10.8208 3.98333 10.9833 4.11667 11.1 4.3L11.3 4.65C11.4167 4.85 11.4583 5.06667 11.425 5.3C11.3917 5.53333 11.2833 5.725 11.1 5.875L10.55 6.35C10.5833 6.56667 10.6 6.78333 10.6 7C10.6 7.21667 10.5833 7.43333 10.55 7.65L11.1 8.125C11.2833 8.275 11.3917 8.4625 11.425 8.6875C11.4583 8.9125 11.4167 9.125 11.3 9.325L11.075 9.7C10.9583 9.88333 10.8 10.0167 10.6 10.1C10.4 10.1833 10.1917 10.1917 9.975 10.125L9.25 9.9C9.06666 10.0333 8.8875 10.1458 8.7125 10.2375C8.5375 10.3292 8.35 10.4167 8.15 10.5L8 11.225C7.95 11.4583 7.8375 11.6458 7.6625 11.7875C7.4875 11.9292 7.28333 12 7.05 12H6.65C6.41666 12 6.2125 11.925 6.0375 11.775C5.8625 11.625 5.75 11.4333 5.7 11.2L5.55 10.5ZM6.85 9C7.4 9 7.87083 8.80417 8.2625 8.4125C8.65416 8.02083 8.85 7.55 8.85 7C8.85 6.45 8.65416 5.97917 8.2625 5.5875C7.87083 5.19583 7.4 5 6.85 5C6.3 5 5.82916 5.19583 5.4375 5.5875C5.04583 5.97917 4.85 6.45 4.85 7C4.85 7.55 5.04583 8.02083 5.4375 8.4125C5.82916 8.80417 6.3 9 6.85 9ZM14.35 20.9C14.0667 20.8 13.8042 20.6792 13.5625 20.5375C13.3208 20.3958 13.0833 20.2333 12.85 20.05L11.9 20.35C11.6 20.45 11.3 20.4458 11 20.3375C10.7 20.2292 10.4667 20.0333 10.3 19.75L10.025 19.275C9.85833 18.9917 9.8 18.6875 9.85 18.3625C9.9 18.0375 10.05 17.7667 10.3 17.55L11.05 16.9C11.0167 16.6 11 16.3 11 16C11 15.7 11.0167 15.4 11.05 15.1L10.3 14.425C10.05 14.2083 9.9 13.9417 9.85 13.625C9.8 13.3083 9.85833 13.0083 10.025 12.725L10.3 12.25C10.4667 11.9667 10.7 11.7708 11 11.6625C11.3 11.5542 11.6 11.55 11.9 11.65L12.85 11.95C13.0833 11.7667 13.3208 11.6042 13.5625 11.4625C13.8042 11.3208 14.0667 11.2 14.35 11.1L14.575 10.075C14.6417 9.75833 14.7958 9.5 15.0375 9.3C15.2792 9.1 15.5667 9 15.9 9H16.5C16.8333 9 17.1208 9.1 17.3625 9.3C17.6042 9.5 17.7583 9.75833 17.825 10.075L18.05 11.1C18.3333 11.2 18.5958 11.3208 18.8375 11.4625C19.0792 11.6042 19.3167 11.7667 19.55 11.95L20.5 11.65C20.8 11.55 21.1 11.5542 21.4 11.6625C21.7 11.7708 21.9333 11.9667 22.1 12.25L22.375 12.725C22.5417 13.0083 22.6 13.3125 22.55 13.6375C22.5 13.9625 22.35 14.2333 22.1 14.45L21.35 15.1C21.3833 15.4 21.4 15.7 21.4 16C21.4 16.3 21.3833 16.6 21.35 16.9L22.1 17.575C22.35 17.7917 22.5 18.0583 22.55 18.375C22.6 18.6917 22.5417 18.9917 22.375 19.275L22.1 19.75C21.9333 20.0333 21.7 20.2292 21.4 20.3375C21.1 20.4458 20.8 20.45 20.5 20.35L19.55 20.05C19.3167 20.2333 19.0792 20.3958 18.8375 20.5375C18.5958 20.6792 18.3333 20.8 18.05 20.9L17.825 21.925C17.7583 22.2417 17.6042 22.5 17.3625 22.7C17.1208 22.9 16.8333 23 16.5 23H15.9C15.5667 23 15.2792 22.9 15.0375 22.7C14.7958 22.5 14.6417 22.2417 14.575 21.925L14.35 20.9ZM16.2 19C17.0333 19 17.7417 18.7083 18.325 18.125C18.9083 17.5417 19.2 16.8333 19.2 16C19.2 15.1667 18.9083 14.4583 18.325 13.875C17.7417 13.2917 17.0333 13 16.2 13C15.3667 13 14.6583 13.2917 14.075 13.875C13.4917 14.4583 13.2 15.1667 13.2 16C13.2 16.8333 13.4917 17.5417 14.075 18.125C14.6583 18.7083 15.3667 19 16.2 19Z" fill="#069550"/>
<path d="M5.55 10.5C5.35 10.4167 5.1625 10.3292 4.9875 10.2375C4.8125 10.1458 4.63333 10.0333 4.45 9.9L3.725 10.125C3.50833 10.1917 3.29583 10.1833 3.0875 10.1C2.87916 10.0167 2.71666 9.88333 2.6 9.7L2.4 9.35C2.28333 9.15 2.24166 8.93333 2.275 8.7C2.30833 8.46667 2.41666 8.275 2.6 8.125L3.15 7.65C3.11666 7.43333 3.1 7.21667 3.1 7C3.1 6.78333 3.11666 6.56667 3.15 6.35L2.6 5.875C2.41666 5.725 2.30833 5.5375 2.275 5.3125C2.24166 5.0875 2.28333 4.875 2.4 4.675L2.625 4.3C2.74166 4.11667 2.9 3.98333 3.1 3.9C3.3 3.81667 3.50833 3.80833 3.725 3.875L4.45 4.1C4.63333 3.96667 4.8125 3.85417 4.9875 3.7625C5.1625 3.67083 5.35 3.58333 5.55 3.5L5.7 2.775C5.75 2.54167 5.8625 2.35417 6.0375 2.2125C6.2125 2.07083 6.41666 2 6.65 2H7.05C7.28333 2 7.4875 2.075 7.6625 2.225C7.8375 2.375 7.95 2.56667 8 2.8L8.15 3.5C8.35 3.58333 8.5375 3.67083 8.7125 3.7625C8.8875 3.85417 9.06666 3.96667 9.25 4.1L9.975 3.875C10.1917 3.80833 10.4042 3.81667 10.6125 3.9C10.8208 3.98333 10.9833 4.11667 11.1 4.3L11.3 4.65C11.4167 4.85 11.4583 5.06667 11.425 5.3C11.3917 5.53333 11.2833 5.725 11.1 5.875L10.55 6.35C10.5833 6.56667 10.6 6.78333 10.6 7C10.6 7.21667 10.5833 7.43333 10.55 7.65L11.1 8.125C11.2833 8.275 11.3917 8.4625 11.425 8.6875C11.4583 8.9125 11.4167 9.125 11.3 9.325L11.075 9.7C10.9583 9.88333 10.8 10.0167 10.6 10.1C10.4 10.1833 10.1917 10.1917 9.975 10.125L9.25 9.9C9.06666 10.0333 8.8875 10.1458 8.7125 10.2375C8.5375 10.3292 8.35 10.4167 8.15 10.5L8 11.225C7.95 11.4583 7.8375 11.6458 7.6625 11.7875C7.4875 11.9292 7.28333 12 7.05 12H6.65C6.41666 12 6.2125 11.925 6.0375 11.775C5.8625 11.625 5.75 11.4333 5.7 11.2L5.55 10.5ZM6.85 9C7.4 9 7.87083 8.80417 8.2625 8.4125C8.65416 8.02083 8.85 7.55 8.85 7C8.85 6.45 8.65416 5.97917 8.2625 5.5875C7.87083 5.19583 7.4 5 6.85 5C6.3 5 5.82916 5.19583 5.4375 5.5875C5.04583 5.97917 4.85 6.45 4.85 7C4.85 7.55 5.04583 8.02083 5.4375 8.4125C5.82916 8.80417 6.3 9 6.85 9Z" fill="#FFA600"/>
</g>
</svg>
