<svg width="32" height="32" viewBox="0 0 32 32" fill="none" xmlns="http://www.w3.org/2000/svg">
    <mask id="mask0_2163_68873" style="mask-type:alpha" maskUnits="userSpaceOnUse" x="0" y="0" width="32" height="32">
        <rect width="32" height="32" fill="#D9D9D9" />
    </mask>
    <g mask="url(#mask0_2163_68873)">
        <path
            d="M13.3334 7.99999H18.6667V5.33332H13.3334V7.99999ZM24 30.6667C22.1556 30.6667 20.5834 30.0167 19.2834 28.7167C17.9834 27.4167 17.3334 25.8444 17.3334 24C17.3334 22.1555 17.9834 20.5833 19.2834 19.2833C20.5834 17.9833 22.1556 17.3333 24 17.3333C25.8445 17.3333 27.4167 17.9833 28.7167 19.2833C30.0167 20.5833 30.6667 22.1555 30.6667 24C30.6667 25.8444 30.0167 27.4167 28.7167 28.7167C27.4167 30.0167 25.8445 30.6667 24 30.6667ZM5.33335 28C4.60002 28 3.97224 27.7389 3.45002 27.2167C2.9278 26.6944 2.66669 26.0667 2.66669 25.3333V10.6667C2.66669 9.93332 2.9278 9.30555 3.45002 8.78332C3.97224 8.2611 4.60002 7.99999 5.33335 7.99999H10.6667V5.33332C10.6667 4.59999 10.9278 3.97221 11.45 3.44999C11.9722 2.92777 12.6 2.66666 13.3334 2.66666H18.6667C19.4 2.66666 20.0278 2.92777 20.55 3.44999C21.0722 3.97221 21.3334 4.59999 21.3334 5.33332V7.99999H26.6667C27.4 7.99999 28.0278 8.2611 28.55 8.78332C29.0722 9.30555 29.3334 9.93332 29.3334 10.6667V14.5333C29.3334 14.9333 29.1611 15.2333 28.8167 15.4333C28.4722 15.6333 28.1111 15.6444 27.7334 15.4667C27.1556 15.2 26.55 15 25.9167 14.8667C25.2834 14.7333 24.6445 14.6667 24 14.6667C21.4222 14.6667 19.2222 15.5778 17.4 17.4C15.5778 19.2222 14.6667 21.4222 14.6667 24C14.6667 24.4 14.6945 24.8055 14.75 25.2167C14.8056 25.6278 14.8889 26.0333 15 26.4333C15.1111 26.8111 15.05 27.1667 14.8167 27.5C14.5834 27.8333 14.2778 28 13.9 28H5.33335ZM24 28C24.1778 28 24.3334 27.9333 24.4667 27.8C24.6 27.6667 24.6667 27.5111 24.6667 27.3333C24.6667 27.1555 24.6 27 24.4667 26.8667C24.3334 26.7333 24.1778 26.6667 24 26.6667C23.8222 26.6667 23.6667 26.7333 23.5334 26.8667C23.4 27 23.3334 27.1555 23.3334 27.3333C23.3334 27.5111 23.4 27.6667 23.5334 27.8C23.6667 27.9333 23.8222 28 24 28ZM24 25.3333C24.1778 25.3333 24.3334 25.2667 24.4667 25.1333C24.6 25 24.6667 24.8444 24.6667 24.6667V20.6667C24.6667 20.4889 24.6 20.3333 24.4667 20.2C24.3334 20.0667 24.1778 20 24 20C23.8222 20 23.6667 20.0667 23.5334 20.2C23.4 20.3333 23.3334 20.4889 23.3334 20.6667V24.6667C23.3334 24.8444 23.4 25 23.5334 25.1333C23.6667 25.2667 23.8222 25.3333 24 25.3333Z"
            fill="#FFA600" />
        <path
            d="M13.3334 7.99999H18.6667V5.33332H13.3334V7.99999ZM5.33335 28C4.60002 28 3.97224 27.7389 3.45002 27.2167C2.9278 26.6944 2.66669 26.0667 2.66669 25.3333V10.6667C2.66669 9.93332 2.9278 9.30555 3.45002 8.78332C3.97224 8.2611 4.60002 7.99999 5.33335 7.99999H10.6667V5.33332C10.6667 4.59999 10.9278 3.97221 11.45 3.44999C11.9722 2.92777 12.6 2.66666 13.3334 2.66666H18.6667C19.4 2.66666 20.0278 2.92777 20.55 3.44999C21.0722 3.97221 21.3334 4.59999 21.3334 5.33332V7.99999H26.6667C27.4 7.99999 28.0278 8.2611 28.55 8.78332C29.0722 9.30555 29.3334 9.93332 29.3334 10.6667V14.5333C29.3334 14.9333 29.1611 15.2333 28.8167 15.4333C28.4722 15.6333 28.1111 15.6444 27.7334 15.4667C27.1556 15.2 26.55 15 25.9167 14.8667C25.2834 14.7333 24.6445 14.6667 24 14.6667C21.4222 14.6667 19.2222 15.5778 17.4 17.4C15.5778 19.2222 14.6667 21.4222 14.6667 24C14.6667 24.4 14.6945 24.8055 14.75 25.2167C14.8056 25.6278 14.8889 26.0333 15 26.4333C15.1111 26.8111 15.05 27.1667 14.8167 27.5C14.5834 27.8333 14.2778 28 13.9 28H5.33335Z"
            fill="#069550" />
    </g>
</svg>