<svg width="24" height="24" viewBox="0 0 24 24" fill="none" xmlns="http://www.w3.org/2000/svg">
<mask id="mask0_27_2160" style="mask-type:alpha" maskUnits="userSpaceOnUse" x="0" y="0" width="24" height="24">
<rect width="24" height="24" fill="#D9D9D9"/>
</mask>
<g mask="url(#mask0_27_2160)">
<path d="M10 6H14V4H10V6ZM18 23C16.6167 23 15.4375 22.5125 14.4625 21.5375C13.4875 20.5625 13 19.3833 13 18C13 16.6167 13.4875 15.4375 14.4625 14.4625C15.4375 13.4875 16.6167 13 18 13C19.3833 13 20.5625 13.4875 21.5375 14.4625C22.5125 15.4375 23 16.6167 23 18C23 19.3833 22.5125 20.5625 21.5375 21.5375C20.5625 22.5125 19.3833 23 18 23ZM4 21C3.45 21 2.97917 20.8042 2.5875 20.4125C2.19583 20.0208 2 19.55 2 19V8C2 7.45 2.19583 6.97917 2.5875 6.5875C2.97917 6.19583 3.45 6 4 6H8V4C8 3.45 8.19583 2.97917 8.5875 2.5875C8.97917 2.19583 9.45 2 10 2H14C14.55 2 15.0208 2.19583 15.4125 2.5875C15.8042 2.97917 16 3.45 16 4V6H20C20.55 6 21.0208 6.19583 21.4125 6.5875C21.8042 6.97917 22 7.45 22 8V10.9C22 11.2 21.8708 11.425 21.6125 11.575C21.3542 11.725 21.0833 11.7333 20.8 11.6C20.3667 11.4 19.9125 11.25 19.4375 11.15C18.9625 11.05 18.4833 11 18 11C16.0667 11 14.4167 11.6833 13.05 13.05C11.6833 14.4167 11 16.0667 11 18C11 18.3 11.0208 18.6042 11.0625 18.9125C11.1042 19.2208 11.1667 19.525 11.25 19.825C11.3333 20.1083 11.2875 20.375 11.1125 20.625C10.9375 20.875 10.7083 21 10.425 21H4ZM18.5 17.8V15.5C18.5 15.3667 18.45 15.25 18.35 15.15C18.25 15.05 18.1333 15 18 15C17.8667 15 17.75 15.05 17.65 15.15C17.55 15.25 17.5 15.3667 17.5 15.5V17.775C17.5 17.9083 17.525 18.0375 17.575 18.1625C17.625 18.2875 17.7 18.4 17.8 18.5L19.3 20C19.4 20.1 19.5167 20.15 19.65 20.15C19.7833 20.15 19.9 20.1 20 20C20.1 19.9 20.15 19.7833 20.15 19.65C20.15 19.5167 20.1 19.4 20 19.3L18.5 17.8Z" fill="#FFA600"/>
<path d="M10 6H14V4H10V6ZM4 21C3.45 21 2.97917 20.8042 2.5875 20.4125C2.19583 20.0208 2 19.55 2 19V8C2 7.45 2.19583 6.97917 2.5875 6.5875C2.97917 6.19583 3.45 6 4 6H8V4C8 3.45 8.19583 2.97917 8.5875 2.5875C8.97917 2.19583 9.45 2 10 2H14C14.55 2 15.0208 2.19583 15.4125 2.5875C15.8042 2.97917 16 3.45 16 4V6H20C20.55 6 21.0208 6.19583 21.4125 6.5875C21.8042 6.97917 22 7.45 22 8V10.9C22 11.2 21.8708 11.425 21.6125 11.575C21.3542 11.725 21.0833 11.7333 20.8 11.6C20.3667 11.4 19.9125 11.25 19.4375 11.15C18.9625 11.05 18.4833 11 18 11C16.0667 11 14.4167 11.6833 13.05 13.05C11.6833 14.4167 11 16.0667 11 18C11 18.3 11.0208 18.6042 11.0625 18.9125C11.1042 19.2208 11.1667 19.525 11.25 19.825C11.3333 20.1083 11.2875 20.375 11.1125 20.625C10.9375 20.875 10.7083 21 10.425 21H4Z" fill="#069550"/>
</g>
</svg>
