<svg width="65" height="65" viewBox="0 0 65 65" fill="none" xmlns="http://www.w3.org/2000/svg">
<g opacity="0.25">
<rect x="64.9473" width="2.91371" height="2.91371" rx="1.45686" transform="rotate(90 64.9473 0)" fill="#E3F2FD"/>
<rect x="29.9828" width="2.91371" height="2.91371" rx="1.45686" transform="rotate(90 29.9828 0)" fill="#90CAF9"/>
<rect x="47.4652" width="2.91371" height="2.91371" rx="1.45686" transform="rotate(90 47.4652 0)" fill="#BBDEFB"/>
<rect x="12.5005" width="2.91371" height="2.91371" rx="1.45686" transform="rotate(90 12.5005 0)" fill="#64B5F6"/>
<rect x="56.2062" width="2.91371" height="2.91371" rx="1.45686" transform="rotate(90 56.2062 0)" fill="#E3F2FD"/>
<rect x="21.2417" width="2.91371" height="2.91371" rx="1.45686" transform="rotate(90 21.2417 0)" fill="#90CAF9"/>
<rect x="38.7239" width="2.91371" height="2.91371" rx="1.45686" transform="rotate(90 38.7239 0)" fill="#BBDEFB"/>
<rect x="3.75916" width="2.91371" height="2.91371" rx="1.45686" transform="rotate(90 3.75916 0)" fill="#64B5F6"/>
<rect x="64.9473" y="26.2234" width="2.91371" height="2.91371" rx="1.45686" transform="rotate(90 64.9473 26.2234)" fill="#BBDEFB"/>
<rect x="29.9828" y="26.2234" width="2.91371" height="2.91371" rx="1.45686" transform="rotate(90 29.9828 26.2234)" fill="#90CAF9"/>
<rect x="47.4652" y="26.2234" width="2.91371" height="2.91371" rx="1.45686" transform="rotate(90 47.4652 26.2234)" fill="#BBDEFB"/>
<rect x="12.5005" y="26.2234" width="2.91371" height="2.91371" rx="1.45686" transform="rotate(90 12.5005 26.2234)" fill="#64B5F6"/>
<rect x="56.2062" y="26.2234" width="2.91371" height="2.91371" rx="1.45686" transform="rotate(90 56.2062 26.2234)" fill="#BBDEFB"/>
<rect x="21.2417" y="26.2234" width="2.91371" height="2.91371" rx="1.45686" transform="rotate(90 21.2417 26.2234)" fill="#90CAF9"/>
<rect x="38.7239" y="26.2234" width="2.91371" height="2.91371" rx="1.45686" transform="rotate(90 38.7239 26.2234)" fill="#BBDEFB"/>
<rect x="3.7594" y="26.2234" width="2.91371" height="2.91371" rx="1.45686" transform="rotate(90 3.7594 26.2234)" fill="#64B5F6"/>
<rect x="64.9473" y="8.74115" width="2.91371" height="2.91371" rx="1.45686" transform="rotate(90 64.9473 8.74115)" fill="#E3F2FD"/>
<rect x="29.9828" y="8.74115" width="2.91371" height="2.91371" rx="1.45686" transform="rotate(90 29.9828 8.74115)" fill="#90CAF9"/>
<rect x="47.4652" y="8.74115" width="2.91371" height="2.91371" rx="1.45686" transform="rotate(90 47.4652 8.74115)" fill="#BBDEFB"/>
<rect x="12.5005" y="8.74115" width="2.91371" height="2.91371" rx="1.45686" transform="rotate(90 12.5005 8.74115)" fill="#64B5F6"/>
<rect x="56.2062" y="8.74115" width="2.91371" height="2.91371" rx="1.45686" transform="rotate(90 56.2062 8.74115)" fill="#E3F2FD"/>
<rect x="21.2417" y="8.74115" width="2.91371" height="2.91371" rx="1.45686" transform="rotate(90 21.2417 8.74115)" fill="#90CAF9"/>
<rect x="38.7239" y="8.74115" width="2.91371" height="2.91371" rx="1.45686" transform="rotate(90 38.7239 8.74115)" fill="#BBDEFB"/>
<rect x="3.7594" y="8.74115" width="2.91371" height="2.91371" rx="1.45686" transform="rotate(90 3.7594 8.74115)" fill="#64B5F6"/>
<rect x="64.9473" y="34.9648" width="2.91371" height="2.91371" rx="1.45686" transform="rotate(90 64.9473 34.9648)" fill="#90CAF9"/>
<rect x="29.9828" y="34.9648" width="2.91371" height="2.91371" rx="1.45686" transform="rotate(90 29.9828 34.9648)" fill="#90CAF9"/>
<rect x="47.4651" y="34.9648" width="2.91371" height="2.91371" rx="1.45686" transform="rotate(90 47.4651 34.9648)" fill="#90CAF9"/>
<rect x="12.5006" y="34.9648" width="2.91371" height="2.91371" rx="1.45686" transform="rotate(90 12.5006 34.9648)" fill="#64B5F6"/>
<rect x="56.2061" y="34.9648" width="2.91371" height="2.91371" rx="1.45686" transform="rotate(90 56.2061 34.9648)" fill="#90CAF9"/>
<rect x="21.2417" y="34.9648" width="2.91371" height="2.91371" rx="1.45686" transform="rotate(90 21.2417 34.9648)" fill="#90CAF9"/>
<rect x="38.7239" y="34.9648" width="2.91371" height="2.91371" rx="1.45686" transform="rotate(90 38.7239 34.9648)" fill="#90CAF9"/>
<rect x="3.7594" y="34.9648" width="2.91371" height="2.91371" rx="1.45686" transform="rotate(90 3.7594 34.9648)" fill="#64B5F6"/>
<rect x="64.9473" y="52.4471" width="2.91371" height="2.91371" rx="1.45686" transform="rotate(90 64.9473 52.4471)" fill="#64B5F6"/>
<rect x="29.9828" y="52.4471" width="2.91371" height="2.91371" rx="1.45686" transform="rotate(90 29.9828 52.4471)" fill="#64B5F6"/>
<rect x="47.4651" y="52.4471" width="2.91371" height="2.91371" rx="1.45686" transform="rotate(90 47.4651 52.4471)" fill="#64B5F6"/>
<rect x="12.5006" y="52.4471" width="2.91371" height="2.91371" rx="1.45686" transform="rotate(90 12.5006 52.4471)" fill="#64B5F6"/>
<rect x="56.2061" y="52.4471" width="2.91371" height="2.91371" rx="1.45686" transform="rotate(90 56.2061 52.4471)" fill="#64B5F6"/>
<rect x="21.2417" y="52.4471" width="2.91371" height="2.91371" rx="1.45686" transform="rotate(90 21.2417 52.4471)" fill="#64B5F6"/>
<rect x="38.7239" y="52.4471" width="2.91371" height="2.91371" rx="1.45686" transform="rotate(90 38.7239 52.4471)" fill="#64B5F6"/>
<rect x="3.7594" y="52.4471" width="2.91371" height="2.91371" rx="1.45686" transform="rotate(90 3.7594 52.4471)" fill="#64B5F6"/>
<rect x="64.9473" y="17.4823" width="2.91371" height="2.91371" rx="1.45686" transform="rotate(90 64.9473 17.4823)" fill="#BBDEFB"/>
<rect x="29.9828" y="17.4823" width="2.91371" height="2.91371" rx="1.45686" transform="rotate(90 29.9828 17.4823)" fill="#90CAF9"/>
<rect x="47.465" y="17.4823" width="2.91371" height="2.91371" rx="1.45686" transform="rotate(90 47.465 17.4823)" fill="#BBDEFB"/>
<rect x="12.5005" y="17.4823" width="2.91371" height="2.91371" rx="1.45686" transform="rotate(90 12.5005 17.4823)" fill="#64B5F6"/>
<rect x="56.2062" y="17.4823" width="2.91371" height="2.91371" rx="1.45686" transform="rotate(90 56.2062 17.4823)" fill="#BBDEFB"/>
<rect x="21.2417" y="17.4823" width="2.91371" height="2.91371" rx="1.45686" transform="rotate(90 21.2417 17.4823)" fill="#90CAF9"/>
<rect x="38.7239" y="17.4823" width="2.91371" height="2.91371" rx="1.45686" transform="rotate(90 38.7239 17.4823)" fill="#BBDEFB"/>
<rect x="3.7594" y="17.4823" width="2.91371" height="2.91371" rx="1.45686" transform="rotate(90 3.7594 17.4823)" fill="#64B5F6"/>
<rect x="64.9473" y="43.7059" width="2.91371" height="2.91371" rx="1.45686" transform="rotate(90 64.9473 43.7059)" fill="#90CAF9"/>
<rect x="29.9828" y="43.7059" width="2.91371" height="2.91371" rx="1.45686" transform="rotate(90 29.9828 43.7059)" fill="#90CAF9"/>
<rect x="47.4651" y="43.7059" width="2.91371" height="2.91371" rx="1.45686" transform="rotate(90 47.4651 43.7059)" fill="#90CAF9"/>
<rect x="12.5006" y="43.7059" width="2.91371" height="2.91371" rx="1.45686" transform="rotate(90 12.5006 43.7059)" fill="#64B5F6"/>
<rect x="56.2061" y="43.7059" width="2.91371" height="2.91371" rx="1.45686" transform="rotate(90 56.2061 43.7059)" fill="#90CAF9"/>
<rect x="21.2416" y="43.7059" width="2.91371" height="2.91371" rx="1.45686" transform="rotate(90 21.2416 43.7059)" fill="#90CAF9"/>
<rect x="38.7239" y="43.7059" width="2.91371" height="2.91371" rx="1.45686" transform="rotate(90 38.7239 43.7059)" fill="#90CAF9"/>
<rect x="3.7594" y="43.7059" width="2.91371" height="2.91371" rx="1.45686" transform="rotate(90 3.7594 43.7059)" fill="#64B5F6"/>
<rect x="64.9473" y="61.1883" width="2.91371" height="2.91371" rx="1.45686" transform="rotate(90 64.9473 61.1883)" fill="#64B5F6"/>
<rect x="29.9828" y="61.1883" width="2.91371" height="2.91371" rx="1.45686" transform="rotate(90 29.9828 61.1883)" fill="#64B5F6"/>
<rect x="47.4651" y="61.1883" width="2.91371" height="2.91371" rx="1.45686" transform="rotate(90 47.4651 61.1883)" fill="#64B5F6"/>
<rect x="12.5006" y="61.1883" width="2.91371" height="2.91371" rx="1.45686" transform="rotate(90 12.5006 61.1883)" fill="#64B5F6"/>
<rect x="56.2061" y="61.1883" width="2.91371" height="2.91371" rx="1.45686" transform="rotate(90 56.2061 61.1883)" fill="#64B5F6"/>
<rect x="21.2417" y="61.1883" width="2.91371" height="2.91371" rx="1.45686" transform="rotate(90 21.2417 61.1883)" fill="#64B5F6"/>
<rect x="38.7239" y="61.1883" width="2.91371" height="2.91371" rx="1.45686" transform="rotate(90 38.7239 61.1883)" fill="#64B5F6"/>
<rect x="3.7594" y="61.1883" width="2.91371" height="2.91371" rx="1.45686" transform="rotate(90 3.7594 61.1883)" fill="#64B5F6"/>
</g>
</svg>
