<svg width="24" height="25" viewBox="0 0 24 25" fill="none" xmlns="http://www.w3.org/2000/svg">
<ellipse cx="12.5" cy="12.5" rx="3.5" ry="6.5" fill="#FFA600"/>
<path fill-rule="evenodd" clip-rule="evenodd" d="M9.92154 2.69053C11.2077 1.92886 12.7923 1.92886 14.0785 2.69053L18.9215 5.5586C20.2077 6.32026 21 7.72788 21 9.2512V14.9874C21 16.5107 20.2077 17.9183 18.9215 18.68L14.0785 21.548C12.7923 22.3097 11.2077 22.3097 9.92154 21.548L5.07846 18.68C3.7923 17.9183 3 16.5107 3 14.9874V9.2512C3 7.72788 3.7923 6.32026 5.07846 5.5586L9.92154 2.69053ZM13 7.11928C13 7.67156 12.5523 8.11928 12 8.11928C11.4477 8.11928 11 7.67156 11 7.11928C11 6.56699 11.4477 6.11928 12 6.11928C12.5523 6.11928 13 6.56699 13 7.11928ZM11 9.36928C10.5858 9.36928 10.25 9.70506 10.25 10.1193C10.25 10.5335 10.5858 10.8693 11 10.8693H11.25V17.1193C11.25 17.5335 11.5858 17.8693 12 17.8693C12.4142 17.8693 12.75 17.5335 12.75 17.1193V10.1193C12.75 9.70506 12.4142 9.36928 12 9.36928H11Z" fill="#069550"/>
</svg>
