<svg width="603" height="244" viewBox="0 0 603 244" fill="none" xmlns="http://www.w3.org/2000/svg">
<g style="mix-blend-mode:luminosity">
<path d="M514.888 89.1741L514.526 88.3576C512.149 82.9952 506.835 79.5377 500.969 79.5377H487.094C482.74 79.5377 478.555 81.2191 475.411 84.231C472.087 87.416 470.208 91.8201 470.208 96.4238V107.5H502.965C507.689 107.5 512.044 104.945 514.349 100.821C516.351 97.2395 516.55 92.925 514.888 89.1741Z" fill="#FF9500"/>
<path d="M26.0001 205.5H587C595.837 205.5 603 198.337 603 189.5V158.959C603 125.822 576.137 98.9592 543 98.9592H486.403L413.052 23.6203C403.64 13.953 390.72 8.5 377.227 8.5H82.3961C67.1007 8.5 52.4051 14.4494 41.4174 25.0899C34.2225 32.0575 28.4266 40.3369 24.3422 49.482L6.95432 88.4139C2.36965 98.6791 6.10352e-05 109.795 6.10352e-05 121.038V179.5C6.10352e-05 193.859 11.6407 205.5 26.0001 205.5Z" fill="#FFB900"/>
<path d="M333.975 0H116.363C109.865 0 103.748 3.19096 100 8.5H350.5L348.971 6.76757C345.175 2.46477 339.713 0 333.975 0Z" fill="#FF9500"/>
<path fill-rule="evenodd" clip-rule="evenodd" d="M445.864 205.5C446.065 206.029 446.274 206.555 446.491 207.078C449.456 214.237 453.802 220.741 459.281 226.219C464.759 231.698 471.264 236.044 478.422 239.009C485.58 241.974 493.252 243.5 501 243.5C508.748 243.5 516.42 241.974 523.578 239.009C530.737 236.044 537.241 231.698 542.719 226.219C548.198 220.741 552.544 214.237 555.509 207.078C555.726 206.555 555.935 206.029 556.136 205.5H445.864Z" fill="#424242"/>
<path d="M540 194C540 207.128 534.785 219.719 525.502 229.002C516.219 238.285 503.628 243.5 490.5 243.5C477.372 243.5 464.781 238.285 455.498 229.002C446.215 219.719 441 207.128 441 194L490.5 194H540Z" fill="#212121"/>
<path fill-rule="evenodd" clip-rule="evenodd" d="M174.864 205.5C175.065 206.029 175.274 206.555 175.491 207.078C178.456 214.237 182.802 220.741 188.281 226.219C193.759 231.698 200.264 236.044 207.422 239.009C214.58 241.974 222.252 243.5 230 243.5C237.748 243.5 245.42 241.974 252.578 239.009C259.737 236.044 266.241 231.698 271.719 226.219C277.198 220.741 281.544 214.237 284.509 207.078C284.726 206.555 284.935 206.029 285.136 205.5H174.864Z" fill="#424242"/>
<path d="M269 194C269 207.128 263.785 219.719 254.502 229.002C245.219 238.285 232.628 243.5 219.5 243.5C206.372 243.5 193.781 238.285 184.498 229.002C175.215 219.719 170 207.128 170 194L219.5 194H269Z" fill="#212121"/>
<path d="M6.10352e-05 179.5V177.5L305 189.5H603C603 198.337 595.837 205.5 587 205.5H26.0001C11.6407 205.5 6.10352e-05 193.859 6.10352e-05 179.5Z" fill="#FF9500"/>
<path d="M603 189.5H451V183.964C451 177.822 454.879 172.349 460.675 170.316C462.214 169.776 463.833 169.5 465.464 169.5H595.126C596.982 169.5 598.779 170.156 600.198 171.351C601.975 172.847 603 175.051 603 177.374V189.5Z" fill="white"/>
<path d="M477 189.5V169.5H585V189.5H477Z" fill="#FF7500"/>
<path d="M442.223 139.345L442.399 139.102C444.032 136.84 446.653 135.5 449.443 135.5H598C598 135.5 599.838 138.272 601 143.5C602.162 148.728 602.5 152.5 602.5 152.5H448.949C446.451 152.5 444.085 151.374 442.51 149.435C440.144 146.523 440.026 142.387 442.223 139.345Z" fill="white"/>
<path d="M476.5 152.5L485.5 135.5H504.5L495.5 152.5H476.5Z" fill="#FFE483"/>
<path d="M585 152.5H566.5L557.5 135.5H576.5L585 152.5Z" fill="#FFE483"/>
<path d="M495.5 152.5L504.5 135.5H557.5L566.5 152.5H495.5Z" fill="#FF7500"/>
<path d="M424 195C424 187.186 422.461 179.449 419.471 172.23C416.481 165.011 412.098 158.452 406.573 152.927C401.048 147.402 394.489 143.019 387.27 140.029C380.051 137.039 372.314 135.5 364.5 135.5C356.686 135.5 348.949 137.039 341.73 140.029C334.512 143.019 327.952 147.402 322.427 152.927C316.902 158.452 312.519 165.011 309.529 172.23C306.539 179.449 305 187.186 305 195L364.5 195H424Z" fill="#FF9500"/>
<path d="M154 195.5C154 187.621 152.448 179.819 149.433 172.539C146.418 165.259 141.998 158.645 136.426 153.074C130.855 147.502 124.241 143.083 116.961 140.067C109.682 137.052 101.879 135.5 94.0001 135.5C86.1207 135.5 78.3186 137.052 71.0391 140.067C63.7595 143.083 57.1452 147.502 51.5737 153.074C46.0021 158.645 41.5826 165.259 38.5673 172.539C35.552 179.819 34.0001 187.621 34.0001 195.5L94.0001 195.5H154Z" fill="#FF9500"/>
<path fill-rule="evenodd" clip-rule="evenodd" d="M318.864 205.5C319.065 206.029 319.274 206.555 319.491 207.078C322.456 214.237 326.802 220.741 332.281 226.219C337.759 231.698 344.264 236.044 351.422 239.009C358.58 241.974 366.252 243.5 374 243.5C381.748 243.5 389.42 241.974 396.578 239.009C403.737 236.044 410.241 231.698 415.719 226.219C421.198 220.741 425.544 214.237 428.509 207.078C428.726 206.555 428.935 206.029 429.136 205.5H318.864Z" fill="#424242"/>
<path d="M415 193.5C415 221.114 392.614 243.5 365 243.5C337.386 243.5 315 221.114 315 193.5C315 165.886 337.386 143.5 365 143.5C392.614 143.5 415 165.886 415 193.5Z" fill="#212121"/>
<path d="M398 193.5C398 211.725 383.225 226.5 365 226.5C346.775 226.5 332 211.725 332 193.5C332 175.275 346.775 160.5 365 160.5C383.225 160.5 398 175.275 398 193.5Z" fill="#CEC3C0"/>
<path d="M388 193.5C388 206.203 377.703 216.5 365 216.5C352.298 216.5 342 206.203 342 193.5C342 180.797 352.298 170.5 365 170.5C377.703 170.5 388 180.797 388 193.5Z" fill="white"/>
<path fill-rule="evenodd" clip-rule="evenodd" d="M49.8639 205.5C50.0652 206.029 50.2744 206.555 50.4912 207.078C53.4562 214.237 57.8021 220.741 63.2808 226.219C68.7594 231.698 75.2635 236.044 82.4217 239.009C89.5799 241.974 97.2521 243.5 105 243.5C112.748 243.5 120.42 241.974 127.578 239.009C134.737 236.044 141.241 231.698 146.719 226.219C152.198 220.741 156.544 214.237 159.509 207.078C159.726 206.555 159.935 206.029 160.136 205.5H49.8639Z" fill="#424242"/>
<path d="M146 193.5C146 221.114 123.614 243.5 96.0001 243.5C68.3858 243.5 46.0001 221.114 46.0001 193.5C46.0001 165.886 68.3858 143.5 96.0001 143.5C123.614 143.5 146 165.886 146 193.5Z" fill="#212121"/>
<path d="M129 193.5C129 211.725 114.225 226.5 96.0001 226.5C77.7747 226.5 63.0001 211.725 63.0001 193.5C63.0001 175.275 77.7747 160.5 96.0001 160.5C114.225 160.5 129 175.275 129 193.5Z" fill="#CEC3C0"/>
<path d="M119 193.5C119 206.203 108.703 216.5 96.0001 216.5C83.2975 216.5 73.0001 206.203 73.0001 193.5C73.0001 180.797 83.2975 170.5 96.0001 170.5C108.703 170.5 119 180.797 119 193.5Z" fill="white"/>
<path d="M154.064 82.4323L162 26H91.3551C84.3059 26 77.4437 28.2677 71.7825 32.4679C67.3332 35.769 63.7912 40.1417 61.4858 45.1794L54.2079 61.0829C52.4835 64.851 52.431 69.1722 54.0634 72.9811C56.1818 77.9239 60.832 81.314 66.1859 81.8186L145.392 89.283C149.649 89.6842 153.469 86.6667 154.064 82.4323Z" fill="#FFF9E1"/>
<path d="M172.65 81.4755L180 27H242.566C249.624 27 256.451 29.5137 261.824 34.0907C265.231 36.9927 267.937 40.6271 269.742 44.7222L293 97.5L180.086 90.53C175.448 90.2437 172.029 86.0802 172.65 81.4755Z" fill="#FFF9E1"/>
<path d="M7.29574 110.5H2.4538C1.64046 110.5 0.970982 111.14 0.93405 111.952L0.500061 121.5V133.5H4.80444C8.70794 133.5 12.387 131.675 14.7489 128.567L15.6618 127.366C18.5205 123.605 18.5174 118.398 15.6541 114.64C13.6666 112.031 10.5752 110.5 7.29574 110.5Z" fill="#FF9500"/>
<path d="M296.431 26.5H403.478C405.091 26.5 406.636 27.1495 407.765 28.3019L473.671 95.6006C474.911 96.8665 474.014 99 472.242 99H329.097C325.62 99 322.392 97.1933 320.573 94.229L288.127 41.3369C287.385 40.1269 286.916 38.7694 286.753 37.3593C286.086 31.5745 290.608 26.5 296.431 26.5Z" fill="#FFF9E1"/>
<path d="M256.197 88.5773L256.564 87.759C258.953 82.4297 264.249 79 270.089 79H284.373C288.719 79 292.9 80.6658 296.055 83.6547C299.441 86.8623 301.359 91.3211 301.359 95.9851V106.962H268.104C263.399 106.962 259.059 104.43 256.745 100.335C254.704 96.7252 254.501 92.3608 256.197 88.5773Z" fill="#FF9500"/>
<path d="M171 112.174C171 108.212 174.212 105 178.174 105H196.826C200.788 105 204 108.212 204 112.174C204 116.136 200.788 119.348 196.826 119.348H178.174C174.212 119.348 171 116.136 171 112.174Z" fill="#FF9500"/>
</g>
</svg>
