<svg width="220" height="199" viewBox="0 0 220 199" fill="none" xmlns="http://www.w3.org/2000/svg">
<path d="M216.711 162.078C216.711 166.861 215.902 171.597 214.331 176.016C212.76 180.435 210.458 184.45 207.555 187.832C204.652 191.214 201.205 193.897 197.412 195.728C193.62 197.558 189.554 198.5 185.449 198.5C181.343 198.5 175.255 198.5 170.837 198.5C166.42 198.5 165.74 191.418 163.343 187.832C160.44 184.45 158.137 180.435 156.566 176.016C154.995 171.597 154.187 166.861 154.187 162.078L185.449 162.078H216.711Z" fill="#424242"/>
<path d="M199.714 162.078C199.714 166.861 198.913 171.597 197.358 176.016C195.802 180.435 193.521 184.45 190.647 187.832C187.772 191.214 184.359 193.897 180.603 195.728C176.847 197.558 172.821 198.5 168.755 198.5C164.69 198.5 160.664 197.558 156.908 195.728C153.152 193.897 149.739 191.214 146.864 187.832C143.99 184.45 141.709 180.435 140.153 176.016C138.598 171.597 137.797 166.861 137.797 162.078L168.755 162.078H199.714Z" fill="#212121"/>
<path d="M187.573 162.078C187.573 164.788 187.11 167.472 186.21 169.976C185.31 172.48 183.991 174.756 182.329 176.672C180.666 178.589 178.692 180.109 176.519 181.146C174.346 182.183 172.018 182.717 169.666 182.717C167.314 182.717 164.986 182.183 162.813 181.146C160.64 180.109 158.666 178.589 157.003 176.672C155.341 174.756 154.022 172.48 153.122 169.976C152.222 167.472 151.759 164.788 151.759 162.078L169.666 162.078H187.573Z" fill="#757575"/>
<path d="M22.4603 117.363V162.078H121.407V88.6269H48.3475L34.869 96.1822C27.2057 100.478 22.4603 108.578 22.4603 117.363Z" fill="#D71D0E"/>
<path d="M99.5536 120.8C99.5536 108.395 109.609 98.3395 122.014 98.3395V162.078H99.5536V120.8Z" fill="#840601"/>
<path d="M53.419 162.078V103.196H63.1316C63.1316 103.196 73.9281 103.196 80.432 110.784C86.2106 117.525 86.5128 124.986 86.5083 126.566C86.5077 126.772 86.5024 126.973 86.5024 127.179V162.078H53.419Z" fill="#B41A10"/>
<path d="M67.3808 162.078H0.0124338V150.848C0.0124338 150.848 -0.612078 138.227 7.02364 125.352C13.406 114.591 25.3137 103.196 34.1539 103.196H52.7488C67.3808 103.196 67.3808 117.764 67.3808 117.764V162.078Z" fill="#FF4C3E"/>
<path d="M19.4252 129.602C19.4252 128.428 20.3764 127.477 21.5498 127.477H42.1889C43.3623 127.477 44.3136 128.428 44.3136 129.602C44.3136 130.775 43.3623 131.726 42.1889 131.726H21.5498C20.3764 131.726 19.4252 130.775 19.4252 129.602Z" fill="#E53935"/>
<path d="M19.4252 138.707C19.4252 137.534 20.3764 136.583 21.5498 136.583H42.1889C43.3623 136.583 44.3136 137.534 44.3136 138.707C44.3136 139.881 43.3623 140.832 42.1889 140.832H21.5498C20.3764 140.832 19.4252 139.881 19.4252 138.707Z" fill="#E53935"/>
<path d="M9.15527e-05 151.151H67.3808V162.078H9.15527e-05V151.151Z" fill="#A5130B"/>
<path d="M35.2081 83.7706C35.2081 80.4181 37.9259 77.7003 41.2784 77.7003H111.694C115.047 77.7003 117.765 80.4181 117.765 83.7707V92.2691H35.2081V83.7706Z" fill="#3B0F03"/>
<path d="M97.3532 162.078C97.3532 166.861 96.5509 171.597 94.9922 176.016C93.4336 180.435 91.149 184.45 88.2689 187.832C85.3888 191.214 81.9697 193.897 78.2067 195.728C74.4437 197.558 70.4106 198.5 66.3375 198.5C62.2645 198.5 56.2237 198.5 51.8411 198.5C47.4585 198.5 46.7842 191.418 44.4062 187.832C41.5261 184.45 39.2415 180.435 37.6828 176.016C36.1241 171.597 35.3219 166.861 35.3219 162.078L66.3375 162.078H97.3532Z" fill="#424242"/>
<path d="M80.8494 162.078C80.8494 166.861 80.0472 171.597 78.4885 176.016C76.9298 180.435 74.6452 184.45 71.7651 187.832C68.8851 191.214 65.4659 193.897 61.7029 195.728C57.94 197.558 53.9068 198.5 49.8338 198.5C45.7607 198.5 41.7276 197.558 37.9646 195.728C34.2016 193.897 30.7825 191.214 27.9024 187.832C25.0223 184.45 22.7378 180.435 21.1791 176.016C19.6204 171.597 18.8181 166.861 18.8181 162.078L49.8338 162.078H80.8494Z" fill="#212121"/>
<path d="M67.7603 162.078C67.7603 164.768 67.3039 167.433 66.4173 169.918C65.5308 172.404 64.2313 174.662 62.5931 176.565C60.9548 178.467 59.01 179.976 56.8696 181.006C54.7292 182.035 52.4351 182.565 50.1183 182.565C47.8016 182.565 45.5075 182.035 43.3671 181.006C41.2266 179.976 39.2818 178.467 37.6436 176.565C36.0054 174.662 34.7059 172.404 33.8193 169.918C32.9327 167.433 32.4764 164.768 32.4764 162.078L50.1183 162.078H67.7603Z" fill="#757575"/>
<path d="M79.218 163.899V162.078H113.819L116.959 156.365C119.192 152.302 120.216 147.685 119.908 143.059L114.452 60.9102C113.987 53.921 116.66 47.0883 121.744 42.2695C126.116 38.1251 131.911 35.815 137.935 35.815H160.781C167.984 35.815 174.815 39.013 179.428 44.5447L181.545 47.0832C184.879 51.0812 186.84 56.0449 187.139 61.2422L193.037 163.899H79.218Z" fill="#D71D0E"/>
<path fill-rule="evenodd" clip-rule="evenodd" d="M121.543 41.7986C126.064 37.5647 132.031 35.2079 138.232 35.2079H161.35C168.781 35.2079 175.833 38.481 180.62 44.1517L182.712 46.6305C186.214 50.7798 188.277 55.9483 188.592 61.3638L194.554 163.899H74.9144V162.082H112.035L116.05 155.407C118.503 151.328 119.647 146.597 119.328 141.851L113.903 61.1624C113.414 53.892 116.218 46.7859 121.543 41.7986ZM114.159 162.082H192.625L186.774 61.469C186.482 56.445 184.568 51.6502 181.319 47.8008L179.227 45.322C174.786 40.0612 168.244 37.0248 161.35 37.0248H138.232C132.494 37.0248 126.972 39.2055 122.789 43.1232C117.862 47.738 115.268 54.3134 115.72 61.0408L121.145 141.729C121.489 146.846 120.256 151.945 117.611 156.342L114.159 162.082Z" fill="#FE4D3E"/>
<rect x="122.014" y="53.0733" width="10.3196" height="3.63363" rx="1.81682" fill="#B41A10"/>
<rect x="164.506" y="53.0733" width="10.3196" height="3.63363" rx="1.81682" fill="#B41A10"/>
<path d="M139.994 35.2079H134.762L143.688 132.94H156.615V104.471C156.615 101.379 155.435 98.403 153.316 96.151L148.055 90.5594C146.221 88.6104 145.082 86.1101 144.816 83.4473L139.994 35.2079Z" fill="#B41A11"/>
<path d="M158.436 35.208H140.003L144.976 83.2985C145.241 85.8666 146.319 88.2833 148.052 90.1973L153.475 96.1882C155.496 98.4207 156.615 101.325 156.615 104.336V132.94H175.433L174.377 103.461C174.275 100.613 173.174 97.891 171.267 95.7728L166.261 90.212C164.53 88.2886 163.458 85.8623 163.203 83.287L158.436 35.208Z" fill="#FF4C3E"/>
<rect x="146.295" y="51.5979" width="10.3196" height="3.6422" rx="1.8211" fill="#FF7733"/>
<rect x="146.902" y="59.4893" width="10.3196" height="3.6422" rx="1.8211" fill="#FF7733"/>
<path d="M175.433 132.94L144.171 135.065L143.715 130.36L143.564 127.781L149.186 124.12C154.067 120.941 159.64 118.98 165.436 118.4L174.826 117.461L174.969 121.103L175.433 132.94Z" fill="#3A0F00"/>
<path d="M161.775 111.84V106.534H174.522L174.826 116.247H166.182C165.102 116.247 164.061 115.851 163.254 115.134C162.313 114.297 161.775 113.099 161.775 111.84Z" fill="#B51B12"/>
<rect x="161.471" y="101.375" width="18.818" height="9.71254" rx="4.85627" fill="#D88B19"/>
<rect x="168.148" y="103.196" width="9.1055" height="3.6422" rx="1.8211" fill="#FEB536"/>
<path d="M200.321 164.203H135.065C135.065 164.203 135.065 122.317 167.238 122.925C199.411 123.532 200.321 164.203 200.321 164.203Z" fill="#840601"/>
<path d="M219.746 164.203H200.321C200.321 164.203 199.411 151.151 195.465 143.26C188.468 125.889 174.76 123.285 169.431 122.948C167.512 122.924 167.238 122.924 167.238 122.924C167.238 122.924 168.055 122.86 169.431 122.948C172.03 122.979 177.649 123.053 189.698 123.228C219.139 126.87 219.746 164.203 219.746 164.203Z" fill="#FF4C3E"/>
<path d="M158.132 0L158.436 28.5306H134.762C134.59 26.3041 132.734 24.5849 130.501 24.5849H122.284C119.495 24.5849 116.924 23.0725 115.57 20.634L115.309 20.1642C114.028 17.8589 114.189 15.0224 115.721 12.8765C117.004 11.0814 119.074 10.0161 121.28 10.0161H132.637L135.195 7.37799C139.768 2.66185 146.057 0 152.627 0H158.132Z" fill="#B41A11"/>
<rect x="134.762" y="28.5306" width="23.6743" height="6.67737" fill="#840501"/>
<path d="M178.001 13.5652L177.723 13.1485C176.672 11.5707 174.901 10.623 173.005 10.623C173.79 14.7453 173.127 19.0123 171.128 22.7021L170.273 24.2813H171.999C174.501 24.2813 176.815 22.9521 178.076 20.7906L178.211 20.5594C179.483 18.3793 179.401 15.6652 178.001 13.5652Z" fill="#6F1F13"/>
<path d="M175.882 15.44L175.708 15.1966C175.154 14.4216 174.261 13.9617 173.308 13.9617C173.308 16.374 172.919 18.7706 172.156 21.0592L172.094 21.2461H172.75C174.041 21.2461 175.242 20.5807 175.926 19.4854L176.003 19.363C176.76 18.1513 176.712 16.6027 175.882 15.44Z" fill="#4D1303"/>
<path d="M184.248 14.8723H178.772L178.816 15.0725C179.183 16.7245 179.062 18.4476 178.468 20.0321H184.402C185.246 20.0321 186.034 19.6104 186.502 18.9082C187.134 17.9594 187.052 16.7044 186.301 15.8462L186.24 15.7759C185.737 15.2017 185.011 14.8723 184.248 14.8723Z" fill="#4D1303"/>
<path d="M156.497 0H161.77C159.984 0 158.214 0.459803 156.853 1.61542C154.195 3.87163 150.064 8.46057 150.064 15.1888C150.064 20.4865 153.183 24.5139 155.614 26.8479C157.33 28.4962 159.698 29.1376 162.078 29.1376H155.701C148.596 29.1376 142.59 23.8747 141.657 16.831C141.512 15.7399 141.496 14.6256 141.607 13.5306C142.382 5.89315 148.82 0 156.497 0Z" fill="#AE9F8F"/>
<ellipse cx="161.775" cy="14.5688" rx="11.8372" ry="14.5688" fill="#E9E0CE"/>
<ellipse cx="162.382" cy="14.5688" rx="9.40902" ry="11.5336" fill="#FEB434"/>
<circle cx="118.372" cy="16.9969" r="7.2844" fill="#6F1F13"/>
<circle cx="117.765" cy="16.9969" r="4.85627" fill="#4D1303"/>
<rect x="98.9466" y="14.5687" width="20.6391" height="5.4633" rx="2.73165" fill="#3F0F02"/>
<path d="M10.9267 162.078H60.0964V163.292C60.0964 169.997 54.6609 175.433 47.9557 175.433H23.0674C16.3623 175.433 10.9267 169.997 10.9267 163.292V162.078Z" fill="#C62828"/>
<rect x="19.4252" y="168.755" width="24.8884" height="3.59551" rx="1.79775" fill="#EF5350"/>
</svg>
