<svg width="221" height="199" viewBox="0 0 221 199" fill="none" xmlns="http://www.w3.org/2000/svg">
<g style="mix-blend-mode:luminosity">
<path d="M217.457 162.078C217.457 166.861 216.649 171.597 215.078 176.016C213.507 180.435 211.204 184.45 208.301 187.832C205.398 191.214 201.952 193.897 198.159 195.728C194.366 197.558 190.301 198.5 186.195 198.5C182.09 198.5 176.001 198.5 171.583 198.5C167.166 198.5 166.486 191.418 164.089 187.832C161.186 184.45 158.884 180.435 157.313 176.016C155.741 171.597 154.933 166.861 154.933 162.078L186.195 162.078H217.457Z" fill="#424242"/>
<path d="M200.46 162.078C200.46 166.861 199.66 171.597 198.104 176.016C196.548 180.435 194.268 184.45 191.393 187.832C188.518 191.214 185.105 193.897 181.349 195.728C177.593 197.558 173.567 198.5 169.502 198.5C165.436 198.5 161.41 197.558 157.654 195.728C153.898 193.897 150.485 191.214 147.611 187.832C144.736 184.45 142.455 180.435 140.9 176.016C139.344 171.597 138.543 166.861 138.543 162.078L169.502 162.078H200.46Z" fill="#212121"/>
<path d="M188.32 162.078C188.32 164.788 187.857 167.472 186.957 169.976C186.057 172.48 184.738 174.756 183.075 176.672C181.412 178.589 179.438 180.109 177.265 181.146C175.093 182.183 172.764 182.717 170.412 182.717C168.061 182.717 165.732 182.183 163.559 181.146C161.387 180.109 159.413 178.589 157.75 176.672C156.087 174.756 154.768 172.48 153.868 169.976C152.968 167.472 152.505 164.788 152.505 162.078L170.412 162.078H188.32Z" fill="#757575"/>
<path d="M23.2065 117.363V162.078H122.153V88.6269H49.0937L35.6152 96.1822C27.9519 100.478 23.2065 108.578 23.2065 117.363Z" fill="#D71D0E"/>
<path d="M100.3 120.8C100.3 108.395 110.356 98.3395 122.76 98.3395V162.078H100.3V120.8Z" fill="#840601"/>
<path d="M54.1653 162.078V103.196H63.8778C63.8778 103.196 74.6743 103.196 81.1783 110.784C86.9568 117.525 87.259 124.986 87.2546 126.566C87.254 126.772 87.2486 126.973 87.2486 127.179V162.078H54.1653Z" fill="#B41A10"/>
<path d="M68.1271 162.078H0.75868V150.848C0.75868 150.848 0.134168 138.227 7.76988 125.352C14.1523 114.591 26.0599 103.196 34.9001 103.196H53.495C68.1271 103.196 68.1271 117.764 68.1271 117.764V162.078Z" fill="#FF4C3E"/>
<path d="M20.1714 129.602C20.1714 128.428 21.1227 127.477 22.2961 127.477H42.9352C44.1086 127.477 45.0598 128.428 45.0598 129.602C45.0598 130.775 44.1086 131.726 42.9352 131.726H22.2961C21.1227 131.726 20.1714 130.775 20.1714 129.602Z" fill="#E53935"/>
<path d="M20.1714 138.707C20.1714 137.534 21.1227 136.583 22.2961 136.583H42.9352C44.1086 136.583 45.0598 137.534 45.0598 138.707C45.0598 139.881 44.1086 140.832 42.9352 140.832H22.2961C21.1227 140.832 20.1714 139.881 20.1714 138.707Z" fill="#E53935"/>
<path d="M0.746338 151.151H68.1271V162.078H0.746338V151.151Z" fill="#A5130B"/>
<path d="M35.9543 83.7706C35.9543 80.4181 38.6721 77.7003 42.0246 77.7003H112.441C115.793 77.7003 118.511 80.4181 118.511 83.7707V92.2691H35.9543V83.7706Z" fill="#3B0F03"/>
<path d="M98.0994 162.078C98.0994 166.861 97.2972 171.597 95.7385 176.016C94.1798 180.435 91.8952 184.45 89.0152 187.832C86.1351 191.214 82.716 193.897 78.953 195.728C75.19 197.558 71.1568 198.5 67.0838 198.5C63.0108 198.5 56.97 198.5 52.5874 198.5C48.2047 198.5 47.5305 191.418 45.1524 187.832C42.2724 184.45 39.9878 180.435 38.4291 176.016C36.8704 171.597 36.0682 166.861 36.0682 162.078L67.0838 162.078H98.0994Z" fill="#424242"/>
<path d="M81.5957 162.078C81.5957 166.861 80.7934 171.597 79.2347 176.016C77.6761 180.435 75.3915 184.45 72.5114 187.832C69.6313 191.214 66.2122 193.897 62.4492 195.728C58.6862 197.558 54.6531 198.5 50.58 198.5C46.507 198.5 42.4738 197.558 38.7109 195.728C34.9479 193.897 31.5287 191.214 28.6487 187.832C25.7686 184.45 23.484 180.435 21.9253 176.016C20.3666 171.597 19.5644 166.861 19.5644 162.078L50.58 162.078H81.5957Z" fill="#212121"/>
<path d="M68.5065 162.078C68.5065 164.768 68.0502 167.433 67.1636 169.918C66.277 172.404 64.9775 174.662 63.3393 176.565C61.7011 178.467 59.7563 179.976 57.6158 181.006C55.4754 182.035 53.1813 182.565 50.8646 182.565C48.5478 182.565 46.2537 182.035 44.1133 181.006C41.9729 179.976 40.0281 178.467 38.3899 176.565C36.7517 174.662 35.4522 172.404 34.5656 169.918C33.679 167.433 33.2227 164.768 33.2227 162.078L50.8646 162.078H68.5065Z" fill="#757575"/>
<path d="M79.9642 163.899V162.078H114.565L117.706 156.365C119.939 152.302 120.962 147.685 120.655 143.059L115.198 60.9102C114.734 53.921 117.407 47.0883 122.49 42.2695C126.862 38.1251 132.657 35.815 138.681 35.815H161.527C168.73 35.815 175.561 39.013 180.174 44.5447L182.291 47.0832C185.626 51.0812 187.587 56.0449 187.885 61.2422L193.783 163.899H79.9642Z" fill="#D71D0E"/>
<path fill-rule="evenodd" clip-rule="evenodd" d="M122.289 41.7986C126.81 37.5647 132.778 35.2079 138.978 35.2079H162.096C169.527 35.2079 176.579 38.481 181.366 44.1517L183.458 46.6305C186.961 50.7798 189.023 55.9483 189.338 61.3638L195.301 163.899H75.6606V162.082H112.781L116.796 155.407C119.249 151.328 120.393 146.597 120.074 141.851L114.649 61.1624C114.16 53.892 116.964 46.7859 122.289 41.7986ZM114.905 162.082H193.371L187.52 61.469C187.228 56.445 185.315 51.6502 182.065 47.8008L179.973 45.322C175.532 40.0612 168.99 37.0248 162.096 37.0248H138.978C133.241 37.0248 127.719 39.2055 123.535 43.1232C118.608 47.738 116.014 54.3134 116.466 61.0408L121.891 141.729C122.235 146.846 121.002 151.945 118.357 156.342L114.905 162.082Z" fill="#FE4D3E"/>
<rect x="122.76" y="53.0733" width="10.3196" height="3.63363" rx="1.81682" fill="#B41A10"/>
<rect x="165.252" y="53.0733" width="10.3196" height="3.63363" rx="1.81682" fill="#B41A10"/>
<path d="M140.74 35.2079H135.508L144.434 132.94H157.361V104.471C157.361 101.379 156.181 98.403 154.062 96.151L148.801 90.5594C146.967 88.6104 145.828 86.1101 145.562 83.4473L140.74 35.2079Z" fill="#B41A11"/>
<path d="M159.182 35.208H140.749L145.722 83.2985C145.988 85.8666 147.065 88.2833 148.798 90.1973L154.221 96.1882C156.242 98.4207 157.361 101.325 157.361 104.336V132.94H176.179L175.123 103.461C175.021 100.613 173.92 97.891 172.013 95.7728L167.007 90.212C165.276 88.2886 164.204 85.8623 163.949 83.287L159.182 35.208Z" fill="#FF4C3E"/>
<rect x="147.041" y="51.5979" width="10.3196" height="3.6422" rx="1.8211" fill="#FF7733"/>
<rect x="147.648" y="59.4893" width="10.3196" height="3.6422" rx="1.8211" fill="#FF7733"/>
<path d="M176.179 132.94L144.917 135.065L144.462 130.36L144.31 127.781L149.932 124.12C154.813 120.941 160.386 118.98 166.182 118.4L175.572 117.461L175.715 121.103L176.179 132.94Z" fill="#3A0F00"/>
<path d="M162.521 111.84V106.534H175.269L175.572 116.247H166.928C165.849 116.247 164.807 115.851 164 115.134C163.059 114.297 162.521 113.099 162.521 111.84Z" fill="#B51B12"/>
<rect x="162.217" y="101.375" width="18.818" height="9.71254" rx="4.85627" fill="#D88B19"/>
<rect x="168.895" y="103.196" width="9.1055" height="3.6422" rx="1.8211" fill="#FEB536"/>
<path d="M201.067 164.203H135.811C135.811 164.203 135.811 122.317 167.984 122.925C200.157 123.532 201.067 164.203 201.067 164.203Z" fill="#840601"/>
<path d="M220.492 164.203H201.067C201.067 164.203 200.157 151.151 196.211 143.26C189.215 125.889 175.506 123.285 170.177 122.948C168.258 122.924 167.984 122.924 167.984 122.924C167.984 122.924 168.801 122.86 170.177 122.948C172.776 122.979 178.396 123.053 190.444 123.228C219.885 126.87 220.492 164.203 220.492 164.203Z" fill="#FF4C3E"/>
<path d="M158.879 0L159.182 28.5306H135.508C135.336 26.3041 133.48 24.5849 131.247 24.5849H123.03C120.241 24.5849 117.671 23.0725 116.316 20.634L116.055 20.1642C114.774 17.8589 114.935 15.0224 116.468 12.8765C117.75 11.0814 119.82 10.0161 122.026 10.0161H133.383L135.941 7.37799C140.514 2.66185 146.804 0 153.373 0H158.879Z" fill="#B41A11"/>
<rect x="135.508" y="28.5306" width="23.6743" height="6.67737" fill="#840501"/>
<path d="M178.748 13.5652L178.47 13.1485C177.418 11.5707 175.647 10.623 173.751 10.623C174.536 14.7453 173.873 19.0123 171.875 22.7021L171.019 24.2813H172.745C175.247 24.2813 177.561 22.9521 178.822 20.7906L178.957 20.5594C180.229 18.3793 180.148 15.6652 178.748 13.5652Z" fill="#6F1F13"/>
<path d="M176.628 15.44L176.454 15.1966C175.901 14.4216 175.007 13.9617 174.054 13.9617C174.054 16.374 173.666 18.7706 172.903 21.0592L172.84 21.2461H173.496C174.787 21.2461 175.988 20.5807 176.672 19.4854L176.749 19.363C177.506 18.1513 177.458 16.6027 176.628 15.44Z" fill="#4D1303"/>
<path d="M184.994 14.8723H179.518L179.562 15.0725C179.929 16.7245 179.808 18.4476 179.214 20.0321H185.148C185.992 20.0321 186.78 19.6104 187.248 18.9082C187.88 17.9594 187.798 16.7044 187.047 15.8462L186.986 15.7759C186.483 15.2017 185.757 14.8723 184.994 14.8723Z" fill="#4D1303"/>
<path d="M157.243 0H162.516C160.731 0 158.961 0.459803 157.599 1.61542C154.942 3.87163 150.811 8.46057 150.811 15.1888C150.811 20.4865 153.93 24.5139 156.36 26.8479C158.076 28.4962 160.445 29.1376 162.824 29.1376H156.448C149.342 29.1376 143.336 23.8747 142.403 16.831C142.258 15.7399 142.242 14.6256 142.353 13.5306C143.128 5.89315 149.566 0 157.243 0Z" fill="#AE9F8F"/>
<ellipse cx="162.521" cy="14.5688" rx="11.8372" ry="14.5688" fill="#E9E0CE"/>
<ellipse cx="163.128" cy="14.5688" rx="9.40902" ry="11.5336" fill="#FEB434"/>
<circle cx="119.118" cy="16.9969" r="7.2844" fill="#6F1F13"/>
<circle cx="118.511" cy="16.9969" r="4.85627" fill="#4D1303"/>
<rect x="99.6928" y="14.5687" width="20.6391" height="5.4633" rx="2.73165" fill="#3F0F02"/>
<path d="M11.6729 162.078H60.8426V163.292C60.8426 169.997 55.4071 175.433 48.702 175.433H23.8136C17.1085 175.433 11.6729 169.997 11.6729 163.292V162.078Z" fill="#C62828"/>
<rect x="20.1714" y="168.755" width="24.8884" height="3.59551" rx="1.79775" fill="#EF5350"/>
</g>
</svg>
