<svg width="34" height="34" viewBox="0 0 34 34" fill="none" xmlns="http://www.w3.org/2000/svg">
    <rect width="34" height="34" rx="17" fill="#F5F5F5" />
    <g clip-path="url(#clip0_319_26897)">
        <rect x="20.6842" y="22.6211" width="3.68421" height="4.37895" rx="1.05263" fill="#424242" />
        <rect x="6.99998" y="22.6211" width="3.68421" height="4.37895" rx="1.05263" fill="#424242" />
        <path
            d="M6.99998 19.8211C6.99998 18.949 7.70689 18.2421 8.57892 18.2421H22.7895C23.6615 18.2421 24.3684 18.949 24.3684 19.8211V23.3457C24.3684 23.8524 23.9577 24.2632 23.451 24.2632H7.91741C7.41072 24.2632 6.99998 23.8524 6.99998 23.3457V19.8211Z"
            fill="#1E88E5" />
        <path
            d="M19.8269 18.7895H11.5415C11.1489 18.7895 10.8945 19.2039 11.0722 19.554L11.6491 20.6908C11.7388 20.8676 11.9202 20.979 12.1184 20.979H19.25C19.4482 20.979 19.6296 20.8676 19.7193 20.6908L20.2962 19.554C20.4739 19.2039 20.2195 18.7895 19.8269 18.7895Z"
            fill="#1976D2" />
        <rect x="8.05261" y="16.6" width="2.63158" height="1.64211" rx="0.821053" fill="#424242" />
        <rect x="20.6842" y="16.6" width="2.63158" height="1.64211" rx="0.821053" fill="#424242" />
        <path
            d="M11.0795 13.9405C11.2052 13.5672 11.5551 13.3158 11.949 13.3158H19.4194C19.8133 13.3158 20.1632 13.5672 20.2889 13.9405L21.7368 18.2421H9.63156L11.0795 13.9405Z"
            fill="#1E88E5" />
        <path
            d="M11.8527 14.5067C11.9725 14.1238 12.3272 13.8632 12.7283 13.8632H18.64C19.0412 13.8632 19.3959 14.1238 19.5156 14.5067L20.4704 17.5587C20.5764 17.8976 20.3232 18.2421 19.9681 18.2421H11.4003C11.0452 18.2421 10.792 17.8976 10.898 17.5587L11.8527 14.5067Z"
            fill="#E3F2FD" />
        <path
            d="M11.764 14.5247C11.8779 14.1328 12.2369 13.8632 12.6451 13.8632H15.5654C15.9735 13.8632 16.3326 14.1328 16.4464 14.5247L17.3308 17.569C17.4286 17.9057 17.176 18.2421 16.8253 18.2421H11.3851C11.0345 18.2421 10.7819 17.9057 10.8797 17.569L11.764 14.5247Z"
            fill="#BBDEFB" />
        <path
            d="M12.0501 22.9826L12.536 21.8458C12.6188 21.652 12.8092 21.5263 13.0199 21.5263H18.8748C19.0855 21.5263 19.2759 21.652 19.3587 21.8458L19.8446 22.9826C19.993 23.3299 19.7382 23.7158 19.3606 23.7158H12.5341C12.1565 23.7158 11.9017 23.3299 12.0501 22.9826Z"
            fill="#1976D2" />
        <path
            d="M13.4926 23.0536L13.7963 21.9168C13.8578 21.6865 14.0664 21.5263 14.3048 21.5263H17.5899C17.8283 21.5263 18.0369 21.6865 18.0984 21.9168L18.4021 23.0536C18.4913 23.3878 18.2395 23.7158 17.8936 23.7158H14.0011C13.6552 23.7158 13.4034 23.3878 13.4926 23.0536Z"
            fill="#1565C0" />
        <path
            d="M8.34189 20.0589C8.20337 19.7132 8.45798 19.3369 8.83046 19.3369H9.67017C9.88528 19.3369 10.0787 19.4678 10.1587 19.6674L10.3949 20.2569C10.5334 20.6027 10.2788 20.979 9.90634 20.979H9.06662C8.85152 20.979 8.65806 20.8481 8.57806 20.6484L8.34189 20.0589Z"
            fill="white" />
        <path
            d="M21.2096 19.6674C21.2896 19.4678 21.4831 19.3369 21.6982 19.3369H22.5379C22.9104 19.3369 23.165 19.7132 23.0265 20.0589L22.7903 20.6484C22.7103 20.8481 22.5169 20.979 22.3017 20.979H21.462C21.0896 20.979 20.8349 20.6027 20.9735 20.2569L21.2096 19.6674Z"
            fill="white" />
        <circle cx="21" cy="13" r="6" fill="#1FB767" />
        <path fill-rule="evenodd" clip-rule="evenodd"
            d="M22.271 11.3861C22.4049 11.52 22.4049 11.7371 22.271 11.871L20.2138 13.9281C20.0799 14.062 19.8629 14.062 19.729 13.9281C19.5951 13.7942 19.5951 13.5772 19.729 13.4433L21.7861 11.3861C21.92 11.2522 22.1371 11.2522 22.271 11.3861Z"
            fill="white" />
        <path
            d="M20.1428 11.9714C20.2375 11.9714 20.3143 11.8946 20.3143 11.8C20.3143 11.7053 20.2375 11.6285 20.1428 11.6285C20.0482 11.6285 19.9714 11.7053 19.9714 11.8C19.9714 11.8946 20.0482 11.9714 20.1428 11.9714Z"
            fill="white" />
        <path fill-rule="evenodd" clip-rule="evenodd"
            d="M20.1428 11.9714C20.2375 11.9714 20.3143 11.8947 20.3143 11.8C20.3143 11.7053 20.2375 11.6286 20.1428 11.6286C20.0482 11.6286 19.9714 11.7053 19.9714 11.8C19.9714 11.8947 20.0482 11.9714 20.1428 11.9714ZM19.6285 11.8C19.6285 11.516 19.8588 11.2857 20.1428 11.2857C20.4269 11.2857 20.6571 11.516 20.6571 11.8C20.6571 12.084 20.4269 12.3143 20.1428 12.3143C19.8588 12.3143 19.6285 12.084 19.6285 11.8Z"
            fill="white" />
        <path
            d="M21.8571 13.6857C21.9518 13.6857 22.0285 13.6089 22.0285 13.5143C22.0285 13.4196 21.9518 13.3428 21.8571 13.3428C21.7624 13.3428 21.6857 13.4196 21.6857 13.5143C21.6857 13.6089 21.7624 13.6857 21.8571 13.6857Z"
            fill="white" />
        <path fill-rule="evenodd" clip-rule="evenodd"
            d="M21.8571 13.6857C21.9518 13.6857 22.0285 13.6089 22.0285 13.5143C22.0285 13.4196 21.9518 13.3428 21.8571 13.3428C21.7624 13.3428 21.6857 13.4196 21.6857 13.5143C21.6857 13.6089 21.7624 13.6857 21.8571 13.6857ZM21.3428 13.5143C21.3428 13.2302 21.5731 13 21.8571 13C22.1412 13 22.3714 13.2302 22.3714 13.5143C22.3714 13.7983 22.1412 14.0285 21.8571 14.0285C21.5731 14.0285 21.3428 13.7983 21.3428 13.5143Z"
            fill="white" />
        <path fill-rule="evenodd" clip-rule="evenodd"
            d="M19.2857 10.2571C19.1948 10.2571 19.1076 10.2932 19.0433 10.3575C18.979 10.4218 18.9428 10.5091 18.9428 10.6V15.4451L19.4384 15.1147C19.5744 15.0241 19.7554 15.042 19.871 15.1575L20.3143 15.6008L20.7575 15.1575C20.8914 15.0237 21.1085 15.0237 21.2424 15.1575L21.6857 15.6008L22.129 15.1575C22.2445 15.042 22.4256 15.0241 22.5616 15.1147L23.0571 15.4451V10.6C23.0571 10.5091 23.021 10.4218 22.9567 10.3575C22.8924 10.2932 22.8052 10.2571 22.7143 10.2571H19.2857ZM18.5584 9.87267C18.7513 9.67978 19.0129 9.57141 19.2857 9.57141H22.7143C22.9871 9.57141 23.2487 9.67978 23.4416 9.87267C23.6345 10.0656 23.7428 10.3272 23.7428 10.6V16.0857C23.7428 16.2121 23.6732 16.3283 23.5618 16.388C23.4503 16.4476 23.315 16.4411 23.2098 16.371L22.4151 15.8412L21.9281 16.3281C21.7942 16.462 21.5772 16.462 21.4433 16.3281L21 15.8849L20.5567 16.3281C20.4228 16.462 20.2057 16.462 20.0718 16.3281L19.5849 15.8412L18.7902 16.371C18.685 16.4411 18.5497 16.4476 18.4382 16.388C18.3267 16.3283 18.2571 16.2121 18.2571 16.0857V10.6C18.2571 10.3272 18.3655 10.0656 18.5584 9.87267Z"
            fill="white" />
    </g>
    <defs>
        <clipPath id="clip0_319_26897">
            <rect width="20" height="20" fill="white" transform="translate(6.99999 7)" />
        </clipPath>
    </defs>
</svg>