<svg width="46" height="46" viewBox="0 0 46 46" fill="none" xmlns="http://www.w3.org/2000/svg">
<g clip-path="url(#clip0_1897_88423)">
<rect width="46" height="46" rx="23" fill="white"/>
<rect y="39.1421" width="46" height="7.76839" fill="#E0E0E0"/>
<path d="M31.3906 21.94L31.3503 21.849C31.0853 21.2512 30.493 20.8658 29.8392 20.8658H28.2925C27.8073 20.8658 27.3407 21.0533 26.9903 21.389C26.6198 21.744 26.4103 22.2349 26.4103 22.7481V23.9827H30.0616C30.5883 23.9827 31.0737 23.6979 31.3306 23.2382C31.5537 22.839 31.5759 22.3581 31.3906 21.94Z" fill="#FF9500"/>
<path d="M-23.1041 34.9065H39.4288C40.4138 34.9065 41.2122 34.108 41.2122 33.123V29.7187C41.2122 26.025 38.2179 23.0307 34.5242 23.0307H28.2156L20.0393 14.6329C18.9902 13.5553 17.55 12.9475 16.0461 12.9475H-16.8178C-18.5227 12.9475 -20.1608 13.6107 -21.3855 14.7967C-22.1875 15.5734 -22.8336 16.4963 -23.2889 17.5156L-25.227 21.8553C-25.7381 22.9995 -26.0022 24.2386 -26.0022 25.4917V32.0083C-26.0022 33.6089 -24.7047 34.9065 -23.1041 34.9065Z" fill="#FFB900"/>
<path d="M11.2249 12H-13.0316C-13.7559 12 -14.4378 12.3557 -14.8555 12.9475H13.0669L12.8965 12.7544C12.4733 12.2747 11.8645 12 11.2249 12Z" fill="#FF9500"/>
<path fill-rule="evenodd" clip-rule="evenodd" d="M23.6968 34.9064C23.7192 34.9653 23.7425 35.024 23.7667 35.0823C24.0972 35.8802 24.5816 36.6052 25.1923 37.2159C25.803 37.8266 26.528 38.311 27.3259 38.6415C28.1238 38.972 28.979 39.1421 29.8426 39.1421C30.7063 39.1421 31.5615 38.972 32.3594 38.6415C33.1573 38.311 33.8823 37.8266 34.4929 37.2159C35.1036 36.6052 35.5881 35.8802 35.9186 35.0823C35.9427 35.024 35.966 34.9653 35.9885 34.9064H23.6968Z" fill="#424242"/>
<path d="M34.1898 33.6245C34.1898 35.0879 33.6085 36.4913 32.5737 37.526C31.539 38.5608 30.1356 39.1421 28.6722 39.1421C27.2088 39.1421 25.8054 38.5608 24.7707 37.526C23.7359 36.4913 23.1546 35.0879 23.1546 33.6245L28.6722 33.6245H34.1898Z" fill="#212121"/>
<path fill-rule="evenodd" clip-rule="evenodd" d="M-6.51068 34.9064C-6.48823 34.9653 -6.46492 35.024 -6.44076 35.0823C-6.11026 35.8802 -5.62583 36.6052 -5.01514 37.2159C-4.40446 37.8266 -3.67946 38.311 -2.88156 38.6415C-2.08366 38.972 -1.22847 39.1421 -0.36483 39.1421C0.498814 39.1421 1.354 38.972 2.1519 38.6415C2.9498 38.311 3.6748 37.8266 4.28548 37.2159C4.89617 36.6052 5.3806 35.8802 5.7111 35.0823C5.73527 35.024 5.75857 34.9653 5.78102 34.9064H-6.51068Z" fill="#424242"/>
<path d="M3.98235 33.6245C3.98235 35.0879 3.40103 36.4913 2.36628 37.526C1.33153 38.5608 -0.0718937 39.1421 -1.53525 39.1421C-2.99861 39.1421 -4.40204 38.5608 -5.43679 37.526C-6.47154 36.4913 -7.05286 35.0879 -7.05286 33.6245L-1.53525 33.6245H3.98235Z" fill="#212121"/>
<path d="M-26.0022 32.0083V31.7854L7.99516 33.123H41.2122C41.2122 34.108 40.4138 34.9065 39.4288 34.9065H-23.1041C-24.7047 34.9065 -26.0022 33.6089 -26.0022 32.0083Z" fill="#FF9500"/>
<path d="M41.2122 33.1229H24.2693V32.5058C24.2693 31.8211 24.7017 31.2112 25.3477 30.9845C25.5193 30.9243 25.6997 30.8936 25.8815 30.8936H40.3346C40.5415 30.8936 40.7417 30.9666 40.8999 31.0999C41.0979 31.2666 41.2122 31.5123 41.2122 31.7712V33.1229Z" fill="white"/>
<path d="M27.1674 33.1229V30.8936H39.2058V33.1229H27.1674Z" fill="#FF7500"/>
<path d="M23.2909 27.5324L23.3105 27.5052C23.4926 27.2531 23.7847 27.1038 24.0957 27.1038H40.6549C40.6549 27.1038 40.8598 27.4127 40.9893 27.9955C41.1188 28.5783 41.1565 28.9987 41.1565 28.9987H24.0407C23.7622 28.9987 23.4985 28.8732 23.3229 28.6571C23.0592 28.3325 23.0461 27.8714 23.2909 27.5324Z" fill="white"/>
<path d="M27.1117 28.9987L28.1149 27.1038H30.2328L29.2296 28.9987H27.1117Z" fill="#FFE483"/>
<path d="M39.2058 28.9987H37.1437L36.1405 27.1038H38.2584L39.2058 28.9987Z" fill="#FFE483"/>
<path d="M29.2296 28.9987L30.2328 27.1038H36.1405L37.1437 28.9987H29.2296Z" fill="#FF7500"/>
<path d="M21.2597 33.736C21.2597 32.8651 21.0882 32.0026 20.7549 31.198C20.4216 30.3933 19.933 29.6622 19.3172 29.0463C18.7013 28.4304 17.9702 27.9419 17.1655 27.6086C16.3608 27.2753 15.4984 27.1038 14.6274 27.1038C13.7565 27.1038 12.8941 27.2753 12.0894 27.6086C11.2847 27.9419 10.5536 28.4304 9.93772 29.0463C9.32186 29.6622 8.83333 30.3933 8.50003 31.198C8.16673 32.0026 7.99518 32.8651 7.99518 33.736L14.6274 33.736H21.2597Z" fill="#FF9500"/>
<path fill-rule="evenodd" clip-rule="evenodd" d="M9.54053 34.9064C9.56298 34.9653 9.58628 35.024 9.61045 35.0823C9.94095 35.8802 10.4254 36.6052 11.0361 37.2159C11.6468 37.8266 12.3717 38.311 13.1696 38.6415C13.9675 38.972 14.8227 39.1421 15.6864 39.1421C16.55 39.1421 17.4052 38.972 18.2031 38.6415C19.001 38.311 19.726 37.8266 20.3367 37.2159C20.9474 36.6052 21.4318 35.8802 21.7623 35.0823C21.7865 35.024 21.8098 34.9653 21.8322 34.9064H9.54053Z" fill="#424242"/>
<path d="M20.2565 33.5688C20.2565 36.6469 17.7612 39.1422 14.6831 39.1422C11.6051 39.1422 9.1098 36.6469 9.1098 33.5688C9.1098 30.4908 11.6051 27.9955 14.6831 27.9955C17.7612 27.9955 20.2565 30.4908 20.2565 33.5688Z" fill="#212121"/>
<path d="M18.3616 33.5688C18.3616 35.6003 16.7147 37.2472 14.6832 37.2472C12.6516 37.2472 11.0048 35.6003 11.0048 33.5688C11.0048 31.5373 12.6516 29.8904 14.6832 29.8904C16.7147 29.8904 18.3616 31.5373 18.3616 33.5688Z" fill="#9E9E9E"/>
<path d="M17.2469 33.5689C17.2469 34.9848 16.0991 36.1326 14.6832 36.1326C13.2673 36.1326 12.1194 34.9848 12.1194 33.5689C12.1194 32.153 13.2673 31.0051 14.6832 31.0051C16.0991 31.0051 17.2469 32.153 17.2469 33.5689Z" fill="white"/>
<path d="M-6.75743 21.0818L-5.93816 15.0096H1.03581C1.82255 15.0096 2.58357 15.2898 3.18247 15.8C3.56221 16.1235 3.86392 16.5286 4.06508 16.9851L6.65758 22.868L-5.92864 22.0911C-6.44558 22.0592 -6.82668 21.5951 -6.75743 21.0818Z" fill="#FFF9E1"/>
<path d="M7.04002 14.9539H18.9722C19.152 14.9539 19.3242 15.0263 19.45 15.1547L26.7963 22.6563C26.9345 22.7974 26.8346 23.0352 26.6371 23.0352H10.6812C10.2935 23.0352 9.93374 22.8338 9.73105 22.5034L6.11435 16.6077C6.03162 16.4728 5.97935 16.3215 5.96121 16.1643C5.88681 15.5195 6.39094 14.9539 7.04002 14.9539Z" fill="#FFF9E1"/>
<path d="M2.55529 21.8735L2.59617 21.7822C2.86247 21.1882 3.45279 20.8059 4.1038 20.8059H5.69599C6.18041 20.8059 6.64641 20.9916 6.99807 21.3248C7.37548 21.6823 7.58926 22.1793 7.58926 22.6992V23.9228H3.88243C3.35807 23.9228 2.87431 23.6405 2.61629 23.184C2.38888 22.7817 2.36623 22.2952 2.55529 21.8735Z" fill="#FF9500"/>
<circle cx="28.0879" cy="15.9859" r="9.58522" fill="#E43B3D"/>
<circle cx="28.088" cy="15.9859" r="7.11005" fill="white"/>
<rect x="21.9908" y="11.2987" width="2.50537" height="15.4607" transform="rotate(-45 21.9908 11.2987)" fill="#EB3B3B"/>
</g>
<defs>
<clipPath id="clip0_1897_88423">
<rect width="46" height="46" rx="23" fill="white"/>
</clipPath>
</defs>
</svg>
