<svg width="24" height="24" viewBox="0 0 24 24" fill="none" xmlns="http://www.w3.org/2000/svg">
<g clip-path="url(#clip0_458_111551)">
<rect x="7.20002" width="16.8" height="16.8" rx="8.4" fill="white"/>
<path d="M15.6 12.6C15.838 12.6 16.0375 12.5195 16.1985 12.3585C16.3595 12.1975 16.44 11.998 16.44 11.76V8.4C16.44 8.162 16.3595 7.9625 16.1985 7.8015C16.0375 7.6405 15.838 7.56 15.6 7.56C15.362 7.56 15.1625 7.6405 15.0015 7.8015C14.8405 7.9625 14.76 8.162 14.76 8.4V11.76C14.76 11.998 14.8405 12.1975 15.0015 12.3585C15.1625 12.5195 15.362 12.6 15.6 12.6ZM15.6 5.88C15.838 5.88 16.0375 5.7995 16.1985 5.6385C16.3595 5.4775 16.44 5.278 16.44 5.04C16.44 4.802 16.3595 4.6025 16.1985 4.4415C16.0375 4.2805 15.838 4.2 15.6 4.2C15.362 4.2 15.1625 4.2805 15.0015 4.4415C14.8405 4.6025 14.76 4.802 14.76 5.04C14.76 5.278 14.8405 5.4775 15.0015 5.6385C15.1625 5.7995 15.362 5.88 15.6 5.88ZM15.6 16.8C14.438 16.8 13.346 16.5795 12.324 16.1385C11.302 15.6975 10.413 15.099 9.65702 14.343C8.90102 13.587 8.30252 12.698 7.86152 11.676C7.42052 10.654 7.20002 9.562 7.20002 8.4C7.20002 7.238 7.42052 6.146 7.86152 5.124C8.30252 4.102 8.90102 3.213 9.65702 2.457C10.413 1.701 11.302 1.1025 12.324 0.6615C13.346 0.2205 14.438 0 15.6 0C16.762 0 17.854 0.2205 18.876 0.6615C19.898 1.1025 20.787 1.701 21.543 2.457C22.299 3.213 22.8975 4.102 23.3385 5.124C23.7795 6.146 24 7.238 24 8.4C24 9.562 23.7795 10.654 23.3385 11.676C22.8975 12.698 22.299 13.587 21.543 14.343C20.787 15.099 19.898 15.6975 18.876 16.1385C17.854 16.5795 16.762 16.8 15.6 16.8Z" fill="#1976D2"/>
</g>
<g clip-path="url(#clip1_458_111551)">
<path d="M4.57764e-05 12.42C4.57764e-05 12.0224 0.322401 11.7 0.720046 11.7H2.70005L2.52005 13.5H0.720045C0.3224 13.5 4.57764e-05 13.1777 4.57764e-05 12.78V12.42Z" fill="#069550"/>
<path d="M18 12.42C18 12.0224 17.6777 11.7 17.28 11.7H15.3L15.48 13.5H17.28C17.6777 13.5 18 13.1777 18 12.78V12.42Z" fill="#069550"/>
<path d="M14.4 8.49231H4.50005H3.60005V13.3385H14.4V8.49231Z" fill="white"/>
<path d="M16.2 13.3384H3.00005H1.80005V20.1231H16.2V13.3384Z" fill="#008444"/>
<path d="M16.1054 12.7961L14.9973 9.21525C14.8365 8.69403 14.5274 8.24062 14.1137 7.91944C13.7 7.59827 13.2028 7.42566 12.6928 7.42615H5.30726C4.79727 7.42566 4.30011 7.59827 3.88642 7.91944C3.47273 8.24062 3.16355 8.69403 3.00281 9.21525L1.89473 12.7961C1.60038 12.9291 1.34901 13.1526 1.17208 13.4388C0.995151 13.7249 0.900524 14.0608 0.900047 14.4046V18.7661C0.900047 19.423 1.24268 19.9891 1.74164 20.2866C1.73111 20.3442 1.71005 20.3965 1.71005 20.4567V22.2554C1.71005 22.4867 1.79539 22.7086 1.94729 22.8722C2.0992 23.0358 2.30522 23.1277 2.52005 23.1277H3.33005C3.54487 23.1277 3.7509 23.0358 3.9028 22.8722C4.05471 22.7086 4.14005 22.4867 4.14005 22.2554V20.5108H13.86V22.2554C13.86 22.4867 13.9454 22.7086 14.0973 22.8722C14.2492 23.0358 14.4552 23.1277 14.67 23.1277H15.48C15.6949 23.1277 15.9009 23.0358 16.0528 22.8722C16.2047 22.7086 16.29 22.4867 16.29 22.2554V20.4567C16.29 20.3965 16.269 20.3433 16.2585 20.2866C16.5123 20.1375 16.7243 19.9178 16.8724 19.6503C17.0204 19.3829 17.0991 19.0775 17.1 18.7661V14.4046C17.1 13.6815 16.6886 13.0604 16.1054 12.7961ZM3.72005 18.7661C3.05731 18.7661 2.52005 18.2289 2.52005 17.5661V15.6046C2.52005 14.9419 3.05731 14.4046 3.72005 14.4046H14.2805C14.9431 14.4046 15.4802 14.9416 15.4805 15.6042L15.4812 17.5657C15.4815 18.2286 14.9441 18.7661 14.2812 18.7661H3.72005ZM5.30726 9.17076H12.692C13.0411 9.17076 13.3506 9.40978 13.4607 9.76742L14.3566 12.66H3.64352L4.53857 9.76742C4.59231 9.59365 4.69548 9.44251 4.83345 9.33542C4.97142 9.22833 5.13719 9.17072 5.30726 9.17076Z" fill="#069550"/>
<path d="M5.35506 17.8938C6.02609 17.8938 6.57006 17.308 6.57006 16.5854C6.57006 15.8627 6.02609 15.2769 5.35506 15.2769C4.68403 15.2769 4.14006 15.8627 4.14006 16.5854C4.14006 17.308 4.68403 17.8938 5.35506 17.8938Z" fill="white"/>
<path d="M12.6451 17.8938C13.3161 17.8938 13.8601 17.308 13.8601 16.5854C13.8601 15.8627 13.3161 15.2769 12.6451 15.2769C11.9741 15.2769 11.4301 15.8627 11.4301 16.5854C11.4301 17.308 11.9741 17.8938 12.6451 17.8938Z" fill="white"/>
</g>
<defs>
<clipPath id="clip0_458_111551">
<rect x="7.20002" width="16.8" height="16.8" rx="8.4" fill="white"/>
</clipPath>
<clipPath id="clip1_458_111551">
<rect width="18" height="17.4462" fill="white" transform="translate(2.28882e-05 6.55383)"/>
</clipPath>
</defs>
</svg>
