<svg width="40" height="40" viewBox="0 0 40 40" fill="none" xmlns="http://www.w3.org/2000/svg">
<g clip-path="url(#clip0_115_141143)">
<rect width="40" height="40" rx="20" fill="#EFF2F3"/>
<path d="M28.1416 9.92479L19.9975 7L11.9325 9.88512C10.9031 10.3715 10 10.6626 10 11.6218V16.3973C10 19.7136 10.8689 23 12.6567 25.9013C14.1611 28.3427 16.4906 30.8566 20.0766 32.4545C23.3732 31.3837 25.834 28.529 27.3384 26.0876C29.1262 23.1863 29.9951 19.8999 29.9951 16.5836V12.2893C29.9951 10.9217 29.2701 10.2536 28.1416 9.92479Z" fill="#069550"/>
<path d="M20.0766 29.6835C17.2393 28.4193 15.3963 26.388 14.2062 24.4563C12.7918 22.1607 12.1043 19.5606 12.1043 16.9368V13.5869C12.1043 12.828 12.562 12.1172 13.4711 11.6929L19.9992 9.25207L19.9978 7L11.9328 9.88512C11.0864 10.255 10.0003 10.6626 10.0003 11.6218V16.3973C10.0003 19.7136 10.8691 23 12.657 25.9013C14.1614 28.3427 16.4908 30.8566 20.0769 32.4545V29.6835H20.0766Z" fill="#FFB900"/>
<path d="M20.0766 32.4548C20.6478 32.2636 21.1725 32.0433 21.6765 31.7687C23.0285 31.0322 24.1819 30.0205 25.0622 29.1051C26.0468 28.0811 26.7805 26.9745 27.4174 25.941C29.2052 23.0397 30.0741 19.7532 29.9951 16.3453L30 12.4026C29.9951 10.4394 28.988 10.2944 28.1416 9.92479L19.9975 7L19.9989 9.25207L26.603 11.7323C27.5121 12.1566 27.9698 12.8674 27.9698 13.6263V16.9762C27.9698 19.6 27.2823 22.2001 25.8679 24.4957C24.6776 26.4274 22.9138 28.4193 20.0766 29.6835V32.4548Z" fill="#FFB900"/>
<path opacity="0.5" d="M22.1579 16.7221L22.167 16.0775C22.167 14.9116 21.2185 13.9631 20.0525 13.9631C18.8865 13.9631 17.9381 14.9116 17.9381 16.0743L17.9287 16.7308C17.3581 16.8154 16.9198 17.3056 16.9198 17.8998V21.7014C16.9198 22.355 17.4495 22.8846 18.103 22.8846H22.0496C22.7032 22.8846 23.2328 22.355 23.2328 21.7014V17.8998C23.2331 17.2829 22.7606 16.7768 22.1579 16.7221ZM20.6164 20.7551H19.5842L19.7453 20.0096C19.5666 19.8986 19.4471 19.701 19.4471 19.4753C19.4471 19.1279 19.7289 18.8461 20.0766 18.8461C20.424 18.8461 20.7058 19.1279 20.7058 19.4753C20.7058 19.6931 20.5953 19.8849 20.4273 19.9979C20.5004 20.2868 20.6164 20.7551 20.6164 20.7551ZM21.7024 16.7166H18.3848L18.3938 16.0775C18.3938 15.163 19.138 14.4186 20.0528 14.4186C20.9676 14.4186 21.7117 15.1627 21.7117 16.0743L21.7024 16.7166Z" fill="white"/>
<path d="M13.4238 16.6756C13.4057 16.678 13.3494 16.4269 13.3018 16.0141C13.2528 15.6018 13.2167 15.027 13.2356 14.3928C13.2446 14.0758 13.2657 13.774 13.2944 13.5007C13.3207 13.2277 13.3707 12.9716 13.4763 12.7801C13.5797 12.5875 13.7245 12.4726 13.8331 12.4217C13.9436 12.3703 14.0125 12.3728 14.0133 12.3807C14.027 12.3985 13.7381 12.4554 13.5663 12.8255C13.4815 13.0045 13.444 13.2425 13.4252 13.513C13.4038 13.7844 13.3869 14.0834 13.3781 14.3972C13.3595 15.0251 13.3792 15.5941 13.4022 16.0058C13.4238 16.4176 13.4449 16.6728 13.4238 16.6756Z" fill="white"/>
<path d="M13.5436 18.7545C13.5042 18.7553 13.4684 18.5591 13.4637 18.3162C13.4591 18.0733 13.487 17.876 13.5264 17.8752C13.5658 17.8744 13.6013 18.0705 13.6063 18.3135C13.6109 18.5561 13.5827 18.7536 13.5436 18.7545Z" fill="white"/>
</g>
<defs>
<clipPath id="clip0_115_141143">
<rect width="40" height="40" fill="white"/>
</clipPath>
</defs>
</svg>
