<svg width="40" height="40" viewBox="0 0 40 40" fill="none" xmlns="http://www.w3.org/2000/svg">
<g clip-path="url(#clip0_177_22705)">
<rect width="40" height="40" rx="20" fill="#01160C"/>
<path d="M8.13333 25.1C7.06667 24.3 7.06667 22.7 8.13333 21.9L18.8 13.9C19.5111 13.3667 20.4889 13.3667 21.2 13.9L31.8667 21.9C32.9333 22.7 32.9333 24.3 31.8667 25.1L21.2 33.1C20.4889 33.6333 19.5111 33.6333 18.8 33.1L8.13333 25.1Z" fill="#FFB900"/>
<path d="M8.13333 18.1C7.06667 17.3 7.06667 15.7 8.13333 14.9L18.8 6.9C19.5111 6.36667 20.4889 6.36667 21.2 6.9L31.8667 14.9C32.9333 15.7 32.9333 17.3 31.8667 18.1L21.2 26.1C20.4889 26.6333 19.5111 26.6333 18.8 26.1L8.13333 18.1Z" fill="#069550"/>
</g>
<defs>
<clipPath id="clip0_177_22705">
<rect width="40" height="40" fill="white"/>
</clipPath>
</defs>
</svg>
